# Blender v2.82 (sub 7) OBJ File: 'end.blend'
# www.blender.org
mtllib number_4.mtl
g number_4
v 0.788520 6.795534 -1.042217
v 0.788520 6.795534 -0.632843
v 0.788520 2.682302 2.729870
v 0.788520 2.243687 2.729870
v 0.788520 2.243687 -0.087011
v 0.788520 0.060360 -0.087011
v 0.788520 0.060360 -1.042217
v 0.788520 2.243687 -1.042217
v 0.788520 2.243687 -1.753748
v 0.788520 3.101422 -1.753748
v 0.788520 3.101422 -1.042217
v 0.788520 4.994978 -0.080450
v 0.788520 3.101422 -0.087011
v 0.788520 3.101422 1.453012
vt 0.134110 0.798770
vt 0.173083 0.830841
vt 0.180743 0.855811
vt 0.186420 0.855811
vt 0.186420 0.804582
vt 0.173174 0.804582
vt 0.196288 0.792687
vt 0.196288 0.804582
vt 0.186420 0.762410
vt 0.173174 0.792687
vt 0.173174 0.762410
vt 0.186420 0.792687
vt 0.151817 0.804582
vt 0.134110 0.792687
vn 1.0000 -0.0000 0.0000
usemtl Material
s off
f 3/1/1 12/2/1 2/3/1
f 2/3/1 12/2/1 1/4/1
f 11/5/1 12/2/1 13/6/1
f 11/5/1 9/7/1 10/8/1
f 7/9/1 5/10/1 6/11/1
f 13/6/1 8/12/1 11/5/1
f 14/13/1 5/10/1 13/6/1
f 4/14/1 14/13/1 3/1/1
f 3/1/1 14/13/1 12/2/1
f 11/5/1 1/4/1 12/2/1
f 11/5/1 8/12/1 9/7/1
f 7/9/1 8/12/1 5/10/1
f 13/6/1 5/10/1 8/12/1
f 14/13/1 4/14/1 5/10/1
