# Blender v2.82 (sub 7) OBJ File: 'end.blend'
# www.blender.org
mtllib number_7.mtl
g number_7
v 0.788520 6.707811 -2.264439
v 0.788520 6.707811 2.033989
v 0.788520 5.801341 2.033989
v 0.788520 5.801341 -0.841373
v 0.788520 0.343023 1.595371
v 0.788520 -0.027364 0.747383
vt 0.379180 0.266715
vt 0.481322 0.234514
vt 0.531874 0.266715
vt 0.424884 0.027459
vt 0.394761 0.040617
vt 0.379180 0.234514
vn 1.0000 0.0000 0.0000
usemtl EndMat
s off
f 2/1/1 4/2/1 1/3/1
f 6/4/1 4/2/1 5/5/1
f 2/1/1 3/6/1 4/2/1
f 6/4/1 1/3/1 4/2/1
