# Blender v2.82 (sub 7) OBJ File: 'end.blend'
# www.blender.org
mtllib number_9.mtl
g number_9
v 0.788520 -0.049159 0.594528
v 0.788520 1.343013 -0.917137
v 0.788518 3.353900 -1.911167
v 0.788520 5.484347 -1.832314
v 0.788520 6.814242 -0.239254
v 0.788520 6.592584 1.031197
v 0.788520 5.071317 2.094528
v 0.788520 3.442882 1.560993
v 0.788520 2.914378 -0.212444
v 0.788520 3.170988 -0.820839
v 0.788518 2.224034 -0.429817
v 0.788518 0.651355 1.155163
v 0.788520 5.445570 0.976273
v 0.788520 5.897740 -0.035217
v 0.788520 5.001427 -1.024956
v 0.788520 4.127207 -1.031303
v 0.788518 3.774765 -0.005920
v 0.788518 4.368819 1.038143
vt 0.360301 0.847921
vt 0.373617 0.839244
vt 0.376165 0.850688
vt 0.396057 0.834082
vt 0.385976 0.828052
vt 0.386055 0.817136
vt 0.378544 0.793372
vt 0.397041 0.807480
vt 0.383427 0.805196
vt 0.358753 0.773735
vt 0.384629 0.782371
vt 0.373251 0.812735
vt 0.353686 0.808591
vt 0.375830 0.801992
vt 0.347024 0.828925
vt 0.360987 0.833598
vt 0.360214 0.820153
vt 0.365754 0.764987
vn 1.0000 0.0000 0.0000
usemtl Material
s off
f 6/1/1 14/2/1 5/3/1
f 4/4/1 14/2/1 15/5/1
f 16/6/1 4/4/1 15/5/1
f 11/7/1 3/8/1 10/9/1
f 12/10/1 2/11/1 11/7/1
f 16/6/1 10/9/1 3/8/1
f 17/12/1 8/13/1 9/14/1
f 7/15/1 13/16/1 6/1/1
f 18/17/1 7/15/1 8/13/1
f 9/14/1 10/9/1 17/12/1
f 6/1/1 13/16/1 14/2/1
f 4/4/1 5/3/1 14/2/1
f 16/6/1 3/8/1 4/4/1
f 11/7/1 2/11/1 3/8/1
f 12/10/1 1/18/1 2/11/1
f 16/6/1 17/12/1 10/9/1
f 17/12/1 18/17/1 8/13/1
f 18/17/1 13/16/1 7/15/1
