# Blender v2.82 (sub 7) OBJ File: 'end.blend'
# www.blender.org
mtllib number_3.mtl
g number_3
v 0.788521 5.619065 1.457926
v 0.788520 5.909242 0.446531
v 0.788520 5.322180 -0.753602
v 0.788520 4.664486 -0.808172
v 0.788520 3.970706 -0.022393
v 0.788520 3.929917 0.496435
v 0.788520 3.052687 0.496435
v 0.788520 3.024925 -0.052649
v 0.788520 2.617114 -0.748346
v 0.788520 1.867282 -0.936793
v 0.788520 1.254397 -0.734475
v 0.788520 0.899252 0.553344
v 0.788520 1.355849 1.616520
v 0.788520 0.334380 1.621448
v 0.788520 0.058562 -0.517869
v 0.788520 0.614180 -1.401515
v 0.788520 1.531100 -1.857481
v 0.788520 2.427419 -1.848967
v 0.788520 3.200478 -1.521965
v 0.788520 3.569267 -0.950787
v 0.788520 4.042951 -1.518078
v 0.788520 5.473954 -1.750906
v 0.788520 6.419809 -1.196440
v 0.788520 6.802756 -0.034484
v 0.788521 6.517566 1.460752
vt 0.111295 0.769735
vt 0.125299 0.777141
vt 0.111359 0.783127
vt 0.142183 0.781797
vt 0.139343 0.766118
vt 0.150929 0.773403
vt 0.156907 0.785425
vt 0.144836 0.789833
vt 0.156796 0.797177
vt 0.142365 0.799664
vt 0.165089 0.808439
vt 0.133244 0.805011
vt 0.126045 0.805375
vt 0.132847 0.817411
vt 0.126045 0.816876
vt 0.143150 0.826507
vt 0.145019 0.812147
vt 0.152457 0.818358
vt 0.155510 0.837120
vt 0.142434 0.835130
vt 0.148240 0.849521
vt 0.133006 0.854542
vt 0.126699 0.842827
vt 0.113402 0.850803
vt 0.113439 0.839023
vn 1.0000 0.0000 0.0000
usemtl Material
s off
f 14/1/1 12/2/1 13/3/1
f 11/4/1 15/5/1 16/6/1
f 11/4/1 17/7/1 10/8/1
f 10/8/1 18/9/1 9/10/1
f 9/10/1 19/11/1 8/12/1
f 7/13/1 5/14/1 6/15/1
f 4/16/1 20/17/1 21/18/1
f 4/16/1 22/19/1 3/20/1
f 23/21/1 3/20/1 22/19/1
f 24/22/1 2/23/1 23/21/1
f 25/24/1 2/23/1 24/22/1
f 19/11/1 20/17/1 8/12/1
f 8/12/1 20/17/1 5/14/1
f 14/1/1 15/5/1 12/2/1
f 11/4/1 12/2/1 15/5/1
f 11/4/1 16/6/1 17/7/1
f 10/8/1 17/7/1 18/9/1
f 9/10/1 18/9/1 19/11/1
f 7/13/1 8/12/1 5/14/1
f 4/16/1 5/14/1 20/17/1
f 4/16/1 21/18/1 22/19/1
f 23/21/1 2/23/1 3/20/1
f 25/24/1 1/25/1 2/23/1
