# Blender v2.82 (sub 7) OBJ File: 'end.blend'
# www.blender.org
mtllib number_9.mtl
g number_9
v 0.581415 -0.060663 1.143964
v 0.581415 2.723682 -1.879366
v 0.581411 6.745456 -3.867426
v 0.581415 11.006351 -3.709719
v 0.581415 13.666142 -0.523600
v 0.581415 13.222824 2.017301
v 0.581415 10.180290 4.143964
v 0.581415 6.923420 3.076894
v 0.581415 5.866411 -0.469981
v 0.581415 6.379632 -1.686770
v 0.581411 4.485724 -0.904726
v 0.581411 1.340365 2.265234
v 0.581415 10.928797 1.907453
v 0.581415 11.833138 -0.115527
v 0.581415 10.040510 -2.095004
v 0.581415 8.292069 -2.107699
v 0.581411 7.587186 -0.056933
v 0.581411 8.775294 2.031194
vt 0.556929 0.968937
vt 0.599518 0.941187
vt 0.607666 0.977789
vt 0.671288 0.924678
vt 0.639045 0.905392
vt 0.639298 0.870478
vt 0.615277 0.794471
vt 0.674437 0.839595
vt 0.630893 0.832290
vt 0.551978 0.731664
vt 0.634739 0.759286
vt 0.598347 0.856403
vt 0.535770 0.843148
vt 0.606595 0.822042
vt 0.514462 0.908183
vt 0.559122 0.923129
vt 0.556651 0.880127
vt 0.574367 0.703688
vn 1.0000 0.0000 0.0000
usemtl EndMat
s off
f 6/1/1 14/2/1 5/3/1
f 4/4/1 14/2/1 15/5/1
f 16/6/1 4/4/1 15/5/1
f 11/7/1 3/8/1 10/9/1
f 12/10/1 2/11/1 11/7/1
f 16/6/1 10/9/1 3/8/1
f 17/12/1 8/13/1 9/14/1
f 7/15/1 13/16/1 6/1/1
f 18/17/1 7/15/1 8/13/1
f 9/14/1 10/9/1 17/12/1
f 6/1/1 13/16/1 14/2/1
f 4/4/1 5/3/1 14/2/1
f 16/6/1 3/8/1 4/4/1
f 11/7/1 2/11/1 3/8/1
f 12/10/1 1/18/1 2/11/1
f 16/6/1 17/12/1 10/9/1
f 17/12/1 18/17/1 8/13/1
f 18/17/1 13/16/1 7/15/1
