# Blender v2.82 (sub 7) OBJ File: 'end.blend'
# www.blender.org
mtllib number_2.mtl
g number_2
v 0.581416 1.971316 -4.273520
v 0.581415 2.002136 0.685930
v 0.581418 6.625187 -2.603037
v 0.581416 8.691245 -3.296887
v 0.581416 10.937065 -3.145966
v 0.581415 12.866720 -1.854172
v 0.581418 13.661617 0.409486
v 0.581415 13.433933 2.036554
v 0.581418 12.441692 3.846445
v 0.581418 10.008086 3.867559
v 0.581415 11.570459 2.098323
v 0.581418 11.677311 0.069164
v 0.581415 10.713630 -1.047936
v 0.581415 9.068942 -1.460774
v 0.581415 7.300270 -0.970312
v 0.581415 0.221414 4.186193
v 0.581416 0.158375 -4.273520
vt 0.495209 0.965833
vt 0.530982 0.948004
vt 0.532246 0.986138
vt 0.572505 0.950191
vt 0.565541 0.990797
vt 0.611864 0.974531
vt 0.595365 0.930471
vt 0.603813 0.896815
vt 0.638298 0.935043
vt 0.593777 0.860621
vt 0.641387 0.889086
vt 0.559884 0.752203
vt 0.488257 0.715763
vt 0.661372 0.714473
vt 0.661372 0.751572
vt 0.494777 0.916033
vt 0.627188 0.846807
vn 1.0000 -0.0000 -0.0000
usemtl EndMat
s off
f 9/1/1 11/2/1 8/3/1
f 8/3/1 12/4/1 7/5/1
f 6/6/1 12/4/1 13/7/1
f 14/8/1 5/9/1 13/7/1
f 5/9/1 6/6/1 13/7/1
f 15/10/1 4/11/1 14/8/1
f 2/12/1 15/10/1 16/13/1
f 2/12/1 17/14/1 1/15/1
f 9/1/1 10/16/1 11/2/1
f 8/3/1 11/2/1 12/4/1
f 6/6/1 7/5/1 12/4/1
f 14/8/1 4/11/1 5/9/1
f 15/10/1 3/17/1 4/11/1
f 2/12/1 3/17/1 15/10/1
f 2/12/1 16/13/1 17/14/1
