# Blender v2.82 (sub 7) OBJ File: 'end.blend'
# www.blender.org
mtllib number_2.mtl
g number_2
v 0.788521 0.966830 -2.114214
v 0.788520 0.982240 0.365511
v 0.788522 3.293766 -1.278973
v 0.788521 4.326795 -1.625897
v 0.788521 5.449705 -1.550437
v 0.788520 6.414532 -0.904540
v 0.788522 6.811980 0.227289
v 0.788520 6.698138 1.040823
v 0.788522 6.202018 1.945768
v 0.788522 4.985215 1.956326
v 0.788520 5.766402 1.071708
v 0.788522 5.819828 0.057128
v 0.788520 5.337987 -0.501422
v 0.788520 4.515643 -0.707841
v 0.788520 3.631307 -0.462610
v 0.788520 0.091879 2.115643
v 0.788521 0.060360 -2.114214
vt 0.088632 0.251119
vt 0.119329 0.235820
vt 0.120413 0.268542
vt 0.154960 0.237697
vt 0.148984 0.272541
vt 0.188733 0.258582
vt 0.174576 0.220775
vt 0.181825 0.191894
vt 0.211417 0.224698
vt 0.173213 0.160837
vt 0.214067 0.185262
vt 0.144130 0.067804
vt 0.082666 0.036535
vt 0.231216 0.035428
vt 0.231216 0.067262
vt 0.088261 0.208386
vt 0.201883 0.148983
vn 1.0000 -0.0000 -0.0000
usemtl EndMat
s off
f 9/1/1 11/2/1 8/3/1
f 8/3/1 12/4/1 7/5/1
f 6/6/1 12/4/1 13/7/1
f 14/8/1 5/9/1 13/7/1
f 5/9/1 6/6/1 13/7/1
f 15/10/1 4/11/1 14/8/1
f 2/12/1 15/10/1 16/13/1
f 2/12/1 17/14/1 1/15/1
f 9/1/1 10/16/1 11/2/1
f 8/3/1 11/2/1 12/4/1
f 6/6/1 7/5/1 12/4/1
f 14/8/1 4/11/1 5/9/1
f 15/10/1 3/17/1 4/11/1
f 2/12/1 3/17/1 15/10/1
f 2/12/1 16/13/1 17/14/1
