# Blender v2.82 (sub 7) OBJ File: 'end.blend'
# www.blender.org
mtllib number_6.mtl
g number_6
v 0.788520 6.795534 -0.606693
v 0.788520 4.564724 1.504547
v 0.788520 2.326281 2.066822
v 0.788519 1.207400 1.859873
v 0.788520 0.012220 0.373007
v 0.788520 -0.008341 -0.479193
v 0.788520 1.316116 -1.961992
v 0.788520 2.360665 -2.033747
v 0.788520 3.816702 -0.817869
v 0.788520 3.879826 0.214579
v 0.788520 3.621614 0.877077
v 0.788520 5.103161 0.042627
v 0.788520 6.068480 -1.177805
v 0.788520 2.637379 1.095383
v 0.788520 3.018337 0.173380
v 0.788519 2.762593 -0.750563
v 0.788519 1.582714 -1.049086
v 0.788519 0.866509 -0.087690
v 0.788520 1.596380 1.025034
vt 0.257248 0.853456
vt 0.248459 0.830550
vt 0.264977 0.843616
vt 0.237166 0.810498
vt 0.228673 0.823263
vt 0.221063 0.792967
vt 0.246690 0.802333
vt 0.246132 0.813993
vt 0.235163 0.783088
vt 0.223864 0.777823
vt 0.234211 0.797177
vt 0.260106 0.813139
vt 0.259195 0.798872
vt 0.276562 0.793432
vt 0.263235 0.782903
vt 0.275591 0.779294
vt 0.255522 0.761369
vt 0.243988 0.761647
vt 0.250223 0.773209
vn 1.0000 0.0000 0.0000
usemtl Material
s off
f 1/1/1 12/2/1 13/3/1
f 11/4/1 2/5/1 3/6/1
f 11/4/1 15/7/1 10/8/1
f 19/9/1 3/6/1 4/10/1
f 3/6/1 14/11/1 11/4/1
f 9/12/1 15/7/1 16/13/1
f 8/14/1 16/13/1 17/15/1
f 8/14/1 17/15/1 7/16/1
f 17/15/1 6/17/1 7/16/1
f 19/9/1 5/18/1 18/19/1
f 5/18/1 6/17/1 18/19/1
f 1/1/1 2/5/1 12/2/1
f 11/4/1 12/2/1 2/5/1
f 11/4/1 14/11/1 15/7/1
f 19/9/1 14/11/1 3/6/1
f 9/12/1 10/8/1 15/7/1
f 8/14/1 9/12/1 16/13/1
f 17/15/1 18/19/1 6/17/1
f 19/9/1 4/10/1 5/18/1
