# Blender v2.82 (sub 7) OBJ File: 'end.blend'
# www.blender.org
mtllib number_9.mtl
g number_9
v 0.788520 -0.049159 0.594528
v 0.788520 1.343013 -0.917137
v 0.788518 3.353900 -1.911167
v 0.788520 5.484347 -1.832314
v 0.788520 6.814242 -0.239254
v 0.788520 6.592584 1.031197
v 0.788520 5.071317 2.094528
v 0.788520 3.442882 1.560993
v 0.788520 2.914378 -0.212444
v 0.788520 3.170988 -0.820839
v 0.788518 2.224034 -0.429817
v 0.788518 0.651355 1.155163
v 0.788520 5.445570 0.976273
v 0.788520 5.897740 -0.035217
v 0.788520 5.001427 -1.024956
v 0.788520 4.127207 -1.031303
v 0.788518 3.774765 -0.005920
v 0.788518 4.368819 1.038143
vt 0.576164 0.255736
vt 0.612709 0.231924
vt 0.619702 0.263332
vt 0.674295 0.217757
vt 0.646627 0.201207
vt 0.646845 0.171248
vt 0.626232 0.106027
vt 0.676998 0.144747
vt 0.639632 0.138479
vt 0.571915 0.052132
vt 0.642932 0.075835
vt 0.611705 0.159170
vt 0.558008 0.147797
vt 0.618783 0.129685
vt 0.539724 0.203602
vt 0.578046 0.216428
vt 0.575926 0.179528
vt 0.591128 0.028125
vn 1.0000 0.0000 0.0000
usemtl EndMat
s off
f 6/1/1 14/2/1 5/3/1
f 4/4/1 14/2/1 15/5/1
f 16/6/1 4/4/1 15/5/1
f 11/7/1 3/8/1 10/9/1
f 12/10/1 2/11/1 11/7/1
f 16/6/1 10/9/1 3/8/1
f 17/12/1 8/13/1 9/14/1
f 7/15/1 13/16/1 6/1/1
f 18/17/1 7/15/1 8/13/1
f 9/14/1 10/9/1 17/12/1
f 6/1/1 13/16/1 14/2/1
f 4/4/1 5/3/1 14/2/1
f 16/6/1 3/8/1 4/4/1
f 11/7/1 2/11/1 3/8/1
f 12/10/1 1/18/1 2/11/1
f 16/6/1 17/12/1 10/9/1
f 17/12/1 18/17/1 8/13/1
f 18/17/1 13/16/1 7/15/1
