# Blender v2.82 (sub 7) OBJ File: 'end.blend'
# www.blender.org
mtllib number_6.mtl
g number_6
v 0.788520 6.795534 -0.606693
v 0.788520 4.564724 1.504547
v 0.788520 2.326281 2.066822
v 0.788519 1.207400 1.859873
v 0.788520 0.012220 0.373007
v 0.788520 -0.008341 -0.479193
v 0.788520 1.316116 -1.961992
v 0.788520 2.360665 -2.033747
v 0.788520 3.816702 -0.817869
v 0.788520 3.879826 0.214579
v 0.788520 3.621614 0.877077
v 0.788520 5.103161 0.042627
v 0.788520 6.068480 -1.177805
v 0.788520 2.637379 1.095383
v 0.788520 3.018337 0.173380
v 0.788519 2.762593 -0.750563
v 0.788519 1.582714 -1.049086
v 0.788519 0.866509 -0.087690
v 0.788520 1.596380 1.025034
vt 0.434513 0.266779
vt 0.413937 0.213149
vt 0.452611 0.243739
vt 0.387494 0.166200
vt 0.367610 0.196087
vt 0.349792 0.125153
vt 0.409793 0.147083
vt 0.408488 0.174383
vt 0.382805 0.102023
vt 0.356350 0.089696
vt 0.380576 0.135011
vt 0.441205 0.172383
vt 0.439072 0.138979
vt 0.479735 0.126242
vt 0.448532 0.101590
vt 0.477461 0.093142
vt 0.430473 0.051171
vt 0.403467 0.051822
vt 0.418066 0.078894
vn 1.0000 0.0000 0.0000
usemtl EndMat
s off
f 1/1/1 12/2/1 13/3/1
f 11/4/1 2/5/1 3/6/1
f 11/4/1 15/7/1 10/8/1
f 19/9/1 3/6/1 4/10/1
f 3/6/1 14/11/1 11/4/1
f 9/12/1 15/7/1 16/13/1
f 8/14/1 16/13/1 17/15/1
f 8/14/1 17/15/1 7/16/1
f 17/15/1 6/17/1 7/16/1
f 19/9/1 5/18/1 18/19/1
f 5/18/1 6/17/1 18/19/1
f 1/1/1 2/5/1 12/2/1
f 11/4/1 12/2/1 2/5/1
f 11/4/1 14/11/1 15/7/1
f 19/9/1 14/11/1 3/6/1
f 9/12/1 10/8/1 15/7/1
f 8/14/1 9/12/1 16/13/1
f 17/15/1 18/19/1 6/17/1
f 19/9/1 4/10/1 5/18/1
