# Blender v2.82 (sub 7) OBJ File: 'end.blend'
# www.blender.org
mtllib number_6.mtl
g number_6
v 0.581415 13.628725 -1.258479
v 0.581415 9.167105 2.964002
v 0.581415 4.690217 4.088552
v 0.581414 2.452456 3.674654
v 0.581415 0.062096 0.700922
v 0.581415 0.020974 -1.003477
v 0.581415 2.669887 -3.969077
v 0.581415 4.758986 -4.112586
v 0.581415 7.671061 -1.680830
v 0.581415 7.797307 0.384065
v 0.581415 7.280883 1.709062
v 0.581415 10.243979 0.040163
v 0.581415 12.174618 -2.400702
v 0.581415 5.312414 2.145673
v 0.581415 6.074329 0.301668
v 0.581414 5.562842 -1.546217
v 0.581414 3.203084 -2.143263
v 0.581414 1.770673 -0.220473
v 0.581415 3.230417 2.004976
vt 0.593289 0.970426
vt 0.569310 0.907928
vt 0.614380 0.943576
vt 0.538495 0.853215
vt 0.515323 0.888044
vt 0.494558 0.805379
vt 0.564482 0.830936
vt 0.562960 0.862751
vt 0.533031 0.778425
vt 0.502200 0.764060
vt 0.530433 0.816868
vt 0.601088 0.860420
vt 0.598602 0.821492
vt 0.645989 0.806649
vt 0.609626 0.777920
vt 0.643339 0.768075
vt 0.588580 0.719164
vt 0.557109 0.719923
vt 0.574123 0.751471
vn 1.0000 -0.0000 0.0000
usemtl EndMat
s off
f 1/1/1 12/2/1 13/3/1
f 11/4/1 2/5/1 3/6/1
f 11/4/1 15/7/1 10/8/1
f 19/9/1 3/6/1 4/10/1
f 3/6/1 14/11/1 11/4/1
f 9/12/1 15/7/1 16/13/1
f 8/14/1 16/13/1 17/15/1
f 8/14/1 17/15/1 7/16/1
f 17/15/1 6/17/1 7/16/1
f 19/9/1 5/18/1 18/19/1
f 5/18/1 6/17/1 18/19/1
f 1/1/1 2/5/1 12/2/1
f 11/4/1 12/2/1 2/5/1
f 11/4/1 14/11/1 15/7/1
f 19/9/1 14/11/1 3/6/1
f 9/12/1 10/8/1 15/7/1
f 8/14/1 9/12/1 16/13/1
f 17/15/1 18/19/1 6/17/1
f 19/9/1 4/10/1 5/18/1
