# Blender v2.82 (sub 7) OBJ File: 'end.blend'
# www.blender.org
mtllib number_7.mtl
g number_7
v 0.581415 13.453279 -4.573969
v 0.581415 13.453279 4.022886
v 0.581415 11.640337 4.022886
v 0.581415 11.640337 -1.727839
v 0.581415 0.723701 3.145650
v 0.581415 -0.017071 1.449674
vt 0.498078 0.973766
vt 0.617112 0.936240
vt 0.676023 0.973766
vt 0.551340 0.694945
vt 0.516236 0.710278
vt 0.498078 0.936240
vn 1.0000 -0.0000 0.0000
usemtl EndMat
s off
f 2/1/1 4/2/1 1/3/1
f 6/4/1 4/2/1 5/5/1
f 2/1/1 3/6/1 4/2/1
f 6/4/1 1/3/1 4/2/1
