# Blender v2.82 (sub 7) OBJ File: 'end.blend'
# www.blender.org
mtllib skull.mtl
g skull
v 0.637232 3.574025 -4.579410
v 0.581418 -0.691792 -5.190660
v 0.581418 -0.835589 4.583533
v 0.637232 14.682195 -4.579410
v 0.581418 14.582669 4.125638
v 0.637232 5.346345 -7.149660
v 0.637232 11.928263 -7.098892
v 0.581418 11.828737 6.645122
v 0.581418 5.246821 6.695890
v 0.581418 3.474501 4.125638
v 0.581418 -1.208527 -3.879377
v 0.581418 1.724794 -2.657603
v 0.581418 1.688845 -0.214054
v 0.581418 1.652896 2.229494
v 0.581418 -1.316375 3.451268
v 0.637232 8.725321 -8.118101
v 0.581418 8.625796 7.664331
v 0.637232 15.564849 -0.004527
v 1.224858 9.358422 4.656840
v 1.224858 8.164469 4.976758
v 1.224858 6.970515 4.656840
v 1.224858 6.096481 3.782804
v 1.224858 5.776561 2.588852
v 1.224858 6.096481 1.394898
v 1.224858 6.970512 0.520864
v 1.224858 8.164466 0.200943
v 1.224858 9.358420 0.520862
v 1.224858 9.358422 -1.360127
v 1.224858 8.164469 -1.040210
v 1.224858 6.970515 -1.360127
v 1.224858 6.096481 -2.234164
v 1.224858 5.776561 -3.428116
v 1.224858 6.096481 -4.622069
v 1.224858 6.970512 -5.496104
v 1.224858 8.164466 -5.816024
v 1.224858 9.358420 -5.496106
v 0.581418 -1.556040 2.030064
v 0.581418 -1.545091 0.329908
v 0.581418 -1.547600 -2.356782
v 0.581418 -1.560673 -0.774987
v 1.224858 5.258309 0.874002
v 1.224858 3.183187 -0.273943
v 1.224858 5.275575 -1.409242
vt 0.612329 0.714192
vt 0.601779 0.735199
vt 0.622500 0.735113
vt 0.513575 0.915277
vt 0.620646 0.947560
vt 0.645024 0.916614
vt 0.538666 0.805620
vt 0.646271 0.832444
vt 0.621927 0.805931
vt 0.504184 0.875714
vt 0.655127 0.877466
vt 0.581058 0.735285
vt 0.539617 0.735454
vt 0.560338 0.735370
vt 0.550168 0.714448
vt 0.573692 0.720131
vt 0.513851 0.831087
vt 0.537384 0.947249
vt 0.581016 0.961129
vt 0.095051 0.955626
vt 0.057394 0.945536
vt 0.047303 0.907878
vt 0.095051 0.955626
vt 0.057394 0.945536
vt 0.047303 0.907878
vt 0.589047 0.719379
vt 0.594072 0.719344
vt 0.112528 0.945536
vt 0.074870 0.880311
vt 0.095051 0.880311
vt 0.567970 0.720174
vt 0.095051 0.880311
vt 0.112528 0.945536
vt 0.074870 0.955626
vt 0.047303 0.928059
vt 0.057393 0.890402
vt 0.074870 0.880311
vt 0.095051 0.880311
vt 0.112528 0.945536
vt 0.074870 0.955626
vt 0.047303 0.928059
vt 0.057393 0.890402
vt 0.074870 0.880311
vn 1.0000 0.0000 0.0000
vn 1.0000 0.0037 0.0041
vn 0.9999 -0.0091 0.0063
vn 1.0000 0.0011 0.0035
vn 0.9999 -0.0152 0.0062
vn 0.9998 -0.0152 0.0145
vn 0.9995 -0.0306 -0.0005
vn 1.0000 -0.0012 0.0040
vn 0.9995 -0.0314 0.0060
vn 1.0000 -0.0058 0.0063
vn 1.0000 0.0059 0.0041
vn 1.0000 -0.0013 0.0041
vn 1.0000 0.0010 0.0035
usemtl EndMat
s off
f 15/1/1 14/2/1 3/3/1
f 7/4/2 5/5/2 8/6/2
f 1/7/3 9/8/3 10/9/3
f 16/10/4 8/6/4 17/11/4
f 13/12/1 10/9/1 14/2/1
f 13/12/5 1/7/5 10/9/5
f 2/13/6 1/7/6 12/14/6
f 11/15/1 2/13/1 12/14/1
f 10/9/1 3/3/1 14/2/1
f 40/16/1 12/14/1 13/12/1
f 12/14/7 1/7/7 13/12/7
f 6/17/8 17/11/8 9/8/8
f 5/5/9 4/18/9 18/19/9
f 20/20/1 22/21/1 24/22/1
f 29/23/1 31/24/1 33/25/1
f 38/26/1 14/2/1 37/27/1
f 41/28/1 42/29/1 43/30/1
f 7/4/10 4/18/10 5/5/10
f 1/7/11 6/17/11 9/8/11
f 16/10/12 7/4/12 8/6/12
f 40/16/1 39/31/1 12/14/1
f 6/17/13 16/10/13 17/11/13
f 27/32/1 19/33/1 20/20/1
f 20/20/1 21/34/1 22/21/1
f 22/21/1 23/35/1 24/22/1
f 24/22/1 25/36/1 26/37/1
f 26/37/1 27/32/1 24/22/1
f 27/32/1 20/20/1 24/22/1
f 36/38/1 28/39/1 29/23/1
f 29/23/1 30/40/1 31/24/1
f 31/24/1 32/41/1 33/25/1
f 33/25/1 34/42/1 35/43/1
f 35/43/1 36/38/1 33/25/1
f 36/38/1 29/23/1 33/25/1
f 38/26/1 13/12/1 14/2/1
