# Blender v2.82 (sub 7) OBJ File: 'end.blend'
# www.blender.org
mtllib text_score.mtl
g text_score
v 1.826608 33.047829 -20.497524
v 1.826606 32.841007 -24.755697
v 1.826602 31.572754 -23.806877
v 1.826602 31.009377 -21.837065
v 1.826604 31.051157 -19.928516
v 1.826604 29.979588 -19.758728
v 1.826602 29.967358 -21.749123
v 1.826602 30.737617 -25.447432
v 1.826602 29.908146 -25.208673
v 1.826602 27.369198 -21.671545
v 1.826603 28.031830 -17.349148
v 1.826603 29.690338 -16.028957
v 1.826603 32.126301 -17.525887
v 1.826607 34.028576 -16.721151
v 1.826607 35.964291 -17.463831
v 1.826608 37.583504 -20.072159
v 1.826606 38.217121 -24.558228
v 1.826606 33.833416 -25.887951
v 1.826608 33.977573 -19.715939
v 1.826607 33.717094 -6.917837
v 1.826607 36.216736 -6.219479
v 1.826607 37.556015 -9.541172
v 1.826607 37.444847 -13.025063
v 1.826607 34.805763 -15.685863
v 1.826607 33.476349 -16.012177
v 1.826603 31.722342 -15.041537
v 1.826603 30.319208 -12.068484
v 1.826603 28.904039 -15.300912
v 1.826603 27.005995 -12.436532
v 1.826603 28.026241 -10.878195
v 1.826603 30.053474 -9.441339
v 1.826603 26.948997 -8.050190
v 1.826604 29.200571 -5.599073
v 1.826607 33.635838 -13.130938
v 1.826608 33.840782 -10.822506
v 1.826603 31.341131 -9.805764
v 1.826603 32.067593 -12.211590
v 1.826607 35.362717 -4.910598
v 1.826604 30.898684 -4.544718
v 1.826604 28.126558 -2.258062
v 1.826604 26.884981 0.345417
v 1.826604 27.805014 2.441789
v 1.826604 29.858637 4.325090
v 1.826608 34.361904 3.459009
v 1.826608 36.583359 1.323636
v 1.826608 36.643692 0.548849
v 1.826608 35.869446 -1.241395
v 1.826608 37.451180 -3.337883
v 1.826604 29.313744 0.441119
v 1.826604 29.536997 -0.380258
v 1.826608 32.555656 -2.012542
v 1.826608 34.488937 -1.714597
v 1.826604 31.509140 0.070320
v 1.826604 26.903109 10.758999
v 1.826605 29.224974 13.865911
v 1.826608 33.800251 12.724589
v 1.826608 37.292988 9.888401
v 1.826608 37.201775 8.187702
v 1.826608 37.713493 4.154757
v 1.826608 32.350033 5.351166
v 1.826608 34.433304 8.337093
v 1.826604 29.605263 10.103159
v 1.826604 30.942389 4.903613
v 1.826604 28.745050 6.189530
v 1.826605 30.081181 14.385985
v 1.826604 27.580683 18.856951
v 1.826606 27.199486 21.740320
v 1.826606 30.537605 23.465233
v 1.826604 30.127371 19.879436
v 1.826604 30.545284 18.151800
v 1.826604 31.095814 17.912914
v 1.826604 31.598755 21.043945
v 1.826608 32.901516 22.688751
v 1.826610 34.502502 22.683615
v 1.826608 37.116669 19.292446
v 1.826609 37.709461 14.669275
v 1.826609 33.527355 14.041682
v 1.826609 33.892494 15.675870
v 1.826608 33.425209 18.601614
v 1.826609 32.741356 15.892745
v 1.826605 31.522654 14.191006
vt 0.291880 0.812420
vt 0.306434 0.797844
vt 0.313828 0.811205
vt 0.311342 0.821332
vt 0.217281 0.841484
vt 0.204915 0.818919
vt 0.229261 0.825575
vt 0.291074 0.841435
vt 0.274295 0.813981
vt 0.187673 0.835333
vt 0.201310 0.829435
vt 0.207185 0.804192
vt 0.226474 0.791569
vt 0.194751 0.781197
vt 0.209055 0.770453
vt 0.188494 0.779496
vt 0.158907 0.783647
vt 0.173253 0.768003
vt 0.181771 0.834873
vt 0.191318 0.796220
vt 0.189223 0.760995
vt 0.109896 0.761133
vt 0.114892 0.781717
vt 0.086229 0.778820
vt 0.144705 0.775164
vt 0.116528 0.840279
vt 0.128345 0.818495
vt 0.129483 0.839584
vt 0.094923 0.813672
vt 0.160205 0.843482
vt 0.151091 0.802625
vt 0.053581 0.788877
vt 0.048209 0.766294
vt 0.082267 0.785342
vt 0.050154 0.810816
vt 0.019059 0.819022
vt 0.019020 0.806826
vt 0.026245 0.763390
vt 0.040420 0.785694
vt 0.013105 0.788819
vt 0.055401 0.793071
vt 0.083753 0.796323
vt 0.070789 0.805606
vt 0.031550 0.796902
vt 0.044892 0.838936
vt 0.080109 0.843451
vt 0.072441 0.814375
vt 0.084890 0.811594
vt 0.283787 0.787155
vt 0.284877 0.800474
vt 0.266550 0.794940
vt 0.286590 0.761917
vt 0.274720 0.769688
vt 0.263774 0.785131
vt 0.234505 0.778634
vt 0.244551 0.813039
vt 0.264535 0.842282
vt 0.239231 0.832080
vt 0.378929 0.847318
vt 0.342042 0.815023
vt 0.389058 0.813925
vt 0.324886 0.830157
vt 0.344755 0.842492
vt 0.325359 0.800921
vt 0.347996 0.807941
vt 0.373205 0.796704
vt 0.380433 0.806365
vt 0.343661 0.792731
vt 0.342368 0.784568
vt 0.357530 0.784475
vt 0.383883 0.784024
vt 0.385702 0.790343
vt 0.356939 0.764683
vt 0.324013 0.769731
vt 0.165505 0.817951
vt 0.154500 0.791902
vt 0.308410 0.776375
vt 0.253177 0.761482
vt 0.319229 0.815412
vt 0.358200 0.792413
vt 0.313956 0.782365
vn 1.0000 -0.0000 0.0000
usemtl Material
s off
f 34/1/1 26/2/1 25/3/1
f 24/4/1 34/1/1 25/3/1
f 48/5/1 52/6/1 38/7/1
f 23/8/1 35/9/1 34/1/1
f 46/10/1 52/6/1 47/11/1
f 38/7/1 51/12/1 39/13/1
f 39/13/1 50/14/1 40/15/1
f 49/16/1 43/17/1 42/18/1
f 45/19/1 53/20/1 52/6/1
f 49/16/1 42/18/1 41/21/1
f 53/20/1 43/17/1 49/16/1
f 54/22/1 62/23/1 55/24/1
f 64/25/1 62/23/1 54/22/1
f 57/26/1 61/27/1 58/28/1
f 62/23/1 56/29/1 55/24/1
f 59/30/1 61/27/1 60/31/1
f 70/32/1 66/33/1 65/34/1
f 79/35/1 74/36/1 73/37/1
f 67/38/1 69/39/1 68/40/1
f 71/41/1 65/34/1 81/42/1
f 71/41/1 80/43/1 72/44/1
f 72/44/1 79/35/1 73/37/1
f 79/35/1 75/45/1 74/36/1
f 76/46/1 78/47/1 77/48/1
f 27/49/1 37/50/1 36/51/1
f 29/52/1 27/49/1 30/53/1
f 31/54/1 27/49/1 36/51/1
f 33/55/1 31/54/1 20/56/1
f 20/56/1 22/57/1 21/58/1
f 36/51/1 20/56/1 31/54/1
f 20/56/1 36/51/1 35/9/1
f 17/59/1 19/60/1 18/61/1
f 15/62/1 19/60/1 16/63/1
f 19/60/1 13/64/1 1/65/1
f 1/65/1 3/66/1 2/67/1
f 5/68/1 1/65/1 13/64/1
f 13/64/1 6/69/1 5/68/1
f 7/70/1 9/71/1 8/72/1
f 10/73/1 6/69/1 11/74/1
f 34/1/1 37/50/1 26/2/1
f 24/4/1 23/8/1 34/1/1
f 48/5/1 47/11/1 52/6/1
f 23/8/1 22/57/1 35/9/1
f 46/10/1 45/19/1 52/6/1
f 38/7/1 52/6/1 51/12/1
f 39/13/1 51/12/1 50/14/1
f 45/19/1 44/75/1 53/20/1
f 40/15/1 50/14/1 41/21/1
f 50/14/1 49/16/1 41/21/1
f 53/20/1 44/75/1 43/17/1
f 64/25/1 63/76/1 62/23/1
f 57/26/1 56/29/1 61/27/1
f 62/23/1 61/27/1 56/29/1
f 59/30/1 58/28/1 61/27/1
f 70/32/1 69/39/1 66/33/1
f 67/38/1 66/33/1 69/39/1
f 71/41/1 70/32/1 65/34/1
f 71/41/1 81/42/1 80/43/1
f 72/44/1 80/43/1 79/35/1
f 79/35/1 78/47/1 75/45/1
f 76/46/1 75/45/1 78/47/1
f 27/49/1 26/2/1 37/50/1
f 29/52/1 28/77/1 27/49/1
f 31/54/1 30/53/1 27/49/1
f 33/55/1 32/78/1 31/54/1
f 20/56/1 35/9/1 22/57/1
f 17/59/1 16/63/1 19/60/1
f 15/62/1 14/79/1 19/60/1
f 19/60/1 14/79/1 13/64/1
f 1/65/1 4/80/1 3/66/1
f 5/68/1 4/80/1 1/65/1
f 13/64/1 12/81/1 6/69/1
f 7/70/1 10/73/1 9/71/1
f 7/70/1 6/69/1 10/73/1
f 6/69/1 12/81/1 11/74/1
