# Blender v2.82 (sub 7) OBJ File: 'end.blend'
# www.blender.org
mtllib text_scores.mtl
g text_scores
v 0.680584 -54.106041 55.844986
v 0.680584 -54.106041 56.687885
v 0.680588 -62.575138 63.611668
v 0.680588 -63.478275 63.611668
v 0.680587 -63.478275 57.811737
v 0.680587 -67.973686 57.811737
v 0.680587 -67.973686 55.844986
v 0.680587 -63.478275 55.844986
v 0.680587 -63.478275 54.379993
v 0.680587 -61.712185 54.379993
v 0.680587 -61.712185 55.844986
v 0.680584 -57.818813 57.831787
v 0.680587 -61.712185 57.811737
v 0.680587 -61.712185 60.982563
v 0.680589 -26.425024 62.199718
v 0.680587 -25.827578 60.117409
v 0.680587 -27.036644 57.646008
v 0.680587 -28.390602 57.533852
v 0.680587 -29.818892 59.151646
v 0.680587 -29.902967 60.220062
v 0.680587 -31.709162 60.220062
v 0.680587 -31.766315 59.089611
v 0.680587 -32.893314 57.521233
v 0.680587 -34.149982 57.269005
v 0.680587 -35.411884 57.685631
v 0.680587 -36.142998 60.337322
v 0.680589 -35.202873 62.526249
v 0.680586 -37.306168 62.536396
v 0.680583 -38.022255 60.398602
v 0.680587 -37.873913 58.131203
v 0.680587 -36.729721 56.311958
v 0.680587 -34.841362 55.373180
v 0.680587 -32.996365 55.390984
v 0.680587 -30.645496 57.240250
v 0.680587 -29.670324 56.072201
v 0.680587 -26.723602 55.592819
v 0.680587 -25.298073 56.297604
v 0.680588 -24.436615 57.416737
v 0.680587 -23.987783 59.127052
v 0.680588 -24.575035 62.205547
v 0.680587 -5.900549 54.480286
v 0.680587 -5.900549 59.718315
v 0.680587 -1.109016 56.199833
v 0.680587 1.017363 55.485802
v 0.680587 3.329909 55.641159
v 0.680587 4.930292 56.609554
v 0.680586 5.919969 58.172928
v 0.680583 6.047954 60.554119
v 0.680586 4.878653 62.839710
v 0.680588 2.373287 62.861446
v 0.680589 3.654350 61.526802
v 0.680587 4.091711 58.950966
v 0.680587 2.020437 57.444893
v 0.680587 -0.415164 57.881363
v 0.680589 -7.702021 63.189468
v 0.680587 -7.766913 54.480286
v 0.680589 31.528055 41.375286
v 0.680592 22.315304 41.981770
v 0.680592 30.930433 42.414467
v 0.680592 30.323885 42.579361
v 0.680592 23.354412 42.579361
v 0.680592 29.284777 41.981770
v 0.680587 29.119793 41.375286
v 0.680592 23.960960 42.414467
v 0.680592 29.717384 40.336090
v 0.680592 30.323885 40.171196
v 0.680589 24.558584 41.375286
v 0.680592 31.363066 40.768784
v 0.680590 36.023468 52.393192
v 0.680589 22.336472 52.393192
v 0.680589 22.336472 50.426441
v 0.680587 28.256769 50.426441
v 0.680587 28.273987 48.000889
v 0.680592 28.773375 45.773319
v 0.680587 30.141829 44.255512
v 0.680587 32.089966 43.763542
v 0.680592 34.073101 44.228092
v 0.680587 35.485332 45.660328
v 0.680589 36.023468 48.118408
v 0.680587 34.257370 50.426441
v 0.680587 34.257370 48.118408
v 0.680592 33.939270 46.721104
v 0.680587 32.919701 45.903008
v 0.680592 31.537319 45.867172
v 0.680592 30.415979 46.669647
v 0.680589 30.022850 48.198792
v 0.680589 30.022850 50.426441
v 0.680589 36.023468 57.811737
v 0.680589 36.023468 59.778488
v 0.680589 22.336472 59.778488
v 0.680589 22.336472 57.811737
v 0.680587 22.150322 41.375286
v 0.680592 22.747921 40.336090
v 0.680592 23.354412 40.171196
v 0.680592 24.393600 40.768784
v 0.680589 1.378738 41.375286
v 0.680592 -7.834004 41.981770
v 0.680592 0.781116 42.414467
v 0.680592 0.174575 42.579361
v 0.680592 -6.794904 42.579361
v 0.680592 -0.864541 41.981770
v 0.680587 -1.029523 41.375286
v 0.680592 -6.188339 42.414467
v 0.680592 -0.431925 40.336090
v 0.680592 0.174575 40.171196
v 0.680589 -5.590725 41.375286
v 0.680592 1.213756 40.768784
v 0.680589 -7.812844 52.393192
v 0.680589 -7.812844 50.426441
v 0.680587 -1.892540 50.426441
v 0.680587 -1.875321 48.000889
v 0.680592 -1.375944 45.773319
v 0.680587 -0.007489 44.255512
v 0.680587 1.940647 43.763542
v 0.680592 3.923782 44.228092
v 0.680587 5.336024 45.660328
v 0.680589 5.874149 48.118408
v 0.680587 4.108054 50.426441
v 0.680599 3.941931 46.919067
v 0.680587 2.770383 45.903008
v 0.680592 1.388002 45.867172
v 0.680592 0.266671 46.669647
v 0.680589 -0.126467 48.198792
v 0.680589 -0.126467 50.426441
v 0.680587 -7.998978 41.375286
v 0.680592 -7.401388 40.336090
v 0.680592 -6.794904 40.171196
v 0.680592 -5.755707 40.768784
v 0.680590 5.874149 52.393192
v 0.680589 -28.630678 41.375286
v 0.680592 -37.843410 41.981770
v 0.680592 -29.228300 42.414467
v 0.680592 -29.834833 42.579361
v 0.680592 -36.804325 42.579361
v 0.680592 -30.873951 41.981770
v 0.680587 -31.038942 41.375286
v 0.680592 -36.197762 42.414467
v 0.680592 -30.441334 40.336090
v 0.680592 -29.834833 40.171196
v 0.680589 -35.600140 41.375286
v 0.680592 -28.795652 40.768784
v 0.680589 -37.822266 52.393192
v 0.680589 -37.822266 50.426441
v 0.680587 -31.901958 50.426441
v 0.680587 -31.884731 48.000889
v 0.680592 -31.385363 45.773319
v 0.680587 -30.016905 44.255512
v 0.680587 -28.068762 43.763542
v 0.680592 -26.085634 44.228092
v 0.680587 -24.673384 45.660328
v 0.680589 -24.135260 48.118408
v 0.680587 -25.901363 50.426441
v 0.680587 -25.901363 48.118408
v 0.680592 -26.219448 46.721104
v 0.680587 -27.239025 45.903008
v 0.680592 -28.621416 45.867172
v 0.680592 -29.742746 46.669647
v 0.680589 -30.135883 48.198792
v 0.680589 -30.135883 50.426441
v 0.680587 -38.008400 41.375286
v 0.680592 -37.410809 40.336090
v 0.680592 -36.804325 40.171196
v 0.680592 -35.765114 40.768784
v 0.680590 -24.135260 52.393192
v 0.680589 -58.779999 41.375286
v 0.680592 -67.992714 41.981770
v 0.680592 -59.377625 42.414467
v 0.680592 -59.984154 42.579361
v 0.680592 -66.953629 42.579361
v 0.680592 -61.023270 41.981770
v 0.680587 -61.188263 41.375286
v 0.680592 -66.347054 42.414467
v 0.680592 -60.590656 40.336090
v 0.680592 -59.984154 40.171196
v 0.680589 -65.749443 41.375286
v 0.680592 -58.944973 40.768784
v 0.680589 -67.971550 52.393192
v 0.680589 -67.971550 50.426441
v 0.680587 -62.051270 50.426441
v 0.680587 -62.034042 48.000889
v 0.680592 -61.534683 45.773319
v 0.680587 -60.166225 44.255512
v 0.680587 -58.218082 43.763542
v 0.680592 -56.234955 44.228092
v 0.680587 -54.822704 45.660328
v 0.680589 -54.284580 48.118408
v 0.680587 -56.050686 50.426441
v 0.680587 -56.050686 48.118408
v 0.680592 -56.368752 46.721104
v 0.680587 -57.388348 45.903008
v 0.680592 -58.770737 45.867172
v 0.680592 -59.892067 46.669647
v 0.680589 -60.285206 48.198792
v 0.680589 -60.285206 50.426441
v 0.680587 -68.157700 41.375286
v 0.680592 -67.560112 40.336090
v 0.680592 -66.953629 40.171196
v 0.680592 -65.914421 40.768784
v 0.680590 -54.284580 52.393192
vt 0.700047 0.469631
vt 0.735935 0.574045
vt 0.743038 0.655550
vt 0.700047 0.449804
vt 0.716372 0.488575
vt 0.748271 0.655550
vt 0.748271 0.449804
vt 0.736059 0.488575
vt 0.736059 0.449804
vt 0.748271 0.488575
vt 0.757367 0.449804
vt 0.757367 0.488575
vt 0.736059 0.351119
vt 0.748271 0.351119
vt 0.153189 0.568720
vt 0.149998 0.609614
vt 0.138494 0.585830
vt 0.107426 0.489677
vt 0.107426 0.526095
vt 0.093917 0.649832
vt 0.133229 0.534201
vt 0.149810 0.528548
vt 0.138740 0.557324
vt 0.385132 0.574911
vt 0.382136 0.620583
vt 0.371330 0.594020
vt 0.342148 0.486631
vt 0.342148 0.527304
vt 0.329460 0.665501
vt 0.605334 0.562457
vt 0.602109 0.604096
vt 0.590479 0.579879
vt 0.559073 0.481974
vt 0.559073 0.519055
vt 0.545417 0.645047
vt 0.823286 0.565279
vt 0.820402 0.608814
vt 0.810002 0.583495
vt 0.781915 0.481131
vt 0.781915 0.519901
vt 0.769704 0.651630
vt 0.124085 0.490032
vt 0.139385 0.500330
vt 0.122726 0.526095
vt 0.123278 0.649832
vt 0.107426 0.613413
vt 0.123278 0.613413
vt 0.132875 0.606854
vt 0.140161 0.638735
vt 0.056701 0.367597
vt 0.043192 0.649832
vt 0.043192 0.367597
vt 0.165427 0.510875
vt 0.176730 0.519796
vt 0.161322 0.532303
vt 0.162455 0.544810
vt 0.177862 0.532303
vt 0.173758 0.553731
vt 0.169592 0.557133
vt 0.165427 0.367160
vt 0.176730 0.376081
vt 0.161322 0.388587
vt 0.162455 0.401095
vt 0.177862 0.388587
vt 0.173758 0.410016
vt 0.169592 0.413418
vt 0.093917 0.367597
vt 0.107426 0.367597
vt 0.366384 0.536358
vt 0.381959 0.530045
vt 0.371561 0.562183
vt 0.357796 0.487028
vt 0.372167 0.498528
vt 0.356519 0.527304
vt 0.357038 0.665501
vt 0.342148 0.624827
vt 0.364775 0.621001
vt 0.396627 0.510306
vt 0.407244 0.520270
vt 0.392772 0.534238
vt 0.372896 0.653107
vt 0.393836 0.548206
vt 0.408308 0.534238
vt 0.404452 0.558170
vt 0.400540 0.561969
vt 0.396627 0.349797
vt 0.407244 0.359760
vt 0.392772 0.373728
vt 0.393836 0.387697
vt 0.408308 0.373728
vt 0.404452 0.397661
vt 0.400540 0.401460
vt 0.329460 0.350285
vt 0.342148 0.350285
vt 0.585156 0.527310
vt 0.601918 0.521553
vt 0.590728 0.550854
vt 0.575914 0.482336
vt 0.591380 0.492821
vt 0.574539 0.519055
vt 0.575098 0.645047
vt 0.559073 0.607965
vt 0.575098 0.607965
vt 0.584799 0.601286
vt 0.592165 0.633748
vt 0.617705 0.503559
vt 0.629132 0.512642
vt 0.613556 0.525376
vt 0.614701 0.538111
vt 0.630277 0.525376
vt 0.626127 0.547195
vt 0.621916 0.550659
vt 0.617705 0.357225
vt 0.629132 0.366307
vt 0.613556 0.379042
vt 0.614701 0.391777
vt 0.630277 0.379042
vt 0.626127 0.400861
vt 0.621916 0.404325
vt 0.545417 0.357668
vt 0.559073 0.357668
vt 0.805242 0.528531
vt 0.820231 0.522513
vt 0.810224 0.553147
vt 0.796976 0.481509
vt 0.810807 0.492472
vt 0.795747 0.519901
vt 0.796246 0.651630
vt 0.781915 0.612859
vt 0.796246 0.612859
vt 0.804922 0.605877
vt 0.811509 0.639817
vt 0.834349 0.503698
vt 0.844567 0.513195
vt 0.830639 0.526509
vt 0.831663 0.539825
vt 0.845591 0.526509
vt 0.841881 0.549323
vt 0.838115 0.552944
vt 0.834349 0.350701
vt 0.844567 0.360198
vt 0.830639 0.373511
vt 0.831663 0.386827
vt 0.845591 0.373511
vt 0.841881 0.396325
vt 0.838115 0.399947
vt 0.769704 0.351165
vt 0.781915 0.351165
vt 0.282204 0.394325
vt 0.315996 0.351342
vt 0.315996 0.394325
vt 0.294054 0.520656
vt 0.259810 0.352836
vt 0.309509 0.553647
vt 0.296870 0.576748
vt 0.302259 0.643763
vt 0.308507 0.606906
vt 0.276812 0.669504
vt 0.287154 0.624450
vt 0.292174 0.666556
vt 0.262067 0.642574
vt 0.270537 0.614378
vt 0.477288 0.635813
vt 0.491786 0.609514
vt 0.498663 0.648144
vt 0.510538 0.638719
vt 0.508946 0.584128
vt 0.509724 0.555700
vt 0.523202 0.590701
vt 0.518308 0.620632
vt 0.511763 0.508356
vt 0.519873 0.528830
vt 0.509812 0.461159
vt 0.524603 0.458995
vt 0.498492 0.525711
vt 0.498923 0.484822
vt 0.491074 0.486022
vt 0.491074 0.523946
vt 0.511563 0.434774
vt 0.508671 0.408278
vt 0.524727 0.420257
vt 0.505577 0.356584
vt 0.518208 0.380608
vt 0.490260 0.392927
vt 0.489834 0.353470
vt 0.474991 0.368505
vt 0.475061 0.412667
vt 0.056701 0.649832
vt 0.169592 0.507473
vt 0.169592 0.363758
vt 0.400540 0.506507
vt 0.400540 0.345997
vt 0.621916 0.500094
vt 0.621916 0.353760
vt 0.838115 0.500076
vt 0.838115 0.347079
vt 0.304902 0.504675
vt 0.261927 0.584875
vt 0.477328 0.596970
vn 1.0000 -0.0000 -0.0000
usemtl EndMat
s off
f 3/1/1 12/2/1 2/3/1
f 3/1/1 4/4/1 14/5/1
f 2/3/1 12/2/1 1/6/1
f 8/7/1 13/8/1 5/9/1
f 11/10/1 9/11/1 10/12/1
f 12/2/1 11/10/1 1/6/1
f 8/7/1 6/13/1 7/14/1
f 14/5/1 5/9/1 13/8/1
f 76/15/1 77/16/1 83/17/1
f 72/18/1 87/19/1 69/20/1
f 85/21/1 75/22/1 84/23/1
f 114/24/1 115/25/1 120/26/1
f 110/27/1 124/28/1 129/29/1
f 148/30/1 149/31/1 155/32/1
f 144/33/1 159/34/1 164/35/1
f 183/36/1 184/37/1 190/38/1
f 179/39/1 194/40/1 199/41/1
f 85/21/1 73/42/1 74/43/1
f 86/44/1 72/18/1 73/42/1
f 79/45/1 80/46/1 81/47/1
f 79/45/1 82/48/1 78/49/1
f 91/50/1 89/51/1 90/52/1
f 62/53/1 65/54/1 60/55/1
f 59/56/1 65/54/1 66/57/1
f 59/56/1 68/58/1 57/59/1
f 58/60/1 93/61/1 61/62/1
f 64/63/1 93/61/1 94/64/1
f 64/63/1 95/65/1 67/66/1
f 76/15/1 84/23/1 75/22/1
f 77/16/1 82/48/1 83/17/1
f 72/18/1 70/67/1 71/68/1
f 69/20/1 87/19/1 80/46/1
f 122/69/1 113/70/1 121/71/1
f 122/69/1 111/72/1 112/73/1
f 123/74/1 110/27/1 111/72/1
f 117/75/1 118/76/1 119/77/1
f 101/78/1 104/79/1 99/80/1
f 119/77/1 116/81/1 117/75/1
f 98/82/1 104/79/1 105/83/1
f 98/82/1 107/84/1 96/85/1
f 97/86/1 126/87/1 100/88/1
f 103/89/1 126/87/1 127/90/1
f 103/89/1 128/91/1 106/92/1
f 114/24/1 121/71/1 113/70/1
f 116/81/1 120/26/1 115/25/1
f 110/27/1 108/93/1 109/94/1
f 129/29/1 124/28/1 118/76/1
f 157/95/1 147/96/1 156/97/1
f 157/95/1 145/98/1 146/99/1
f 158/100/1 144/33/1 145/98/1
f 151/101/1 152/102/1 153/103/1
f 151/101/1 154/104/1 150/105/1
f 135/106/1 138/107/1 133/108/1
f 132/109/1 138/107/1 139/110/1
f 132/109/1 141/111/1 130/112/1
f 131/113/1 161/114/1 134/115/1
f 137/116/1 161/114/1 162/117/1
f 137/116/1 163/118/1 140/119/1
f 148/30/1 156/97/1 147/96/1
f 149/31/1 154/104/1 155/32/1
f 144/33/1 142/120/1 143/121/1
f 164/35/1 159/34/1 152/102/1
f 192/122/1 182/123/1 191/124/1
f 192/122/1 180/125/1 181/126/1
f 193/127/1 179/39/1 180/125/1
f 186/128/1 187/129/1 188/130/1
f 186/128/1 189/131/1 185/132/1
f 170/133/1 173/134/1 168/135/1
f 167/136/1 173/134/1 174/137/1
f 167/136/1 176/138/1 165/139/1
f 166/140/1 196/141/1 169/142/1
f 172/143/1 196/141/1 197/144/1
f 172/143/1 198/145/1 175/146/1
f 183/36/1 191/124/1 182/123/1
f 184/37/1 189/131/1 190/38/1
f 179/39/1 177/147/1 178/148/1
f 199/41/1 194/40/1 187/129/1
f 42/149/1 56/150/1 41/151/1
f 42/149/1 54/152/1 55/153/1
f 54/152/1 44/154/1 53/155/1
f 46/156/1 53/155/1 45/157/1
f 44/154/1 45/157/1 53/155/1
f 48/158/1 52/159/1 47/160/1
f 47/160/1 52/159/1 46/156/1
f 49/161/1 51/162/1 48/158/1
f 40/163/1 16/164/1 39/165/1
f 38/166/1 16/164/1 17/167/1
f 18/168/1 36/169/1 17/167/1
f 37/170/1 17/167/1 36/169/1
f 18/168/1 34/171/1 35/172/1
f 34/171/1 23/173/1 33/174/1
f 34/171/1 19/175/1 22/176/1
f 21/177/1 19/175/1 20/178/1
f 24/179/1 33/174/1 23/173/1
f 25/180/1 32/181/1 24/179/1
f 25/180/1 30/182/1 31/183/1
f 30/182/1 26/184/1 29/185/1
f 28/186/1 26/184/1 27/187/1
f 3/1/1 14/5/1 12/2/1
f 8/7/1 11/10/1 13/8/1
f 11/10/1 8/7/1 9/11/1
f 12/2/1 13/8/1 11/10/1
f 8/7/1 5/9/1 6/13/1
f 14/5/1 4/4/1 5/9/1
f 85/21/1 74/43/1 75/22/1
f 85/21/1 86/44/1 73/42/1
f 86/44/1 87/19/1 72/18/1
f 79/45/1 69/20/1 80/46/1
f 79/45/1 81/47/1 82/48/1
f 91/50/1 88/188/1 89/51/1
f 62/53/1 63/189/1 65/54/1
f 59/56/1 60/55/1 65/54/1
f 59/56/1 66/57/1 68/58/1
f 58/60/1 92/190/1 93/61/1
f 64/63/1 61/62/1 93/61/1
f 64/63/1 94/64/1 95/65/1
f 76/15/1 83/17/1 84/23/1
f 77/16/1 78/49/1 82/48/1
f 72/18/1 69/20/1 70/67/1
f 122/69/1 112/73/1 113/70/1
f 122/69/1 123/74/1 111/72/1
f 123/74/1 124/28/1 110/27/1
f 117/75/1 129/29/1 118/76/1
f 101/78/1 102/191/1 104/79/1
f 98/82/1 99/80/1 104/79/1
f 98/82/1 105/83/1 107/84/1
f 97/86/1 125/192/1 126/87/1
f 103/89/1 100/88/1 126/87/1
f 103/89/1 127/90/1 128/91/1
f 114/24/1 120/26/1 121/71/1
f 116/81/1 119/77/1 120/26/1
f 110/27/1 129/29/1 108/93/1
f 157/95/1 146/99/1 147/96/1
f 157/95/1 158/100/1 145/98/1
f 158/100/1 159/34/1 144/33/1
f 151/101/1 164/35/1 152/102/1
f 151/101/1 153/103/1 154/104/1
f 135/106/1 136/193/1 138/107/1
f 132/109/1 133/108/1 138/107/1
f 132/109/1 139/110/1 141/111/1
f 131/113/1 160/194/1 161/114/1
f 137/116/1 134/115/1 161/114/1
f 137/116/1 162/117/1 163/118/1
f 148/30/1 155/32/1 156/97/1
f 149/31/1 150/105/1 154/104/1
f 144/33/1 164/35/1 142/120/1
f 192/122/1 181/126/1 182/123/1
f 192/122/1 193/127/1 180/125/1
f 193/127/1 194/40/1 179/39/1
f 186/128/1 199/41/1 187/129/1
f 186/128/1 188/130/1 189/131/1
f 170/133/1 171/195/1 173/134/1
f 167/136/1 168/135/1 173/134/1
f 167/136/1 174/137/1 176/138/1
f 166/140/1 195/196/1 196/141/1
f 172/143/1 169/142/1 196/141/1
f 172/143/1 197/144/1 198/145/1
f 183/36/1 190/38/1 191/124/1
f 184/37/1 185/132/1 189/131/1
f 179/39/1 199/41/1 177/147/1
f 42/149/1 55/153/1 56/150/1
f 42/149/1 43/197/1 54/152/1
f 54/152/1 43/197/1 44/154/1
f 46/156/1 52/159/1 53/155/1
f 48/158/1 51/162/1 52/159/1
f 49/161/1 50/198/1 51/162/1
f 40/163/1 15/199/1 16/164/1
f 38/166/1 39/165/1 16/164/1
f 18/168/1 35/172/1 36/169/1
f 37/170/1 38/166/1 17/167/1
f 18/168/1 19/175/1 34/171/1
f 34/171/1 22/176/1 23/173/1
f 21/177/1 22/176/1 19/175/1
f 24/179/1 32/181/1 33/174/1
f 25/180/1 31/183/1 32/181/1
f 25/180/1 26/184/1 30/182/1
f 28/186/1 29/185/1 26/184/1
