# Blender v2.82 (sub 7) OBJ File: 'end.blend'
# www.blender.org
mtllib text_score.mtl
g text_score
v 1.826608 33.047829 -20.497524
v 1.826606 32.841007 -24.755697
v 1.826602 31.572754 -23.806877
v 1.826602 31.009377 -21.837065
v 1.826604 31.051157 -19.928516
v 1.826604 29.979588 -19.758728
v 1.826602 29.967358 -21.749123
v 1.826602 30.737617 -25.447432
v 1.826602 29.908146 -25.208673
v 1.826602 27.369198 -21.671545
v 1.826603 28.031830 -17.349148
v 1.826603 29.690338 -16.028957
v 1.826603 32.126301 -17.525887
v 1.826607 34.028576 -16.721151
v 1.826607 35.964291 -17.463831
v 1.826608 37.583504 -20.072159
v 1.826606 38.217121 -24.558228
v 1.826606 33.833416 -25.887951
v 1.826608 33.977573 -19.715939
v 1.826607 33.717094 -6.917837
v 1.826607 36.216736 -6.219479
v 1.826607 37.556015 -9.541172
v 1.826607 37.444847 -13.025063
v 1.826607 34.805763 -15.685863
v 1.826607 33.476349 -16.012177
v 1.826603 31.722342 -15.041537
v 1.826603 30.319208 -12.068484
v 1.826603 28.904039 -15.300912
v 1.826603 27.005995 -12.436532
v 1.826603 28.026241 -10.878195
v 1.826603 30.053474 -9.441339
v 1.826603 26.948997 -8.050190
v 1.826604 29.200571 -5.599073
v 1.826607 33.635838 -13.130938
v 1.826608 33.840782 -10.822506
v 1.826603 31.341131 -9.805764
v 1.826603 32.067593 -12.211590
v 1.826607 35.362717 -4.910598
v 1.826604 30.898684 -4.544718
v 1.826604 28.126558 -2.258062
v 1.826604 26.884981 0.345417
v 1.826604 27.805014 2.441789
v 1.826604 29.858637 4.325090
v 1.826608 34.361904 3.459009
v 1.826608 36.583359 1.323636
v 1.826608 36.643692 0.548849
v 1.826608 35.869446 -1.241395
v 1.826608 37.451180 -3.337883
v 1.826604 29.313744 0.441119
v 1.826604 29.536997 -0.380258
v 1.826608 32.555656 -2.012542
v 1.826608 34.488937 -1.714597
v 1.826604 31.509140 0.070320
v 1.826604 26.903109 10.758999
v 1.826605 29.224974 13.865911
v 1.826608 33.800251 12.724589
v 1.826608 37.292988 9.888401
v 1.826608 37.201775 8.187702
v 1.826608 37.713493 4.154757
v 1.826608 32.350033 5.351166
v 1.826608 34.433304 8.337093
v 1.826604 29.605263 10.103159
v 1.826604 30.942389 4.903613
v 1.826604 28.745050 6.189530
v 1.826605 30.081181 14.385985
v 1.826604 27.580683 18.856951
v 1.826606 27.199486 21.740320
v 1.826606 30.537605 23.465233
v 1.826604 30.127371 19.879436
v 1.826604 30.545284 18.151800
v 1.826604 31.095814 17.912914
v 1.826604 31.598755 21.043945
v 1.826608 32.901516 22.688751
v 1.826610 34.502502 22.683615
v 1.826608 37.116669 19.292446
v 1.826609 37.709461 14.669275
v 1.826609 33.527355 14.041682
v 1.826609 33.892494 15.675870
v 1.826608 33.425209 18.601614
v 1.826609 32.741356 15.892745
v 1.826605 31.522654 14.191006
vt 0.903794 0.186989
vt 0.950123 0.140589
vt 0.973660 0.183121
vt 0.965747 0.215357
vt 0.924014 0.296140
vt 0.880572 0.216865
vt 0.966102 0.240249
vt 0.901227 0.279351
vt 0.847818 0.191958
vt 0.819999 0.274530
vt 0.867909 0.253809
vt 0.888546 0.165127
vt 0.956311 0.120784
vt 0.844863 0.084343
vt 0.895116 0.046597
vt 0.822882 0.078368
vt 0.718940 0.092950
vt 0.769340 0.037992
vt 0.799264 0.272915
vt 0.832805 0.137121
vt 0.825443 0.013370
vt 0.801907 0.015217
vt 0.817664 0.080138
vt 0.727261 0.071002
vt 0.911692 0.059471
vt 0.822824 0.264842
vt 0.860095 0.196136
vt 0.863684 0.262650
vt 0.754682 0.180926
vt 0.960579 0.274945
vt 0.931834 0.146083
vt 0.853142 0.103389
vt 0.836610 0.033887
vt 0.941427 0.092508
vt 0.842596 0.170905
vt 0.746898 0.196161
vt 0.746778 0.158628
vt 0.769013 0.024950
vt 0.812639 0.093591
vt 0.728574 0.103209
vt 0.858742 0.116295
vt 0.945998 0.126302
vt 0.906103 0.154873
vt 0.785339 0.128086
vt 0.826401 0.257448
vt 0.934786 0.271345
vt 0.911187 0.181860
vt 0.949499 0.173300
vt 0.878031 0.106565
vt 0.881502 0.148961
vt 0.823164 0.131345
vt 0.886956 0.026225
vt 0.849169 0.050964
vt 0.814327 0.100122
vt 0.721158 0.079440
vt 0.753136 0.188959
vt 0.816748 0.282047
vt 0.736202 0.249571
vt 0.927003 0.286071
vt 0.804430 0.178755
vt 0.960662 0.175106
vt 0.747423 0.229045
vt 0.813447 0.270032
vt 0.748993 0.131894
vt 0.824214 0.155221
vt 0.907984 0.117882
vt 0.932001 0.149985
vt 0.809811 0.104679
vt 0.805513 0.077555
vt 0.855896 0.077245
vt 0.943467 0.075746
vt 0.949511 0.096742
vt 0.853932 0.011478
vt 0.744520 0.028251
vt 0.742118 0.213465
vt 0.942587 0.112264
vt 0.956413 0.072250
vt 0.780594 0.024843
vt 0.728623 0.180046
vt 0.858122 0.103621
vt 0.711102 0.070233
vn 1.0000 -0.0000 0.0000
usemtl EndMat
s off
f 34/1/1 26/2/1 25/3/1
f 24/4/1 34/1/1 25/3/1
f 48/5/1 52/6/1 38/7/1
f 23/8/1 35/9/1 34/1/1
f 46/10/1 52/6/1 47/11/1
f 38/7/1 51/12/1 39/13/1
f 39/13/1 50/14/1 40/15/1
f 49/16/1 43/17/1 42/18/1
f 45/19/1 53/20/1 52/6/1
f 49/16/1 42/18/1 41/21/1
f 53/20/1 43/17/1 49/16/1
f 54/22/1 62/23/1 55/24/1
f 64/25/1 62/23/1 54/22/1
f 57/26/1 61/27/1 58/28/1
f 62/23/1 56/29/1 55/24/1
f 59/30/1 61/27/1 60/31/1
f 70/32/1 66/33/1 65/34/1
f 79/35/1 74/36/1 73/37/1
f 67/38/1 69/39/1 68/40/1
f 71/41/1 65/34/1 81/42/1
f 71/41/1 80/43/1 72/44/1
f 72/44/1 79/35/1 73/37/1
f 79/35/1 75/45/1 74/36/1
f 76/46/1 78/47/1 77/48/1
f 27/49/1 37/50/1 36/51/1
f 29/52/1 27/49/1 30/53/1
f 31/54/1 27/49/1 36/51/1
f 33/55/1 31/54/1 20/56/1
f 20/56/1 22/57/1 21/58/1
f 36/51/1 20/56/1 31/54/1
f 20/56/1 36/51/1 35/9/1
f 17/59/1 19/60/1 18/61/1
f 15/62/1 19/60/1 16/63/1
f 19/60/1 13/64/1 1/65/1
f 1/65/1 3/66/1 2/67/1
f 5/68/1 1/65/1 13/64/1
f 13/64/1 6/69/1 5/68/1
f 7/70/1 9/71/1 8/72/1
f 10/73/1 6/69/1 11/74/1
f 34/1/1 37/50/1 26/2/1
f 24/4/1 23/8/1 34/1/1
f 48/5/1 47/11/1 52/6/1
f 23/8/1 22/57/1 35/9/1
f 46/10/1 45/19/1 52/6/1
f 38/7/1 52/6/1 51/12/1
f 39/13/1 51/12/1 50/14/1
f 45/19/1 44/75/1 53/20/1
f 40/15/1 50/14/1 41/21/1
f 50/14/1 49/16/1 41/21/1
f 53/20/1 44/75/1 43/17/1
f 64/25/1 63/76/1 62/23/1
f 57/26/1 56/29/1 61/27/1
f 62/23/1 61/27/1 56/29/1
f 59/30/1 58/28/1 61/27/1
f 70/32/1 69/39/1 66/33/1
f 67/38/1 66/33/1 69/39/1
f 71/41/1 70/32/1 65/34/1
f 71/41/1 81/42/1 80/43/1
f 72/44/1 80/43/1 79/35/1
f 79/35/1 78/47/1 75/45/1
f 76/46/1 75/45/1 78/47/1
f 27/49/1 26/2/1 37/50/1
f 29/52/1 28/77/1 27/49/1
f 31/54/1 30/53/1 27/49/1
f 33/55/1 32/78/1 31/54/1
f 20/56/1 35/9/1 22/57/1
f 17/59/1 16/63/1 19/60/1
f 15/62/1 14/79/1 19/60/1
f 19/60/1 14/79/1 13/64/1
f 1/65/1 4/80/1 3/66/1
f 5/68/1 4/80/1 1/65/1
f 13/64/1 12/81/1 6/69/1
f 7/70/1 10/73/1 9/71/1
f 7/70/1 6/69/1 10/73/1
f 6/69/1 12/81/1 11/74/1
