# Blender v2.82 (sub 7) OBJ File: 'end.blend'
# www.blender.org
mtllib text_scores.mtl
g text_scores
v 0.838105 -27.071848 27.945038
v 0.838105 -27.071848 28.366489
v 0.838106 -31.306400 31.828379
v 0.838106 -31.757969 31.828379
v 0.838106 -31.757969 28.928413
v 0.838106 -34.005680 28.928413
v 0.838106 -34.005680 27.945038
v 0.838106 -31.757969 27.945038
v 0.838106 -31.757969 27.212543
v 0.838106 -30.874926 27.212543
v 0.838106 -30.874926 27.945038
v 0.838105 -28.928234 28.938440
v 0.838106 -30.874926 28.928413
v 0.838106 -30.874926 30.513826
v 0.838107 -13.231341 31.122406
v 0.838106 -12.932618 30.081251
v 0.838106 -13.537152 28.845551
v 0.838106 -14.214131 28.789473
v 0.838106 -14.928275 29.598370
v 0.838106 -14.970314 30.132578
v 0.838106 -15.873409 30.132578
v 0.838106 -15.901986 29.567352
v 0.838106 -16.465485 28.783163
v 0.838106 -17.093819 28.657047
v 0.838106 -17.724770 28.865360
v 0.838106 -18.090328 30.191208
v 0.838107 -17.620264 31.285671
v 0.838105 -18.671911 31.290745
v 0.838104 -19.029955 30.221848
v 0.838106 -18.955784 29.088146
v 0.838106 -18.383688 28.178524
v 0.838106 -17.439508 27.709137
v 0.838106 -16.517012 27.718039
v 0.838106 -15.341578 28.642672
v 0.838106 -14.853992 28.058647
v 0.838106 -13.380630 27.818956
v 0.838106 -12.667867 28.171349
v 0.838106 -12.237137 28.730913
v 0.838106 -12.012722 29.586071
v 0.838107 -12.306347 31.125320
v 0.838106 -2.969103 27.262690
v 0.838106 -2.969103 29.881704
v 0.838106 -0.573336 28.122463
v 0.838106 0.489854 27.765448
v 0.838106 1.646126 27.843126
v 0.838106 2.446318 28.327324
v 0.838106 2.941157 29.109009
v 0.838104 3.005149 30.299606
v 0.838105 2.420499 31.442402
v 0.838106 1.167816 31.453270
v 0.838107 1.808347 30.785948
v 0.838106 2.027027 29.498030
v 0.838106 0.991391 28.744993
v 0.838106 -0.226410 28.963228
v 0.838107 -3.869839 31.617281
v 0.838106 -3.902285 27.262690
v 0.838107 15.745200 20.710188
v 0.838108 11.138824 21.013432
v 0.838108 15.446388 21.229778
v 0.838108 15.143114 21.312225
v 0.838108 11.658379 21.312225
v 0.838108 14.623560 21.013432
v 0.838106 14.541069 20.710188
v 0.838108 11.961653 21.229778
v 0.838108 14.839865 20.190590
v 0.838108 15.143114 20.108143
v 0.838107 12.260464 20.710188
v 0.838108 15.662704 20.406939
v 0.838107 17.992907 26.219143
v 0.838107 11.149408 26.219143
v 0.838107 11.149408 25.235767
v 0.838106 14.109557 25.235767
v 0.838106 14.118166 24.022991
v 0.838108 14.367859 22.909206
v 0.838106 15.052087 22.150303
v 0.838106 16.026155 21.904318
v 0.838108 17.017721 22.136591
v 0.838106 17.723839 22.852711
v 0.838107 17.992907 24.081749
v 0.838106 17.109858 25.235767
v 0.838106 17.109858 24.081749
v 0.838108 16.950808 23.383097
v 0.838106 16.441023 22.974049
v 0.838108 15.749831 22.956133
v 0.838108 15.189162 23.357370
v 0.838107 14.992598 24.121943
v 0.838107 14.992598 25.235767
v 0.838107 17.992907 28.928413
v 0.838107 17.992907 29.911789
v 0.838107 11.149408 29.911789
v 0.838107 11.149408 28.928413
v 0.838106 11.056334 20.710188
v 0.838108 11.355132 20.190590
v 0.838108 11.658379 20.108143
v 0.838108 12.177973 20.406939
v 0.838107 0.670541 20.710188
v 0.838108 -3.935830 21.013432
v 0.838108 0.371730 21.229778
v 0.838108 0.068460 21.312225
v 0.838108 -3.416280 21.312225
v 0.838108 -0.451098 21.013432
v 0.838106 -0.533590 20.710188
v 0.838108 -3.112998 21.229778
v 0.838108 -0.234791 20.190590
v 0.838108 0.068460 20.108143
v 0.838107 -2.814191 20.710188
v 0.838108 0.588050 20.406939
v 0.838107 -3.925251 26.219143
v 0.838107 -3.925251 25.235767
v 0.838106 -0.965098 25.235767
v 0.838106 -0.956489 24.022991
v 0.838108 -0.706800 22.909206
v 0.838106 -0.022572 22.150303
v 0.838106 0.951496 21.904318
v 0.838108 1.943063 22.136591
v 0.838106 2.649184 22.852711
v 0.838107 2.918247 24.081749
v 0.838106 2.035199 25.235767
v 0.838112 1.952138 23.482080
v 0.838106 1.366364 22.974049
v 0.838108 0.675173 22.956133
v 0.838108 0.114507 23.357370
v 0.838107 -0.082062 24.121943
v 0.838107 -0.082062 25.235767
v 0.838106 -4.018318 20.710188
v 0.838108 -3.719522 20.190590
v 0.838108 -3.416280 20.108143
v 0.838108 -2.896682 20.406939
v 0.838107 2.918247 26.219143
v 0.838107 -14.334169 20.710188
v 0.838108 -18.940533 21.013432
v 0.838108 -14.632980 21.229778
v 0.838108 -14.936247 21.312225
v 0.838108 -18.420990 21.312225
v 0.838108 -15.455805 21.013432
v 0.838106 -15.538300 20.710188
v 0.838108 -18.117708 21.229778
v 0.838108 -15.239496 20.190590
v 0.838108 -14.936247 20.108143
v 0.838107 -17.818897 20.710188
v 0.838108 -14.416656 20.406939
v 0.838107 -18.929960 26.219143
v 0.838107 -18.929960 25.235767
v 0.838106 -15.969808 25.235767
v 0.838106 -15.961195 24.022991
v 0.838108 -15.711510 22.909206
v 0.838106 -15.027283 22.150303
v 0.838106 -14.053210 21.904318
v 0.838108 -13.061647 22.136591
v 0.838106 -12.355521 22.852711
v 0.838107 -12.086459 24.081749
v 0.838106 -12.969511 25.235767
v 0.838106 -12.969511 24.081749
v 0.838108 -13.128553 23.383097
v 0.838106 -13.638343 22.974049
v 0.838108 -14.329537 22.956133
v 0.838108 -14.890203 23.357370
v 0.838107 -15.086772 24.121943
v 0.838107 -15.086772 25.235767
v 0.838106 -19.023027 20.710188
v 0.838108 -18.724232 20.190590
v 0.838108 -18.420990 20.108143
v 0.838108 -17.901384 20.406939
v 0.838107 -12.086459 26.219143
v 0.838107 -29.408829 20.710188
v 0.838108 -34.015190 21.013432
v 0.838108 -29.707640 21.229778
v 0.838108 -30.010906 21.312225
v 0.838108 -33.495647 21.312225
v 0.838108 -30.530464 21.013432
v 0.838106 -30.612959 20.710188
v 0.838108 -33.192360 21.229778
v 0.838108 -30.314156 20.190590
v 0.838108 -30.010906 20.108143
v 0.838107 -32.893555 20.710188
v 0.838108 -29.491316 20.406939
v 0.838107 -34.004612 26.219143
v 0.838107 -34.004612 25.235767
v 0.838106 -31.044466 25.235767
v 0.838106 -31.035854 24.022991
v 0.838108 -30.786169 22.909206
v 0.838106 -30.101942 22.150303
v 0.838106 -29.127869 21.904318
v 0.838108 -28.136307 22.136591
v 0.838106 -27.430180 22.852711
v 0.838107 -27.161118 24.081749
v 0.838106 -28.044170 25.235767
v 0.838106 -28.044170 24.081749
v 0.838108 -28.203205 23.383097
v 0.838106 -28.713001 22.974049
v 0.838108 -29.404196 22.956133
v 0.838108 -29.964861 23.357370
v 0.838107 -30.161430 24.121943
v 0.838107 -30.161430 25.235767
v 0.838106 -34.097687 20.710188
v 0.838108 -33.798893 20.190590
v 0.838108 -33.495647 20.108143
v 0.838108 -32.976044 20.406939
v 0.838107 -27.161118 26.219143
vt 0.393369 0.928285
vt 0.414827 0.962984
vt 0.419074 0.990069
vt 0.393369 0.921696
vt 0.403130 0.934581
vt 0.422204 0.990069
vt 0.422204 0.921696
vt 0.414902 0.934581
vt 0.414902 0.921696
vt 0.422204 0.934581
vt 0.427643 0.921696
vt 0.427643 0.934581
vt 0.414902 0.888902
vt 0.422204 0.888902
vt 0.088076 0.958232
vt 0.086322 0.971950
vt 0.080000 0.963972
vt 0.062924 0.931717
vt 0.062924 0.943933
vt 0.055500 0.985442
vt 0.077106 0.946653
vt 0.086219 0.944756
vt 0.080135 0.954409
vt 0.214488 0.956825
vt 0.212966 0.970674
vt 0.207479 0.962620
vt 0.192659 0.930058
vt 0.192659 0.942390
vt 0.186216 0.984294
vt 0.343952 0.959094
vt 0.342081 0.973794
vt 0.335334 0.965244
vt 0.317112 0.930682
vt 0.317112 0.943772
vt 0.309189 0.988250
vt 0.467057 0.960071
vt 0.465333 0.974538
vt 0.459114 0.966124
vt 0.442321 0.932107
vt 0.442321 0.944991
vt 0.435019 0.988767
vt 0.072080 0.931836
vt 0.080489 0.935290
vt 0.071333 0.943933
vt 0.071637 0.985442
vt 0.062924 0.973225
vt 0.071637 0.973225
vt 0.076911 0.971025
vt 0.080916 0.981719
vt 0.035046 0.890764
vt 0.027621 0.985442
vt 0.027621 0.890764
vt 0.094802 0.938828
vt 0.101014 0.941820
vt 0.092546 0.946016
vt 0.093168 0.950211
vt 0.101637 0.946016
vt 0.099381 0.953204
vt 0.097091 0.954345
vt 0.094802 0.890617
vt 0.101014 0.893610
vt 0.092546 0.897805
vt 0.093168 0.902001
vt 0.101637 0.897805
vt 0.099381 0.904994
vt 0.097091 0.906135
vt 0.055500 0.890764
vt 0.062924 0.890764
vt 0.204967 0.945136
vt 0.212876 0.943221
vt 0.207596 0.952966
vt 0.200606 0.930178
vt 0.207904 0.933665
vt 0.199957 0.942390
vt 0.200221 0.984294
vt 0.192659 0.971961
vt 0.204150 0.970801
vt 0.220326 0.937236
vt 0.225717 0.940257
vt 0.218368 0.944493
vt 0.208274 0.980536
vt 0.218908 0.948728
vt 0.226257 0.944493
vt 0.224300 0.951749
vt 0.222312 0.952901
vt 0.220326 0.888568
vt 0.225717 0.891589
vt 0.218368 0.895824
vt 0.218908 0.900059
vt 0.226257 0.895824
vt 0.224300 0.903081
vt 0.222312 0.904233
vt 0.186216 0.888716
vt 0.192659 0.888716
vt 0.332245 0.946686
vt 0.341970 0.944654
vt 0.335478 0.954998
vt 0.326883 0.930809
vt 0.335856 0.934511
vt 0.326085 0.943772
vt 0.326409 0.988250
vt 0.317112 0.975160
vt 0.326409 0.975160
vt 0.332038 0.972802
vt 0.336311 0.984262
vt 0.351130 0.938301
vt 0.357759 0.941508
vt 0.348722 0.946004
vt 0.349387 0.950499
vt 0.358423 0.946004
vt 0.356016 0.953706
vt 0.353573 0.954929
vt 0.351130 0.886642
vt 0.357759 0.889848
vt 0.348722 0.894344
vt 0.349387 0.898840
vt 0.358423 0.894344
vt 0.356016 0.902047
vt 0.353573 0.903270
vt 0.309189 0.886799
vt 0.317112 0.886799
vt 0.456268 0.947859
vt 0.465231 0.945859
vt 0.459247 0.956039
vt 0.451326 0.932233
vt 0.459596 0.935876
vt 0.450591 0.944991
vt 0.450889 0.988767
vt 0.442321 0.975883
vt 0.450889 0.975883
vt 0.456077 0.973562
vt 0.460015 0.984841
vt 0.473672 0.939606
vt 0.479782 0.942762
vt 0.471454 0.947187
vt 0.472066 0.951612
vt 0.480394 0.947187
vt 0.478176 0.954768
vt 0.475924 0.955972
vt 0.473672 0.888763
vt 0.479782 0.891919
vt 0.471454 0.896343
vt 0.472066 0.900768
vt 0.480394 0.896343
vt 0.478176 0.903924
vt 0.475924 0.905128
vt 0.435019 0.888917
vt 0.442321 0.888917
vt 0.162217 0.902069
vt 0.179378 0.889036
vt 0.179378 0.902069
vt 0.168235 0.940374
vt 0.150845 0.889489
vt 0.176084 0.950378
vt 0.169665 0.957383
vt 0.172402 0.977702
vt 0.175575 0.966527
vt 0.159479 0.985507
vt 0.164731 0.971846
vt 0.167280 0.984614
vt 0.151991 0.977342
vt 0.156292 0.968792
vt 0.269661 0.984991
vt 0.278073 0.975707
vt 0.282063 0.989344
vt 0.288952 0.986017
vt 0.288029 0.966745
vt 0.288481 0.956709
vt 0.296300 0.969065
vt 0.293461 0.979631
vt 0.289663 0.939995
vt 0.294369 0.947223
vt 0.288531 0.923333
vt 0.297113 0.922570
vt 0.281964 0.946122
vt 0.282213 0.931687
vt 0.277660 0.932111
vt 0.277660 0.945499
vt 0.289547 0.914019
vt 0.287869 0.904665
vt 0.297184 0.908894
vt 0.286074 0.886416
vt 0.293403 0.894897
vt 0.277187 0.899246
vt 0.276940 0.885316
vt 0.268329 0.890624
vt 0.268369 0.906214
vt 0.035046 0.985442
vt 0.097091 0.937686
vt 0.097091 0.889476
vt 0.222312 0.936084
vt 0.222312 0.887416
vt 0.353573 0.937078
vt 0.353573 0.885419
vt 0.475924 0.938403
vt 0.475924 0.887559
vt 0.173744 0.935529
vt 0.151920 0.959847
vt 0.269685 0.971278
vn 1.0000 -0.0000 -0.0000
usemtl Material
s off
f 3/1/1 12/2/1 2/3/1
f 3/1/1 4/4/1 14/5/1
f 2/3/1 12/2/1 1/6/1
f 8/7/1 13/8/1 5/9/1
f 11/10/1 9/11/1 10/12/1
f 12/2/1 11/10/1 1/6/1
f 8/7/1 6/13/1 7/14/1
f 14/5/1 5/9/1 13/8/1
f 76/15/1 77/16/1 83/17/1
f 72/18/1 87/19/1 69/20/1
f 85/21/1 75/22/1 84/23/1
f 114/24/1 115/25/1 120/26/1
f 110/27/1 124/28/1 129/29/1
f 148/30/1 149/31/1 155/32/1
f 144/33/1 159/34/1 164/35/1
f 183/36/1 184/37/1 190/38/1
f 179/39/1 194/40/1 199/41/1
f 85/21/1 73/42/1 74/43/1
f 86/44/1 72/18/1 73/42/1
f 79/45/1 80/46/1 81/47/1
f 79/45/1 82/48/1 78/49/1
f 91/50/1 89/51/1 90/52/1
f 62/53/1 65/54/1 60/55/1
f 59/56/1 65/54/1 66/57/1
f 59/56/1 68/58/1 57/59/1
f 58/60/1 93/61/1 61/62/1
f 64/63/1 93/61/1 94/64/1
f 64/63/1 95/65/1 67/66/1
f 76/15/1 84/23/1 75/22/1
f 77/16/1 82/48/1 83/17/1
f 72/18/1 70/67/1 71/68/1
f 69/20/1 87/19/1 80/46/1
f 122/69/1 113/70/1 121/71/1
f 122/69/1 111/72/1 112/73/1
f 123/74/1 110/27/1 111/72/1
f 117/75/1 118/76/1 119/77/1
f 101/78/1 104/79/1 99/80/1
f 119/77/1 116/81/1 117/75/1
f 98/82/1 104/79/1 105/83/1
f 98/82/1 107/84/1 96/85/1
f 97/86/1 126/87/1 100/88/1
f 103/89/1 126/87/1 127/90/1
f 103/89/1 128/91/1 106/92/1
f 114/24/1 121/71/1 113/70/1
f 116/81/1 120/26/1 115/25/1
f 110/27/1 108/93/1 109/94/1
f 129/29/1 124/28/1 118/76/1
f 157/95/1 147/96/1 156/97/1
f 157/95/1 145/98/1 146/99/1
f 158/100/1 144/33/1 145/98/1
f 151/101/1 152/102/1 153/103/1
f 151/101/1 154/104/1 150/105/1
f 135/106/1 138/107/1 133/108/1
f 132/109/1 138/107/1 139/110/1
f 132/109/1 141/111/1 130/112/1
f 131/113/1 161/114/1 134/115/1
f 137/116/1 161/114/1 162/117/1
f 137/116/1 163/118/1 140/119/1
f 148/30/1 156/97/1 147/96/1
f 149/31/1 154/104/1 155/32/1
f 144/33/1 142/120/1 143/121/1
f 164/35/1 159/34/1 152/102/1
f 192/122/1 182/123/1 191/124/1
f 192/122/1 180/125/1 181/126/1
f 193/127/1 179/39/1 180/125/1
f 186/128/1 187/129/1 188/130/1
f 186/128/1 189/131/1 185/132/1
f 170/133/1 173/134/1 168/135/1
f 167/136/1 173/134/1 174/137/1
f 167/136/1 176/138/1 165/139/1
f 166/140/1 196/141/1 169/142/1
f 172/143/1 196/141/1 197/144/1
f 172/143/1 198/145/1 175/146/1
f 183/36/1 191/124/1 182/123/1
f 184/37/1 189/131/1 190/38/1
f 179/39/1 177/147/1 178/148/1
f 199/41/1 194/40/1 187/129/1
f 42/149/1 56/150/1 41/151/1
f 42/149/1 54/152/1 55/153/1
f 54/152/1 44/154/1 53/155/1
f 46/156/1 53/155/1 45/157/1
f 44/154/1 45/157/1 53/155/1
f 48/158/1 52/159/1 47/160/1
f 47/160/1 52/159/1 46/156/1
f 49/161/1 51/162/1 48/158/1
f 40/163/1 16/164/1 39/165/1
f 38/166/1 16/164/1 17/167/1
f 18/168/1 36/169/1 17/167/1
f 37/170/1 17/167/1 36/169/1
f 18/168/1 34/171/1 35/172/1
f 34/171/1 23/173/1 33/174/1
f 34/171/1 19/175/1 22/176/1
f 21/177/1 19/175/1 20/178/1
f 24/179/1 33/174/1 23/173/1
f 25/180/1 32/181/1 24/179/1
f 25/180/1 30/182/1 31/183/1
f 30/182/1 26/184/1 29/185/1
f 28/186/1 26/184/1 27/187/1
f 3/1/1 14/5/1 12/2/1
f 8/7/1 11/10/1 13/8/1
f 11/10/1 8/7/1 9/11/1
f 12/2/1 13/8/1 11/10/1
f 8/7/1 5/9/1 6/13/1
f 14/5/1 4/4/1 5/9/1
f 85/21/1 74/43/1 75/22/1
f 85/21/1 86/44/1 73/42/1
f 86/44/1 87/19/1 72/18/1
f 79/45/1 69/20/1 80/46/1
f 79/45/1 81/47/1 82/48/1
f 91/50/1 88/188/1 89/51/1
f 62/53/1 63/189/1 65/54/1
f 59/56/1 60/55/1 65/54/1
f 59/56/1 66/57/1 68/58/1
f 58/60/1 92/190/1 93/61/1
f 64/63/1 61/62/1 93/61/1
f 64/63/1 94/64/1 95/65/1
f 76/15/1 83/17/1 84/23/1
f 77/16/1 78/49/1 82/48/1
f 72/18/1 69/20/1 70/67/1
f 122/69/1 112/73/1 113/70/1
f 122/69/1 123/74/1 111/72/1
f 123/74/1 124/28/1 110/27/1
f 117/75/1 129/29/1 118/76/1
f 101/78/1 102/191/1 104/79/1
f 98/82/1 99/80/1 104/79/1
f 98/82/1 105/83/1 107/84/1
f 97/86/1 125/192/1 126/87/1
f 103/89/1 100/88/1 126/87/1
f 103/89/1 127/90/1 128/91/1
f 114/24/1 120/26/1 121/71/1
f 116/81/1 119/77/1 120/26/1
f 110/27/1 129/29/1 108/93/1
f 157/95/1 146/99/1 147/96/1
f 157/95/1 158/100/1 145/98/1
f 158/100/1 159/34/1 144/33/1
f 151/101/1 164/35/1 152/102/1
f 151/101/1 153/103/1 154/104/1
f 135/106/1 136/193/1 138/107/1
f 132/109/1 133/108/1 138/107/1
f 132/109/1 139/110/1 141/111/1
f 131/113/1 160/194/1 161/114/1
f 137/116/1 134/115/1 161/114/1
f 137/116/1 162/117/1 163/118/1
f 148/30/1 155/32/1 156/97/1
f 149/31/1 150/105/1 154/104/1
f 144/33/1 164/35/1 142/120/1
f 192/122/1 181/126/1 182/123/1
f 192/122/1 193/127/1 180/125/1
f 193/127/1 194/40/1 179/39/1
f 186/128/1 199/41/1 187/129/1
f 186/128/1 188/130/1 189/131/1
f 170/133/1 171/195/1 173/134/1
f 167/136/1 168/135/1 173/134/1
f 167/136/1 174/137/1 176/138/1
f 166/140/1 195/196/1 196/141/1
f 172/143/1 169/142/1 196/141/1
f 172/143/1 197/144/1 198/145/1
f 183/36/1 190/38/1 191/124/1
f 184/37/1 185/132/1 189/131/1
f 179/39/1 199/41/1 177/147/1
f 42/149/1 55/153/1 56/150/1
f 42/149/1 43/197/1 54/152/1
f 54/152/1 43/197/1 44/154/1
f 46/156/1 52/159/1 53/155/1
f 48/158/1 51/162/1 52/159/1
f 49/161/1 50/198/1 51/162/1
f 40/163/1 15/199/1 16/164/1
f 38/166/1 39/165/1 16/164/1
f 18/168/1 35/172/1 36/169/1
f 37/170/1 38/166/1 17/167/1
f 18/168/1 19/175/1 34/171/1
f 34/171/1 22/176/1 23/173/1
f 21/177/1 22/176/1 19/175/1
f 24/179/1 32/181/1 33/174/1
f 25/180/1 31/183/1 32/181/1
f 25/180/1 26/184/1 30/182/1
f 28/186/1 29/185/1 26/184/1
