# Blender v2.82 (sub 7) OBJ File: 'end.blend'
# www.blender.org
mtllib text_score.mtl
g text_score
v 2.657590 66.133316 -41.040142
v 2.657587 65.719673 -49.556488
v 2.657578 63.183167 -47.658848
v 2.657578 62.056412 -43.719219
v 2.657583 62.139977 -39.902126
v 2.657583 59.996834 -39.562550
v 2.657578 59.972374 -43.543339
v 2.657578 61.512894 -50.939953
v 2.657578 59.853951 -50.462440
v 2.657578 54.776054 -43.388184
v 2.657581 56.101322 -34.743389
v 2.657581 59.418335 -32.103008
v 2.657581 64.290260 -35.096863
v 2.657588 68.094810 -33.487392
v 2.657588 71.966232 -34.972755
v 2.657590 75.204659 -40.189407
v 2.657587 76.471893 -49.161549
v 2.657587 67.704491 -51.820995
v 2.657590 67.992805 -39.476971
v 2.657589 67.471855 -13.880765
v 2.657590 72.471123 -12.484051
v 2.657589 75.149681 -19.127438
v 2.657588 74.927345 -26.095217
v 2.657588 69.649178 -31.416819
v 2.657588 66.990356 -32.069447
v 2.657581 63.482342 -30.128168
v 2.657581 60.676075 -24.182060
v 2.657581 57.845741 -30.646917
v 2.657581 54.049648 -24.918158
v 2.657581 56.090141 -21.801481
v 2.657582 60.144608 -18.927771
v 2.657582 53.935654 -16.145472
v 2.657582 58.438801 -11.243238
v 2.657588 67.309334 -26.306967
v 2.657590 67.719223 -21.690105
v 2.657582 62.719925 -19.656620
v 2.657581 64.172844 -24.468273
v 2.657590 70.763084 -9.866288
v 2.657582 61.835030 -9.134529
v 2.657582 56.290775 -4.561217
v 2.657583 53.807621 0.645741
v 2.657583 55.647686 4.838486
v 2.657583 59.754932 8.605088
v 2.657591 68.761475 6.872927
v 2.657590 73.204369 2.602179
v 2.657590 73.325043 1.052606
v 2.657590 71.776543 -2.527883
v 2.657590 74.940010 -6.720858
v 2.657583 58.665146 0.837146
v 2.657583 59.111652 -0.805608
v 2.657590 65.148979 -4.070177
v 2.657590 69.015533 -3.474285
v 2.657583 63.055943 0.095548
v 2.657583 53.843876 21.472904
v 2.657584 58.487610 27.686731
v 2.657590 67.638161 25.404087
v 2.657590 74.623627 19.731709
v 2.657590 74.441200 16.330313
v 2.657590 75.464638 8.264421
v 2.657590 64.737724 10.657241
v 2.657590 68.904266 16.629095
v 2.657583 59.248188 20.161224
v 2.657583 61.922440 9.762135
v 2.657583 57.527760 12.333967
v 2.657584 60.200020 28.726877
v 2.657583 55.199024 37.668808
v 2.657587 54.436630 43.435551
v 2.657587 61.112869 46.885372
v 2.657583 60.292400 39.713783
v 2.657583 61.128227 36.258507
v 2.657583 62.229286 35.780735
v 2.657583 63.235168 42.042797
v 2.657590 65.840691 45.332409
v 2.657594 69.042664 45.322140
v 2.657590 74.270988 38.539803
v 2.657592 75.456573 29.293459
v 2.657592 67.092369 28.038273
v 2.657592 67.822647 31.306648
v 2.657590 66.888077 37.158134
v 2.657592 65.520370 31.740398
v 2.657584 63.082970 28.336920
vt 0.903794 0.186989
vt 0.950123 0.140589
vt 0.973660 0.183121
vt 0.965747 0.215357
vt 0.924014 0.296140
vt 0.880572 0.216865
vt 0.966102 0.240249
vt 0.901227 0.279351
vt 0.847818 0.191958
vt 0.819999 0.274530
vt 0.867909 0.253809
vt 0.888546 0.165127
vt 0.956311 0.120784
vt 0.844863 0.084343
vt 0.895116 0.046597
vt 0.822882 0.078368
vt 0.718940 0.092950
vt 0.769340 0.037992
vt 0.799264 0.272915
vt 0.832805 0.137121
vt 0.825443 0.013370
vt 0.801907 0.015217
vt 0.817664 0.080138
vt 0.727261 0.071002
vt 0.911692 0.059471
vt 0.822824 0.264842
vt 0.860095 0.196136
vt 0.863684 0.262650
vt 0.754682 0.180926
vt 0.960579 0.274945
vt 0.931834 0.146083
vt 0.853142 0.103389
vt 0.836610 0.033887
vt 0.941427 0.092508
vt 0.842596 0.170905
vt 0.746898 0.196161
vt 0.746778 0.158628
vt 0.769013 0.024950
vt 0.812639 0.093591
vt 0.728574 0.103209
vt 0.858742 0.116295
vt 0.945998 0.126302
vt 0.906103 0.154873
vt 0.785339 0.128086
vt 0.826401 0.257448
vt 0.934786 0.271345
vt 0.911187 0.181860
vt 0.949499 0.173300
vt 0.878031 0.106565
vt 0.881502 0.148961
vt 0.823164 0.131345
vt 0.886956 0.026225
vt 0.849169 0.050964
vt 0.814327 0.100122
vt 0.721158 0.079440
vt 0.753136 0.188959
vt 0.816748 0.282047
vt 0.736202 0.249571
vt 0.927003 0.286071
vt 0.804430 0.178755
vt 0.960662 0.175106
vt 0.747423 0.229045
vt 0.813447 0.270032
vt 0.748993 0.131894
vt 0.824214 0.155221
vt 0.907984 0.117882
vt 0.932001 0.149985
vt 0.809811 0.104679
vt 0.805513 0.077555
vt 0.855896 0.077245
vt 0.943467 0.075746
vt 0.949511 0.096742
vt 0.853932 0.011478
vt 0.744520 0.028251
vt 0.742118 0.213465
vt 0.942587 0.112264
vt 0.956413 0.072250
vt 0.780594 0.024843
vt 0.728623 0.180046
vt 0.858122 0.103621
vt 0.711102 0.070233
vn 1.0000 -0.0000 0.0000
usemtl EndMat
s off
f 34/1/1 26/2/1 25/3/1
f 24/4/1 34/1/1 25/3/1
f 48/5/1 52/6/1 38/7/1
f 23/8/1 35/9/1 34/1/1
f 46/10/1 52/6/1 47/11/1
f 38/7/1 51/12/1 39/13/1
f 39/13/1 50/14/1 40/15/1
f 49/16/1 43/17/1 42/18/1
f 45/19/1 53/20/1 52/6/1
f 49/16/1 42/18/1 41/21/1
f 53/20/1 43/17/1 49/16/1
f 54/22/1 62/23/1 55/24/1
f 64/25/1 62/23/1 54/22/1
f 57/26/1 61/27/1 58/28/1
f 62/23/1 56/29/1 55/24/1
f 59/30/1 61/27/1 60/31/1
f 70/32/1 66/33/1 65/34/1
f 79/35/1 74/36/1 73/37/1
f 67/38/1 69/39/1 68/40/1
f 71/41/1 65/34/1 81/42/1
f 71/41/1 80/43/1 72/44/1
f 72/44/1 79/35/1 73/37/1
f 79/35/1 75/45/1 74/36/1
f 76/46/1 78/47/1 77/48/1
f 27/49/1 37/50/1 36/51/1
f 29/52/1 27/49/1 30/53/1
f 31/54/1 27/49/1 36/51/1
f 33/55/1 31/54/1 20/56/1
f 20/56/1 22/57/1 21/58/1
f 36/51/1 20/56/1 31/54/1
f 20/56/1 36/51/1 35/9/1
f 17/59/1 19/60/1 18/61/1
f 15/62/1 19/60/1 16/63/1
f 19/60/1 13/64/1 1/65/1
f 1/65/1 3/66/1 2/67/1
f 5/68/1 1/65/1 13/64/1
f 13/64/1 6/69/1 5/68/1
f 7/70/1 9/71/1 8/72/1
f 10/73/1 6/69/1 11/74/1
f 34/1/1 37/50/1 26/2/1
f 24/4/1 23/8/1 34/1/1
f 48/5/1 47/11/1 52/6/1
f 23/8/1 22/57/1 35/9/1
f 46/10/1 45/19/1 52/6/1
f 38/7/1 52/6/1 51/12/1
f 39/13/1 51/12/1 50/14/1
f 45/19/1 44/75/1 53/20/1
f 40/15/1 50/14/1 41/21/1
f 50/14/1 49/16/1 41/21/1
f 53/20/1 44/75/1 43/17/1
f 64/25/1 63/76/1 62/23/1
f 57/26/1 56/29/1 61/27/1
f 62/23/1 61/27/1 56/29/1
f 59/30/1 58/28/1 61/27/1
f 70/32/1 69/39/1 66/33/1
f 67/38/1 66/33/1 69/39/1
f 71/41/1 70/32/1 65/34/1
f 71/41/1 81/42/1 80/43/1
f 72/44/1 80/43/1 79/35/1
f 79/35/1 78/47/1 75/45/1
f 76/46/1 75/45/1 78/47/1
f 27/49/1 26/2/1 37/50/1
f 29/52/1 28/77/1 27/49/1
f 31/54/1 30/53/1 27/49/1
f 33/55/1 32/78/1 31/54/1
f 20/56/1 35/9/1 22/57/1
f 17/59/1 16/63/1 19/60/1
f 15/62/1 14/79/1 19/60/1
f 19/60/1 14/79/1 13/64/1
f 1/65/1 4/80/1 3/66/1
f 5/68/1 4/80/1 1/65/1
f 13/64/1 12/81/1 6/69/1
f 7/70/1 10/73/1 9/71/1
f 7/70/1 6/69/1 10/73/1
f 6/69/1 12/81/1 11/74/1
