# Blender v2.82 (sub 7) OBJ File: 'menu.blend'
# www.blender.org
mtllib background.mtl
g background
v -0.000005 103.043671 88.808525
v 0.000005 -74.573380 88.808525
v -0.000005 103.043671 -88.808525
v 0.000005 -74.573380 -88.808525
v -0.000005 103.043671 -29.602837
v -0.000005 103.043671 29.602840
v 0.000005 -74.573380 29.602837
v 0.000005 -74.573380 -29.602840
v -0.000002 43.837982 88.808525
v 0.000002 -15.367697 88.808525
v 0.000002 -15.367693 -88.808525
v -0.000002 43.837982 -88.808525
v 0.000002 -15.367693 29.602839
v -0.000002 43.837982 29.602840
v 0.000002 -15.367693 -29.602839
v -0.000002 43.837982 -29.602837
vt 0.439150 0.841436
vt 0.456967 0.823619
vt 0.456967 0.841436
vt 0.403516 0.823619
vt 0.421333 0.841436
vt 0.403516 0.841436
vt 0.421333 0.823619
vt 0.421333 0.859253
vt 0.439150 0.877070
vt 0.421333 0.877070
vt 0.439150 0.859253
vt 0.403516 0.859253
vt 0.403516 0.877070
vt 0.456967 0.877070
vt 0.456967 0.859253
vt 0.439150 0.823619
vn 1.0000 0.0000 0.0000
usemtl Material
s off
f 15/1/1 4/2/1 11/3/1
f 2/4/1 13/5/1 10/6/1
f 7/7/1 15/1/1 13/5/1
f 14/8/1 5/9/1 6/10/1
f 13/5/1 16/11/1 14/8/1
f 9/12/1 6/10/1 1/13/1
f 10/6/1 14/8/1 9/12/1
f 16/11/1 3/14/1 5/9/1
f 15/1/1 12/15/1 16/11/1
f 15/1/1 8/16/1 4/2/1
f 2/4/1 7/7/1 13/5/1
f 7/7/1 8/16/1 15/1/1
f 14/8/1 16/11/1 5/9/1
f 13/5/1 15/1/1 16/11/1
f 9/12/1 14/8/1 6/10/1
f 10/6/1 13/5/1 14/8/1
f 16/11/1 12/15/1 3/14/1
f 15/1/1 11/3/1 12/15/1
