# Blender v2.82 (sub 7) OBJ File: 'menu.blend'
# www.blender.org
mtllib players_4.mtl
g players_4
v 7.548014 32.241520 -44.726028
v 7.548015 35.826305 -44.012966
v 7.548015 38.865337 -41.982349
v 7.548015 40.895954 -38.943314
v 7.548015 41.609013 -35.358532
v 7.548015 40.895954 -31.773746
v 7.548015 38.865337 -28.734713
v 7.548015 35.826305 -26.704090
v 7.548014 32.241520 -25.991034
v 7.548014 28.656734 -26.704090
v 7.548013 25.617701 -28.734707
v 7.548013 23.587080 -31.773741
v 7.548014 22.874022 -35.358532
v 7.548013 23.587082 -38.943314
v 7.548013 25.617701 -41.982353
v 7.548014 28.656738 -44.012970
v 7.548014 32.241520 -42.924633
v 7.548014 35.136940 -42.348694
v 7.548014 37.591557 -40.708572
v 7.548015 39.231682 -38.253948
v 7.548015 39.807617 -35.358532
v 7.548015 39.231682 -32.463108
v 7.548014 37.591557 -30.008488
v 7.548014 35.136940 -28.368364
v 7.548014 32.241520 -27.792429
v 7.548014 29.346098 -28.368364
v 7.548014 26.891479 -30.008488
v 7.548013 25.251352 -32.463108
v 7.548013 24.675419 -35.358532
v 7.548013 25.251354 -38.253952
v 7.548014 26.891479 -40.708572
v 7.548014 29.346102 -42.348701
v 8.342861 29.001417 -27.536228
v 8.342860 26.254589 -29.371597
v 8.342861 38.228447 -41.345463
v 8.342861 40.063816 -38.598633
v 8.342860 24.419218 -32.118423
v 8.342861 40.708313 -35.358532
v 8.342860 23.774721 -35.358532
v 8.342861 40.063816 -32.118423
v 8.342860 24.419218 -38.598637
v 8.342861 38.228447 -29.371601
v 8.342860 26.254591 -41.345463
v 8.342861 35.481625 -27.536228
v 8.342861 29.001417 -43.180832
v 8.342861 32.241520 -26.891731
v 8.342861 32.241520 -43.825329
v 8.342861 35.481625 -43.180832
vt 0.100720 0.762628
vt 0.117978 0.769035
vt 0.102126 0.769128
vt 0.084991 0.848528
vt 0.103227 0.849052
vt 0.101997 0.855580
vt 0.136313 0.769437
vt 0.119180 0.762481
vt 0.077343 0.831746
vt 0.088636 0.842960
vt 0.144017 0.786237
vt 0.132688 0.775042
vt 0.064571 0.818562
vt 0.071861 0.835543
vt 0.156791 0.799458
vt 0.149510 0.782428
vt 0.064195 0.800155
vt 0.071072 0.817098
vt 0.150495 0.816800
vt 0.150269 0.800899
vt 0.070934 0.783044
vt 0.070732 0.801270
vt 0.150243 0.835108
vt 0.157059 0.817950
vt 0.087565 0.775302
vt 0.076533 0.786597
vt 0.120392 0.855481
vt 0.133567 0.842849
vt 0.137363 0.848309
vt 0.144631 0.831533
vt 0.083768 0.769854
vt 0.119004 0.849003
vt 0.121780 0.862251
vt 0.079858 0.764214
vt 0.156028 0.838822
vt 0.141270 0.853969
vt 0.065156 0.779353
vt 0.163831 0.819162
vt 0.057445 0.798978
vt 0.163521 0.797997
vt 0.057872 0.820041
vt 0.155185 0.778518
vt 0.066205 0.839435
vt 0.140069 0.763663
vt 0.081226 0.854254
vt 0.120438 0.755716
vt 0.100680 0.862267
vt 0.099284 0.755907
vn 0.7434 0.3716 -0.5561
vn 0.7434 -0.5561 0.3716
vn 0.7434 0.5561 -0.3716
vn 0.7434 -0.6560 0.1305
vn 0.7434 0.6560 -0.1305
vn 0.7434 -0.6560 -0.1305
vn 0.7434 0.6560 0.1305
vn 0.7434 -0.5561 -0.3716
vn 0.7434 0.5561 0.3716
vn 0.7434 -0.3716 -0.5561
vn 0.7434 0.3716 0.5561
vn 0.7434 -0.1305 -0.6560
vn 0.7434 -0.1305 0.6560
vn 0.7434 0.1305 0.6560
vn 0.7434 0.1305 -0.6560
vn 0.7434 -0.3716 0.5561
usemtl Material
s off
f 33/1/1 27/2/1 26/3/1
f 36/4/2 19/5/2 35/6/2
f 37/7/3 27/2/3 34/8/3
f 36/4/4 21/9/4 20/10/4
f 37/7/5 29/11/5 28/12/5
f 40/13/6 21/9/6 38/14/6
f 41/15/7 29/11/7 39/16/7
f 42/17/8 22/18/8 40/13/8
f 41/15/9 31/19/9 30/20/9
f 44/21/10 23/22/10 42/17/10
f 45/23/11 31/19/11 43/24/11
f 44/21/12 25/25/12 24/26/12
f 48/27/13 17/28/13 47/29/13
f 47/29/14 32/30/14 45/23/14
f 33/1/15 25/25/15 46/31/15
f 35/6/16 18/32/16 48/27/16
f 2/33/1 35/6/1 48/27/1
f 9/34/13 33/1/13 46/31/13
f 16/35/12 47/29/12 45/23/12
f 1/36/15 48/27/15 47/29/15
f 9/34/14 44/21/14 8/37/14
f 15/38/10 45/23/10 43/24/10
f 7/39/11 44/21/11 42/17/11
f 15/38/8 41/15/8 14/40/8
f 7/39/9 40/13/9 6/41/9
f 14/40/6 39/16/6 13/42/6
f 6/41/7 38/14/7 5/43/7
f 13/42/4 37/7/4 12/44/4
f 5/43/5 36/4/5 4/45/5
f 12/44/2 34/8/2 11/46/2
f 3/47/3 36/4/3 35/6/3
f 10/48/16 34/8/16 33/1/16
f 33/1/1 34/8/1 27/2/1
f 36/4/2 20/10/2 19/5/2
f 37/7/3 28/12/3 27/2/3
f 36/4/4 38/14/4 21/9/4
f 37/7/5 39/16/5 29/11/5
f 40/13/6 22/18/6 21/9/6
f 41/15/7 30/20/7 29/11/7
f 42/17/8 23/22/8 22/18/8
f 41/15/9 43/24/9 31/19/9
f 44/21/10 24/26/10 23/22/10
f 45/23/11 32/30/11 31/19/11
f 44/21/12 46/31/12 25/25/12
f 48/27/13 18/32/13 17/28/13
f 47/29/14 17/28/14 32/30/14
f 33/1/15 26/3/15 25/25/15
f 35/6/16 19/5/16 18/32/16
f 2/33/1 3/47/1 35/6/1
f 9/34/13 10/48/13 33/1/13
f 16/35/12 1/36/12 47/29/12
f 1/36/15 2/33/15 48/27/15
f 9/34/14 46/31/14 44/21/14
f 15/38/10 16/35/10 45/23/10
f 7/39/11 8/37/11 44/21/11
f 15/38/8 43/24/8 41/15/8
f 7/39/9 42/17/9 40/13/9
f 14/40/6 41/15/6 39/16/6
f 6/41/7 40/13/7 38/14/7
f 13/42/4 39/16/4 37/7/4
f 5/43/5 38/14/5 36/4/5
f 12/44/2 37/7/2 34/8/2
f 3/47/3 4/45/3 36/4/3
f 10/48/16 11/46/16 34/8/16
