# Blender v2.82 (sub 7) OBJ File: 'menu.blend'
# www.blender.org
mtllib players_2.mtl
g players_2
v 7.578171 32.241520 3.607781
v 7.578172 35.826305 4.320841
v 7.578172 38.865337 6.351460
v 7.578172 40.895954 9.390493
v 7.578172 41.609013 12.975278
v 7.578172 40.895954 16.560062
v 7.578172 38.865337 19.599096
v 7.578172 35.826305 21.629717
v 7.578171 32.241520 22.342775
v 7.578171 28.656734 21.629717
v 7.578171 25.617701 19.599100
v 7.578171 23.587080 16.560066
v 7.578171 22.874022 12.975278
v 7.578171 23.587082 9.390491
v 7.578171 25.617701 6.351455
v 7.578171 28.656738 4.320839
v 7.578171 32.241520 5.409176
v 7.578171 35.136940 5.985113
v 7.578171 37.591557 7.625237
v 7.578172 39.231682 10.079857
v 7.578172 39.807617 12.975278
v 7.578172 39.231682 15.870701
v 7.578171 37.591557 18.325321
v 7.578171 35.136940 19.965443
v 7.578171 32.241520 20.541380
v 7.578171 29.346098 19.965443
v 7.578171 26.891479 18.325321
v 7.578171 25.251352 15.870701
v 7.578171 24.675419 12.975278
v 7.578171 25.251354 10.079855
v 7.578171 26.891479 7.625235
v 7.578171 29.346102 5.985111
v 8.373018 29.001417 20.797581
v 8.373018 26.254589 18.962212
v 8.373018 38.228447 6.988347
v 8.373018 40.063816 9.735174
v 8.373018 24.419218 16.215384
v 8.373018 40.708313 12.975278
v 8.373018 23.774721 12.975278
v 8.373018 40.063816 16.215384
v 8.373018 24.419218 9.735172
v 8.373018 38.228447 18.962206
v 8.373018 26.254591 6.988345
v 8.373018 35.481625 20.797581
v 8.373018 29.001417 5.152976
v 8.373018 32.241520 21.442078
v 8.373018 32.241520 4.508479
v 8.373018 35.481625 5.152976
vt 0.046355 0.769831
vt 0.063290 0.774022
vt 0.048381 0.775804
vt 0.040502 0.852975
vt 0.057870 0.851367
vt 0.057445 0.857692
vt 0.080597 0.772484
vt 0.063729 0.767723
vt 0.026640 0.842118
vt 0.043322 0.847288
vt 0.089588 0.787532
vt 0.077762 0.778141
vt 0.017973 0.826782
vt 0.031424 0.837938
vt 0.103020 0.798713
vt 0.094379 0.783375
vt 0.015811 0.809308
vt 0.023991 0.824744
vt 0.099044 0.815746
vt 0.097006 0.800779
vt 0.020458 0.792351
vt 0.022146 0.809713
vt 0.100824 0.833011
vt 0.105348 0.816095
vt 0.035333 0.783210
vt 0.026153 0.795126
vt 0.074876 0.855548
vt 0.085936 0.842136
vt 0.090117 0.846874
vt 0.095143 0.830257
vt 0.031154 0.778484
vt 0.072840 0.849555
vt 0.056990 0.864222
vt 0.076963 0.861744
vt 0.026853 0.773584
vt 0.106687 0.835875
vt 0.094426 0.851783
vt 0.014598 0.789465
vt 0.111859 0.816484
vt 0.009279 0.808866
vt 0.109208 0.796612
vt 0.011758 0.828866
vt 0.099328 0.779101
vt 0.021690 0.846418
vt 0.083539 0.766650
vt 0.037575 0.858838
vt 0.064199 0.761213
vt 0.044278 0.763650
vn 0.7434 0.3716 -0.5561
vn 0.7434 -0.5561 0.3716
vn 0.7434 0.5561 -0.3716
vn 0.7434 -0.6560 0.1305
vn 0.7434 0.6560 -0.1305
vn 0.7434 -0.6560 -0.1305
vn 0.7434 0.6560 0.1305
vn 0.7434 -0.5561 -0.3716
vn 0.7434 0.5561 0.3716
vn 0.7434 -0.3716 -0.5561
vn 0.7434 0.3716 0.5561
vn 0.7434 -0.1305 -0.6560
vn 0.7434 -0.1305 0.6560
vn 0.7434 0.1305 0.6560
vn 0.7434 0.1305 -0.6560
vn 0.7434 -0.3716 0.5561
usemtl Material
s off
f 33/1/1 27/2/1 26/3/1
f 36/4/2 19/5/2 35/6/2
f 37/7/3 27/2/3 34/8/3
f 38/9/4 20/10/4 36/4/4
f 37/7/5 29/11/5 28/12/5
f 40/13/6 21/14/6 38/9/6
f 41/15/7 29/11/7 39/16/7
f 42/17/8 22/18/8 40/13/8
f 41/15/9 31/19/9 30/20/9
f 44/21/10 23/22/10 42/17/10
f 45/23/11 31/19/11 43/24/11
f 44/21/12 25/25/12 24/26/12
f 48/27/13 17/28/13 47/29/13
f 45/23/14 17/28/14 32/30/14
f 33/1/15 25/25/15 46/31/15
f 48/27/16 19/5/16 18/32/16
f 3/33/1 48/27/1 2/34/1
f 9/35/13 33/1/13 46/31/13
f 16/36/12 47/29/12 45/23/12
f 2/34/15 47/29/15 1/37/15
f 9/35/14 44/21/14 8/38/14
f 16/36/10 43/24/10 15/39/10
f 7/40/11 44/21/11 42/17/11
f 15/39/8 41/15/8 14/41/8
f 7/40/9 40/13/9 6/42/9
f 14/41/6 39/16/6 13/43/6
f 6/42/7 38/9/7 5/44/7
f 12/45/4 39/16/4 37/7/4
f 4/46/5 38/9/5 36/4/5
f 12/45/2 34/8/2 11/47/2
f 3/33/3 36/4/3 35/6/3
f 10/48/16 34/8/16 33/1/16
f 33/1/1 34/8/1 27/2/1
f 36/4/2 20/10/2 19/5/2
f 37/7/3 28/12/3 27/2/3
f 38/9/4 21/14/4 20/10/4
f 37/7/5 39/16/5 29/11/5
f 40/13/6 22/18/6 21/14/6
f 41/15/7 30/20/7 29/11/7
f 42/17/8 23/22/8 22/18/8
f 41/15/9 43/24/9 31/19/9
f 44/21/10 24/26/10 23/22/10
f 45/23/11 32/30/11 31/19/11
f 44/21/12 46/31/12 25/25/12
f 48/27/13 18/32/13 17/28/13
f 45/23/14 47/29/14 17/28/14
f 33/1/15 26/3/15 25/25/15
f 48/27/16 35/6/16 19/5/16
f 3/33/1 35/6/1 48/27/1
f 9/35/13 10/48/13 33/1/13
f 16/36/12 1/37/12 47/29/12
f 2/34/15 48/27/15 47/29/15
f 9/35/14 46/31/14 44/21/14
f 16/36/10 45/23/10 43/24/10
f 7/40/11 8/38/11 44/21/11
f 15/39/8 43/24/8 41/15/8
f 7/40/9 42/17/9 40/13/9
f 14/41/6 41/15/6 39/16/6
f 6/42/7 40/13/7 38/9/7
f 12/45/4 13/43/4 39/16/4
f 4/46/5 5/44/5 38/9/5
f 12/45/2 37/7/2 34/8/2
f 3/33/3 4/46/3 36/4/3
f 10/48/16 11/47/16 34/8/16
