# Blender v2.82 (sub 7) OBJ File: 'menu.blend'
# www.blender.org
mtllib players_1.mtl
g players_1
v 7.695232 12.019423 25.088562
v 7.695233 15.604207 25.801622
v 7.695233 18.643242 27.832241
v 7.695233 20.673857 30.871275
v 7.695233 21.386915 34.456059
v 7.695233 20.673857 38.040844
v 7.695233 18.643242 41.079880
v 7.695233 15.604209 43.110500
v 7.695232 12.019423 43.823555
v 7.695232 8.434638 43.110500
v 7.695232 5.395604 41.079884
v 7.695232 3.364983 38.040848
v 7.695232 2.651924 34.456059
v 7.695232 3.364986 30.871273
v 7.695232 5.395604 27.832237
v 7.695232 8.434641 25.801620
v 7.695232 12.019423 26.889957
v 7.695232 14.914844 27.465895
v 7.695232 17.369461 29.106018
v 7.695233 19.009583 31.560638
v 7.695233 19.585520 34.456059
v 7.695233 19.009583 37.351482
v 7.695232 17.369461 39.806103
v 7.695232 14.914844 41.446224
v 7.695232 12.019423 42.022160
v 7.695232 9.124002 41.446224
v 7.695232 6.669382 39.806103
v 7.695232 5.029255 37.351482
v 7.695232 4.453321 34.456059
v 7.695232 5.029257 31.560637
v 7.695232 6.669382 29.106016
v 7.695232 9.124004 27.465893
vt 0.067978 0.394134
vt 0.069449 0.456410
vt 0.057039 0.443542
vt 0.145976 0.597974
vt 0.123540 0.597996
vt 0.136230 0.572582
vt 0.084858 0.360372
vt 0.077669 0.419509
vt 0.129089 0.632000
vt 0.108336 0.607830
vt 0.105071 0.347399
vt 0.090341 0.394336
vt 0.088326 0.635708
vt 0.108841 0.645246
vt 0.125518 0.356981
vt 0.105533 0.384740
vt 0.070671 0.604888
vt 0.092935 0.600586
vt 0.134294 0.414767
vt 0.120966 0.392115
vt 0.058545 0.557553
vt 0.079679 0.577383
vt 0.155395 0.434164
vt 0.143182 0.387180
vt 0.053732 0.500969
vt 0.070568 0.541774
vt 0.156916 0.548372
vt 0.146989 0.492411
vt 0.160226 0.490812
vt 0.143415 0.449994
vt 0.066947 0.499352
vt 0.144466 0.535484
vn 1.0000 0.0000 -0.0000
usemtl Material
s off
f 11/1/1 26/2/1 10/3/1
f 3/4/1 20/5/1 19/6/1
f 12/7/1 27/8/1 11/1/1
f 4/9/1 21/10/1 20/5/1
f 13/11/1 28/12/1 12/7/1
f 6/13/1 21/10/1 5/14/1
f 14/15/1 29/16/1 13/11/1
f 7/17/1 22/18/1 6/13/1
f 14/15/1 31/19/1 30/20/1
f 8/21/1 23/22/1 7/17/1
f 16/23/1 31/19/1 15/24/1
f 9/25/1 24/26/1 8/21/1
f 2/27/1 17/28/1 1/29/1
f 1/29/1 32/30/1 16/23/1
f 10/3/1 25/31/1 9/25/1
f 3/4/1 18/32/1 2/27/1
f 11/1/1 27/8/1 26/2/1
f 3/4/1 4/9/1 20/5/1
f 12/7/1 28/12/1 27/8/1
f 4/9/1 5/14/1 21/10/1
f 13/11/1 29/16/1 28/12/1
f 6/13/1 22/18/1 21/10/1
f 14/15/1 30/20/1 29/16/1
f 7/17/1 23/22/1 22/18/1
f 14/15/1 15/24/1 31/19/1
f 8/21/1 24/26/1 23/22/1
f 16/23/1 32/30/1 31/19/1
f 9/25/1 25/31/1 24/26/1
f 2/27/1 18/32/1 17/28/1
f 1/29/1 17/28/1 32/30/1
f 10/3/1 26/2/1 25/31/1
f 3/4/1 19/6/1 18/32/1
