# Blender v2.82 (sub 7) OBJ File: 'menu.blend'
# www.blender.org
mtllib players_4.mtl
g players_4
v 7.548014 12.019423 -44.726028
v 7.548015 15.604207 -44.012966
v 7.548015 18.643242 -41.982349
v 7.548015 20.673857 -38.943314
v 7.548015 21.386915 -35.358532
v 7.548015 20.673857 -31.773746
v 7.548015 18.643242 -28.734713
v 7.548015 15.604209 -26.704090
v 7.548014 12.019423 -25.991034
v 7.548014 8.434638 -26.704090
v 7.548013 5.395604 -28.734707
v 7.548013 3.364983 -31.773741
v 7.548014 2.651924 -35.358532
v 7.548013 3.364986 -38.943314
v 7.548013 5.395604 -41.982353
v 7.548014 8.434641 -44.012970
v 7.548014 12.019423 -42.924633
v 7.548014 14.914844 -42.348694
v 7.548014 17.369461 -40.708572
v 7.548015 19.009583 -38.253948
v 7.548015 19.585520 -35.358532
v 7.548015 19.009583 -32.463108
v 7.548014 17.369461 -30.008488
v 7.548014 14.914844 -28.368364
v 7.548014 12.019423 -27.792429
v 7.548014 9.124002 -28.368364
v 7.548014 6.669382 -30.008488
v 7.548013 5.029255 -32.463108
v 7.548013 4.453321 -35.358532
v 7.548013 5.029257 -38.253952
v 7.548014 6.669382 -40.708572
v 7.548014 9.124004 -42.348701
vt 0.737902 0.363900
vt 0.726683 0.421323
vt 0.712519 0.396078
vt 0.770560 0.642697
vt 0.792898 0.598062
vt 0.800552 0.631384
vt 0.768055 0.352174
vt 0.745745 0.397322
vt 0.747599 0.598287
vt 0.770337 0.606366
vt 0.798364 0.362644
vt 0.768381 0.388652
vt 0.714589 0.601386
vt 0.740394 0.632166
vt 0.824242 0.393608
vt 0.791148 0.396633
vt 0.696973 0.555012
vt 0.728136 0.575003
vt 0.841799 0.440384
vt 0.810599 0.419976
vt 0.690350 0.499636
vt 0.714874 0.540185
vt 0.848340 0.495979
vt 0.823781 0.455131
vt 0.695809 0.443776
vt 0.709966 0.498727
vt 0.826013 0.599679
vt 0.824491 0.538681
vt 0.842820 0.551938
vt 0.828662 0.496816
vt 0.714115 0.456958
vt 0.811906 0.574274
vn 1.0000 -0.0000 -0.0000
usemtl Material
s off
f 11/1/1 26/2/1 10/3/1
f 4/4/1 19/5/1 3/6/1
f 12/7/1 27/8/1 11/1/1
f 4/4/1 21/9/1 20/10/1
f 13/11/1 28/12/1 12/7/1
f 6/13/1 21/9/1 5/14/1
f 14/15/1 29/16/1 13/11/1
f 7/17/1 22/18/1 6/13/1
f 15/19/1 30/20/1 14/15/1
f 8/21/1 23/22/1 7/17/1
f 16/23/1 31/24/1 15/19/1
f 9/25/1 24/26/1 8/21/1
f 2/27/1 17/28/1 1/29/1
f 1/29/1 32/30/1 16/23/1
f 10/3/1 25/31/1 9/25/1
f 2/27/1 19/5/1 18/32/1
f 11/1/1 27/8/1 26/2/1
f 4/4/1 20/10/1 19/5/1
f 12/7/1 28/12/1 27/8/1
f 4/4/1 5/14/1 21/9/1
f 13/11/1 29/16/1 28/12/1
f 6/13/1 22/18/1 21/9/1
f 14/15/1 30/20/1 29/16/1
f 7/17/1 23/22/1 22/18/1
f 15/19/1 31/24/1 30/20/1
f 8/21/1 24/26/1 23/22/1
f 16/23/1 32/30/1 31/24/1
f 9/25/1 25/31/1 24/26/1
f 2/27/1 18/32/1 17/28/1
f 1/29/1 17/28/1 32/30/1
f 10/3/1 26/2/1 25/31/1
f 2/27/1 3/6/1 19/5/1
