# Blender v2.82 (sub 7) OBJ File: 'players.blend'
# www.blender.org
mtllib drum_waves.mtl
g drum_waves_Plane
v 46.972054 54.243217 10.629139
v 46.972054 40.743401 14.739499
v 46.972054 28.509562 20.833784
v 46.972061 -31.340504 20.162588
v 46.972054 10.062961 19.736910
v 43.852863 15.722502 22.772041
v 43.852863 -5.107378 15.667807
v 46.972054 -0.510980 20.576664
v 46.972054 -24.225861 22.664289
v 43.852867 -28.115263 28.346447
v 44.577568 -48.996925 16.194315
v 46.972057 -44.322346 20.945074
v 46.972054 51.504745 -6.942720
v 46.972054 40.743401 -5.731919
v 46.972054 28.509562 0.362365
v 46.972061 -31.340504 -0.308830
v 46.972054 10.062961 -0.734508
v 46.972054 15.722503 2.300624
v 46.972054 -5.107379 -4.803611
v 46.972054 -0.510980 0.105245
v 46.972054 -24.225861 2.192871
v 46.972057 -28.115263 7.875029
v 44.577568 -44.808674 -2.505150
v 46.972057 -40.617355 1.601263
v 46.972054 54.726479 -25.664560
v 46.972054 40.743401 -25.420277
v 46.972054 28.509562 -19.325993
v 46.972061 -31.340504 -19.997189
v 46.972054 10.062961 -20.422867
v 43.852863 15.722502 -17.387735
v 43.852863 -5.107378 -24.491970
v 46.972054 -0.510980 -19.583113
v 46.972054 -24.225861 -17.495487
v 43.852867 -28.115263 -11.813330
v 44.577568 -48.996925 -23.965462
v 46.972057 -44.322346 -19.214703
vt 0.038957 -0.001484
vt 0.038957 0.141354
vt 0.017574 -0.001484
vt 0.017574 -0.001484
vt 0.038957 0.141354
vt 0.017574 -0.001484
vt 0.017574 -0.001484
vt 0.038957 0.141354
vt 0.017574 -0.001484
vt 0.038957 -0.001484
vt 0.038957 0.141354
vt 0.017574 -0.001484
vt 0.017574 -0.001484
vt 0.038957 0.141354
vt 0.017574 -0.001484
vt 0.017574 -0.001484
vt 0.038957 0.141354
vt 0.017574 -0.001484
vt 0.038957 -0.001484
vt 0.038957 0.141354
vt 0.017574 -0.001484
vt 0.017574 -0.001484
vt 0.038957 0.141354
vt 0.017574 -0.001484
vt 0.017574 -0.001484
vt 0.038957 0.141354
vt 0.017574 -0.001484
vt 0.038957 0.141354
vt 0.038957 0.141354
vt 0.038957 0.141354
vt 0.038957 0.141354
vt 0.038957 0.141354
vt 0.038957 0.141354
vn 1.0000 0.0000 0.0000
vn 0.8600 -0.0404 -0.5087
vn 0.8615 -0.0445 -0.5057
vn 0.8753 0.0412 -0.4817
vn 0.8553 0.0187 -0.5178
vn 0.6536 -0.0449 0.7555
vn 0.7441 0.0529 0.6660
vn 0.8626 0.0444 0.5039
vn 0.8870 -0.0394 0.4600
usemtl Material_Drum
s off
f 1/1/1 3/2/1 2/3/1
f 3/2/1 5/4/1 2/3/1
f 5/4/2 8/5/2 7/6/2
f 8/5/3 9/7/3 7/6/3
f 9/7/4 12/8/4 11/9/4
f 13/10/1 15/11/1 14/12/1
f 15/11/1 17/13/1 14/12/1
f 17/13/1 20/14/1 19/15/1
f 20/14/1 21/16/1 19/15/1
f 21/16/5 24/17/5 23/18/5
f 25/19/1 27/20/1 26/21/1
f 27/20/1 29/22/1 26/21/1
f 29/22/2 32/23/2 31/24/2
f 32/23/3 33/25/3 31/24/3
f 33/25/4 36/26/4 35/27/4
f 3/2/6 6/28/6 5/4/6
f 5/4/7 6/28/7 8/5/7
f 8/5/8 10/29/8 9/7/8
f 9/7/9 10/29/9 12/8/9
f 15/11/1 18/30/1 17/13/1
f 17/13/1 18/30/1 20/14/1
f 20/14/1 22/31/1 21/16/1
f 21/16/1 22/31/1 24/17/1
f 27/20/6 30/32/6 29/22/6
f 29/22/7 30/32/7 32/23/7
f 32/23/8 34/33/8 33/25/8
f 33/25/9 34/33/9 36/26/9
