# Blender v2.82 (sub 7) OBJ File: 'players.blend'
# www.blender.org
mtllib drum.mtl
g drum
v -34.993359 -35.081997 -7.251009
v -7.162361 -35.081997 -35.082001
v -26.841850 -35.081997 -26.930498
v -7.162361 -35.081997 35.082001
v -34.993359 -35.081997 7.251006
v -26.841850 -35.081997 26.930487
v 7.339637 -35.081997 -35.082001
v 35.170635 -35.081997 -7.251009
v 27.019123 -35.081997 -26.930498
v 35.170635 -35.081997 7.251006
v 7.339637 -35.081997 35.082001
v 27.019123 -35.081997 26.930487
v -8.313507 -23.751661 -40.651505
v -8.313507 -23.751665 40.651505
v 8.490781 -23.751661 -40.651505
v 31.294518 -23.751661 -31.205889
v 40.740135 -23.751663 -8.402146
v 8.490781 -23.751665 40.651505
v 31.294518 -23.751665 31.205877
v 40.740135 -23.751663 8.402152
v 0.088636 -35.081997 -0.000002
v -34.993359 35.081997 -7.251006
v -7.162361 35.081997 -35.082001
v -26.841850 35.081997 -26.930494
v -7.162361 35.081997 35.082001
v -34.993359 35.081997 7.251009
v -26.841850 35.081997 26.930490
v 7.339637 35.081997 -35.082001
v 35.170635 35.081997 -7.251006
v 27.019123 35.081997 -26.930494
v 35.170635 35.081997 7.251009
v 7.339637 35.081997 35.082001
v 27.019123 35.081997 26.930490
v -8.313507 23.751665 -40.651505
v -8.313507 23.751661 40.651505
v 8.490781 23.751665 -40.651505
v 31.294518 23.751665 -31.205885
v 40.740135 23.751663 -8.402144
v 8.490781 23.751661 40.651505
v 31.294518 23.751661 31.205881
v 40.740135 23.751663 8.402154
v 0.088636 35.081997 0.000002
v -9.767170 -0.000002 42.892746
v 7.963588 0.000002 -42.892746
v 32.024563 -0.000001 32.926353
v 41.990944 -0.000000 8.865387
v 41.990944 0.000000 -8.865387
v 7.963588 -0.000002 42.892746
v 32.024563 0.000001 -32.926361
v -9.767170 0.000002 -42.892746
v 5.496210 -41.126095 38.074867
v 5.496202 -41.126106 -38.217110
v -10.272365 -41.126095 38.074867
v -40.534073 -41.126102 7.813174
v -31.670620 -41.126095 29.211433
v -40.534073 -41.126102 -7.955417
v -10.272371 -41.126106 -38.217110
v -31.670628 -41.126106 -29.353661
v 6.747894 -24.099052 44.130798
v 6.747887 -24.099054 -44.273045
v -11.524046 -24.099052 44.130806
v -36.319416 -24.099052 33.860229
v -46.590004 -24.099052 9.064851
v -11.524055 -24.099054 -44.273037
v -36.319420 -24.099054 -34.002457
v -46.590004 -24.099052 -9.207100
v 5.496210 41.436905 38.074867
v 5.496202 41.436893 -38.217110
v -10.272365 41.436905 38.074867
v -40.534073 41.436901 7.813171
v -31.670620 41.436905 29.211432
v -40.534073 41.436901 -7.955420
v -10.272371 41.436893 -38.217110
v -31.670628 41.436893 -29.353661
v 6.747894 24.409849 44.130795
v 6.747887 24.409845 -44.273052
v -11.524046 24.409849 44.130795
v -36.319416 24.409849 33.860222
v -46.590004 24.409847 9.064848
v -11.524055 24.409845 -44.273052
v -36.319420 24.409845 -34.002457
v -46.590004 24.409847 -9.207104
v 6.282811 0.155395 -46.710033
v -10.950808 0.155399 46.567791
v -37.113232 0.155396 -35.873196
v -47.950054 0.155397 -9.710793
v -47.950054 0.155397 9.568550
v -10.950817 0.155395 -46.710033
v -37.113224 0.155399 35.730961
v 6.282802 0.155399 46.567791
v 35.832294 -41.126102 7.813174
v 26.968836 -41.126095 29.211433
v 35.832294 -41.126102 -7.955417
v 27.002619 -41.126106 -29.353661
v 35.832294 41.436901 7.813171
v 26.968836 41.436905 29.211432
v 35.832294 41.436901 -7.955420
v 26.968840 41.436893 -29.353661
v 31.651407 -24.099052 33.860229
v 31.651415 -24.099054 -34.002457
v 27.002619 41.436893 -29.353661
v 31.651407 24.409849 33.860222
v 31.651415 24.409845 -34.002457
v 32.445225 0.155396 -35.873196
v 32.445217 0.155399 35.730961
vt 0.326900 0.131405
vt 0.044117 0.685758
vt 0.045943 0.158148
vt 0.342326 2.974624
vt 0.043537 2.056906
vt 0.340309 2.116300
vt 0.043557 1.315385
vt 0.326528 1.437227
vt 0.330199 0.772262
vt 0.329778 -0.997047
vt 0.040038 -1.980230
vt 0.323176 -1.945206
vt 0.922103 -1.182723
vt 0.911969 -1.921127
vt 0.921466 0.755538
vt 0.922753 1.546384
vt 0.930074 2.323169
vt 0.045580 -0.380101
vt 0.043109 -0.924818
vt 0.924650 0.094712
vt 0.244598 0.793953
vt 0.245649 0.791415
vt 0.249123 0.794889
vt 0.248188 0.790363
vt 0.250059 0.790363
vt 0.252597 0.791415
vt 0.253649 0.793953
vt 0.253649 0.795824
vt 0.252597 0.798363
vt 0.250059 0.799415
vt 0.248188 0.799415
vt 0.245649 0.798363
vt 0.244598 0.795824
vt 0.928297 -0.589033
vt 0.331218 -0.442886
vt 0.326900 0.131405
vt 0.044117 0.685758
vt 0.330199 0.772262
vt 0.043537 2.056906
vt 0.342326 2.974624
vt 0.340309 2.116300
vt 0.043557 1.315385
vt 0.326528 1.437227
vt 0.040038 -1.980230
vt 0.329778 -0.997047
vt 0.323176 -1.945206
vt 0.045580 -0.380101
vt 0.331218 -0.442886
vt 0.043109 -0.924818
vt 0.932568 2.973399
vt 0.250513 0.803011
vt 0.251449 0.807537
vt 0.247974 0.804062
vt 0.246923 0.806601
vt 0.246923 0.808472
vt 0.247974 0.811011
vt 0.250513 0.812062
vt 0.252384 0.812062
vt 0.254923 0.811011
vt 0.255974 0.808472
vt 0.255974 0.806601
vt 0.254923 0.804062
vt 0.252384 0.803011
vt 0.156022 0.593783
vt 0.156663 0.592526
vt 0.156014 0.592330
vt 0.156664 0.589419
vt 0.155987 0.587340
vt 0.155992 0.589285
vt 0.156664 0.591100
vt 0.156023 0.590824
vt 0.156672 0.598568
vt 0.156015 0.596340
vt 0.156030 0.598489
vt 0.154673 0.596761
vt 0.154696 0.598434
vt 0.154675 0.592368
vt 0.154672 0.590576
vt 0.154655 0.588816
vt 0.156659 0.594942
vt 0.156012 0.595084
vt 0.156665 0.596176
vt 0.154649 0.587342
vt 0.154659 0.595415
vt 0.154667 0.593866
vt 0.156022 0.593783
vt 0.156663 0.592526
vt 0.156659 0.593722
vt 0.155987 0.587340
vt 0.156664 0.589419
vt 0.155992 0.589285
vt 0.156664 0.591100
vt 0.156023 0.590824
vt 0.156014 0.592330
vt 0.156015 0.596340
vt 0.156672 0.598568
vt 0.156030 0.598489
vt 0.156659 0.594942
vt 0.156665 0.596176
vt 0.156012 0.595084
vt 0.149480 0.593989
vt 0.151643 0.584918
vt 0.151643 0.599211
vt 0.156866 0.601374
vt 0.160714 0.582754
vt 0.160714 0.601374
vt 0.149491 0.590102
vt 0.151006 0.596452
vt 0.149491 0.592796
vt 0.154661 0.584933
vt 0.151006 0.586447
vt 0.157355 0.597966
vt 0.157355 0.584933
vt 0.149480 0.593989
vt 0.151643 0.584918
vt 0.149480 0.590140
vt 0.156866 0.601374
vt 0.151643 0.599211
vt 0.149491 0.592796
vt 0.151006 0.586447
vt 0.149491 0.590102
vt 0.154661 0.597966
vt 0.154661 0.584933
vt 0.155992 0.589285
vt 0.156664 0.591100
vt 0.156023 0.590824
vt 0.154672 0.590576
vt 0.154655 0.588816
vt 0.156015 0.596340
vt 0.154659 0.595415
vt 0.156012 0.595084
vt 0.155992 0.589285
vt 0.156664 0.591100
vt 0.156664 0.589419
vt 0.156659 0.594942
vt 0.156015 0.596340
vt 0.156665 0.596176
vt 0.154673 0.596761
vt 0.037838 2.981022
vt 0.045943 0.158148
vt 0.037838 2.981022
vt 0.156659 0.593722
vt 0.156677 0.587325
vt 0.156677 0.587325
vt 0.149480 0.590140
vt 0.156866 0.582754
vt 0.154661 0.597966
vt 0.156866 0.582754
vt 0.151006 0.596452
vt 0.156664 0.589419
vt 0.156023 0.590824
vt 0.156012 0.595084
vn 0.9494 -0.2513 -0.1884
vn 0.5585 -0.8220 0.1108
vn 0.5585 -0.8220 -0.1108
vn 0.0000 -0.2634 0.9647
vn 0.1108 -0.8220 0.5585
vn 0.1907 -0.2670 0.9446
vn 0.4219 -0.8025 0.4219
vn 0.6846 -0.2651 0.6790
vn 0.9494 -0.2513 0.1884
vn 0.1907 -0.2670 -0.9446
vn 0.0000 -0.9192 -0.3937
vn 0.0000 -0.2634 -0.9647
vn 0.1903 0.0000 -0.9817
vn 0.0000 0.0000 -1.0000
vn 0.9806 0.0000 0.1961
vn 0.7021 0.0000 0.7120
vn 0.1903 0.0000 0.9817
vn 0.4219 -0.8025 -0.4219
vn 0.1108 -0.8220 -0.5585
vn 0.9806 0.0000 -0.1961
vn 0.0000 -1.0000 0.0000
vn 0.0000 -0.9192 0.3937
vn 0.7021 0.0000 -0.7120
vn 0.6846 -0.2651 -0.6790
vn 0.9494 0.2513 -0.1884
vn 0.5585 0.8220 0.1108
vn 0.9494 0.2513 0.1884
vn 0.1108 0.8220 0.5585
vn 0.0000 0.2634 0.9647
vn 0.1907 0.2670 0.9446
vn 0.4219 0.8025 0.4219
vn 0.6846 0.2651 0.6790
vn 0.0000 0.9192 -0.3937
vn 0.1907 0.2670 -0.9446
vn 0.0000 0.2634 -0.9647
vn 0.4219 0.8025 -0.4219
vn 0.6846 0.2651 -0.6790
vn 0.1108 0.8220 -0.5585
vn 0.0000 0.0000 1.0000
vn 0.0000 1.0000 0.0000
vn 0.5585 0.8220 -0.1108
vn 0.0000 0.9192 0.3937
vn 0.9346 0.2469 -0.2560
vn 0.6063 0.7861 0.1204
vn 0.9346 0.2469 0.2560
vn 0.1204 0.7861 0.6063
vn -0.1925 0.2160 0.9572
vn 0.1933 0.2158 0.9571
vn 0.4575 0.7624 0.4575
vn 0.6937 0.2138 0.6878
vn -0.1200 0.7862 -0.6063
vn 0.1933 0.2158 -0.9571
vn -0.1926 0.2161 -0.9572
vn 0.1900 0.0000 -0.9818
vn -0.1905 0.0000 -0.9817
vn 0.9239 0.0000 0.3827
vn 0.7018 0.0000 0.7123
vn 0.1900 0.0000 0.9818
vn 0.4575 0.7624 -0.4575
vn 0.6937 0.2138 -0.6878
vn 0.1204 0.7861 -0.6063
vn -0.1905 0.0000 0.9817
vn 0.7018 0.0000 -0.7123
vn 0.9239 0.0000 -0.3827
vn 0.9346 -0.2469 -0.2560
vn 0.6063 -0.7861 0.1204
vn 0.6063 -0.7861 -0.1204
vn -0.1925 -0.2160 0.9572
vn 0.1204 -0.7861 0.6063
vn 0.1933 -0.2158 0.9571
vn 0.4575 -0.7624 0.4575
vn 0.6937 -0.2138 0.6878
vn 0.9346 -0.2469 0.2560
vn 0.1933 -0.2158 -0.9571
vn -0.1200 -0.7862 -0.6063
vn -0.1926 -0.2161 -0.9572
vn 0.4575 -0.7624 -0.4575
vn 0.1204 -0.7861 -0.6063
vn 0.6937 -0.2138 -0.6878
vn -0.1198 -0.7862 0.6063
vn 0.6063 0.7861 -0.1204
vn -0.1198 0.7862 0.6062
vn -0.1838 -0.8762 -0.4454
vn -0.1838 0.8762 -0.4454
vn -0.1837 0.8762 0.4456
vn -0.3731 0.2055 0.9047
vn -0.3819 0.0000 0.9242
vn -0.3819 0.0000 -0.9242
vn -0.3731 0.2057 -0.9047
vn -0.3590 -0.3359 0.8708
vn -0.3731 -0.2055 0.9047
vn -0.3731 -0.2057 -0.9047
usemtl Material_Drum
s 1
f 17/1/1 10/2/2 8/3/3
f 14/4/4 11/5/5 18/6/6
f 18/6/6 12/7/7 19/8/8
f 12/7/7 20/9/9 19/8/8
f 15/10/10 2/11/11 13/12/12
f 44/13/13 13/12/12 50/14/14
f 19/8/8 46/15/15 45/16/16
f 18/6/6 45/16/16 48/17/17
f 9/18/18 17/1/1 8/3/3
f 15/10/10 9/18/18 7/19/19
f 48/17/17 14/4/4 18/6/6
f 46/15/15 17/1/1 47/20/20
f 7/21/19 9/22/18 21/23/21
f 9/22/18 8/24/3 21/23/21
f 8/24/3 10/25/2 21/23/21
f 10/25/2 12/26/7 21/23/21
f 12/26/7 11/27/5 21/23/21
f 11/27/5 4/28/22 21/23/21
f 4/28/22 6/29/21 21/23/21
f 6/29/21 5/30/21 21/23/21
f 5/30/21 1/31/21 21/23/21
f 1/31/21 3/32/21 21/23/21
f 3/32/21 2/33/11 21/23/21
f 2/33/11 7/21/19 21/23/21
f 15/10/10 49/34/23 16/35/24
f 16/35/24 47/20/20 17/1/1
f 38/36/25 31/37/26 41/38/27
f 32/39/28 35/40/29 39/41/30
f 39/41/30 33/42/31 32/39/28
f 41/38/27 33/42/31 40/43/32
f 23/44/33 36/45/34 34/46/35
f 34/46/35 44/13/13 50/14/14
f 46/15/15 40/43/32 45/16/16
f 45/16/16 39/41/30 48/17/17
f 30/47/36 38/36/25 37/48/37
f 30/47/36 36/45/34 28/49/38
f 48/17/17 35/40/29 43/50/39
f 38/36/25 46/15/15 47/20/20
f 28/51/38 42/52/40 30/53/36
f 30/53/36 42/52/40 29/54/41
f 29/54/41 42/52/40 31/55/26
f 31/55/26 42/52/40 33/56/31
f 33/56/31 42/52/40 32/57/28
f 32/57/28 42/52/40 25/58/42
f 25/58/42 42/52/40 27/59/40
f 27/59/40 42/52/40 26/60/40
f 26/60/40 42/52/40 22/61/40
f 22/61/40 42/52/40 24/62/40
f 24/62/40 42/52/40 23/63/33
f 23/63/33 42/52/40 28/51/38
f 36/45/34 49/34/23 44/13/13
f 37/48/37 47/20/20 49/34/23
f 63/64/43 56/65/44 66/66/45
f 57/67/46 60/68/47 64/69/48
f 64/69/48 58/70/49 57/67/46
f 66/66/45 58/70/49 65/71/50
f 51/72/51 61/73/52 59/74/53
f 59/74/53 84/75/54 90/76/55
f 86/77/56 65/71/50 85/78/57
f 85/78/57 64/69/48 88/79/58
f 55/80/59 63/64/43 62/81/60
f 55/80/59 61/73/52 53/82/61
f 88/79/58 60/68/47 83/83/62
f 61/73/52 89/84/63 84/75/54
f 62/81/60 87/85/64 89/84/63
f 79/86/65 72/87/66 70/88/67
f 76/89/68 73/90/69 80/91/70
f 80/91/70 74/92/71 81/93/72
f 74/92/71 82/94/73 81/93/72
f 77/95/74 67/96/75 75/97/76
f 84/75/54 75/97/76 90/76/55
f 81/93/72 86/77/56 85/78/57
f 80/91/70 85/78/57 88/79/58
f 71/98/77 79/86/65 70/88/67
f 77/95/74 71/98/77 69/99/78
f 88/79/58 76/89/68 80/91/70
f 77/95/74 89/84/63 78/100/79
f 78/100/79 87/85/64 79/86/65
f 70/101/67 74/102/71 71/103/77
f 74/102/71 69/104/78 71/103/77
f 69/104/78 68/105/80 67/106/75
f 54/107/81 58/108/49 56/109/44
f 53/110/61 58/108/49 55/111/59
f 52/112/82 53/110/61 51/113/51
f 95/114/21 98/115/21 97/116/21
f 67/117/75 98/115/21 96/118/83
f 93/119/40 92/120/84 91/121/40
f 92/120/84 52/122/82 51/123/51
f 60/124/47 94/125/85 100/126/86
f 60/124/47 104/127/87 83/128/62
f 59/129/53 105/130/88 99/131/89
f 76/132/68 101/133/90 68/134/80
f 104/127/87 76/132/68 83/128/62
f 96/135/83 75/136/76 67/137/75
f 75/136/76 105/130/88 90/138/55
f 59/129/53 92/120/84 51/123/51
f 17/1/1 20/9/9 10/2/2
f 14/4/4 4/139/22 11/5/5
f 18/6/6 11/5/5 12/7/7
f 12/7/7 10/2/2 20/9/9
f 15/10/10 7/19/19 2/11/11
f 44/13/13 15/10/10 13/12/12
f 19/8/8 20/9/9 46/15/15
f 18/6/6 19/8/8 45/16/16
f 9/18/18 16/35/24 17/1/1
f 15/10/10 16/35/24 9/18/18
f 48/17/17 43/50/39 14/4/4
f 46/15/15 20/9/9 17/1/1
f 15/10/10 44/13/13 49/34/23
f 16/35/24 49/34/23 47/20/20
f 38/36/25 29/140/41 31/37/26
f 32/39/28 25/141/42 35/40/29
f 39/41/30 40/43/32 33/42/31
f 41/38/27 31/37/26 33/42/31
f 23/44/33 28/49/38 36/45/34
f 34/46/35 36/45/34 44/13/13
f 46/15/15 41/38/27 40/43/32
f 45/16/16 40/43/32 39/41/30
f 30/47/36 29/140/41 38/36/25
f 30/47/36 37/48/37 36/45/34
f 48/17/17 39/41/30 35/40/29
f 38/36/25 41/38/27 46/15/15
f 36/45/34 37/48/37 49/34/23
f 37/48/37 38/36/25 47/20/20
f 63/64/43 54/142/81 56/65/44
f 57/67/46 52/143/82 60/68/47
f 64/69/48 65/71/50 58/70/49
f 66/66/45 56/65/44 58/70/49
f 51/72/51 53/82/61 61/73/52
f 59/74/53 61/73/52 84/75/54
f 86/77/56 66/66/45 65/71/50
f 85/78/57 65/71/50 64/69/48
f 55/80/59 54/142/81 63/64/43
f 55/80/59 62/81/60 61/73/52
f 88/79/58 64/69/48 60/68/47
f 61/73/52 62/81/60 89/84/63
f 62/81/60 63/64/43 87/85/64
f 79/86/65 82/94/73 72/87/66
f 76/89/68 68/144/80 73/90/69
f 80/91/70 73/90/69 74/92/71
f 74/92/71 72/87/66 82/94/73
f 77/95/74 69/99/78 67/96/75
f 84/75/54 77/95/74 75/97/76
f 81/93/72 82/94/73 86/77/56
f 80/91/70 81/93/72 85/78/57
f 71/98/77 78/100/79 79/86/65
f 77/95/74 78/100/79 71/98/77
f 88/79/58 83/83/62 76/89/68
f 77/95/74 84/75/54 89/84/63
f 78/100/79 89/84/63 87/85/64
f 70/101/67 72/145/66 74/102/71
f 74/102/71 73/146/69 69/104/78
f 69/104/78 73/146/69 68/105/80
f 54/107/81 55/111/59 58/108/49
f 53/110/61 57/147/46 58/108/49
f 52/112/82 57/147/46 53/110/61
f 95/114/21 96/118/83 98/115/21
f 67/117/75 68/148/80 98/115/21
f 93/119/40 94/149/85 92/120/84
f 92/120/84 94/149/85 52/122/82
f 60/124/47 52/150/82 94/125/85
f 60/124/47 100/126/86 104/127/87
f 59/129/53 90/138/55 105/130/88
f 76/132/68 103/151/91 101/133/90
f 104/127/87 103/151/91 76/132/68
f 96/135/83 102/152/92 75/136/76
f 75/136/76 102/152/92 105/130/88
f 59/129/53 99/131/89 92/120/84
