# Blender v2.82 (sub 7) OBJ File: 'players.blend'
# www.blender.org
mtllib drum.mtl
g drum
v -34.993359 -35.081997 -7.251009
v -7.162361 -35.081997 -35.082001
v -26.841850 -35.081997 -26.930498
v -7.162361 -35.081997 35.082001
v -34.993359 -35.081997 7.251006
v -26.841850 -35.081997 26.930487
v 7.339637 -35.081997 -35.082001
v 35.170635 -35.081997 -7.251009
v 27.019123 -35.081997 -26.930498
v 35.170635 -35.081997 7.251006
v 7.339637 -35.081997 35.082001
v 27.019123 -35.081997 26.930487
v -8.313507 -23.751661 -40.651505
v -8.313507 -23.751665 40.651505
v 8.490781 -23.751661 -40.651505
v 31.294518 -23.751661 -31.205889
v 40.740135 -23.751663 -8.402146
v 8.490781 -23.751665 40.651505
v 31.294518 -23.751665 31.205877
v 40.740135 -23.751663 8.402152
v 0.088636 -35.081997 -0.000002
v -34.993359 35.081997 -7.251006
v -7.162361 35.081997 -35.082001
v -26.841850 35.081997 -26.930494
v -7.162361 35.081997 35.082001
v -34.993359 35.081997 7.251009
v -26.841850 35.081997 26.930490
v 7.339637 35.081997 -35.082001
v 35.170635 35.081997 -7.251006
v 27.019123 35.081997 -26.930494
v 35.170635 35.081997 7.251009
v 7.339637 35.081997 35.082001
v 27.019123 35.081997 26.930490
v -8.313507 23.751665 -40.651505
v -8.313507 23.751661 40.651505
v 8.490781 23.751665 -40.651505
v 31.294518 23.751665 -31.205885
v 40.740135 23.751663 -8.402144
v 8.490781 23.751661 40.651505
v 31.294518 23.751661 31.205881
v 40.740135 23.751663 8.402154
v 0.088636 35.081997 0.000002
v -9.767170 -0.000002 42.892746
v 7.963588 0.000002 -42.892746
v 32.024563 -0.000001 32.926353
v 41.990944 -0.000000 8.865387
v 41.990944 0.000000 -8.865387
v 7.963588 -0.000002 42.892746
v 32.024563 0.000001 -32.926361
v -9.767170 0.000002 -42.892746
v 27.019123 -35.081997 -26.930498
v 7.339637 -35.081997 -35.082001
v 35.170635 -35.081997 -7.251009
v 7.339637 -35.081997 35.082001
v 27.019123 -35.081997 26.930487
v 35.170635 -35.081997 7.251006
v -7.162361 -35.081997 -35.082001
v -7.162361 -35.081997 35.082001
v 27.019123 35.081997 -26.930494
v 7.339637 35.081997 -35.082001
v 35.170635 35.081997 -7.251006
v 7.339637 35.081997 35.082001
v 27.019123 35.081997 26.930490
v 35.170635 35.081997 7.251009
v -7.162361 35.081997 -35.082001
v -7.162361 35.081997 35.082001
v -30.134924 -23.751661 -31.490543
v -30.134924 23.751665 -31.490540
v -31.588587 0.000002 -33.731781
v -26.894222 -35.081997 26.847443
v -29.521374 -23.751665 31.251677
v -26.894222 35.081997 26.847446
v -29.521374 23.751661 31.251680
v -30.975037 -0.000002 33.492920
v 5.496210 -41.126095 38.074867
v 5.496202 -41.126106 -38.217110
v -10.272365 -41.126095 38.074867
v -40.534073 -41.126102 7.813174
v -31.670620 -41.126095 29.211433
v -40.534073 -41.126102 -7.955417
v -10.272371 -41.126106 -38.217110
v -31.670628 -41.126106 -29.353661
v 6.747894 -24.099052 44.130798
v 6.747887 -24.099054 -44.273045
v -11.524046 -24.099052 44.130806
v -36.319416 -24.099052 33.860229
v -46.590004 -24.099052 9.064851
v -11.524055 -24.099054 -44.273037
v -36.319420 -24.099054 -34.002457
v -46.590004 -24.099052 -9.207100
v 5.496210 41.436905 38.074867
v 5.496202 41.436893 -38.217110
v -10.272365 41.436905 38.074867
v -40.534073 41.436901 7.813171
v -31.670620 41.436905 29.211432
v -40.534073 41.436901 -7.955420
v -10.272371 41.436893 -38.217110
v -31.670628 41.436893 -29.353661
v 6.747894 24.409849 44.130795
v 6.747887 24.409845 -44.273052
v -11.524046 24.409849 44.130795
v -36.319416 24.409849 33.860222
v -46.590004 24.409847 9.064848
v -11.524055 24.409845 -44.273052
v -36.319420 24.409845 -34.002457
v -46.590004 24.409847 -9.207104
v 6.282811 0.155395 -46.710033
v -10.950808 0.155399 46.567791
v -37.113232 0.155396 -35.873196
v -47.950054 0.155397 -9.710793
v -47.950054 0.155397 9.568550
v -10.950817 0.155395 -46.710033
v -37.113224 0.155399 35.730961
v 6.282802 0.155399 46.567791
v 35.832294 -41.126102 7.813174
v 26.968836 -41.126095 29.211433
v 35.832294 -41.126102 -7.955417
v 27.002619 -41.126106 -29.353661
v 35.832294 41.436901 7.813171
v 26.968836 41.436905 29.211432
v 35.832294 41.436901 -7.955420
v 26.968840 41.436893 -29.353661
v 31.651407 -24.099052 33.860229
v 31.651415 -24.099054 -34.002457
v 27.002619 41.436893 -29.353661
v 31.651407 24.409849 33.860222
v 31.651415 24.409845 -34.002457
v 32.445225 0.155396 -35.873196
v 32.445217 0.155399 35.730961
vt 0.326900 0.212016
vt 0.044117 0.766368
vt 0.045943 0.238758
vt 0.342326 3.055234
vt 0.043537 2.137516
vt 0.340309 2.196910
vt 0.043557 1.395995
vt 0.326528 1.517837
vt 0.330199 0.852872
vt 0.329778 -0.916437
vt 0.040038 -1.899620
vt 0.323176 -1.864596
vt 0.922103 -1.102113
vt 0.911969 -1.840517
vt 0.921466 0.836148
vt 0.922753 1.626994
vt 0.930074 2.403779
vt 0.045580 -0.299490
vt 0.043109 -0.844207
vt 0.924650 0.175322
vt 0.244598 0.793953
vt 0.245649 0.791415
vt 0.249123 0.794889
vt 0.248188 0.790363
vt 0.250059 0.790363
vt 0.252597 0.791415
vt 0.253649 0.793953
vt 0.253649 0.795824
vt 0.252597 0.798363
vt 0.250059 0.799415
vt 0.248188 0.799415
vt 0.245649 0.798363
vt 0.244598 0.795824
vt 0.928297 -0.508422
vt 0.331218 -0.362276
vt 0.326900 0.212016
vt 0.044117 0.766368
vt 0.330199 0.852872
vt 0.043537 2.137516
vt 0.342326 3.055234
vt 0.340309 2.196910
vt 0.043557 1.395995
vt 0.326528 1.517837
vt 0.040038 -1.899620
vt 0.329778 -0.916437
vt 0.323176 -1.864596
vt 0.045580 -0.299490
vt 0.331218 -0.362276
vt 0.043109 -0.844207
vt 0.932568 3.054009
vt 0.250513 0.803011
vt 0.251449 0.807537
vt 0.247974 0.804062
vt 0.246923 0.806601
vt 0.246923 0.808472
vt 0.247974 0.811011
vt 0.250513 0.812062
vt 0.252384 0.812062
vt 0.254923 0.811011
vt 0.255974 0.808472
vt 0.255974 0.806601
vt 0.254923 0.804062
vt 0.252384 0.803011
vt 0.912076 -1.840532
vt 0.329524 -2.448336
vt 0.852050 -2.430163
vt 0.323206 -1.864687
vt 0.045898 -2.483604
vt 0.329035 -2.448580
vt 0.323531 -1.865256
vt 0.046239 -2.483269
vt 0.328602 -2.448245
vt 0.038367 3.062473
vt 0.336910 3.798801
vt 0.342626 3.055885
vt 0.931964 3.054308
vt 0.336799 3.797704
vt 0.342515 3.054788
vt 0.038293 3.061787
vt 0.068005 3.799759
vt 0.924597 3.796298
vt 0.156022 0.593783
vt 0.156663 0.592526
vt 0.156014 0.592330
vt 0.156664 0.589419
vt 0.155987 0.587340
vt 0.155992 0.589285
vt 0.156664 0.591100
vt 0.156023 0.590824
vt 0.156672 0.598568
vt 0.156015 0.596340
vt 0.156030 0.598489
vt 0.154673 0.596761
vt 0.154696 0.598434
vt 0.154675 0.592368
vt 0.154672 0.590576
vt 0.154655 0.588816
vt 0.156659 0.594942
vt 0.156012 0.595084
vt 0.156665 0.596176
vt 0.154649 0.587342
vt 0.154659 0.595415
vt 0.154667 0.593866
vt 0.156022 0.593783
vt 0.156663 0.592526
vt 0.156659 0.593722
vt 0.155987 0.587340
vt 0.156664 0.589419
vt 0.155992 0.589285
vt 0.156664 0.591100
vt 0.156023 0.590824
vt 0.156014 0.592330
vt 0.156015 0.596340
vt 0.156672 0.598568
vt 0.156030 0.598489
vt 0.156659 0.594942
vt 0.156665 0.596176
vt 0.156012 0.595084
vt 0.149480 0.593989
vt 0.151643 0.584918
vt 0.151643 0.599211
vt 0.156866 0.601374
vt 0.160714 0.582754
vt 0.160714 0.601374
vt 0.149491 0.590102
vt 0.151006 0.596452
vt 0.149491 0.592796
vt 0.154661 0.584933
vt 0.151006 0.586447
vt 0.157355 0.597966
vt 0.157355 0.584933
vt 0.149480 0.593989
vt 0.151643 0.584918
vt 0.149480 0.590140
vt 0.156866 0.601374
vt 0.151643 0.599211
vt 0.149491 0.592796
vt 0.151006 0.586447
vt 0.149491 0.590102
vt 0.154661 0.597966
vt 0.154661 0.584933
vt 0.155992 0.589285
vt 0.156664 0.591100
vt 0.156023 0.590824
vt 0.154672 0.590576
vt 0.154655 0.588816
vt 0.156015 0.596340
vt 0.154659 0.595415
vt 0.156012 0.595084
vt 0.155992 0.589285
vt 0.156664 0.591100
vt 0.156664 0.589419
vt 0.156659 0.594942
vt 0.156015 0.596340
vt 0.156665 0.596176
vt 0.154673 0.596761
vt 0.037838 3.061633
vt 0.045943 0.238758
vt 0.037838 3.061633
vt 0.040678 -1.899421
vt 0.068071 3.799594
vt 0.156659 0.593722
vt 0.156677 0.587325
vt 0.156677 0.587325
vt 0.149480 0.590140
vt 0.156866 0.582754
vt 0.154661 0.597966
vt 0.156866 0.582754
vt 0.151006 0.596452
vt 0.156664 0.589419
vt 0.156023 0.590824
vt 0.156012 0.595084
vn 0.9494 -0.2513 -0.1884
vn 0.8766 -0.4486 0.1740
vn 0.8766 -0.4486 -0.1740
vn -0.1962 -0.2748 0.9413
vn 0.1740 -0.4486 0.8766
vn 0.1907 -0.2670 0.9446
vn 0.6238 -0.4708 0.6238
vn 0.6846 -0.2651 0.6790
vn 0.9494 -0.2513 0.1884
vn 0.1907 -0.2670 -0.9446
vn -0.1740 -0.4486 -0.8766
vn -0.1866 -0.2743 -0.9434
vn 0.1903 0.0000 -0.9817
vn -0.2024 0.0000 -0.9793
vn 0.9806 0.0000 0.1961
vn 0.7021 0.0000 0.7120
vn 0.1903 0.0000 0.9817
vn 0.6238 -0.4708 -0.6238
vn 0.1740 -0.4486 -0.8766
vn 0.9806 0.0000 -0.1961
vn 0.0000 -1.0000 0.0000
vn -0.1690 -0.8989 -0.4041
vn 0.7021 0.0000 -0.7120
vn 0.6846 -0.2651 -0.6790
vn 0.9494 0.2513 -0.1884
vn 0.8766 0.4486 0.1740
vn 0.9494 0.2513 0.1884
vn 0.1740 0.4486 0.8766
vn -0.1962 0.2748 0.9413
vn 0.1907 0.2670 0.9446
vn 0.6238 0.4708 0.6238
vn 0.6846 0.2651 0.6790
vn -0.1740 0.4486 -0.8766
vn 0.1907 0.2670 -0.9446
vn -0.1866 0.2743 -0.9434
vn 0.6238 0.4708 -0.6238
vn 0.6846 0.2651 -0.6790
vn 0.1740 0.4486 -0.8766
vn -0.2121 0.0000 0.9772
vn 0.0000 1.0000 0.0000
vn -0.1690 0.8989 -0.4041
vn -0.3727 -0.2702 -0.8877
vn -0.3871 0.0000 -0.9220
vn -0.3727 0.2702 -0.8877
vn -0.1828 0.4435 0.8774
vn -0.3847 0.2651 0.8841
vn -0.3847 -0.2651 0.8841
vn -0.1828 -0.4435 0.8774
vn -0.3515 -0.4089 0.8422
vn -0.4052 0.0000 0.9142
vn 0.9346 0.2469 -0.2560
vn 0.6063 0.7861 0.1204
vn 0.9346 0.2469 0.2560
vn 0.1204 0.7861 0.6063
vn -0.1925 0.2160 0.9572
vn 0.1933 0.2158 0.9571
vn 0.4575 0.7624 0.4575
vn 0.6937 0.2138 0.6878
vn -0.1200 0.7862 -0.6063
vn 0.1933 0.2158 -0.9571
vn -0.1926 0.2161 -0.9572
vn 0.1900 0.0000 -0.9818
vn -0.1905 0.0000 -0.9817
vn 0.9239 0.0000 0.3827
vn 0.7018 0.0000 0.7123
vn 0.1900 0.0000 0.9818
vn 0.4575 0.7624 -0.4575
vn 0.6937 0.2138 -0.6878
vn 0.1204 0.7861 -0.6063
vn -0.1905 0.0000 0.9817
vn 0.7018 0.0000 -0.7123
vn 0.9239 0.0000 -0.3827
vn 0.9346 -0.2469 -0.2560
vn 0.6063 -0.7861 0.1204
vn 0.6063 -0.7861 -0.1204
vn -0.1925 -0.2160 0.9572
vn 0.1204 -0.7861 0.6063
vn 0.1933 -0.2158 0.9571
vn 0.4575 -0.7624 0.4575
vn 0.6937 -0.2138 0.6878
vn 0.9346 -0.2469 0.2560
vn 0.1933 -0.2158 -0.9571
vn -0.1200 -0.7862 -0.6063
vn -0.1926 -0.2161 -0.9572
vn 0.4575 -0.7624 -0.4575
vn 0.1204 -0.7861 -0.6063
vn 0.6937 -0.2138 -0.6878
vn -0.1198 -0.7862 0.6063
vn 0.6063 0.7861 -0.1204
vn -0.1198 0.7862 0.6062
vn -0.1838 -0.8762 -0.4454
vn -0.1838 0.8762 -0.4454
vn -0.1837 0.8762 0.4456
vn -0.3731 0.2055 0.9047
vn -0.3819 0.0000 0.9242
vn -0.3819 0.0000 -0.9242
vn -0.3731 0.2057 -0.9047
vn -0.3590 -0.3359 0.8708
vn 0.8766 0.4486 -0.1740
vn -0.3515 0.4089 0.8422
vn -0.3731 -0.2055 0.9047
vn -0.3731 -0.2057 -0.9047
usemtl Material_Drum
s 1
f 17/1/1 56/2/2 53/3/3
f 14/4/4 54/5/5 18/6/6
f 18/6/6 55/7/7 19/8/8
f 55/7/7 20/9/9 19/8/8
f 15/10/10 57/11/11 13/12/12
f 44/13/13 13/12/12 50/14/14
f 19/8/8 46/15/15 45/16/16
f 18/6/6 45/16/16 48/17/17
f 51/18/18 17/1/1 53/3/3
f 15/10/10 51/18/18 52/19/19
f 48/17/17 14/4/4 18/6/6
f 46/15/15 17/1/1 47/20/20
f 7/21/21 9/22/21 21/23/21
f 9/22/21 8/24/21 21/23/21
f 8/24/21 10/25/21 21/23/21
f 10/25/21 12/26/21 21/23/21
f 12/26/21 11/27/21 21/23/21
f 11/27/21 58/28/21 21/23/21
f 58/28/21 6/29/21 21/23/21
f 6/29/21 5/30/21 21/23/21
f 5/30/21 1/31/21 21/23/21
f 1/31/21 3/32/22 21/23/21
f 3/32/22 2/33/21 21/23/21
f 2/33/21 7/21/21 21/23/21
f 15/10/10 49/34/23 16/35/24
f 16/35/24 47/20/20 17/1/1
f 38/36/25 64/37/26 41/38/27
f 62/39/28 35/40/29 39/41/30
f 39/41/30 63/42/31 62/39/28
f 41/38/27 63/42/31 40/43/32
f 65/44/33 36/45/34 34/46/35
f 34/46/35 44/13/13 50/14/14
f 46/15/15 40/43/32 45/16/16
f 45/16/16 39/41/30 48/17/17
f 59/47/36 38/36/25 37/48/37
f 59/47/36 36/45/34 60/49/38
f 48/17/17 35/40/29 43/50/39
f 38/36/25 46/15/15 47/20/20
f 28/51/40 42/52/40 30/53/40
f 30/53/40 42/52/40 29/54/40
f 29/54/40 42/52/40 31/55/40
f 31/55/40 42/52/40 33/56/40
f 33/56/40 42/52/40 32/57/40
f 32/57/40 42/52/40 66/58/40
f 66/58/40 42/52/40 27/59/40
f 27/59/40 42/52/40 26/60/40
f 26/60/40 42/52/40 22/61/40
f 22/61/40 42/52/40 24/62/41
f 24/62/41 42/52/40 23/63/40
f 23/63/40 42/52/40 28/51/40
f 36/45/34 49/34/23 44/13/13
f 37/48/37 47/20/20 49/34/23
f 50/64/14 67/65/42 69/66/43
f 34/67/35 24/68/41 65/44/33
f 50/64/14 68/69/44 34/67/35
f 13/70/12 3/71/22 67/72/42
f 25/73/45 73/74/46 35/75/29
f 43/76/39 71/77/47 14/78/4
f 4/79/48 71/77/47 70/80/49
f 43/76/39 73/74/46 74/81/50
f 87/82/51 80/83/52 90/84/53
f 81/85/54 84/86/55 88/87/56
f 88/87/56 82/88/57 81/85/54
f 90/84/53 82/88/57 89/89/58
f 75/90/59 85/91/60 83/92/61
f 83/92/61 108/93/62 114/94/63
f 110/95/64 89/89/58 109/96/65
f 109/96/65 88/87/56 112/97/66
f 79/98/67 87/82/51 86/99/68
f 79/98/67 85/91/60 77/100/69
f 112/97/66 84/86/55 107/101/70
f 85/91/60 113/102/71 108/93/62
f 86/99/68 111/103/72 113/102/71
f 103/104/73 96/105/74 94/106/75
f 100/107/76 97/108/77 104/109/78
f 104/109/78 98/110/79 105/111/80
f 98/110/79 106/112/81 105/111/80
f 101/113/82 91/114/83 99/115/84
f 108/93/62 99/115/84 114/94/63
f 105/111/80 110/95/64 109/96/65
f 104/109/78 109/96/65 112/97/66
f 95/116/85 103/104/73 94/106/75
f 101/113/82 95/116/85 93/117/86
f 112/97/66 100/107/76 104/109/78
f 101/113/82 113/102/71 102/118/87
f 102/118/87 111/103/72 103/104/73
f 94/119/75 98/120/79 95/121/85
f 98/120/79 93/122/86 95/121/85
f 93/122/86 92/123/88 91/124/83
f 78/125/89 82/126/57 80/127/52
f 77/128/69 82/126/57 79/129/67
f 76/130/90 77/128/69 75/131/59
f 119/132/21 122/133/21 121/134/21
f 91/135/83 122/133/21 120/136/91
f 117/137/40 116/138/92 115/139/40
f 116/138/92 76/140/90 75/141/59
f 84/142/55 118/143/93 124/144/94
f 84/142/55 128/145/95 107/146/70
f 83/147/61 129/148/96 123/149/97
f 100/150/76 125/151/98 92/152/88
f 128/145/95 100/150/76 107/146/70
f 120/153/91 99/154/84 91/155/83
f 99/154/84 129/148/96 114/156/63
f 83/147/61 116/138/92 75/141/59
f 17/1/1 20/9/9 56/2/2
f 14/4/4 4/157/48 54/5/5
f 18/6/6 54/5/5 55/7/7
f 55/7/7 56/2/2 20/9/9
f 15/10/10 52/19/19 57/11/11
f 44/13/13 15/10/10 13/12/12
f 19/8/8 20/9/9 46/15/15
f 18/6/6 19/8/8 45/16/16
f 51/18/18 16/35/24 17/1/1
f 15/10/10 16/35/24 51/18/18
f 48/17/17 43/50/39 14/4/4
f 46/15/15 20/9/9 17/1/1
f 15/10/10 44/13/13 49/34/23
f 16/35/24 49/34/23 47/20/20
f 38/36/25 61/158/99 64/37/26
f 62/39/28 25/159/45 35/40/29
f 39/41/30 40/43/32 63/42/31
f 41/38/27 64/37/26 63/42/31
f 65/44/33 60/49/38 36/45/34
f 34/46/35 36/45/34 44/13/13
f 46/15/15 41/38/27 40/43/32
f 45/16/16 40/43/32 39/41/30
f 59/47/36 61/158/99 38/36/25
f 59/47/36 37/48/37 36/45/34
f 48/17/17 39/41/30 35/40/29
f 38/36/25 41/38/27 46/15/15
f 36/45/34 37/48/37 49/34/23
f 37/48/37 38/36/25 47/20/20
f 50/64/14 13/12/12 67/65/42
f 34/67/35 68/69/44 24/68/41
f 50/64/14 69/66/43 68/69/44
f 13/70/12 57/160/11 3/71/22
f 25/73/45 72/161/100 73/74/46
f 43/76/39 74/81/50 71/77/47
f 4/79/48 14/78/4 71/77/47
f 43/76/39 35/75/29 73/74/46
f 87/82/51 78/162/89 80/83/52
f 81/85/54 76/163/90 84/86/55
f 88/87/56 89/89/58 82/88/57
f 90/84/53 80/83/52 82/88/57
f 75/90/59 77/100/69 85/91/60
f 83/92/61 85/91/60 108/93/62
f 110/95/64 90/84/53 89/89/58
f 109/96/65 89/89/58 88/87/56
f 79/98/67 78/162/89 87/82/51
f 79/98/67 86/99/68 85/91/60
f 112/97/66 88/87/56 84/86/55
f 85/91/60 86/99/68 113/102/71
f 86/99/68 87/82/51 111/103/72
f 103/104/73 106/112/81 96/105/74
f 100/107/76 92/164/88 97/108/77
f 104/109/78 97/108/77 98/110/79
f 98/110/79 96/105/74 106/112/81
f 101/113/82 93/117/86 91/114/83
f 108/93/62 101/113/82 99/115/84
f 105/111/80 106/112/81 110/95/64
f 104/109/78 105/111/80 109/96/65
f 95/116/85 102/118/87 103/104/73
f 101/113/82 102/118/87 95/116/85
f 112/97/66 107/101/70 100/107/76
f 101/113/82 108/93/62 113/102/71
f 102/118/87 113/102/71 111/103/72
f 94/119/75 96/165/74 98/120/79
f 98/120/79 97/166/77 93/122/86
f 93/122/86 97/166/77 92/123/88
f 78/125/89 79/129/67 82/126/57
f 77/128/69 81/167/54 82/126/57
f 76/130/90 81/167/54 77/128/69
f 119/132/21 120/136/91 122/133/21
f 91/135/83 92/168/88 122/133/21
f 117/137/40 118/169/93 116/138/92
f 116/138/92 118/169/93 76/140/90
f 84/142/55 76/170/90 118/143/93
f 84/142/55 124/144/94 128/145/95
f 83/147/61 114/156/63 129/148/96
f 100/150/76 127/171/101 125/151/98
f 128/145/95 127/171/101 100/150/76
f 120/153/91 126/172/102 99/154/84
f 99/154/84 126/172/102 129/148/96
f 83/147/61 123/149/97 116/138/92
