# Blender v2.82 (sub 7) OBJ File: 'players.blend'
# www.blender.org
mtllib mask_player_1.mtl
g mask_player_1
v -0.000011 32.878178 29.755705
v 0.296866 -25.528076 30.075935
v 0.386905 22.444212 8.956440
v -0.025899 26.977272 14.270837
v -0.185874 30.059370 18.317802
v 1.431038 -28.461531 23.819933
v 4.034699 -30.681681 16.890272
v 10.312737 -26.950005 8.376841
v -0.000008 27.118979 31.133514
v -0.000006 20.789875 31.293207
v -0.000003 11.620158 27.432878
v 1.126011 3.359360 26.537014
v 2.357200 -5.255823 30.436407
v 0.895217 -12.201686 32.885830
v 0.727513 -18.641521 31.858290
v 8.056783 -21.095497 24.630293
v 10.445401 -17.077696 24.526159
v 9.164235 -5.795295 22.994623
v 1.905006 1.872350 20.815456
v 1.840371 13.658668 21.484777
v -0.493383 18.324919 24.327404
v -3.670513 24.993362 22.402481
v 9.155475 -23.131342 11.852566
v 8.889418 -18.462132 11.536448
v 6.735428 -8.006413 16.000000
v 3.247277 0.135141 15.814285
v 3.481025 12.254384 15.794166
v 2.842202 14.961863 16.785051
v 1.090043 20.216282 16.453085
v 14.470038 -18.232092 3.289299
v 12.645103 -11.177895 7.464002
v 8.791127 -8.000000 8.000000
v 6.672312 0.000000 3.995635
v 6.907219 7.761468 5.323380
v 5.247313 13.315987 8.252863
v 3.008498 16.894594 8.791917
v -2.134272 34.756519 30.263649
v -1.819344 -27.200926 30.603350
v -1.723831 23.655268 8.199753
v -2.161734 28.533218 13.837275
v -2.331436 31.893724 18.198908
v -0.616213 -30.312742 23.966970
v 2.145756 -32.667885 16.615974
v 8.805509 -28.709309 7.584912
v -2.134269 28.647156 32.128754
v -2.134266 21.933231 32.298153
v -2.134264 12.205981 28.811319
v -0.939787 3.442913 27.860989
v 0.366261 -5.696087 31.389259
v -1.213159 -13.064271 33.987614
v -1.940210 -19.895658 32.897594
v -0.000011 32.878178 -29.755705
v 0.296866 -25.528076 -30.075935
v 1.359285 21.501417 0.000000
v 0.386905 22.444212 -8.956440
v -0.025899 26.977272 -14.270837
v -0.185874 30.059370 -18.317802
v 1.431038 -28.461531 -23.819933
v 4.034699 -30.681681 -16.890272
v 10.312737 -26.950005 -8.376841
v 14.905082 -21.083225 0.000000
v -0.000008 27.118979 -31.133514
v -0.000006 20.789875 -31.293207
v -0.000003 11.620158 -27.432878
v 1.126011 3.359360 -26.537014
v 2.357200 -5.255823 -30.436407
v 0.895217 -12.201686 -32.885830
v 0.727513 -18.641521 -31.858290
v 8.056783 -21.095497 -24.630293
v 10.445401 -17.077696 -24.526159
v 9.164235 -5.795295 -22.994623
v 1.905006 1.872350 -20.815456
v 1.840371 13.658668 -21.484777
v -0.493383 18.324919 -24.327404
v -3.670513 24.993362 -22.402481
v 9.155475 -23.131342 -11.852566
v 8.889418 -18.462132 -11.536448
v 6.735428 -8.006413 -16.000000
v 3.247277 0.135141 -15.814285
v 3.481025 12.254384 -15.794166
v 2.842202 14.961863 -16.785051
v 1.090043 20.216282 -16.453085
v 14.470038 -18.232092 -3.289299
v 12.645103 -11.177895 -7.464002
v 8.791127 -8.000000 -8.000000
v 6.672312 0.000000 -3.995635
v 6.907219 7.761468 -5.323380
v 5.247313 13.315987 -8.252863
v 3.008498 16.894594 -8.791917
v 15.097115 -19.434139 0.000000
v 14.248304 -9.982139 0.000000
v 10.582471 -8.000000 0.000000
v 9.929029 0.000000 0.000000
v 8.578391 7.763109 0.000000
v 7.682530 12.409903 0.000000
v 5.977197 15.396761 0.000000
v -2.134272 34.756519 -30.263649
v -1.819344 -27.200926 -30.603350
v -0.690325 22.794901 0.000000
v -1.723831 23.655268 -8.199753
v -2.161734 28.533218 -13.837275
v -2.331436 31.893724 -18.198908
v -0.616213 -30.312742 -23.966970
v 2.145756 -32.667885 -16.615974
v 8.805509 -28.709309 -7.584912
v 13.510454 -22.485823 0.000000
v -2.134269 28.647156 -32.128754
v -2.134266 21.933231 -32.298153
v -2.134264 12.205981 -28.811319
v -0.939787 3.442913 -27.860989
v 0.366261 -5.696087 -31.389259
v -1.213159 -13.064271 -33.987614
v -1.940210 -19.895658 -32.897594
vt 0.841420 0.007815
vt 0.999836 0.092832
vt 0.840753 0.076033
vt 0.696411 0.771691
vt 0.587606 0.905480
vt 0.522218 0.827313
vt 0.479491 0.864709
vt 0.370127 0.802035
vt 0.483712 0.858441
vt 0.496195 0.915635
vt 0.476733 0.905025
vt 0.546890 0.783875
vt 0.588122 0.877592
vt 0.534986 0.881071
vt 0.562161 0.721925
vt 0.635250 0.840922
vt 0.645814 0.507530
vt 0.671888 0.764457
vt 0.755935 0.333290
vt 0.801546 0.469915
vt 0.706218 0.493019
vt 0.868383 0.108022
vt 0.805039 0.322817
vt 0.685267 0.844124
vt 0.968604 0.996898
vt 0.705174 0.992247
vt 0.797055 0.621600
vt 0.950777 0.923556
vt 0.345959 0.781676
vt 0.439115 0.874536
vt 0.342482 0.708247
vt 0.349529 0.645272
vt 0.423264 0.337136
vt 0.421619 0.580928
vt 0.636421 0.117866
vt 0.454480 0.537694
vt 0.323857 0.712921
vt 0.347302 0.658950
vt 0.439190 0.721642
vt 0.893994 0.393797
vt 0.988526 0.433115
vt 0.961193 0.520836
vt 0.861341 0.388880
vt 0.968842 0.358947
vt 0.831638 0.300619
vt 0.939030 0.311732
vt 0.246646 0.358298
vt 0.352953 0.633792
vt 0.212024 0.006967
vt 0.737213 0.694901
vt 0.650157 0.515512
vt 0.889963 0.536814
vt 0.808576 0.480204
vt 0.828945 0.529854
vt 0.802741 0.369613
vt 0.035758 0.391087
vt 0.351403 0.634567
vt 0.017378 0.846592
vt 0.212835 0.006710
vt 0.245956 0.358353
vt 0.745361 0.653375
vt 0.735478 0.570119
vt 0.997777 0.191573
vt 0.841419 0.233615
vt 0.011226 0.964323
vt 0.425344 0.955325
vt 0.425475 0.960835
vt 0.010319 0.934088
vt 0.425352 0.936961
vt 0.009559 0.939281
vt 0.003711 0.885960
vt 0.427028 0.888061
vt 0.003456 0.893483
vt 0.009220 0.944110
vt 0.426626 0.943411
vt 0.005031 0.900073
vt 0.427933 0.895238
vt 0.008506 0.950204
vt 0.425199 0.948741
vt 0.006225 0.907487
vt 0.426500 0.903425
vt 0.010479 0.956466
vt 0.010254 0.973933
vt 0.423831 0.966563
vt 0.007696 0.911249
vt 0.428193 0.919883
vt 0.010014 0.919688
vt 0.010416 0.980126
vt 0.421957 0.972636
vt 0.427969 0.925030
vt 0.009368 0.927202
vt 0.418956 0.980161
vt 0.010056 0.987500
vt 0.423826 0.910145
vt 0.427006 0.931225
vt 0.418324 0.992788
vt 0.012334 0.996974
vt 0.999836 0.092832
vt 0.841420 0.007815
vt 0.840753 0.076033
vt 0.696411 0.771691
vt 0.587606 0.905480
vt 0.667724 0.853188
vt 0.522218 0.827313
vt 0.479491 0.864709
vt 0.483712 0.858441
vt 0.619337 0.854438
vt 0.546890 0.783875
vt 0.534986 0.881071
vt 0.562161 0.721925
vt 0.645814 0.507530
vt 0.755935 0.333290
vt 0.706218 0.493019
vt 0.636421 0.117866
vt 0.685267 0.844124
vt 0.705174 0.992247
vt 0.797055 0.621600
vt 0.345959 0.781676
vt 0.439115 0.874536
vt 0.342482 0.708247
vt 0.349529 0.645272
vt 0.423264 0.337136
vt 0.421619 0.580928
vt 0.574275 0.062991
vt 0.454480 0.537694
vt 0.323857 0.712921
vt 0.439190 0.721642
vt 0.370127 0.802035
vt 0.988526 0.433115
vt 0.893994 0.393797
vt 0.961193 0.520836
vt 0.968842 0.358947
vt 0.861341 0.388880
vt 0.939030 0.311732
vt 0.831638 0.300619
vt 0.246646 0.358298
vt 0.352953 0.633792
vt 0.212024 0.006967
vt 0.737213 0.694901
vt 0.650157 0.515512
vt 0.889963 0.536814
vt 0.828945 0.529854
vt 0.808576 0.480204
vt 0.802741 0.369613
vt 0.351403 0.634567
vt 0.035758 0.391087
vt 0.017378 0.846592
vt 0.212835 0.006710
vt 0.017263 0.020434
vt 0.745361 0.653375
vt 0.735478 0.570119
vt 0.997777 0.191573
vt 0.841419 0.233615
vt 0.011226 0.964323
vt 0.425344 0.955325
vt 0.010479 0.956466
vt 0.425352 0.936961
vt 0.010319 0.934088
vt 0.009559 0.939281
vt 0.427028 0.888061
vt 0.003456 0.893483
vt 0.009220 0.944110
vt 0.005031 0.900073
vt 0.008506 0.950204
vt 0.426626 0.943411
vt 0.006225 0.907487
vt 0.427933 0.895238
vt 0.425199 0.948741
vt 0.010254 0.973933
vt 0.425475 0.960835
vt 0.428193 0.919883
vt 0.007696 0.911249
vt 0.010014 0.919688
vt 0.010416 0.980126
vt 0.423831 0.966563
vt 0.427969 0.925030
vt 0.009368 0.927202
vt 0.418956 0.980161
vt 0.010056 0.987500
vt 0.426500 0.903425
vt 0.427006 0.931225
vt 0.998266 0.003636
vt 0.667724 0.853188
vt 0.619337 0.854438
vt 0.762389 0.560431
vt 0.977170 0.579944
vt 0.574275 0.062991
vt 0.880965 0.287840
vt 0.017263 0.020434
vt 0.430339 0.882335
vt 0.998266 0.003636
vt 0.347302 0.658950
vt 0.880965 0.287840
vt 0.245956 0.358353
vt 0.423826 0.910145
vt 0.421957 0.972636
vn 0.5923 -0.4477 0.6699
vn 0.7864 -0.4561 0.4164
vn 0.5387 -0.2043 0.8174
vn 0.7247 -0.6093 0.3218
vn 0.9211 -0.1435 0.3619
vn 0.8471 -0.4612 0.2640
vn 0.9405 -0.0494 0.3361
vn 0.9340 -0.3573 0.0000
vn 0.9994 -0.0351 0.0000
vn 0.8737 0.4718 0.1184
vn 0.7170 0.6970 0.0000
vn 0.8147 0.5680 -0.1165
vn 0.9189 0.3278 0.2194
vn 0.8404 0.5419 0.0000
vn 0.9574 0.0346 0.2866
vn 0.9478 0.3189 0.0000
vn 0.9096 0.1327 0.3937
vn 0.9956 0.0932 0.0000
vn 0.7823 0.6229 0.0000
vn 0.9922 0.1243 0.0000
vn 0.8566 0.3447 0.3838
vn 0.7939 0.5746 0.1986
vn 0.8274 0.5616 0.0000
vn 0.9229 0.3294 0.1991
vn 0.8943 0.4186 -0.1581
vn 0.9427 0.2559 0.2138
vn 0.9611 0.0669 0.2680
vn 0.9524 0.2726 0.1366
vn 0.9550 0.2954 -0.0275
vn 0.9432 0.0208 0.3315
vn 0.9969 0.0199 0.0763
vn 0.9591 0.2530 -0.1269
vn 0.9513 0.2928 0.0967
vn 0.9446 0.1571 0.2880
vn 0.9324 0.3499 0.0904
vn 0.9330 0.3317 0.1392
vn 0.9353 -0.1396 0.3250
vn 0.8809 0.3733 0.2909
vn 0.8472 -0.0828 0.5248
vn 0.9257 0.0252 0.3774
vn 0.8162 -0.0067 0.5777
vn 0.8023 0.2806 0.5268
vn 0.5452 0.0641 0.8358
vn 0.5728 0.2730 0.7729
vn 0.4409 -0.2279 0.8681
vn 0.5717 -0.5242 0.6311
vn 0.5233 0.1915 0.8303
vn 0.5555 0.7820 -0.2825
vn 0.3585 0.2941 0.8860
vn 0.5767 0.6515 -0.4928
vn 0.4596 -0.0333 0.8875
vn 0.6250 0.7142 -0.3152
vn 0.6338 -0.6424 0.4308
vn 0.6220 -0.6536 0.4312
vn 0.4854 0.1501 0.8613
vn 0.6536 -0.6702 0.3517
vn 0.3820 -0.0949 0.9192
vn 0.7275 -0.6760 0.1172
vn 0.6670 0.6693 0.3274
vn 0.4695 -0.2273 0.8531
vn 0.7150 -0.6991 0.0000
vn 0.7864 -0.4561 -0.4164
vn 0.5923 -0.4477 -0.6699
vn 0.5387 -0.2043 -0.8174
vn 0.7247 -0.6093 -0.3218
vn 0.6338 -0.6424 -0.4308
vn 0.9211 -0.1435 -0.3619
vn 0.8471 -0.4612 -0.2640
vn 0.9405 -0.0494 -0.3361
vn 0.8737 0.4718 -0.1184
vn 0.8147 0.5680 0.1165
vn 0.9189 0.3278 -0.2194
vn 0.9574 0.0346 -0.2866
vn 0.9096 0.1327 -0.3937
vn 0.7939 0.5746 -0.1986
vn 0.8566 0.3447 -0.3838
vn 0.9229 0.3294 -0.1991
vn 0.8943 0.4186 0.1581
vn 0.9427 0.2559 -0.2138
vn 0.9611 0.0669 -0.2680
vn 0.9524 0.2726 -0.1366
vn 0.9550 0.2954 0.0275
vn 0.9432 0.0208 -0.3315
vn 0.9969 0.0199 -0.0763
vn 0.9591 0.2530 0.1269
vn 0.9513 0.2928 -0.0967
vn 0.9446 0.1571 -0.2880
vn 0.9324 0.3499 -0.0904
vn 0.9330 0.3317 -0.1392
vn 0.9353 -0.1396 -0.3250
vn 0.8809 0.3733 -0.2909
vn 0.9257 0.0252 -0.3774
vn 0.8472 -0.0828 -0.5248
vn 0.8162 -0.0067 -0.5777
vn 0.8023 0.2806 -0.5268
vn 0.5728 0.2730 -0.7729
vn 0.5452 0.0641 -0.8358
vn 0.4409 -0.2279 -0.8681
vn 0.5233 0.1915 -0.8303
vn 0.5555 0.7820 0.2825
vn 0.3585 0.2941 -0.8860
vn 0.5767 0.6515 0.4928
vn 0.4596 -0.0333 -0.8875
vn 0.5717 -0.5242 -0.6311
vn 0.4854 0.1501 -0.8613
vn 0.6220 -0.6536 -0.4312
vn 0.3820 -0.0949 -0.9192
vn 0.7275 -0.6760 -0.1172
vn 0.6250 0.7142 0.3152
vn 0.4695 -0.2273 -0.8531
vn 0.5337 0.8457 0.0000
vn 0.6670 0.6693 -0.3274
vn 0.6536 -0.6702 -0.3517
usemtl Material
s 1
f 2/1/1 16/2/2 15/3/3
f 16/4/2 7/5/4 23/6/5
f 23/6/5 8/7/6 30/8/7
f 30/9/7 61/10/8 90/11/9
f 36/12/10 54/13/11 3/14/12
f 35/15/13 96/16/14 36/12/10
f 34/17/15 95/18/16 35/15/13
f 33/19/17 94/20/18 34/21/15
f 33/19/17 92/22/19 93/23/20
f 31/24/21 92/25/19 32/26/22
f 30/27/7 91/28/23 31/24/21
f 29/29/24 3/14/12 4/30/25
f 28/31/26 36/12/10 29/29/24
f 27/32/27 35/15/13 28/31/26
f 26/33/28 34/21/15 27/34/27
f 26/33/28 32/35/22 33/19/17
f 25/36/29 31/37/21 32/38/22
f 24/39/30 30/8/7 31/37/21
f 22/40/31 4/41/25 5/42/32
f 21/43/33 29/44/24 22/40/31
f 20/45/34 28/46/26 21/43/33
f 19/47/35 27/34/27 20/48/34
f 18/49/36 26/33/28 19/47/35
f 17/50/37 25/36/29 18/51/36
f 16/4/2 24/39/30 17/50/37
f 1/52/38 22/40/31 5/42/32
f 10/53/39 22/40/31 9/54/40
f 11/55/41 21/43/33 10/53/39
f 12/56/42 20/57/34 11/58/41
f 12/56/42 18/59/36 19/60/35
f 14/61/43 18/51/36 13/62/44
f 15/3/3 17/63/37 14/64/43
f 2/65/1 51/66/45 38/67/46
f 11/68/41 48/69/47 12/70/42
f 54/71/11 39/72/48 3/73/12
f 13/74/44 48/69/47 49/75/49
f 4/76/25 39/72/48 40/77/50
f 14/78/43 49/75/49 50/79/51
f 5/80/32 40/77/50 41/81/52
f 15/82/3 50/79/51 51/66/45
f 6/83/53 38/67/46 42/84/54
f 1/85/38 45/86/55 9/87/40
f 7/88/4 42/84/54 43/89/56
f 9/87/40 46/90/57 10/91/39
f 7/88/4 44/92/58 8/93/6
f 1/85/38 41/81/52 37/94/59
f 10/91/39 47/95/60 11/68/41
f 8/93/6 106/96/61 61/97/8
f 69/98/62 53/99/63 68/100/64
f 69/101/62 59/102/65 58/103/66
f 76/104/67 60/105/68 59/102/65
f 83/106/69 61/10/8 60/107/68
f 54/13/11 89/108/70 55/109/71
f 96/16/14 88/110/72 89/108/70
f 95/18/16 87/111/73 88/110/72
f 94/20/18 86/112/74 87/113/73
f 86/112/74 92/22/19 85/114/75
f 92/25/19 84/115/76 85/116/75
f 91/28/23 83/117/69 84/115/76
f 55/109/71 82/118/77 56/119/78
f 89/108/70 81/120/79 82/118/77
f 88/110/72 80/121/80 81/120/79
f 87/113/73 79/122/81 80/123/80
f 79/122/81 85/114/75 78/124/82
f 78/125/82 84/126/76 77/127/83
f 77/127/83 83/128/69 76/104/67
f 56/129/78 75/130/84 57/131/85
f 82/132/77 74/133/86 75/130/84
f 81/134/79 73/135/87 74/133/86
f 80/123/80 72/136/88 73/137/87
f 79/122/81 71/138/89 72/136/88
f 78/125/82 70/139/90 71/140/89
f 77/127/83 69/101/62 70/139/90
f 52/141/91 75/130/84 62/142/92
f 75/130/84 63/143/93 62/142/92
f 74/133/86 64/144/94 63/143/93
f 73/145/87 65/146/95 64/147/94
f 65/146/95 71/148/89 66/149/96
f 71/140/89 67/150/97 66/151/96
f 70/152/90 68/100/64 67/153/97
f 53/154/63 113/155/98 68/156/64
f 110/157/99 64/158/94 65/159/95
f 100/160/100 54/71/11 55/161/71
f 66/162/96 110/157/99 65/159/95
f 56/163/78 100/160/100 55/161/71
f 67/164/97 111/165/101 66/162/96
f 57/166/85 101/167/102 56/163/78
f 68/156/64 112/168/103 67/164/97
f 58/169/66 98/170/104 53/154/63
f 107/171/105 52/172/91 62/173/92
f 59/174/65 103/175/106 58/169/66
f 108/176/107 62/173/92 63/177/93
f 105/178/108 59/174/65 60/179/68
f 52/172/91 102/180/109 57/166/85
f 109/181/110 63/177/93 64/158/94
f 106/96/61 60/179/68 61/97/8
f 2/1/1 6/182/53 16/2/2
f 16/4/2 6/183/53 7/5/4
f 23/6/5 7/5/4 8/7/6
f 30/9/7 8/184/6 61/10/8
f 36/12/10 96/16/14 54/13/11
f 35/15/13 95/18/16 96/16/14
f 34/17/15 94/185/18 95/18/16
f 33/19/17 93/23/20 94/20/18
f 33/19/17 32/35/22 92/22/19
f 31/24/21 91/28/23 92/25/19
f 30/27/7 90/186/9 91/28/23
f 29/29/24 36/12/10 3/14/12
f 28/31/26 35/15/13 36/12/10
f 27/32/27 34/17/15 35/15/13
f 26/33/28 33/19/17 34/21/15
f 26/33/28 25/187/29 32/35/22
f 25/36/29 24/39/30 31/37/21
f 24/39/30 23/6/5 30/8/7
f 22/40/31 29/44/24 4/41/25
f 21/43/33 28/46/26 29/44/24
f 20/45/34 27/188/27 28/46/26
f 19/47/35 26/33/28 27/34/27
f 18/49/36 25/187/29 26/33/28
f 17/50/37 24/39/30 25/36/29
f 16/4/2 23/6/5 24/39/30
f 1/52/38 9/54/40 22/40/31
f 10/53/39 21/43/33 22/40/31
f 11/55/41 20/45/34 21/43/33
f 12/56/42 19/60/35 20/57/34
f 12/56/42 13/189/44 18/59/36
f 14/61/43 17/50/37 18/51/36
f 15/3/3 16/2/2 17/63/37
f 2/65/1 15/82/3 51/66/45
f 11/68/41 47/95/60 48/69/47
f 54/71/11 99/190/111 39/72/48
f 13/74/44 12/70/42 48/69/47
f 4/76/25 3/73/12 39/72/48
f 14/78/43 13/74/44 49/75/49
f 5/80/32 4/76/25 40/77/50
f 15/82/3 14/78/43 50/79/51
f 6/83/53 2/65/1 38/67/46
f 1/85/38 37/94/59 45/86/55
f 7/88/4 6/83/53 42/84/54
f 9/87/40 45/86/55 46/90/57
f 7/88/4 43/89/56 44/92/58
f 1/85/38 5/80/32 41/81/52
f 10/91/39 46/90/57 47/95/60
f 8/93/6 44/92/58 106/96/61
f 69/98/62 58/191/66 53/99/63
f 69/101/62 76/104/67 59/102/65
f 76/104/67 83/128/69 60/105/68
f 83/106/69 90/11/9 61/10/8
f 54/13/11 96/16/14 89/108/70
f 96/16/14 95/18/16 88/110/72
f 95/18/16 94/185/18 87/111/73
f 94/20/18 93/23/20 86/112/74
f 86/112/74 93/23/20 92/22/19
f 92/25/19 91/28/23 84/115/76
f 91/28/23 90/186/9 83/117/69
f 55/109/71 89/108/70 82/118/77
f 89/108/70 88/110/72 81/120/79
f 88/110/72 87/111/73 80/121/80
f 87/113/73 86/112/74 79/122/81
f 79/122/81 86/112/74 85/114/75
f 78/125/82 85/192/75 84/126/76
f 77/127/83 84/126/76 83/128/69
f 56/129/78 82/132/77 75/130/84
f 82/132/77 81/134/79 74/133/86
f 81/134/79 80/193/80 73/135/87
f 80/123/80 79/122/81 72/136/88
f 79/122/81 78/124/82 71/138/89
f 78/125/82 77/127/83 70/139/90
f 77/127/83 76/104/67 69/101/62
f 52/141/91 57/131/85 75/130/84
f 75/130/84 74/133/86 63/143/93
f 74/133/86 73/135/87 64/144/94
f 73/145/87 72/194/88 65/146/95
f 65/146/95 72/194/88 71/148/89
f 71/140/89 70/139/90 67/150/97
f 70/152/90 69/98/62 68/100/64
f 53/154/63 98/170/104 113/155/98
f 110/157/99 109/181/110 64/158/94
f 100/160/100 99/190/111 54/71/11
f 66/162/96 111/165/101 110/157/99
f 56/163/78 101/167/102 100/160/100
f 67/164/97 112/168/103 111/165/101
f 57/166/85 102/180/109 101/167/102
f 68/156/64 113/155/98 112/168/103
f 58/169/66 103/175/106 98/170/104
f 107/171/105 97/195/112 52/172/91
f 59/174/65 104/196/113 103/175/106
f 108/176/107 107/171/105 62/173/92
f 105/178/108 104/196/113 59/174/65
f 52/172/91 97/195/112 102/180/109
f 109/181/110 108/176/107 63/177/93
f 106/96/61 105/178/108 60/179/68
