# Blender v2.82 (sub 7) OBJ File: 'players.blend'
# www.blender.org
mtllib mask_player_3.mtl
g mask_player_3
v -0.000011 33.704216 29.189583
v 0.296866 -25.528076 27.135479
v 0.386905 25.348597 8.956440
v -0.025899 25.560070 14.949629
v -0.185874 27.465292 22.597130
v 1.431038 -30.397243 21.919935
v 4.034699 -30.681681 16.686443
v 8.511273 -24.751062 6.936108
v 0.441517 26.071358 30.487051
v 1.365256 11.658585 33.499783
v 2.852180 -4.770099 33.065334
v 0.727513 -18.641521 29.988600
v 7.983803 -21.157244 25.161943
v 7.946896 -5.263016 27.429008
v 3.209383 2.516460 27.296911
v 2.298995 9.776887 27.042894
v 1.572687 20.193325 24.485783
v 3.459751 21.918186 22.590506
v 10.212096 -24.903116 16.660263
v 13.271957 -19.981880 16.344145
v 1.793680 8.839434 16.021444
v 2.842202 17.066586 16.803305
v 4.974955 18.314108 16.505259
v 13.911992 -18.486216 6.420900
v 12.645103 -13.282011 7.027308
v 10.313778 -6.953276 8.000000
v 3.573345 1.021883 6.503110
v 2.261480 8.798111 6.383225
v 5.247313 13.392056 8.252863
v 6.433776 15.125875 8.791917
v 0.656030 40.100246 33.042458
v 1.011993 -30.863724 30.742714
v 1.119951 30.204374 8.743589
v 0.624990 30.479345 15.989561
v 0.433177 33.031387 23.520836
v 2.371888 -36.568935 24.535635
v 5.493731 -37.043015 18.123440
v 10.663458 -30.019478 7.123823
v 0.656034 32.261189 35.790462
v 0.656040 13.681571 38.847580
v 2.404203 -6.546778 38.027039
v 0.875378 -22.606607 34.425575
v 1.431038 -30.397243 21.919935
v 4.034699 -30.681681 16.686443
v 8.511273 -24.751062 6.936108
v 8.511273 -24.751062 6.936108
v 13.911992 -18.486216 6.420900
v 12.645103 -13.282011 7.027308
v -0.185874 27.465292 22.597130
v -0.000011 33.704216 29.189583
v 0.727513 -18.641521 29.988600
v 0.296866 -25.528076 27.135479
v 0.386905 25.348597 8.956440
v -0.025899 25.560070 14.949629
v 2.852180 -4.770099 33.065334
v 1.365256 11.658585 33.499783
v 0.441517 26.071358 30.487051
v -0.000011 33.704216 -29.189583
v 0.296866 -25.528076 -27.135479
v 1.359285 27.126720 0.000000
v 0.386905 25.348597 -8.956440
v -0.025899 25.560070 -14.949629
v -0.185874 27.465292 -22.597130
v 1.431038 -30.397243 -21.919935
v 4.034699 -30.681681 -16.686443
v 8.511273 -24.751062 -6.936108
v 13.103618 -29.785427 0.000000
v 0.441517 26.071358 -30.487051
v 1.365256 11.658585 -33.499783
v 2.852180 -4.770099 -33.065334
v 0.727513 -18.641521 -29.988600
v 7.983803 -21.157244 -25.161943
v 7.946896 -5.263016 -27.429008
v 3.209383 2.516460 -27.296911
v 2.298995 9.776887 -27.042894
v 1.572687 20.193325 -24.485783
v 3.459751 21.918186 -22.590506
v 10.212096 -24.903116 -16.660263
v 13.271957 -19.981880 -16.344145
v 1.793680 8.839434 -16.021444
v 2.842202 17.066586 -16.803305
v 4.974955 18.314108 -16.505259
v 13.911992 -18.486216 -6.420900
v 12.645103 -13.282011 -7.027308
v 10.313778 -6.953276 -8.000000
v 3.573345 1.021883 -6.503110
v 2.261480 8.798111 -6.383225
v 5.247313 13.392056 -8.252863
v 6.433776 15.125875 -8.791917
v 17.612444 -25.498989 0.000000
v 17.279610 -13.635923 0.000000
v 14.198962 -9.687296 0.000000
v 9.453479 8.671887 0.000000
v 10.623549 10.686020 0.000000
v 0.656030 40.100246 -33.042458
v 1.011993 -30.863724 -30.742714
v 2.288120 32.004665 0.000000
v 1.119951 30.204374 -8.743589
v 0.624990 30.479345 -15.989561
v 0.433177 33.031387 -23.520836
v 2.371888 -36.568935 -24.535635
v 5.493731 -37.043015 -18.123440
v 10.663458 -30.019478 -7.123823
v 13.065067 -35.370331 0.000000
v 0.656034 32.261189 -35.790462
v 0.656040 13.681571 -38.847580
v 2.404203 -6.546778 -38.027039
v 0.875378 -22.606607 -34.425575
v 1.431038 -30.397243 -21.919935
v 4.034699 -30.681681 -16.686443
v 8.511273 -24.751062 -6.936108
v 13.103618 -29.785427 0.000000
v 8.511273 -24.751062 -6.936108
v 13.911992 -18.486216 -6.420900
v 12.645103 -13.282011 -7.027308
v 17.279610 -13.635923 0.000000
v -0.185874 27.465292 -22.597130
v -0.000011 33.704216 -29.189583
v 0.727513 -18.641521 -29.988600
v 0.296866 -25.528076 -27.135479
v 1.359285 27.126720 0.000000
v 0.386905 25.348597 -8.956440
v -0.025899 25.560070 -14.949629
v 2.852180 -4.770099 -33.065334
v 1.365256 11.658585 -33.499783
v 0.441517 26.071358 -30.487051
vt 0.070153 0.105870
vt 0.162756 0.269329
vt 0.044153 0.298286
vt 0.162373 0.027012
vt 0.212902 0.195635
vt 0.497254 0.068938
vt 0.552235 0.185347
vt 0.713222 0.706833
vt 0.907617 0.800689
vt 0.732328 0.896322
vt 0.530480 0.793676
vt 0.701204 0.955232
vt 0.503096 0.952422
vt 0.539074 0.756446
vt 0.693801 0.792452
vt 0.532962 0.592724
vt 0.692503 0.760915
vt 0.531647 0.497321
vt 0.519335 0.358807
vt 0.689335 0.322042
vt 0.570473 0.212697
vt 0.916975 0.987451
vt 0.751641 0.985801
vt 0.388060 0.801259
vt 0.367667 0.948910
vt 0.380675 0.752712
vt 0.365005 0.602863
vt 0.154840 0.615425
vt 0.150544 0.510750
vt 0.355733 0.267931
vt 0.163495 0.390162
vt 0.232818 0.802669
vt 0.239660 0.889116
vt 0.214416 0.773490
vt 0.026187 0.813606
vt 0.025528 0.947230
vt 0.031231 0.642124
vt 0.036018 0.410484
vt 0.931094 0.811128
vt 0.928960 0.812619
vt 0.930320 0.809025
vt 0.927738 0.819529
vt 0.928883 0.827311
vt 0.927545 0.828156
vt 0.943491 0.833904
vt 0.940539 0.835087
vt 0.939622 0.833137
vt 0.937040 0.833232
vt 0.937454 0.835209
vt 0.933754 0.834068
vt 0.933679 0.836312
vt 0.933194 0.808851
vt 0.932793 0.806384
vt 0.930932 0.836767
vt 0.929006 0.836024
vt 0.930292 0.833495
vt 0.935699 0.805810
vt 0.935607 0.808416
vt 0.941092 0.808103
vt 0.940412 0.810356
vt 0.930228 0.839337
vt 0.943519 0.807742
vt 0.943222 0.805545
vt 0.930014 0.814151
vt 0.162756 0.269329
vt 0.070153 0.105870
vt 0.044153 0.298286
vt 0.212902 0.195635
vt 0.162373 0.027012
vt 0.497254 0.068938
vt 0.272682 0.015706
vt 0.713222 0.706833
vt 0.732328 0.896322
vt 0.530480 0.793676
vt 0.503096 0.952422
vt 0.539074 0.756446
vt 0.532962 0.592724
vt 0.531647 0.497321
vt 0.519335 0.358807
vt 0.570473 0.212697
vt 0.751641 0.985801
vt 0.388060 0.801259
vt 0.367667 0.948910
vt 0.380675 0.752712
vt 0.365005 0.602863
vt 0.154840 0.615425
vt 0.150544 0.510750
vt 0.355733 0.267931
vt 0.163495 0.390162
vt 0.552235 0.185347
vt 0.232818 0.802669
vt 0.239660 0.889116
vt 0.214416 0.773490
vt 0.026187 0.813606
vt 0.025528 0.947230
vt 0.031231 0.642124
vt 0.036018 0.410484
vt 0.931094 0.811128
vt 0.928960 0.812619
vt 0.930014 0.814151
vt 0.928883 0.827311
vt 0.927738 0.819529
vt 0.927545 0.828156
vt 0.940539 0.835087
vt 0.939622 0.833137
vt 0.937040 0.833232
vt 0.933754 0.834068
vt 0.937454 0.835209
vt 0.933194 0.808851
vt 0.930320 0.809025
vt 0.929006 0.836024
vt 0.930932 0.836767
vt 0.930292 0.833495
vt 0.935699 0.805810
vt 0.935607 0.808416
vt 0.941092 0.808103
vt 0.940412 0.810356
vt 0.933679 0.836312
vt 0.928947 0.820220
vt 0.272682 0.015706
vt 0.897103 0.667345
vt 0.691908 0.232428
vt 0.928947 0.820220
vt 0.943519 0.835874
vt 0.932793 0.806384
vt 0.930228 0.839337
vn 0.4696 -0.4963 0.7301
vn 0.6810 -0.3378 0.6497
vn 0.5220 -0.2410 0.8181
vn 0.5992 -0.6305 0.4933
vn 0.7588 -0.6305 0.1632
vn 0.7228 -0.6774 -0.1370
vn 0.9838 -0.1792 0.0060
vn 0.5204 -0.4422 0.7305
vn 0.8929 -0.4502 0.0000
vn 0.7816 -0.0892 0.6173
vn 0.9284 -0.0636 0.3660
vn 0.8659 0.5002 0.0000
vn 0.8466 0.5236 0.0954
vn 0.7228 -0.5368 0.4352
vn 0.9917 -0.1284 0.0000
vn 0.8788 -0.2250 0.4206
vn 0.9659 -0.2587 0.0000
vn 0.8602 0.3677 0.3533
vn 0.8603 0.4923 0.1320
vn 0.8640 0.5034 0.0000
vn 0.9175 0.3212 0.2346
vn 0.9967 0.0805 0.0000
vn 0.8299 0.1390 0.5403
vn 0.9395 -0.1629 0.3013
vn 0.8265 0.5615 -0.0394
vn 0.8471 -0.4159 0.3308
vn 0.9983 -0.0110 0.0567
vn 0.9946 0.0880 0.0551
vn 0.9508 0.2763 0.1400
vn 0.9608 -0.1799 0.2106
vn 0.8656 0.2226 0.4484
vn 0.9841 0.0132 0.1773
vn 0.7840 0.5157 -0.3455
vn 0.9542 -0.1361 0.2662
vn 0.9622 0.0533 0.2670
vn 0.9623 0.2712 0.0200
vn 0.9877 0.0992 0.1205
vn 0.8197 0.0567 0.5700
vn 0.9960 0.0833 -0.0323
vn 0.9959 -0.0231 -0.0872
vn 0.9912 0.1318 -0.0032
vn 0.9976 -0.0439 0.0527
vn 0.9913 0.0831 0.1017
vn 0.9943 0.0702 0.0805
vn 0.9846 -0.1746 0.0000
vn 0.9852 -0.1523 0.0781
vn 0.9864 -0.1456 0.0754
vn 0.9872 -0.1446 0.0665
vn 0.9881 -0.1392 0.0649
vn 0.9893 -0.1276 0.0696
vn 0.9882 -0.1287 0.0833
vn 0.9441 0.2366 0.2296
vn 0.9391 0.2452 0.2408
vn 0.9967 -0.0812 0.0053
vn 0.9968 0.0008 -0.0793
vn 0.9993 0.0193 -0.0330
vn 0.8331 0.3002 0.4645
vn 0.8120 0.3030 0.4988
vn 0.8518 0.2959 0.4323
vn 0.8180 0.3504 0.4560
vn 0.9962 -0.0750 -0.0451
vn 0.9940 0.1093 0.0000
vn 1.0000 -0.0069 0.0000
vn 0.9951 -0.0683 -0.0713
vn 0.6810 -0.3378 -0.6497
vn 0.4696 -0.4963 -0.7301
vn 0.5220 -0.2410 -0.8181
vn 0.7588 -0.6305 -0.1632
vn 0.5992 -0.6305 -0.4933
vn 0.7228 -0.6774 0.1370
vn 0.6698 -0.7151 -0.1997
vn 0.5204 -0.4422 -0.7305
vn 0.7816 -0.0892 -0.6173
vn 0.9284 -0.0636 -0.3660
vn 0.8466 0.5236 -0.0954
vn 0.7228 -0.5368 -0.4352
vn 0.8788 -0.2250 -0.4206
vn 0.8602 0.3677 -0.3533
vn 0.8603 0.4923 -0.1320
vn 0.9175 0.3212 -0.2346
vn 0.8299 0.1390 -0.5403
vn 0.9395 -0.1629 -0.3013
vn 0.8265 0.5615 0.0394
vn 0.8471 -0.4159 -0.3308
vn 0.9983 -0.0110 -0.0567
vn 0.9946 0.0880 -0.0551
vn 0.9508 0.2763 -0.1400
vn 0.9608 -0.1799 -0.2106
vn 0.8656 0.2226 -0.4484
vn 0.9838 -0.1792 -0.0060
vn 0.9841 0.0132 -0.1773
vn 0.7840 0.5157 0.3455
vn 0.9542 -0.1361 -0.2662
vn 0.9622 0.0533 -0.2670
vn 0.9623 0.2712 -0.0200
vn 0.9877 0.0992 -0.1205
vn 0.8197 0.0567 -0.5700
vn 0.9960 0.0833 0.0323
vn 0.9959 -0.0231 0.0872
vn 0.9951 -0.0683 0.0713
vn 0.9913 0.0831 -0.1017
vn 0.9976 -0.0439 -0.0527
vn 0.9943 0.0702 -0.0805
vn 0.9852 -0.1523 -0.0781
vn 0.9864 -0.1456 -0.0754
vn 0.9872 -0.1446 -0.0665
vn 0.9893 -0.1276 -0.0696
vn 0.9881 -0.1392 -0.0649
vn 0.9441 0.2366 -0.2296
vn 0.9912 0.1318 0.0032
vn 0.9968 0.0008 0.0793
vn 0.9967 -0.0812 -0.0053
vn 0.9993 0.0193 0.0330
vn 0.8331 0.3002 -0.4645
vn 0.8120 0.3030 -0.4988
vn 0.8518 0.2959 -0.4323
vn 0.8180 0.3504 -0.4560
vn 0.9882 -0.1287 -0.0833
vn 0.9963 -0.0198 -0.0829
vn 0.6698 -0.7151 0.1997
vn 0.6890 -0.7248 0.0000
vn 0.7884 0.6151 0.0000
vn 0.9963 -0.0198 0.0829
vn 0.9823 -0.1870 0.0000
vn 0.9391 0.2452 -0.2408
vn 0.9962 -0.0750 0.0451
usemtl MatP3
s 1
f 52/1/1 13/2/2 51/3/3
f 43/4/4 19/5/5 13/2/2
f 19/5/5 46/6/6 47/7/7
f 45/8/8 90/9/9 24/10/10
f 30/11/11 121/12/12 53/13/13
f 29/14/14 94/15/15 30/11/11
f 29/14/14 28/16/16 93/17/17
f 27/18/18 26/19/19 92/20/20
f 28/16/16 27/18/18 93/17/17
f 25/21/21 92/20/20 26/19/19
f 24/10/10 116/22/22 48/23/23
f 23/24/24 53/13/13 54/25/25
f 22/26/26 30/11/11 23/24/24
f 21/27/27 29/14/14 22/26/26
f 16/28/28 15/29/29 21/27/27
f 20/30/30 14/31/31 13/2/2
f 15/29/29 27/18/18 21/27/27
f 20/30/30 47/7/7 25/21/21
f 18/32/32 54/25/25 5/33/33
f 18/32/32 22/26/26 23/24/24
f 16/28/28 22/26/26 17/34/34
f 28/16/16 21/27/27 27/18/18
f 19/5/5 20/30/30 13/2/2
f 57/35/35 18/32/32 1/36/36
f 17/34/34 10/37/37 16/28/28
f 18/32/32 57/35/35 17/34/34
f 55/38/38 15/29/29 10/37/37
f 16/28/28 10/37/37 15/29/29
f 2/39/39 42/40/40 32/41/41
f 41/42/42 56/43/43 40/44/44
f 60/45/45 33/46/46 3/47/47
f 14/31/31 15/29/29 55/38/38
f 4/48/48 33/46/46 34/49/49
f 49/50/50 34/49/49 35/51/51
f 6/52/52 32/41/41 36/53/53
f 50/54/54 39/55/55 9/56/56
f 6/52/52 37/57/57 7/58/58
f 9/56/56 40/44/44 56/43/43
f 7/58/58 38/59/59 8/60/60
f 50/54/54 35/51/51 31/61/61
f 10/37/37 17/34/34 57/35/35
f 67/62/62 38/59/59 104/63/63
f 92/20/20 93/17/17 27/18/18
f 25/21/21 26/19/19 20/30/30
f 20/30/30 26/19/19 14/31/31
f 14/31/31 51/3/3 13/2/2
f 12/64/64 41/42/42 42/40/40
f 15/29/29 26/19/19 27/18/18
f 15/29/29 14/31/31 26/19/19
f 5/33/33 1/36/36 18/32/32
f 72/65/65 120/66/66 119/67/67
f 78/68/68 109/69/69 72/65/65
f 78/68/68 113/70/70 110/71/71
f 90/9/9 111/72/72 83/73/73
f 121/12/12 89/74/74 122/75/75
f 94/15/15 88/76/76 89/74/74
f 88/76/76 93/17/17 87/77/77
f 86/78/78 92/20/20 85/79/79
f 87/77/77 93/17/17 86/78/78
f 92/20/20 84/80/80 85/79/79
f 116/22/22 83/73/73 115/81/81
f 122/75/75 82/82/82 123/83/83
f 89/74/74 81/84/84 82/82/82
f 88/76/76 80/85/85 81/84/84
f 75/86/86 80/85/85 74/87/87
f 79/88/88 72/65/65 73/89/89
f 74/87/87 80/85/85 86/78/78
f 79/88/88 114/90/90 78/68/68
f 123/83/83 77/91/91 63/92/92
f 77/91/91 81/84/84 76/93/93
f 81/84/84 75/86/86 76/93/93
f 87/77/77 86/78/78 80/85/85
f 78/68/68 72/65/65 79/88/88
f 126/94/94 58/95/95 77/91/91
f 76/93/93 75/86/86 69/96/96
f 77/91/91 76/93/93 126/94/94
f 124/97/97 69/96/96 74/87/87
f 75/86/86 74/87/87 69/96/96
f 59/98/98 108/99/99 71/100/100
f 125/101/101 107/102/102 106/103/103
f 98/104/104 60/45/45 61/105/105
f 73/89/89 124/97/97 74/87/87
f 62/106/106 98/104/104 61/105/105
f 117/107/107 99/108/108 62/106/106
f 64/109/109 96/110/110 59/98/98
f 105/111/111 118/112/112 68/113/113
f 102/114/114 64/109/109 65/115/115
f 68/113/113 106/103/103 105/111/111
f 103/116/116 65/115/115 66/117/117
f 118/112/112 100/118/118 117/107/107
f 69/96/96 126/94/94 76/93/93
f 67/62/62 103/116/116 66/117/117
f 92/20/20 86/78/78 93/17/17
f 84/80/80 79/88/88 85/79/79
f 79/88/88 73/89/89 85/79/79
f 119/67/67 73/89/89 72/65/65
f 71/100/100 107/102/102 70/119/119
f 74/87/87 86/78/78 85/79/79
f 74/87/87 85/79/79 73/89/89
f 63/92/92 77/91/91 58/95/95
f 52/1/1 43/4/4 13/2/2
f 43/4/4 44/120/120 19/5/5
f 19/5/5 44/120/120 46/6/6
f 45/8/8 112/121/121 90/9/9
f 30/11/11 94/15/15 121/12/12
f 29/14/14 93/17/17 94/15/15
f 25/21/21 91/122/122 92/20/20
f 24/10/10 90/9/9 116/22/22
f 23/24/24 30/11/11 53/13/13
f 22/26/26 29/14/14 30/11/11
f 21/27/27 28/16/16 29/14/14
f 20/30/30 19/5/5 47/7/7
f 18/32/32 23/24/24 54/25/25
f 18/32/32 17/34/34 22/26/26
f 16/28/28 21/27/27 22/26/26
f 2/39/39 12/64/64 42/40/40
f 41/42/42 11/123/123 56/43/43
f 60/45/45 97/124/124 33/46/46
f 4/48/48 3/47/47 33/46/46
f 49/50/50 4/48/48 34/49/49
f 6/52/52 2/39/39 32/41/41
f 50/54/54 31/61/61 39/55/55
f 6/52/52 36/53/53 37/57/57
f 9/56/56 39/55/55 40/44/44
f 7/58/58 37/57/57 38/59/59
f 50/54/54 49/50/50 35/51/51
f 67/62/62 8/60/60 38/59/59
f 14/31/31 55/38/38 51/3/3
f 12/64/64 11/123/123 41/42/42
f 72/65/65 109/69/69 120/66/66
f 78/68/68 110/71/71 109/69/69
f 78/68/68 114/90/90 113/70/70
f 90/9/9 112/121/121 111/72/72
f 121/12/12 94/15/15 89/74/74
f 94/15/15 93/17/17 88/76/76
f 92/20/20 91/122/122 84/80/80
f 116/22/22 90/9/9 83/73/73
f 122/75/75 89/74/74 82/82/82
f 89/74/74 88/76/76 81/84/84
f 88/76/76 87/77/77 80/85/85
f 79/88/88 84/80/80 114/90/90
f 123/83/83 82/82/82 77/91/91
f 77/91/91 82/82/82 81/84/84
f 81/84/84 80/85/85 75/86/86
f 59/98/98 96/110/110 108/99/99
f 125/101/101 70/119/119 107/102/102
f 98/104/104 97/124/124 60/45/45
f 62/106/106 99/108/108 98/104/104
f 117/107/107 100/118/118 99/108/108
f 64/109/109 101/125/125 96/110/110
f 105/111/111 95/126/126 118/112/112
f 102/114/114 101/125/125 64/109/109
f 68/113/113 125/101/101 106/103/103
f 103/116/116 102/114/114 65/115/115
f 118/112/112 95/126/126 100/118/118
f 67/62/62 104/63/63 103/116/116
f 119/67/67 124/97/97 73/89/89
f 71/100/100 108/99/99 107/102/102
