# Blender v2.82 (sub 7) OBJ File: 'players.blend'
# www.blender.org
mtllib mask_player_1.mtl
g mask_player_1
v -0.000011 32.878178 29.755705
v 0.296866 -25.528076 30.075935
v 0.386905 22.444212 8.956440
v -0.025899 26.977272 14.270837
v -0.185874 30.059370 18.317802
v 1.431038 -28.461531 23.819933
v 4.034699 -30.681681 16.890272
v 10.312737 -26.950005 8.376841
v -0.000008 27.118979 31.133514
v -0.000006 20.789875 31.293207
v -0.000003 11.620158 27.432878
v 1.126011 3.359360 26.537014
v 2.357200 -5.255823 30.436407
v 0.895217 -12.201686 32.885830
v 0.727513 -18.641521 31.858290
v 8.056783 -21.095497 24.630293
v 10.445401 -17.077696 24.526159
v 9.164235 -5.795295 22.994623
v 1.905006 1.872350 20.815456
v 1.840371 13.658668 21.484777
v -0.493383 18.324919 24.327404
v -3.670513 24.993362 22.402481
v 9.155475 -23.131342 11.852566
v 8.889418 -18.462132 11.536448
v 6.735428 -8.006413 16.000000
v 3.247277 0.135141 15.814285
v 3.481025 12.254384 15.794166
v 2.842202 14.961863 16.785051
v 1.090043 20.216282 16.453085
v 14.470038 -18.232092 3.289299
v 12.645103 -11.177895 7.464002
v 8.791127 -8.000000 8.000000
v 6.672312 0.000000 3.995635
v 6.907219 7.761468 5.323380
v 5.247313 13.315987 8.252863
v 3.008498 16.894594 8.791917
v 1.960579 37.732464 31.843090
v 2.293330 -30.172512 32.211769
v 2.407908 25.633512 4.500127
v 1.930649 30.949856 10.644309
v 1.745696 34.612377 15.397933
v 3.615071 -33.184738 21.684387
v 6.625263 -35.751545 13.672736
v 13.883545 -31.437195 3.830032
v 1.960582 31.074034 33.875813
v 1.779658 22.796307 35.102024
v 1.779661 12.194842 32.175854
v 2.995676 3.509505 31.886681
v 4.497137 -5.880024 34.375267
v 2.849062 -14.574630 36.647259
v 2.050765 -22.210667 35.462791
v -0.185874 30.059370 18.317802
v -0.000011 32.878178 29.755705
v 0.727513 -18.641521 31.858290
v 0.296866 -25.528076 30.075935
v 0.386905 22.444212 8.956440
v -0.025899 26.977272 14.270837
v 1.431038 -28.461531 23.819933
v 4.034699 -30.681681 16.890272
v 10.312737 -26.950005 8.376841
v -0.000008 27.118979 31.133514
v -0.000006 20.789875 31.293207
v -0.000003 11.620158 27.432878
v 1.126011 3.359360 26.537014
v 2.357200 -5.255823 30.436407
v 0.895217 -12.201686 32.885830
v 1.090043 20.216282 16.453085
v -0.025899 26.977272 14.270837
v 1.431038 -28.461531 23.819933
v 8.056783 -21.095497 24.630293
v 3.481025 12.254384 15.794166
v 3.481025 12.254384 15.794166
v 2.842202 14.961863 16.785051
v 14.470038 -18.232092 3.289299
v 12.645103 -11.177895 7.464002
v 8.791127 -8.000000 8.000000
v 8.791127 -8.000000 8.000000
v 6.907219 7.761468 5.323380
v 6.735428 -8.006413 16.000000
v 1.840371 13.658668 21.484777
v 9.164235 -5.795295 22.994623
v -0.000003 11.620158 27.432878
v 2.357200 -5.255823 30.436407
v 10.445401 -17.077696 24.526159
v 9.164235 -5.795295 22.994623
v -0.000011 32.878178 -29.755705
v 0.296866 -25.528076 -30.075935
v 1.359285 21.501417 0.000000
v 0.386905 22.444212 -8.956440
v -0.025899 26.977272 -14.270837
v -0.185874 30.059370 -18.317802
v 1.431038 -28.461531 -23.819933
v 4.034699 -30.681681 -16.890272
v 10.312737 -26.950005 -8.376841
v 14.905082 -21.083225 0.000000
v -0.000008 27.118979 -31.133514
v -0.000006 20.789875 -31.293207
v -0.000003 11.620158 -27.432878
v 1.126011 3.359360 -26.537014
v 2.357200 -5.255823 -30.436407
v 0.895217 -12.201686 -32.885830
v 0.727513 -18.641521 -31.858290
v 8.056783 -21.095497 -24.630293
v 10.445401 -17.077696 -24.526159
v 9.164235 -5.795295 -22.994623
v 1.905006 1.872350 -20.815456
v 1.840371 13.658668 -21.484777
v -0.493383 18.324919 -24.327404
v -3.670513 24.993362 -22.402481
v 9.155475 -23.131342 -11.852566
v 8.889418 -18.462132 -11.536448
v 6.735428 -8.006413 -16.000000
v 3.247277 0.135141 -15.814285
v 3.481025 12.254384 -15.794166
v 2.842202 14.961863 -16.785051
v 1.090043 20.216282 -16.453085
v 14.470038 -18.232092 -3.289299
v 12.645103 -11.177895 -7.464002
v 8.791127 -8.000000 -8.000000
v 6.672312 0.000000 -3.995635
v 6.907219 7.761468 -5.323380
v 5.247313 13.315987 -8.252863
v 3.008498 16.894594 -8.791917
v 15.097115 -19.434139 0.000000
v 14.248304 -9.982139 0.000000
v 10.582471 -8.000000 0.000000
v 9.929029 0.000000 0.000000
v 8.578391 7.763109 0.000000
v 7.682530 12.409903 0.000000
v 5.977197 15.396761 0.000000
v 1.960579 37.732464 -31.843090
v 2.293330 -30.172512 -32.211769
v 3.534298 24.695822 0.000000
v 2.407908 25.633512 -4.500127
v 1.930649 30.949856 -10.644309
v 1.745696 34.612377 -15.397933
v 3.615071 -33.184738 -21.684387
v 6.625263 -35.751545 -13.672736
v 13.883545 -31.437195 -3.830032
v 15.094826 -24.654392 0.000000
v 1.960582 31.074034 -33.875813
v 1.779658 22.796307 -35.102024
v 1.779661 12.194842 -32.175854
v 2.995676 3.509505 -31.886681
v 4.497137 -5.880024 -34.375267
v 2.849062 -14.574630 -36.647259
v 2.050765 -22.210667 -35.462791
v -0.185874 30.059370 -18.317802
v -0.000011 32.878178 -29.755705
v 0.727513 -18.641521 -31.858290
v 0.296866 -25.528076 -30.075935
v 1.359285 21.501417 0.000000
v 0.386905 22.444212 -8.956440
v -0.025899 26.977272 -14.270837
v 1.431038 -28.461531 -23.819933
v 4.034699 -30.681681 -16.890272
v 10.312737 -26.950005 -8.376841
v 14.905082 -21.083225 0.000000
v -0.000008 27.118979 -31.133514
v -0.000006 20.789875 -31.293207
v -0.000003 11.620158 -27.432878
v 1.126011 3.359360 -26.537014
v 2.357200 -5.255823 -30.436407
v 0.895217 -12.201686 -32.885830
v 1.090043 20.216282 -16.453085
v -0.025899 26.977272 -14.270837
v 1.431038 -28.461531 -23.819933
v 8.056783 -21.095497 -24.630293
v 3.481025 12.254384 -15.794166
v 3.481025 12.254384 -15.794166
v 2.842202 14.961863 -16.785051
v 14.470038 -18.232092 -3.289299
v 12.645103 -11.177895 -7.464002
v 8.791127 -8.000000 -8.000000
v 8.791127 -8.000000 -8.000000
v 6.907219 7.761468 -5.323380
v 8.578391 7.763109 0.000000
v 10.582471 -8.000000 0.000000
v 15.097115 -19.434139 0.000000
v 6.735428 -8.006413 -16.000000
v 1.840371 13.658668 -21.484777
v 9.164235 -5.795295 -22.994623
v -0.000003 11.620158 -27.432878
v 2.357200 -5.255823 -30.436407
v 10.445401 -17.077696 -24.526159
v 9.164235 -5.795295 -22.994623
vt 0.660726 0.512512
vt 0.710747 0.700067
vt 0.543373 0.593633
vt 0.635436 0.913074
vt 0.575051 0.987324
vt 0.538762 0.943944
vt 0.515050 0.964698
vt 0.454356 0.929915
vt 0.515241 0.923364
vt 0.522170 0.955106
vt 0.511368 0.949218
vt 0.546890 0.783875
vt 0.588122 0.877592
vt 0.534986 0.881071
vt 0.562161 0.721925
vt 0.635250 0.840922
vt 0.645814 0.507530
vt 0.671888 0.764457
vt 0.755935 0.333290
vt 0.801546 0.469915
vt 0.706218 0.493019
vt 0.868383 0.108022
vt 0.805039 0.322817
vt 0.685267 0.844124
vt 0.968604 0.996898
vt 0.705174 0.992247
vt 0.797055 0.621600
vt 0.950777 0.923556
vt 0.345959 0.781676
vt 0.439115 0.874536
vt 0.342482 0.708247
vt 0.349529 0.645272
vt 0.423264 0.337136
vt 0.421619 0.580928
vt 0.636421 0.117866
vt 0.319808 0.818389
vt 0.011666 0.922654
vt 0.021266 0.831457
vt 0.119335 0.964904
vt 0.029685 1.021433
vt 0.893994 0.393797
vt 0.988526 0.433115
vt 0.961193 0.520836
vt 0.861341 0.388880
vt 0.968842 0.358947
vt 0.831638 0.300619
vt 0.939030 0.311732
vt 0.246646 0.358298
vt 0.352953 0.633792
vt 0.212024 0.006967
vt 0.468627 0.990555
vt 0.342060 0.826826
vt 0.376818 1.037999
vt 0.889963 0.536814
vt 0.808576 0.480204
vt 0.828945 0.529854
vt 0.802741 0.369613
vt 0.035758 0.391087
vt 0.351403 0.634567
vt 0.017378 0.846592
vt 0.212835 0.006710
vt 0.245956 0.358353
vt 0.438868 0.672027
vt 0.504594 0.939824
vt 0.370534 0.805160
vt 0.669012 0.780279
vt 0.484935 0.353887
vt 0.416226 0.353397
vt 0.416230 0.352482
vt 0.484941 0.358905
vt 0.416136 0.356441
vt 0.485092 0.358047
vt 0.485806 0.366917
vt 0.415624 0.364542
vt 0.485885 0.365670
vt 0.485171 0.357248
vt 0.415956 0.355366
vt 0.415509 0.363347
vt 0.485655 0.364570
vt 0.485319 0.356241
vt 0.416218 0.354489
vt 0.415785 0.361997
vt 0.485492 0.363335
vt 0.485022 0.355193
vt 0.485143 0.352298
vt 0.416530 0.351540
vt 0.485267 0.362704
vt 0.415584 0.359260
vt 0.484923 0.361294
vt 0.485145 0.351271
vt 0.416870 0.350542
vt 0.415645 0.358407
vt 0.485066 0.360051
vt 0.485240 0.350049
vt 0.417404 0.349309
vt 0.416261 0.360895
vt 0.415835 0.357385
vt 0.417569 0.347218
vt 0.484908 0.348468
vt 0.710747 0.700067
vt 0.660726 0.512512
vt 0.543373 0.593633
vt 0.635436 0.913074
vt 0.575051 0.987324
vt 0.619515 0.958304
vt 0.538762 0.943944
vt 0.515050 0.964698
vt 0.515241 0.923364
vt 0.590510 0.921143
vt 0.546890 0.783875
vt 0.534986 0.881071
vt 0.562161 0.721925
vt 0.645814 0.507530
vt 0.755935 0.333290
vt 0.706218 0.493019
vt 0.636421 0.117866
vt 0.685267 0.844124
vt 0.705174 0.992247
vt 0.797055 0.621600
vt 0.345959 0.781676
vt 0.439115 0.874536
vt 0.342482 0.708247
vt 0.349529 0.645272
vt 0.423264 0.337136
vt 0.421619 0.580928
vt 0.574275 0.062991
vt 0.319808 0.818389
vt 0.011666 0.922654
vt 0.119335 0.964904
vt 0.029685 1.021433
vt 0.160641 1.043813
vt 0.988526 0.433115
vt 0.893994 0.393797
vt 0.961193 0.520836
vt 0.968842 0.358947
vt 0.861341 0.388880
vt 0.939030 0.311732
vt 0.831638 0.300619
vt 0.246646 0.358298
vt 0.352953 0.633792
vt 0.212024 0.006967
vt 0.468627 0.990555
vt 0.342060 0.826826
vt 0.376818 1.037999
vt 0.889963 0.536814
vt 0.828945 0.529854
vt 0.808576 0.480204
vt 0.802741 0.369613
vt 0.351403 0.634567
vt 0.035758 0.391087
vt 0.017378 0.846592
vt 0.212835 0.006710
vt 0.017263 0.020434
vt 0.504594 0.939824
vt 0.438868 0.672027
vt 0.370534 0.805160
vt 0.669012 0.780279
vt 0.484935 0.353887
vt 0.416226 0.353397
vt 0.485022 0.355193
vt 0.416136 0.356441
vt 0.484941 0.358905
vt 0.485092 0.358047
vt 0.415624 0.364542
vt 0.485885 0.365670
vt 0.485171 0.357248
vt 0.415509 0.363347
vt 0.485655 0.364570
vt 0.485319 0.356241
vt 0.415956 0.355366
vt 0.415785 0.361997
vt 0.485492 0.363335
vt 0.416218 0.354489
vt 0.485143 0.352298
vt 0.416230 0.352482
vt 0.415584 0.359260
vt 0.485267 0.362704
vt 0.484923 0.361294
vt 0.485145 0.351271
vt 0.416530 0.351540
vt 0.415645 0.358407
vt 0.485066 0.360051
vt 0.485240 0.350049
vt 0.416870 0.350542
vt 0.415835 0.357385
vt 0.798711 0.534714
vt 0.619515 0.958304
vt 0.590510 0.921143
vt 0.762389 0.560431
vt 0.977170 0.579944
vt 0.574275 0.062991
vt 0.160641 1.043813
vt 0.880965 0.287840
vt 0.017263 0.020434
vt 0.415048 0.365475
vt 0.798711 0.534714
vt 0.454356 0.929915
vt 0.021266 0.831457
vt 0.880965 0.287840
vt 0.245956 0.358353
vt 0.416261 0.360895
vt 0.417404 0.349309
vn 0.6705 -0.4382 0.5987
vn 0.6339 -0.3875 0.6693
vn 0.6239 -0.1999 0.7555
vn 0.8672 -0.4829 0.1215
vn 0.8025 -0.4957 0.3319
vn 0.9211 -0.1435 0.3619
vn 0.8646 -0.1904 0.4649
vn 0.8906 -0.1471 0.4302
vn 0.9799 -0.1992 0.0000
vn 0.9933 -0.1157 0.0000
vn 0.8737 0.4718 0.1184
vn 0.8420 0.5394 0.0000
vn 0.9352 0.3533 0.0218
vn 0.9189 0.3278 0.2194
vn 0.8404 0.5419 0.0000
vn 0.9503 0.1571 0.2686
vn 0.9478 0.3189 0.0000
vn 0.9096 0.1327 0.3937
vn 1.0000 -0.0019 0.0000
vn 0.9527 -0.0614 0.2976
vn 0.9613 0.2754 0.0000
vn 0.9922 0.1243 0.0000
vn 0.8016 0.5600 0.2093
vn 0.5388 0.8424 0.0000
vn 0.6414 0.7536 0.1436
vn 0.9783 0.0988 0.1820
vn 0.8274 0.5616 0.0000
vn 0.9555 0.2930 0.0343
vn 0.9879 0.1473 -0.0489
vn 0.9432 0.2915 0.1594
vn 0.9593 0.1414 0.2446
vn 0.9524 0.2726 0.1366
vn 0.9561 -0.0146 0.2926
vn 0.9028 0.3633 0.2300
vn 0.9794 0.2012 0.0137
vn 0.8473 0.1246 0.5163
vn 0.6410 0.7495 0.1653
vn 0.9432 0.0208 0.3315
vn 0.9969 0.0199 0.0763
vn 0.9130 -0.0055 0.4078
vn 0.8780 -0.4225 0.2249
vn 0.9513 0.2928 0.0967
vn 0.8746 0.3524 0.3330
vn 0.9202 0.2502 0.3009
vn 0.9396 0.2272 0.2559
vn 0.9324 0.3499 0.0904
vn 0.9639 0.0232 0.2653
vn 0.8463 0.5316 0.0322
vn 0.9744 -0.1669 -0.1502
vn 0.9370 0.0597 -0.3442
vn 0.9460 -0.2615 -0.1918
vn 0.9621 0.1188 -0.2453
vn 0.9250 -0.0515 -0.3763
vn 0.9790 0.1404 0.1476
vn 0.9228 0.3017 0.2395
vn 0.9416 0.0933 0.3233
vn 0.6806 0.0177 0.7324
vn 0.7114 0.1438 0.6879
vn 0.7384 0.0807 0.6695
vn 0.6648 -0.0766 0.7430
vn 0.9387 0.2422 -0.2454
vn 0.9306 0.0431 -0.3633
vn 0.9289 0.3323 -0.1636
vn 0.9224 0.1504 -0.3557
vn 0.9316 0.0683 -0.3569
vn 0.9398 0.0856 -0.3309
vn 0.8742 -0.4855 0.0000
vn 0.9083 -0.3572 0.2177
vn 0.9350 -0.2707 0.2292
vn 0.8782 -0.1234 -0.4621
vn 0.8368 -0.2004 -0.5096
vn 0.9393 -0.2368 0.2482
vn 0.9397 -0.2380 0.2456
vn 0.8308 -0.1875 -0.5241
vn 0.8738 -0.0904 -0.4778
vn 0.9395 -0.3034 0.1587
vn 0.9409 -0.3059 0.1454
vn 0.9274 0.0023 -0.3739
vn 0.9187 0.3915 0.0525
vn 0.9214 0.3458 0.1774
vn 0.9366 -0.2656 -0.2284
vn 0.8719 -0.1166 -0.4757
vn 0.8807 -0.0783 -0.4671
vn 0.9009 0.2248 0.3711
vn 0.8469 0.1016 0.5218
vn 0.8900 0.0153 -0.4555
vn 0.8929 0.0886 -0.4414
vn 0.8184 0.0601 0.5714
vn 0.8264 0.0954 0.5549
vn 0.9366 -0.3016 -0.1782
vn 0.9146 0.1452 -0.3772
vn 0.9960 0.0890 0.0000
vn 0.9986 0.0530 0.0000
vn 0.6339 -0.3875 -0.6693
vn 0.6705 -0.4382 -0.5987
vn 0.6239 -0.1999 -0.7555
vn 0.8672 -0.4829 -0.1215
vn 0.8025 -0.4957 -0.3319
vn 0.6422 -0.6263 -0.4419
vn 0.9211 -0.1435 -0.3619
vn 0.8646 -0.1904 -0.4649
vn 0.8906 -0.1471 -0.4302
vn 0.8737 0.4718 -0.1184
vn 0.9352 0.3533 -0.0218
vn 0.9189 0.3278 -0.2194
vn 0.9503 0.1571 -0.2686
vn 0.9096 0.1327 -0.3937
vn 0.9527 -0.0614 -0.2976
vn 0.9028 0.3633 -0.2300
vn 0.8016 0.5600 -0.2093
vn 0.6414 0.7536 -0.1436
vn 0.9783 0.0988 -0.1820
vn 0.9555 0.2930 -0.0343
vn 0.9879 0.1473 0.0489
vn 0.9432 0.2915 -0.1594
vn 0.9593 0.1414 -0.2446
vn 0.9524 0.2726 -0.1366
vn 0.9561 -0.0146 -0.2926
vn 0.9174 0.3915 0.0708
vn 0.9794 0.2012 -0.0137
vn 0.8473 0.1246 -0.5163
vn 0.9432 0.0208 -0.3315
vn 0.9130 -0.0055 -0.4078
vn 0.9969 0.0199 -0.0763
vn 0.8780 -0.4225 -0.2249
vn 0.8746 0.3524 -0.3330
vn 0.9513 0.2928 -0.0967
vn 0.9396 0.2272 -0.2559
vn 0.9202 0.2502 -0.3009
vn 0.9324 0.3499 -0.0904
vn 0.9639 0.0232 -0.2653
vn 0.8463 0.5316 -0.0322
vn 0.9744 -0.1669 0.1502
vn 0.9370 0.0597 0.3442
vn 0.9460 -0.2615 0.1918
vn 0.9250 -0.0515 0.3763
vn 0.9621 0.1188 0.2453
vn 0.9790 0.1404 -0.1476
vn 0.9228 0.3017 -0.2395
vn 0.9416 0.0933 -0.3233
vn 0.6971 0.3759 -0.6104
vn 0.7114 0.1438 -0.6879
vn 0.6806 0.0177 -0.7324
vn 0.7384 0.0807 -0.6695
vn 0.6648 -0.0766 -0.7430
vn 0.9387 0.2422 0.2454
vn 0.9306 0.0431 0.3633
vn 0.9274 0.0023 0.3739
vn 0.9316 0.0683 0.3569
vn 0.9224 0.1504 0.3557
vn 0.9398 0.0856 0.3309
vn 0.9083 -0.3572 -0.2177
vn 0.9350 -0.2707 -0.2292
vn 0.8782 -0.1234 0.4621
vn 0.9393 -0.2368 -0.2482
vn 0.9397 -0.2380 -0.2456
vn 0.8308 -0.1875 0.5241
vn 0.8368 -0.2004 0.5096
vn 0.9395 -0.3034 -0.1587
vn 0.9409 -0.3059 -0.1454
vn 0.8738 -0.0904 0.4778
vn 0.9187 0.3915 -0.0525
vn 0.9289 0.3323 0.1636
vn 0.8719 -0.1166 0.4757
vn 0.9366 -0.2656 0.2284
vn 0.8807 -0.0783 0.4671
vn 0.9009 0.2248 -0.3711
vn 0.9214 0.3458 -0.1774
vn 0.8900 0.0153 0.4555
vn 0.8929 0.0886 0.4414
vn 0.8184 0.0601 -0.5714
vn 0.8469 0.1016 -0.5218
vn 0.9146 0.1452 0.3772
vn 0.6531 -0.6332 0.4153
vn 0.6422 -0.6263 0.4419
vn 0.9819 0.1893 0.0000
vn 0.9960 0.0894 0.0000
vn 0.9174 0.3915 -0.0708
vn 0.9602 0.1377 0.2429
vn 0.6971 0.3759 0.6104
vn 0.8266 -0.5628 0.0000
vn 0.6531 -0.6332 -0.4153
vn 0.6410 0.7495 -0.1653
vn 0.9602 0.1377 -0.2429
vn 0.9366 -0.3016 0.1782
vn 0.8264 0.0954 -0.5549
usemtl MatP1
s 1
f 55/1/1 70/2/2 54/3/3
f 16/4/4 59/5/5 23/6/6
f 23/6/6 60/7/7 74/8/8
f 74/9/8 158/10/9 179/11/10
f 36/12/11 152/13/12 56/14/13
f 35/15/14 130/16/15 36/12/11
f 34/17/16 129/18/17 35/15/14
f 33/19/18 177/20/19 78/21/20
f 33/19/18 126/22/21 127/23/22
f 75/24/23 178/25/24 76/26/25
f 30/27/26 125/28/27 75/24/23
f 67/29/28 56/14/13 68/30/29
f 73/31/30 36/12/11 67/29/28
f 72/32/31 35/15/14 73/31/30
f 26/33/32 78/21/20 71/34/33
f 26/33/32 77/35/34 33/19/18
f 79/36/35 31/37/36 32/38/37
f 24/39/38 74/40/8 31/37/36
f 22/41/39 57/42/40 52/43/41
f 21/44/42 29/45/43 22/41/39
f 20/46/44 28/47/45 21/44/42
f 19/48/46 71/34/33 80/49/47
f 18/50/48 26/33/32 19/48/46
f 84/51/49 79/36/35 85/52/50
f 16/53/4 24/39/38 84/51/49
f 53/54/51 22/41/39 52/43/41
f 62/55/52 22/41/39 61/56/53
f 82/57/54 21/44/42 62/55/52
f 64/58/55 80/59/47 63/60/56
f 64/58/55 18/61/48 19/62/46
f 66/63/57 81/64/58 65/65/59
f 54/3/3 17/66/60 66/63/57
f 2/67/61 51/68/62 38/69/63
f 11/70/64 48/71/65 12/72/66
f 88/73/67 39/74/68 3/75/69
f 13/76/70 48/71/65 49/77/71
f 3/75/69 40/78/72 4/79/73
f 14/80/74 49/77/71 50/81/75
f 4/79/73 41/82/76 5/83/77
f 15/84/78 50/81/75 51/68/62
f 6/85/79 38/69/63 42/86/80
f 1/87/81 45/88/82 9/89/83
f 7/90/84 42/86/80 43/91/85
f 9/89/83 46/92/86 10/93/87
f 8/94/88 43/91/85 44/95/89
f 1/87/81 41/82/76 37/96/90
f 10/93/87 47/97/91 11/70/64
f 8/94/88 140/98/92 95/99/93
f 168/100/94 151/101/95 150/102/96
f 103/103/97 156/104/98 155/105/99
f 110/106/100 157/107/101 156/104/98
f 172/108/102 158/10/9 157/109/101
f 152/13/12 123/110/103 153/111/104
f 130/16/15 122/112/105 123/110/103
f 129/18/17 121/113/106 122/112/105
f 177/20/19 120/114/107 176/115/108
f 120/114/107 126/22/21 175/116/109
f 178/25/24 173/117/110 174/118/111
f 125/28/27 117/119/112 173/117/110
f 153/111/104 165/120/113 166/121/114
f 123/110/103 171/122/115 165/120/113
f 122/112/105 170/123/116 171/122/115
f 176/115/108 113/124/117 169/125/118
f 113/124/117 175/116/109 112/126/119
f 180/127/120 118/128/121 111/129/122
f 111/129/122 172/130/102 110/131/100
f 154/132/123 109/133/124 148/134/125
f 116/135/126 108/136/127 109/133/124
f 115/137/128 107/138/129 108/136/127
f 169/125/118 106/139/130 181/140/131
f 113/124/117 105/141/132 106/139/130
f 180/127/120 185/142/133 186/143/134
f 111/129/122 103/144/97 185/142/133
f 149/145/135 109/133/124 159/146/136
f 109/133/124 160/147/137 159/146/136
f 108/136/127 183/148/138 160/147/137
f 181/149/131 162/150/139 161/151/140
f 162/150/139 105/152/132 184/153/141
f 182/154/142 164/155/143 163/156/144
f 104/157/145 150/102/96 164/155/143
f 87/158/146 147/159/147 102/160/148
f 144/161/149 98/162/150 99/163/151
f 134/164/152 88/73/67 89/165/153
f 100/166/154 144/161/149 99/163/151
f 135/167/155 89/165/153 90/168/156
f 101/169/157 145/170/158 100/166/154
f 136/171/159 90/168/156 91/172/160
f 102/160/148 146/173/161 101/169/157
f 92/174/162 132/175/163 87/158/146
f 141/176/164 86/177/165 96/178/166
f 93/179/167 137/180/168 92/174/162
f 142/181/169 96/178/166 97/182/170
f 94/183/171 138/184/172 93/179/167
f 86/177/165 136/171/159 91/172/160
f 143/185/173 97/182/170 98/162/150
f 140/98/92 94/183/171 95/99/93
f 55/1/1 69/186/174 70/2/2
f 16/4/4 58/187/175 59/5/5
f 23/6/6 59/5/5 60/7/7
f 74/9/8 60/188/7 158/10/9
f 36/12/11 130/16/15 152/13/12
f 35/15/14 129/18/17 130/16/15
f 34/17/16 128/189/176 129/18/17
f 33/19/18 127/23/22 177/20/19
f 33/19/18 77/35/34 126/22/21
f 75/24/23 125/28/27 178/25/24
f 30/27/26 124/190/177 125/28/27
f 67/29/28 36/12/11 56/14/13
f 73/31/30 35/15/14 36/12/11
f 72/32/31 34/17/16 35/15/14
f 26/33/32 33/19/18 78/21/20
f 26/33/32 25/191/178 77/35/34
f 79/36/35 24/39/38 31/37/36
f 24/39/38 23/192/6 74/40/8
f 22/41/39 29/45/43 57/42/40
f 21/44/42 28/47/45 29/45/43
f 20/46/44 27/193/179 28/47/45
f 19/48/46 26/33/32 71/34/33
f 18/50/48 25/191/178 26/33/32
f 84/51/49 24/39/38 79/36/35
f 16/53/4 23/192/6 24/39/38
f 53/54/51 61/56/53 22/41/39
f 62/55/52 21/44/42 22/41/39
f 82/57/54 20/46/44 21/44/42
f 64/58/55 19/62/46 80/59/47
f 64/58/55 83/194/180 18/61/48
f 66/63/57 17/66/60 81/64/58
f 54/3/3 70/2/2 17/66/60
f 2/67/61 15/84/78 51/68/62
f 11/70/64 47/97/91 48/71/65
f 88/73/67 133/195/181 39/74/68
f 13/76/70 12/72/66 48/71/65
f 3/75/69 39/74/68 40/78/72
f 14/80/74 13/76/70 49/77/71
f 4/79/73 40/78/72 41/82/76
f 15/84/78 14/80/74 50/81/75
f 6/85/79 2/67/61 38/69/63
f 1/87/81 37/96/90 45/88/82
f 7/90/84 6/85/79 42/86/80
f 9/89/83 45/88/82 46/92/86
f 8/94/88 7/90/84 43/91/85
f 1/87/81 5/83/77 41/82/76
f 10/93/87 46/92/86 47/97/91
f 8/94/88 44/95/89 140/98/92
f 168/100/94 167/196/182 151/101/95
f 103/103/97 110/106/100 156/104/98
f 110/106/100 172/197/102 157/107/101
f 172/108/102 179/11/10 158/10/9
f 152/13/12 130/16/15 123/110/103
f 130/16/15 129/18/17 122/112/105
f 129/18/17 128/189/176 121/113/106
f 177/20/19 127/23/22 120/114/107
f 120/114/107 127/23/22 126/22/21
f 178/25/24 125/28/27 173/117/110
f 125/28/27 124/190/177 117/119/112
f 153/111/104 123/110/103 165/120/113
f 123/110/103 122/112/105 171/122/115
f 122/112/105 121/113/106 170/123/116
f 176/115/108 120/114/107 113/124/117
f 113/124/117 120/114/107 175/116/109
f 180/127/120 119/198/183 118/128/121
f 111/129/122 118/128/121 172/130/102
f 154/132/123 116/135/126 109/133/124
f 116/135/126 115/137/128 108/136/127
f 115/137/128 114/199/184 107/138/129
f 169/125/118 113/124/117 106/139/130
f 113/124/117 112/126/119 105/141/132
f 180/127/120 111/129/122 185/142/133
f 111/129/122 110/131/100 103/144/97
f 149/145/135 148/134/125 109/133/124
f 109/133/124 108/136/127 160/147/137
f 108/136/127 107/138/129 183/148/138
f 181/149/131 106/200/130 162/150/139
f 162/150/139 106/200/130 105/152/132
f 182/154/142 104/157/145 164/155/143
f 104/157/145 168/100/94 150/102/96
f 87/158/146 132/175/163 147/159/147
f 144/161/149 143/185/173 98/162/150
f 134/164/152 133/195/181 88/73/67
f 100/166/154 145/170/158 144/161/149
f 135/167/155 134/164/152 89/165/153
f 101/169/157 146/173/161 145/170/158
f 136/171/159 135/167/155 90/168/156
f 102/160/148 147/159/147 146/173/161
f 92/174/162 137/180/168 132/175/163
f 141/176/164 131/201/185 86/177/165
f 93/179/167 138/184/172 137/180/168
f 142/181/169 141/176/164 96/178/166
f 94/183/171 139/202/186 138/184/172
f 86/177/165 131/201/185 136/171/159
f 143/185/173 142/181/169 97/182/170
f 140/98/92 139/202/186 94/183/171
