# Blender v2.82 (sub 7) OBJ File: 'players.blend'
# www.blender.org
mtllib mask_player_4.mtl
g mask_player_4
v 0.621380 20.580101 25.244602
v 0.672583 -23.622454 23.915565
v 3.137180 25.789587 8.104493
v 1.689847 25.890692 13.182495
v -0.431470 26.244596 20.014046
v 1.345955 -29.152952 19.533964
v 4.658743 -26.163128 14.155519
v 10.187150 -32.205933 7.873815
v -0.153752 18.337824 33.902222
v 0.236322 12.977493 30.587549
v 0.286365 6.725107 36.198193
v 1.193637 0.847734 29.443684
v 1.204472 -6.621386 38.913448
v 1.809839 -13.509892 27.863895
v -0.218464 -20.418524 32.240158
v 4.825043 -12.876116 22.471092
v 3.526396 -5.963262 23.910391
v 1.698995 5.700044 23.943037
v 6.210499 9.862849 24.435377
v 4.369604 19.337946 23.405767
v 7.963959 -20.971605 10.714148
v 7.444801 -17.471361 10.857769
v 7.054801 -8.472174 6.841249
v 3.367963 5.160656 6.308338
v 7.341058 10.678778 14.153419
v 13.767463 -30.154972 7.886120
v 12.773729 -13.824507 6.765636
v 11.889274 -8.251575 3.705552
v 8.832443 -0.175859 3.052244
v 8.669197 8.082126 5.620604
v 3.620776 22.936850 27.027155
v 3.681239 -26.293192 26.336908
v 0.497438 30.040049 6.724463
v 0.133087 29.820997 10.963081
v 2.271231 31.491323 22.101309
v 4.606040 -31.701303 21.119293
v 6.884423 -30.225210 13.407025
v 8.560222 -36.857712 8.315294
v 2.410134 21.317514 39.881973
v 3.215612 13.114844 33.956169
v 3.213621 6.793359 41.234821
v 4.330399 0.857298 34.103722
v 4.351506 -7.926107 43.718124
v 4.601717 -15.548235 32.680717
v 2.159498 -23.825741 36.758240
v 9.380469 -26.869797 10.994249
v -0.431470 26.244596 20.014046
v 0.621380 20.580101 25.244602
v -0.218464 -20.418524 32.240158
v 0.672583 -23.622454 23.915565
v 3.137180 25.789587 8.104493
v 1.689847 25.890692 13.182495
v 1.345955 -29.152952 19.533964
v 4.658743 -26.163128 14.155519
v 10.187150 -32.205933 7.873815
v -0.153752 18.337824 33.902222
v 0.236322 12.977493 30.587549
v 0.286365 6.725107 36.198193
v 1.193637 0.847734 29.443684
v 1.204472 -6.621386 38.913448
v 1.809839 -13.509892 27.863895
v 7.963959 -20.971605 10.714148
v 7.963959 -20.971605 10.714148
v 7.963959 -20.971605 10.714148
v 7.444801 -17.471361 10.857769
v 12.773729 -13.824507 6.765636
v 12.773729 -13.824507 6.765636
v 11.889274 -8.251575 3.705552
v 8.832443 -0.175859 3.052244
v 13.767463 -30.154972 7.886120
v 7.341058 10.678778 14.153419
v 8.669197 8.082126 5.620604
v 3.367963 5.160656 6.308338
v 6.210499 9.862849 24.435377
v 1.698995 5.700044 23.943037
v 0.286365 6.725107 36.198193
v 0.286365 6.725107 36.198193
v 3.526396 -5.963262 23.910391
v 1.698995 5.700044 23.943037
v 7.054801 -8.472174 6.841249
v 8.832443 -0.175859 3.052244
v 4.825043 -12.876116 22.471092
v 7.444801 -17.471361 10.857769
v 1.809839 -13.509892 27.863895
v 0.621380 20.580101 -25.244602
v 0.672583 -23.622454 -23.915565
v 3.638474 28.332930 0.000000
v 3.137180 25.789587 -8.104493
v 1.689847 25.890692 -13.182495
v -0.431470 26.244596 -20.014046
v 1.345955 -29.152952 -19.533964
v 4.658743 -26.163128 -14.155519
v 10.187150 -32.205933 -7.873815
v 15.076969 -33.295650 0.000000
v -0.153752 18.337824 -33.902222
v 0.236322 12.977493 -30.587549
v 0.286365 6.725107 -36.198193
v 1.193637 0.847734 -29.443684
v 1.204472 -6.621386 -38.913448
v 1.809839 -13.509892 -27.863895
v -0.218464 -20.418524 -32.240158
v 4.825043 -12.876116 -22.471092
v 3.526396 -5.963262 -23.910391
v 1.698995 5.700044 -23.943037
v 6.210499 9.862849 -24.435377
v 4.369604 19.337946 -23.405767
v 7.963959 -20.971605 -10.714148
v 7.444801 -17.471361 -10.857769
v 7.054801 -8.472174 -6.841249
v 3.367963 5.160656 -6.308338
v 7.341058 10.678778 -14.153419
v 13.767463 -30.154972 -7.886120
v 12.773729 -13.824507 -6.765636
v 11.889274 -8.251575 -3.705552
v 8.832443 -0.175859 -3.052244
v 8.669197 8.082126 -5.620604
v 14.438182 -14.134479 0.000000
v 10.798139 0.064862 0.000000
v 3.620776 22.936850 -27.027155
v 3.681239 -26.293192 -26.336908
v -0.473650 33.129887 0.000000
v 0.497438 30.040049 -6.724463
v 0.133087 29.820997 -10.963081
v 2.271231 31.491323 -22.101309
v 4.606040 -31.701303 -21.119293
v 6.884423 -30.225210 -13.407025
v 8.560222 -36.857712 -8.315294
v 15.291599 -36.883324 0.000000
v 2.410134 21.317514 -39.881973
v 3.215612 13.114844 -33.956169
v 3.213621 6.793359 -41.234821
v 4.330399 0.857298 -34.103722
v 4.351506 -7.926107 -43.718124
v 4.601717 -15.548235 -32.680717
v 2.159498 -23.825741 -36.758240
v 9.380469 -26.869797 -10.994249
v -0.431470 26.244596 -20.014046
v 0.621380 20.580101 -25.244602
v -0.218464 -20.418524 -32.240158
v 0.672583 -23.622454 -23.915565
v 3.638474 28.332930 0.000000
v 3.137180 25.789587 -8.104493
v 1.689847 25.890692 -13.182495
v 1.345955 -29.152952 -19.533964
v 4.658743 -26.163128 -14.155519
v 10.187150 -32.205933 -7.873815
v 15.076969 -33.295650 0.000000
v -0.153752 18.337824 -33.902222
v 0.236322 12.977493 -30.587549
v 0.286365 6.725107 -36.198193
v 1.193637 0.847734 -29.443684
v 1.204472 -6.621386 -38.913448
v 1.809839 -13.509892 -27.863895
v 7.963959 -20.971605 -10.714148
v 7.963959 -20.971605 -10.714148
v 7.963959 -20.971605 -10.714148
v 7.444801 -17.471361 -10.857769
v 12.773729 -13.824507 -6.765636
v 12.773729 -13.824507 -6.765636
v 11.889274 -8.251575 -3.705552
v 8.832443 -0.175859 -3.052244
v 13.767463 -30.154972 -7.886120
v 15.076969 -33.295650 0.000000
v 14.438182 -14.134479 0.000000
v 10.798139 0.064862 0.000000
v 7.341058 10.678778 -14.153419
v 8.669197 8.082126 -5.620604
v 3.367963 5.160656 -6.308338
v 6.210499 9.862849 -24.435377
v 1.698995 5.700044 -23.943037
v 0.286365 6.725107 -36.198193
v 0.286365 6.725107 -36.198193
v 3.526396 -5.963262 -23.910391
v 1.698995 5.700044 -23.943037
v 7.054801 -8.472174 -6.841249
v 8.832443 -0.175859 -3.052244
v 4.825043 -12.876116 -22.471092
v 7.444801 -17.471361 -10.857769
v 1.809839 -13.509892 -27.863895
vt 0.426073 0.239312
vt 0.647205 0.070526
vt 0.503167 0.331749
vt 0.394556 0.121943
vt 0.803873 0.740019
vt 0.778277 0.769689
vt 0.796472 0.729381
vt 0.830532 0.724210
vt 0.903653 0.270645
vt 0.910103 0.137581
vt 0.963487 0.260002
vt 0.968384 0.049925
vt 0.986572 0.670736
vt 0.991386 0.977632
vt 0.818486 0.671559
vt 0.987611 0.383141
vt 0.877387 0.456482
vt 0.819839 0.248828
vt 0.719973 0.424331
vt 0.705051 0.268028
vt 0.783731 0.112497
vt 0.641111 0.045827
vt 0.685521 0.830187
vt 0.814066 0.974587
vt 0.679515 0.908605
vt 0.882847 0.669570
vt 0.969667 0.454436
vt 0.969184 0.487917
vt 0.046009 0.414871
vt 0.488161 0.684979
vt 0.057915 0.744554
vt 0.242596 0.062155
vt 0.258763 0.263724
vt 0.612691 0.270183
vt 0.771535 0.266624
vt 0.058566 0.929194
vt 0.271628 0.917334
vt 0.223611 0.966219
vt 0.103622 0.833121
vt 0.263070 1.023894
vt 0.036901 0.389030
vt 0.251295 0.353209
vt 0.121290 0.426475
vt 0.068322 0.055867
vt 0.007316 0.213801
vt 0.855706 0.862342
vt 0.853015 0.858466
vt 0.854815 0.858172
vt 0.871103 0.867685
vt 0.867774 0.865479
vt 0.867953 0.864175
vt 0.885745 0.850881
vt 0.886045 0.855630
vt 0.883903 0.854778
vt 0.863000 0.866878
vt 0.862653 0.867938
vt 0.885575 0.858295
vt 0.883669 0.857530
vt 0.858749 0.862665
vt 0.859742 0.861571
vt 0.883561 0.861329
vt 0.886515 0.862941
vt 0.854703 0.863362
vt 0.852647 0.855189
vt 0.851307 0.855362
vt 0.878331 0.867677
vt 0.881655 0.864334
vt 0.879200 0.869320
vt 0.853572 0.852307
vt 0.854939 0.852463
vt 0.875444 0.867369
vt 0.875181 0.866245
vt 0.855585 0.850809
vt 0.853354 0.847431
vt 0.858245 0.850835
vt 0.880192 0.863655
vt 0.870827 0.868895
vt 0.852296 0.842912
vt 0.853545 0.842827
vt 0.422026 0.065609
vt 0.455160 0.995152
vt 0.244323 0.760876
vt 0.441506 0.764391
vt 0.602309 0.713871
vt 0.746735 1.068759
vt 0.566371 1.015953
vt 0.703640 0.575707
vt 0.869040 0.062690
vt 0.741142 0.121363
vt 0.519052 0.347045
vt 0.631312 0.565804
vt 0.971740 0.669973
vt 0.426073 0.239312
vt 0.503167 0.331749
vt 0.647205 0.070526
vt 0.394556 0.121943
vt 0.803873 0.740019
vt 0.796472 0.729381
vt 0.778277 0.769689
vt 0.903653 0.270645
vt 0.910103 0.137581
vt 0.818486 0.671559
vt 0.877387 0.456482
vt 0.987611 0.383141
vt 0.819839 0.248828
vt 0.705051 0.268028
vt 0.719973 0.424331
vt 0.783731 0.112497
vt 0.641111 0.045827
vt 0.814066 0.974587
vt 0.685521 0.830187
vt 0.679515 0.908605
vt 0.969667 0.454436
vt 0.882847 0.669570
vt 0.969184 0.487917
vt 0.488161 0.684979
vt 0.046009 0.414871
vt 0.057915 0.744554
vt 0.242596 0.062155
vt 0.258763 0.263724
vt 0.612691 0.270183
vt 0.771535 0.266624
vt 0.058566 0.929194
vt 0.223611 0.966219
vt 0.271628 0.917334
vt 0.103622 0.833121
vt 0.263070 1.023894
vt 0.036901 0.389030
vt 0.121290 0.426475
vt 0.251295 0.353209
vt 0.007316 0.213801
vt 0.068322 0.055867
vt 0.853015 0.858466
vt 0.855706 0.862342
vt 0.854815 0.858172
vt 0.867774 0.865479
vt 0.871103 0.867685
vt 0.867953 0.864175
vt 0.886045 0.855630
vt 0.883903 0.854778
vt 0.863000 0.866878
vt 0.885575 0.858295
vt 0.883669 0.857530
vt 0.858749 0.862665
vt 0.859742 0.861571
vt 0.883561 0.861329
vt 0.852647 0.855189
vt 0.878331 0.867677
vt 0.881655 0.864334
vt 0.880192 0.863655
vt 0.853572 0.852307
vt 0.854939 0.852463
vt 0.875444 0.867369
vt 0.875181 0.866245
vt 0.853354 0.847431
vt 0.855585 0.850809
vt 0.858245 0.850835
vt 0.422026 0.065609
vt 0.455160 0.995152
vt 0.244323 0.760876
vt -0.004643 0.731637
vt 0.441506 0.764391
vt 0.602309 0.713871
vt 0.566371 1.015953
vt 0.869040 0.062690
vt 0.741142 0.121363
vt 0.519052 0.347045
vt 0.631312 0.565804
vt 0.971740 0.669973
vt 0.887756 0.851555
vt 0.851733 0.847605
vt -0.004643 0.731637
vt 0.854703 0.863362
vt 0.870827 0.868895
vt 0.862653 0.867938
vt 0.886515 0.862941
vt 0.851307 0.855362
vt 0.879200 0.869320
vt 0.851733 0.847605
vn 0.8738 -0.2657 0.4071
vn 0.9092 -0.1923 0.3692
vn 0.8693 -0.2615 0.4194
vn 0.9354 -0.1202 0.3325
vn 0.3216 -0.5660 0.7591
vn 0.1229 -0.2203 0.9677
vn 0.3154 -0.5552 0.7696
vn 0.4959 -0.8683 0.0000
vn 0.7649 0.0111 0.6441
vn 0.9236 0.2606 0.2813
vn 0.9862 0.1653 0.0000
vn 0.9641 0.2655 0.0000
vn 0.9994 0.0333 0.0000
vn 0.9979 0.0646 0.0000
vn 0.9357 0.0569 0.3481
vn 0.4979 -0.5838 0.6413
vn 0.5220 -0.6276 0.5775
vn 0.4695 0.3442 0.8130
vn 0.5168 0.2615 0.8151
vn 0.6999 0.2883 0.6535
vn 0.2896 0.4956 0.8188
vn 0.8570 0.2588 0.4457
vn 0.5601 0.0786 0.8246
vn 0.8579 0.0816 0.5072
vn 0.5849 0.0535 0.8094
vn 0.6848 -0.7231 0.0901
vn 0.6854 -0.7167 0.1284
vn 0.6727 -0.7369 0.0667
vn 0.9726 0.2004 0.1179
vn 0.9152 0.2281 0.3322
vn 0.9841 0.1539 0.0884
vn 0.9459 0.1089 0.3057
vn 0.9698 0.0790 0.2309
vn 0.8807 -0.2900 0.3744
vn 0.9257 -0.2308 0.2997
vn 0.9111 0.0932 0.4015
vn 0.8310 0.4380 0.3427
vn 0.4636 0.7818 0.4169
vn 0.8398 0.1912 0.5080
vn 0.7110 0.6387 0.2941
vn 0.9788 0.1235 0.1634
vn 0.9813 0.0903 0.1698
vn 0.9933 0.0240 0.1125
vn 0.9559 -0.0678 0.2857
vn 0.9875 0.0329 0.1542
vn 0.8775 -0.0089 -0.4795
vn 0.7643 0.5759 -0.2900
vn 0.7600 0.5648 -0.3214
vn 0.8445 0.0743 -0.5303
vn 0.8259 0.0092 -0.5637
vn 0.8278 0.0635 -0.5574
vn 0.7798 0.6259 0.0000
vn 0.7973 0.5788 0.1711
vn 0.8249 0.5313 0.1930
vn 0.8390 -0.0850 -0.5373
vn 0.8436 0.0796 -0.5309
vn 0.9174 0.3700 0.1464
vn 0.8500 0.4704 0.2369
vn 0.8404 -0.0227 -0.5415
vn 0.8672 0.0117 -0.4977
vn 0.9142 -0.2521 -0.3174
vn 0.8823 -0.3156 -0.3492
vn 0.9136 0.1242 -0.3872
vn 0.7345 0.6775 -0.0384
vn 0.6401 0.7629 -0.0900
vn 0.9161 -0.1167 -0.3834
vn 0.7519 -0.5585 -0.3504
vn 0.9336 -0.1610 -0.3200
vn 0.6452 0.3507 0.6787
vn 0.6478 0.2243 0.7280
vn 0.7793 -0.0556 -0.6242
vn 0.7493 -0.0152 -0.6620
vn 0.9082 0.1991 0.3681
vn 0.8151 -0.1699 0.5538
vn 0.7402 0.2081 0.6393
vn 0.7011 -0.5945 -0.3937
vn 0.8607 0.0878 -0.5014
vn 0.9994 -0.0336 0.0000
vn 0.9982 0.0597 0.0000
vn 0.9765 0.1380 0.1657
vn 0.7544 0.6243 0.2024
vn 0.8795 0.2665 0.3942
vn 0.9611 0.2674 0.0692
vn 0.9641 0.2620 0.0433
vn 0.9622 0.2724 0.0000
vn 0.9337 0.3371 0.1205
vn 0.9694 0.2455 0.0000
vn 0.9381 0.2688 0.2185
vn 0.8686 0.0568 0.4923
vn 0.9016 0.2574 0.3476
vn 0.6393 0.2019 0.7420
vn 0.6634 -0.7353 0.1380
vn 0.8738 -0.2657 -0.4071
vn 0.8693 -0.2615 -0.4194
vn 0.9092 -0.1923 -0.3692
vn 0.9354 -0.1202 -0.3325
vn 0.3216 -0.5660 -0.7591
vn 0.3154 -0.5552 -0.7696
vn 0.1229 -0.2203 -0.9677
vn 0.7649 0.0111 -0.6441
vn 0.9236 0.2606 -0.2813
vn 0.9357 0.0569 -0.3481
vn 0.5220 -0.6276 -0.5775
vn 0.4979 -0.5838 -0.6413
vn 0.4695 0.3442 -0.8130
vn 0.6999 0.2883 -0.6535
vn 0.5168 0.2615 -0.8151
vn 0.2896 0.4956 -0.8188
vn 0.8570 0.2588 -0.4457
vn 0.8579 0.0816 -0.5072
vn 0.5601 0.0786 -0.8246
vn 0.5849 0.0535 -0.8094
vn 0.6854 -0.7167 -0.1284
vn 0.6848 -0.7231 -0.0901
vn 0.6727 -0.7369 -0.0667
vn 0.9152 0.2281 -0.3322
vn 0.9726 0.2004 -0.1179
vn 0.9841 0.1539 -0.0884
vn 0.9459 0.1089 -0.3057
vn 0.9698 0.0790 -0.2309
vn 0.8807 -0.2900 -0.3744
vn 0.9257 -0.2308 -0.2997
vn 0.9111 0.0932 -0.4015
vn 0.4636 0.7818 -0.4169
vn 0.8310 0.4380 -0.3427
vn 0.8398 0.1912 -0.5080
vn 0.7110 0.6387 -0.2941
vn 0.9788 0.1235 -0.1634
vn 0.9933 0.0240 -0.1125
vn 0.9813 0.0903 -0.1698
vn 0.9875 0.0329 -0.1542
vn 0.9559 -0.0678 -0.2857
vn 0.7643 0.5759 0.2900
vn 0.8775 -0.0089 0.4795
vn 0.7600 0.5648 0.3214
vn 0.8259 0.0092 0.5637
vn 0.8445 0.0743 0.5303
vn 0.8278 0.0635 0.5574
vn 0.7973 0.5788 -0.1711
vn 0.8249 0.5313 -0.1930
vn 0.8390 -0.0850 0.5373
vn 0.9174 0.3700 -0.1464
vn 0.8500 0.4704 -0.2369
vn 0.8404 -0.0227 0.5415
vn 0.8672 0.0117 0.4977
vn 0.9142 -0.2521 0.3174
vn 0.7345 0.6775 0.0384
vn 0.9161 -0.1167 0.3834
vn 0.7519 -0.5585 0.3504
vn 0.7011 -0.5945 0.3937
vn 0.6452 0.3507 -0.6787
vn 0.6478 0.2243 -0.7280
vn 0.7793 -0.0556 0.6242
vn 0.7493 -0.0152 0.6620
vn 0.8151 -0.1699 -0.5538
vn 0.9082 0.1991 -0.3681
vn 0.7402 0.2081 -0.6393
vn 0.9765 0.1380 -0.1657
vn 0.7544 0.6243 -0.2024
vn 0.8795 0.2665 -0.3942
vn 0.7437 0.4497 -0.4945
vn 0.9611 0.2674 -0.0692
vn 0.9641 0.2620 -0.0433
vn 0.9337 0.3371 -0.1205
vn 0.9381 0.2688 -0.2185
vn 0.8686 0.0568 -0.4923
vn 0.9016 0.2574 -0.3476
vn 0.6393 0.2019 -0.7420
vn 0.6634 -0.7353 -0.1380
vn 0.7592 0.6508 0.0000
vn 0.7665 -0.2105 0.6067
vn 0.7437 0.4497 0.4945
vn 0.9136 0.1242 0.3872
vn 0.8607 0.0878 0.5014
vn 0.8436 0.0796 0.5309
vn 0.8823 -0.3156 0.3492
vn 0.6401 0.7629 0.0900
vn 0.9336 -0.1610 0.3200
vn 0.7665 -0.2105 -0.6067
usemtl MatP4
s 1
f 54/1/1 82/2/2 53/3/3
f 82/2/2 54/1/1 63/4/4
f 70/5/5 62/6/6 55/7/7
f 163/8/8 70/5/5 55/7/7
f 69/9/9 28/10/10 165/11/11
f 117/12/12 165/11/11 28/10/10
f 147/13/13 164/14/14 26/15/15
f 69/9/9 72/16/16 24/17/17
f 68/18/18 81/19/19 80/20/20
f 67/21/21 68/18/18 83/22/22
f 64/23/23 66/24/24 65/25/25
f 18/26/26 71/27/27 74/28/28
f 17/29/29 73/30/30 75/31/31
f 16/32/32 80/20/20 78/33/33
f 50/34/34 82/2/2 49/35/35
f 56/36/36 20/37/37 48/38/38
f 57/39/39 20/37/37 56/36/36
f 47/40/40 48/38/38 20/37/37
f 59/41/41 79/42/42 76/43/43
f 59/41/41 78/33/33 79/42/42
f 84/44/44 78/33/33 60/45/45
f 53/3/3 82/2/2 50/34/34
f 15/46/46 32/47/47 2/48/48
f 58/49/49 42/50/50 12/51/51
f 141/52/52 33/53/53 51/54/54
f 13/55/55 42/50/50 43/56/56
f 51/54/54 34/57/57 52/58/58
f 13/55/55 44/59/59 14/60/60
f 5/61/61 34/57/57 35/62/62
f 15/46/46 44/59/59 45/63/63
f 6/64/64 32/47/47 36/65/65
f 9/66/66 31/67/67 39/68/68
f 6/64/64 37/69/69 7/70/70
f 9/66/66 40/71/71 10/72/72
f 46/73/73 8/74/74 21/75/75
f 5/61/61 31/67/67 1/76/76
f 58/49/49 40/71/71 41/77/77
f 8/74/74 128/78/78 94/79/79
f 22/80/80 82/2/2 63/4/4
f 47/40/40 20/37/37 4/81/81
f 57/39/39 19/82/82 20/37/37
f 20/37/37 19/82/82 25/83/83
f 72/16/16 69/9/9 165/11/11
f 30/84/84 87/85/85 3/86/86
f 30/84/84 118/87/87 87/85/85
f 30/84/84 3/86/86 25/83/83
f 25/83/83 3/86/86 20/37/37
f 3/86/86 4/81/81 20/37/37
f 26/15/15 164/14/14 66/24/24
f 28/10/10 27/88/88 117/12/12
f 83/22/22 68/18/18 80/20/20
f 46/73/73 7/70/70 37/69/69
f 49/35/35 82/2/2 61/89/89
f 24/17/17 72/16/16 71/27/27
f 23/90/90 29/91/91 73/30/30
f 18/26/26 74/28/28 11/92/92
f 145/93/93 144/94/94 177/95/95
f 177/95/95 155/96/96 145/93/93
f 162/97/97 146/98/98 154/99/99
f 163/8/8 146/98/98 162/97/97
f 161/100/100 165/11/11 114/101/101
f 117/12/12 114/101/101 165/11/11
f 147/13/13 112/102/102 164/14/14
f 161/100/100 110/103/103 167/104/104
f 160/105/105 175/106/106 176/107/107
f 159/108/108 178/109/109 160/105/105
f 158/110/110 156/111/111 157/112/112
f 166/113/113 104/114/114 169/115/115
f 168/116/116 103/117/117 170/118/118
f 175/106/106 102/119/119 173/120/120
f 140/121/121 139/122/122 177/95/95
f 148/123/123 138/124/124 106/125/125
f 149/126/126 148/123/123 106/125/125
f 137/127/127 106/125/125 138/124/124
f 151/128/128 171/129/129 174/130/130
f 151/128/128 173/120/120 152/131/131
f 173/120/120 179/132/132 152/131/131
f 144/94/94 140/121/121 177/95/95
f 120/133/133 101/134/134 86/135/135
f 132/136/136 150/137/137 98/138/138
f 122/139/139 141/52/52 142/140/140
f 99/141/141 132/136/136 98/138/138
f 123/142/142 142/140/140 143/143/143
f 134/144/144 99/141/141 100/145/145
f 90/146/146 123/142/142 143/143/143
f 101/134/134 134/144/144 100/145/145
f 91/147/147 120/133/133 86/135/135
f 95/148/148 119/149/149 85/150/150
f 126/151/151 91/147/147 92/152/152
f 130/153/153 95/148/148 96/154/154
f 93/155/155 136/156/156 107/157/157
f 119/149/149 90/146/146 85/150/150
f 150/137/137 130/153/153 96/154/154
f 128/78/78 93/155/155 94/79/79
f 108/158/158 155/96/96 177/95/95
f 137/127/127 89/159/159 106/125/125
f 149/126/126 105/160/160 172/161/161
f 106/125/125 111/162/162 105/160/160
f 167/104/104 165/11/11 161/100/100
f 116/163/163 88/164/164 87/85/85
f 116/163/163 87/85/85 118/87/87
f 116/163/163 111/162/162 88/164/164
f 111/162/162 106/125/125 88/164/164
f 88/164/164 106/125/125 89/159/159
f 112/102/102 158/110/110 164/14/14
f 114/101/101 117/12/12 113/165/165
f 178/109/109 175/106/106 160/105/105
f 136/156/156 92/152/152 107/157/157
f 139/122/122 153/166/166 177/95/95
f 110/103/103 166/113/113 167/104/104
f 109/167/167 168/116/116 115/168/168
f 104/114/114 97/169/169 169/115/115
f 64/23/23 26/15/15 66/24/24
f 18/26/26 24/17/17 71/27/27
f 17/29/29 23/90/90 73/30/30
f 16/32/32 83/22/22 80/20/20
f 59/41/41 60/45/45 78/33/33
f 84/44/44 16/32/32 78/33/33
f 15/46/46 45/63/63 32/47/47
f 58/49/49 41/77/77 42/50/50
f 141/52/52 121/170/170 33/53/53
f 13/55/55 12/51/51 42/50/50
f 51/54/54 33/53/53 34/57/57
f 13/55/55 43/56/56 44/59/59
f 5/61/61 52/58/58 34/57/57
f 15/46/46 14/60/60 44/59/59
f 6/64/64 2/48/48 32/47/47
f 9/66/66 1/76/76 31/67/67
f 6/64/64 36/65/65 37/69/69
f 9/66/66 39/68/68 40/71/71
f 46/73/73 38/171/171 8/74/74
f 5/61/61 35/62/62 31/67/67
f 58/49/49 10/72/72 40/71/71
f 8/74/74 38/171/171 128/78/78
f 57/39/39 77/172/172 19/82/82
f 46/73/73 21/75/75 7/70/70
f 158/110/110 112/102/102 156/111/111
f 166/113/113 110/103/103 104/114/114
f 168/116/116 109/167/167 103/117/117
f 175/106/106 178/109/109 102/119/119
f 151/128/128 174/130/130 173/120/120
f 173/120/120 102/119/119 179/132/132
f 120/133/133 135/173/173 101/134/134
f 132/136/136 131/174/174 150/137/137
f 122/139/139 121/170/170 141/52/52
f 99/141/141 133/175/175 132/136/136
f 123/142/142 122/139/139 142/140/140
f 134/144/144 133/175/175 99/141/141
f 90/146/146 124/176/176 123/142/142
f 101/134/134 135/173/173 134/144/144
f 91/147/147 125/177/177 120/133/133
f 95/148/148 129/178/178 119/149/149
f 126/151/151 125/177/177 91/147/147
f 130/153/153 129/178/178 95/148/148
f 93/155/155 127/179/179 136/156/156
f 119/149/149 124/176/176 90/146/146
f 150/137/137 131/174/174 130/153/153
f 128/78/78 127/179/179 93/155/155
f 149/126/126 106/125/125 105/160/160
f 136/156/156 126/151/151 92/152/152
