# Blender v2.82 (sub 7) OBJ File: 'players.blend'
# www.blender.org
mtllib mask_player_1.mtl
g mask_player_1
v -0.000011 32.878178 29.755705
v 0.296866 -25.528076 30.075935
v 0.386905 22.444212 8.956440
v -0.025899 26.977272 14.270837
v -0.185874 30.059370 18.317802
v 1.431038 -28.461531 23.819933
v 4.034699 -30.681681 16.890272
v 10.312737 -26.950005 8.376841
v -0.000008 27.118979 31.133514
v -0.000006 20.789875 31.293207
v -0.000003 11.620158 27.432878
v 1.126011 3.359360 26.537014
v 2.357200 -5.255823 30.436407
v 0.895217 -12.201686 32.885830
v 0.727513 -18.641521 31.858290
v 8.056783 -21.095497 24.630293
v 10.445401 -17.077696 24.526159
v 9.164235 -5.795295 22.994623
v 1.905006 1.872350 20.815456
v 1.840371 13.658668 21.484777
v -0.493383 18.324919 24.327404
v -3.670513 24.993362 22.402481
v 9.155475 -23.131342 11.852566
v 8.889418 -18.462132 11.536448
v 6.735428 -8.006413 16.000000
v 3.247277 0.135141 15.814285
v 3.481025 12.254384 15.794166
v 2.842202 14.961863 16.785051
v 1.090043 20.216282 16.453085
v 14.470038 -18.232092 3.289299
v 12.645103 -11.177895 7.464002
v 8.791127 -8.000000 8.000000
v 6.672312 0.000000 3.995635
v 6.907219 7.761468 5.323380
v 5.247313 13.315987 8.252863
v 3.008498 16.894594 8.791917
v 1.960579 37.732464 31.843090
v 2.293330 -30.172512 32.211769
v 2.407908 25.633512 4.500127
v 1.930649 30.949856 10.644309
v 1.745696 34.612377 15.397933
v 3.615071 -33.184738 21.684387
v 6.625263 -35.751545 13.672736
v 13.883545 -31.437195 3.830032
v 1.960582 31.074034 33.875813
v 1.779658 22.796307 35.102024
v 1.779661 12.194842 32.175854
v 2.995676 3.509505 31.886681
v 4.497137 -5.880024 34.375267
v 2.849062 -14.574630 36.647259
v 2.050765 -22.210667 35.462791
v -0.185874 30.059370 18.317802
v -0.000011 32.878178 29.755705
v 0.727513 -18.641521 31.858290
v 0.296866 -25.528076 30.075935
v 0.386905 22.444212 8.956440
v -0.025899 26.977272 14.270837
v 1.431038 -28.461531 23.819933
v 4.034699 -30.681681 16.890272
v 10.312737 -26.950005 8.376841
v -0.000008 27.118979 31.133514
v -0.000006 20.789875 31.293207
v -0.000003 11.620158 27.432878
v 1.126011 3.359360 26.537014
v 2.357200 -5.255823 30.436407
v 0.895217 -12.201686 32.885830
v 1.090043 20.216282 16.453085
v -0.025899 26.977272 14.270837
v 1.431038 -28.461531 23.819933
v 8.056783 -21.095497 24.630293
v 10.445401 -17.077696 24.526159
v 3.481025 12.254384 15.794166
v 3.481025 12.254384 15.794166
v 2.842202 14.961863 16.785051
v 14.470038 -18.232092 3.289299
v 12.645103 -11.177895 7.464002
v 8.791127 -8.000000 8.000000
v 8.791127 -8.000000 8.000000
v 6.907219 7.761468 5.323380
v 6.735428 -8.006413 16.000000
v 1.840371 13.658668 21.484777
v 9.164235 -5.795295 22.994623
v -0.000003 11.620158 27.432878
v 2.357200 -5.255823 30.436407
v 0.895217 -12.201686 32.885830
v -0.000011 32.878178 -29.755705
v 0.296866 -25.528076 -30.075935
v 1.359285 21.501417 0.000000
v 0.386905 22.444212 -8.956440
v -0.025899 26.977272 -14.270837
v -0.185874 30.059370 -18.317802
v 1.431038 -28.461531 -23.819933
v 4.034699 -30.681681 -16.890272
v 10.312737 -26.950005 -8.376841
v 14.905082 -21.083225 0.000000
v -0.000008 27.118979 -31.133514
v -0.000006 20.789875 -31.293207
v -0.000003 11.620158 -27.432878
v 1.126011 3.359360 -26.537014
v 2.357200 -5.255823 -30.436407
v 0.895217 -12.201686 -32.885830
v 0.727513 -18.641521 -31.858290
v 8.056783 -21.095497 -24.630293
v 10.445401 -17.077696 -24.526159
v 9.164235 -5.795295 -22.994623
v 1.905006 1.872350 -20.815456
v 1.840371 13.658668 -21.484777
v -0.493383 18.324919 -24.327404
v -3.670513 24.993362 -22.402481
v 9.155475 -23.131342 -11.852566
v 8.889418 -18.462132 -11.536448
v 6.735428 -8.006413 -16.000000
v 3.247277 0.135141 -15.814285
v 3.481025 12.254384 -15.794166
v 2.842202 14.961863 -16.785051
v 1.090043 20.216282 -16.453085
v 14.470038 -18.232092 -3.289299
v 12.645103 -11.177895 -7.464002
v 8.791127 -8.000000 -8.000000
v 6.672312 0.000000 -3.995635
v 6.907219 7.761468 -5.323380
v 5.247313 13.315987 -8.252863
v 3.008498 16.894594 -8.791917
v 15.097115 -19.434139 0.000000
v 14.248304 -9.982139 0.000000
v 10.582471 -8.000000 0.000000
v 9.929029 0.000000 0.000000
v 8.578391 7.763109 0.000000
v 7.682530 12.409903 0.000000
v 5.977197 15.396761 0.000000
v 1.960579 37.732464 -31.843090
v 2.293330 -30.172512 -32.211769
v 3.534298 24.695822 0.000000
v 2.407908 25.633512 -4.500127
v 1.930649 30.949856 -10.644309
v 1.745696 34.612377 -15.397933
v 3.615071 -33.184738 -21.684387
v 6.625263 -35.751545 -13.672736
v 13.883545 -31.437195 -3.830032
v 15.094826 -24.654392 0.000000
v 1.960582 31.074034 -33.875813
v 1.779658 22.796307 -35.102024
v 1.779661 12.194842 -32.175854
v 2.995676 3.509505 -31.886681
v 4.497137 -5.880024 -34.375267
v 2.849062 -14.574630 -36.647259
v 2.050765 -22.210667 -35.462791
v -0.185874 30.059370 -18.317802
v -0.000011 32.878178 -29.755705
v 0.727513 -18.641521 -31.858290
v 0.296866 -25.528076 -30.075935
v 1.359285 21.501417 0.000000
v 0.386905 22.444212 -8.956440
v -0.025899 26.977272 -14.270837
v 1.431038 -28.461531 -23.819933
v 4.034699 -30.681681 -16.890272
v 10.312737 -26.950005 -8.376841
v 14.905082 -21.083225 0.000000
v -0.000008 27.118979 -31.133514
v -0.000006 20.789875 -31.293207
v -0.000003 11.620158 -27.432878
v 1.126011 3.359360 -26.537014
v 2.357200 -5.255823 -30.436407
v 0.895217 -12.201686 -32.885830
v 1.090043 20.216282 -16.453085
v -0.025899 26.977272 -14.270837
v 1.431038 -28.461531 -23.819933
v 8.056783 -21.095497 -24.630293
v 10.445401 -17.077696 -24.526159
v 3.481025 12.254384 -15.794166
v 3.481025 12.254384 -15.794166
v 2.842202 14.961863 -16.785051
v 14.470038 -18.232092 -3.289299
v 12.645103 -11.177895 -7.464002
v 8.791127 -8.000000 -8.000000
v 8.791127 -8.000000 -8.000000
v 6.907219 7.761468 -5.323380
v 8.578391 7.763109 0.000000
v 10.582471 -8.000000 0.000000
v 15.097115 -19.434139 0.000000
v 6.735428 -8.006413 -16.000000
v 1.840371 13.658668 -21.484777
v 9.164235 -5.795295 -22.994623
v -0.000003 11.620158 -27.432878
v 2.357200 -5.255823 -30.436407
v 0.895217 -12.201686 -32.885830
vt 0.841420 0.007815
vt 0.999836 0.092832
vt 0.840753 0.076033
vt 0.696411 0.771691
vt 0.587606 0.905480
vt 0.522218 0.827313
vt 0.479491 0.864709
vt 0.370127 0.802035
vt 0.483712 0.858441
vt 0.496195 0.915635
vt 0.476733 0.905025
vt 0.546890 0.783875
vt 0.588122 0.877592
vt 0.534986 0.881071
vt 0.562161 0.721925
vt 0.635250 0.840922
vt 0.645814 0.507530
vt 0.671888 0.764457
vt 0.755935 0.333290
vt 0.801546 0.469915
vt 0.706218 0.493019
vt 0.868383 0.108022
vt 0.805039 0.322817
vt 0.685267 0.844124
vt 0.968604 0.996898
vt 0.705174 0.992247
vt 0.797055 0.621600
vt 0.950777 0.923556
vt 0.345959 0.781676
vt 0.439115 0.874536
vt 0.342482 0.708247
vt 0.349529 0.645272
vt 0.423264 0.337136
vt 0.421619 0.580928
vt 0.636421 0.117866
vt 0.454480 0.537694
vt 0.323857 0.712921
vt 0.347302 0.658950
vt 0.439190 0.721642
vt 0.893994 0.393797
vt 0.988526 0.433115
vt 0.961193 0.520836
vt 0.861341 0.388880
vt 0.968842 0.358947
vt 0.831638 0.300619
vt 0.939030 0.311732
vt 0.246646 0.358298
vt 0.352953 0.633792
vt 0.212024 0.006967
vt 0.737213 0.694901
vt 0.650157 0.515512
vt 0.889963 0.536814
vt 0.808576 0.480204
vt 0.828945 0.529854
vt 0.802741 0.369613
vt 0.035758 0.391087
vt 0.351403 0.634567
vt 0.017378 0.846592
vt 0.212835 0.006710
vt 0.245956 0.358353
vt 0.745361 0.653375
vt 0.735478 0.570119
vt 0.997777 0.191573
vt 0.841419 0.233615
vt 0.484935 0.353887
vt 0.416226 0.353397
vt 0.416230 0.352482
vt 0.484941 0.358905
vt 0.416136 0.356441
vt 0.485092 0.358047
vt 0.485806 0.366917
vt 0.415624 0.364542
vt 0.485885 0.365670
vt 0.485171 0.357248
vt 0.415956 0.355366
vt 0.415509 0.363347
vt 0.485655 0.364570
vt 0.485319 0.356241
vt 0.416218 0.354489
vt 0.415785 0.361997
vt 0.485492 0.363335
vt 0.485022 0.355193
vt 0.485143 0.352298
vt 0.416530 0.351540
vt 0.485267 0.362704
vt 0.415584 0.359260
vt 0.484923 0.361294
vt 0.485145 0.351271
vt 0.416870 0.350542
vt 0.415645 0.358407
vt 0.485066 0.360051
vt 0.485240 0.350049
vt 0.417404 0.349309
vt 0.416261 0.360895
vt 0.415835 0.357385
vt 0.417569 0.347218
vt 0.484908 0.348468
vt 0.999836 0.092832
vt 0.841420 0.007815
vt 0.840753 0.076033
vt 0.696411 0.771691
vt 0.587606 0.905480
vt 0.667724 0.853188
vt 0.522218 0.827313
vt 0.479491 0.864709
vt 0.483712 0.858441
vt 0.619337 0.854438
vt 0.546890 0.783875
vt 0.534986 0.881071
vt 0.562161 0.721925
vt 0.645814 0.507530
vt 0.755935 0.333290
vt 0.706218 0.493019
vt 0.636421 0.117866
vt 0.685267 0.844124
vt 0.705174 0.992247
vt 0.797055 0.621600
vt 0.345959 0.781676
vt 0.439115 0.874536
vt 0.342482 0.708247
vt 0.349529 0.645272
vt 0.423264 0.337136
vt 0.421619 0.580928
vt 0.574275 0.062991
vt 0.454480 0.537694
vt 0.323857 0.712921
vt 0.439190 0.721642
vt 0.370127 0.802035
vt 0.988526 0.433115
vt 0.893994 0.393797
vt 0.961193 0.520836
vt 0.968842 0.358947
vt 0.861341 0.388880
vt 0.939030 0.311732
vt 0.831638 0.300619
vt 0.246646 0.358298
vt 0.352953 0.633792
vt 0.212024 0.006967
vt 0.737213 0.694901
vt 0.650157 0.515512
vt 0.889963 0.536814
vt 0.828945 0.529854
vt 0.808576 0.480204
vt 0.802741 0.369613
vt 0.351403 0.634567
vt 0.035758 0.391087
vt 0.017378 0.846592
vt 0.212835 0.006710
vt 0.017263 0.020434
vt 0.745361 0.653375
vt 0.735478 0.570119
vt 0.997777 0.191573
vt 0.841419 0.233615
vt 0.484935 0.353887
vt 0.416226 0.353397
vt 0.485022 0.355193
vt 0.416136 0.356441
vt 0.484941 0.358905
vt 0.485092 0.358047
vt 0.415624 0.364542
vt 0.485885 0.365670
vt 0.485171 0.357248
vt 0.415509 0.363347
vt 0.485655 0.364570
vt 0.485319 0.356241
vt 0.415956 0.355366
vt 0.415785 0.361997
vt 0.485492 0.363335
vt 0.416218 0.354489
vt 0.485143 0.352298
vt 0.416230 0.352482
vt 0.415584 0.359260
vt 0.485267 0.362704
vt 0.484923 0.361294
vt 0.485145 0.351271
vt 0.416530 0.351540
vt 0.415645 0.358407
vt 0.485066 0.360051
vt 0.485240 0.350049
vt 0.416870 0.350542
vt 0.415835 0.357385
vt 0.998266 0.003636
vt 0.667724 0.853188
vt 0.619337 0.854438
vt 0.762389 0.560431
vt 0.977170 0.579944
vt 0.574275 0.062991
vt 0.880965 0.287840
vt 0.017263 0.020434
vt 0.415048 0.365475
vt 0.998266 0.003636
vt 0.347302 0.658950
vt 0.880965 0.287840
vt 0.245956 0.358353
vt 0.416261 0.360895
vt 0.417404 0.349309
vn 0.6705 -0.4382 0.5987
vn 0.6339 -0.3875 0.6693
vn 0.6239 -0.1999 0.7555
vn 0.8672 -0.4829 0.1215
vn 0.8025 -0.4957 0.3319
vn 0.9211 -0.1435 0.3619
vn 0.8646 -0.1904 0.4649
vn 0.8906 -0.1471 0.4302
vn 0.9799 -0.1992 0.0000
vn 0.9933 -0.1157 0.0000
vn 0.8737 0.4718 0.1184
vn 0.8420 0.5394 0.0000
vn 0.9352 0.3533 0.0218
vn 0.9189 0.3278 0.2194
vn 0.8404 0.5419 0.0000
vn 0.9503 0.1571 0.2686
vn 0.9478 0.3189 0.0000
vn 0.9096 0.1327 0.3937
vn 1.0000 -0.0019 0.0000
vn 0.9527 -0.0614 0.2976
vn 0.9613 0.2754 0.0000
vn 0.9922 0.1243 0.0000
vn 0.8016 0.5600 0.2093
vn 0.5388 0.8424 0.0000
vn 0.6414 0.7536 0.1436
vn 0.9783 0.0988 0.1820
vn 0.8274 0.5616 0.0000
vn 0.9555 0.2930 0.0343
vn 0.9879 0.1473 -0.0489
vn 0.9432 0.2915 0.1594
vn 0.9593 0.1414 0.2446
vn 0.9524 0.2726 0.1366
vn 0.9561 -0.0146 0.2926
vn 0.9028 0.3633 0.2300
vn 0.9794 0.2012 0.0137
vn 0.8473 0.1246 0.5163
vn 0.6410 0.7495 0.1653
vn 0.9432 0.0208 0.3315
vn 0.9969 0.0199 0.0763
vn 0.9130 -0.0055 0.4078
vn 0.8780 -0.4225 0.2249
vn 0.9513 0.2928 0.0967
vn 0.8746 0.3524 0.3330
vn 0.9202 0.2502 0.3009
vn 0.9396 0.2272 0.2559
vn 0.9324 0.3499 0.0904
vn 0.9639 0.0232 0.2653
vn 0.8463 0.5316 0.0322
vn 0.9904 -0.0705 0.1191
vn 0.9646 0.1224 0.2336
vn 0.9460 -0.2615 -0.1918
vn 0.9621 0.1188 -0.2453
vn 0.9250 -0.0515 -0.3763
vn 0.9790 0.1404 0.1476
vn 0.9228 0.3017 0.2395
vn 0.9416 0.0933 0.3233
vn 0.7173 0.1307 0.6843
vn 0.7384 0.0807 0.6695
vn 0.6069 -0.2744 0.7459
vn 0.6106 -0.1402 0.7794
vn 0.9387 0.2422 -0.2454
vn 0.9306 0.0431 -0.3633
vn 0.9289 0.3323 -0.1636
vn 0.9224 0.1504 -0.3557
vn 0.9316 0.0683 -0.3569
vn 0.9398 0.0856 -0.3309
vn 0.8742 -0.4855 0.0000
vn 0.9083 -0.3572 0.2177
vn 0.9350 -0.2707 0.2292
vn 0.8782 -0.1234 -0.4621
vn 0.8368 -0.2004 -0.5096
vn 0.9393 -0.2368 0.2482
vn 0.9397 -0.2380 0.2456
vn 0.8308 -0.1875 -0.5241
vn 0.8738 -0.0904 -0.4778
vn 0.9395 -0.3034 0.1587
vn 0.9409 -0.3059 0.1454
vn 0.9274 0.0023 -0.3739
vn 0.9187 0.3915 0.0525
vn 0.9214 0.3458 0.1774
vn 0.9366 -0.2656 -0.2284
vn 0.8719 -0.1166 -0.4757
vn 0.8807 -0.0783 -0.4671
vn 0.9009 0.2248 0.3711
vn 0.8469 0.1016 0.5218
vn 0.8900 0.0153 -0.4555
vn 0.8929 0.0886 -0.4414
vn 0.8184 0.0601 0.5714
vn 0.8264 0.0954 0.5549
vn 0.9366 -0.3016 -0.1782
vn 0.9146 0.1452 -0.3772
vn 0.9960 0.0890 0.0000
vn 0.9986 0.0530 0.0000
vn 0.6339 -0.3875 -0.6693
vn 0.6705 -0.4382 -0.5987
vn 0.6239 -0.1999 -0.7555
vn 0.8672 -0.4829 -0.1215
vn 0.8025 -0.4957 -0.3319
vn 0.6422 -0.6263 -0.4419
vn 0.9211 -0.1435 -0.3619
vn 0.8646 -0.1904 -0.4649
vn 0.8906 -0.1471 -0.4302
vn 0.8737 0.4718 -0.1184
vn 0.9352 0.3533 -0.0218
vn 0.9189 0.3278 -0.2194
vn 0.9503 0.1571 -0.2686
vn 0.9096 0.1327 -0.3937
vn 0.9527 -0.0614 -0.2976
vn 0.9028 0.3633 -0.2300
vn 0.8016 0.5600 -0.2093
vn 0.6414 0.7536 -0.1436
vn 0.9783 0.0988 -0.1820
vn 0.9555 0.2930 -0.0343
vn 0.9879 0.1473 0.0489
vn 0.9432 0.2915 -0.1594
vn 0.9593 0.1414 -0.2446
vn 0.9524 0.2726 -0.1366
vn 0.9561 -0.0146 -0.2926
vn 0.9174 0.3915 0.0708
vn 0.9794 0.2012 -0.0137
vn 0.8473 0.1246 -0.5163
vn 0.9432 0.0208 -0.3315
vn 0.9130 -0.0055 -0.4078
vn 0.9969 0.0199 -0.0763
vn 0.8780 -0.4225 -0.2249
vn 0.8746 0.3524 -0.3330
vn 0.9513 0.2928 -0.0967
vn 0.9396 0.2272 -0.2559
vn 0.9202 0.2502 -0.3009
vn 0.9324 0.3499 -0.0904
vn 0.9639 0.0232 -0.2653
vn 0.8463 0.5316 -0.0322
vn 0.9904 -0.0705 -0.1191
vn 0.9646 0.1224 -0.2336
vn 0.9460 -0.2615 0.1918
vn 0.9250 -0.0515 0.3763
vn 0.9621 0.1188 0.2453
vn 0.9790 0.1404 -0.1476
vn 0.9228 0.3017 -0.2395
vn 0.9416 0.0933 -0.3233
vn 0.6971 0.3759 -0.6104
vn 0.7173 0.1307 -0.6843
vn 0.7384 0.0807 -0.6695
vn 0.6069 -0.2744 -0.7459
vn 0.6106 -0.1402 -0.7794
vn 0.9387 0.2422 0.2454
vn 0.9306 0.0431 0.3633
vn 0.9274 0.0023 0.3739
vn 0.9316 0.0683 0.3569
vn 0.9224 0.1504 0.3557
vn 0.9398 0.0856 0.3309
vn 0.9083 -0.3572 -0.2177
vn 0.9350 -0.2707 -0.2292
vn 0.8782 -0.1234 0.4621
vn 0.9393 -0.2368 -0.2482
vn 0.9397 -0.2380 -0.2456
vn 0.8308 -0.1875 0.5241
vn 0.8368 -0.2004 0.5096
vn 0.9395 -0.3034 -0.1587
vn 0.9409 -0.3059 -0.1454
vn 0.8738 -0.0904 0.4778
vn 0.9187 0.3915 -0.0525
vn 0.9289 0.3323 0.1636
vn 0.8719 -0.1166 0.4757
vn 0.9366 -0.2656 0.2284
vn 0.8807 -0.0783 0.4671
vn 0.9009 0.2248 -0.3711
vn 0.9214 0.3458 -0.1774
vn 0.8900 0.0153 0.4555
vn 0.8929 0.0886 0.4414
vn 0.8184 0.0601 -0.5714
vn 0.8469 0.1016 -0.5218
vn 0.9146 0.1452 0.3772
vn 0.6531 -0.6332 0.4153
vn 0.6422 -0.6263 0.4419
vn 0.9819 0.1893 0.0000
vn 0.9960 0.0894 0.0000
vn 0.9174 0.3915 -0.0708
vn 0.9602 0.1377 0.2429
vn 0.6971 0.3759 0.6104
vn 0.8266 -0.5628 0.0000
vn 0.6531 -0.6332 -0.4153
vn 0.6410 0.7495 -0.1653
vn 0.9602 0.1377 -0.2429
vn 0.9366 -0.3016 0.1782
vn 0.8264 0.0954 -0.5549
usemtl MatP1
s 1
f 55/1/1 70/2/2 54/3/3
f 16/4/4 59/5/5 23/6/6
f 23/6/6 60/7/7 75/8/8
f 75/9/8 158/10/9 180/11/10
f 36/12/11 152/13/12 56/14/13
f 35/15/14 130/16/15 36/12/11
f 34/17/16 129/18/17 35/15/14
f 33/19/18 178/20/19 79/21/20
f 33/19/18 126/22/21 127/23/22
f 76/24/23 179/25/24 77/26/25
f 30/27/26 125/28/27 76/24/23
f 67/29/28 56/14/13 68/30/29
f 74/31/30 36/12/11 67/29/28
f 73/32/31 35/15/14 74/31/30
f 26/33/32 79/21/20 72/34/33
f 26/33/32 78/35/34 33/19/18
f 80/36/35 31/37/36 32/38/37
f 24/39/38 75/8/8 31/37/36
f 22/40/39 57/41/40 52/42/41
f 21/43/42 29/44/43 22/40/39
f 20/45/44 28/46/45 21/43/42
f 19/47/46 72/34/33 81/48/47
f 18/49/48 26/33/32 19/47/46
f 71/50/49 80/36/35 82/51/50
f 16/4/4 24/39/38 71/50/49
f 53/52/51 22/40/39 52/42/41
f 62/53/52 22/40/39 61/54/53
f 83/55/54 21/43/42 62/53/52
f 64/56/55 81/57/47 63/58/56
f 64/56/55 18/59/48 19/60/46
f 85/61/57 82/51/50 65/62/58
f 54/3/3 17/63/59 66/64/60
f 2/65/61 51/66/62 38/67/63
f 11/68/64 48/69/65 12/70/66
f 88/71/67 39/72/68 3/73/69
f 13/74/70 48/69/65 49/75/71
f 3/73/69 40/76/72 4/77/73
f 14/78/74 49/75/71 50/79/75
f 4/77/73 41/80/76 5/81/77
f 15/82/78 50/79/75 51/66/62
f 6/83/79 38/67/63 42/84/80
f 1/85/81 45/86/82 9/87/83
f 7/88/84 42/84/80 43/89/85
f 9/87/83 46/90/86 10/91/87
f 8/92/88 43/89/85 44/93/89
f 1/85/81 41/80/76 37/94/90
f 10/91/87 47/95/91 11/68/64
f 8/92/88 140/96/92 95/97/93
f 168/98/94 151/99/95 150/100/96
f 103/101/97 156/102/98 155/103/99
f 110/104/100 157/105/101 156/102/98
f 173/106/102 158/10/9 157/107/101
f 152/13/12 123/108/103 153/109/104
f 130/16/15 122/110/105 123/108/103
f 129/18/17 121/111/106 122/110/105
f 178/20/19 120/112/107 177/113/108
f 120/112/107 126/22/21 176/114/109
f 179/25/24 174/115/110 175/116/111
f 125/28/27 117/117/112 174/115/110
f 153/109/104 165/118/113 166/119/114
f 123/108/103 172/120/115 165/118/113
f 122/110/105 171/121/116 172/120/115
f 177/113/108 113/122/117 170/123/118
f 113/122/117 176/114/109 112/124/119
f 181/125/120 118/126/121 111/127/122
f 111/127/122 173/128/102 110/104/100
f 154/129/123 109/130/124 148/131/125
f 116/132/126 108/133/127 109/130/124
f 115/134/128 107/135/129 108/133/127
f 170/123/118 106/136/130 182/137/131
f 113/122/117 105/138/132 106/136/130
f 181/125/120 169/139/133 183/140/134
f 111/127/122 103/101/97 169/139/133
f 149/141/135 109/130/124 159/142/136
f 109/130/124 160/143/137 159/142/136
f 108/133/127 184/144/138 160/143/137
f 182/145/131 162/146/139 161/147/140
f 162/146/139 105/148/132 185/149/141
f 183/140/134 186/150/142 163/151/143
f 104/152/144 150/100/96 164/153/145
f 87/154/146 147/155/147 102/156/148
f 144/157/149 98/158/150 99/159/151
f 134/160/152 88/71/67 89/161/153
f 100/162/154 144/157/149 99/159/151
f 135/163/155 89/161/153 90/164/156
f 101/165/157 145/166/158 100/162/154
f 136/167/159 90/164/156 91/168/160
f 102/156/148 146/169/161 101/165/157
f 92/170/162 132/171/163 87/154/146
f 141/172/164 86/173/165 96/174/166
f 93/175/167 137/176/168 92/170/162
f 142/177/169 96/174/166 97/178/170
f 94/179/171 138/180/172 93/175/167
f 86/173/165 136/167/159 91/168/160
f 143/181/173 97/178/170 98/158/150
f 140/96/92 94/179/171 95/97/93
f 55/1/1 69/182/174 70/2/2
f 16/4/4 58/183/175 59/5/5
f 23/6/6 59/5/5 60/7/7
f 75/9/8 60/184/7 158/10/9
f 36/12/11 130/16/15 152/13/12
f 35/15/14 129/18/17 130/16/15
f 34/17/16 128/185/176 129/18/17
f 33/19/18 127/23/22 178/20/19
f 33/19/18 78/35/34 126/22/21
f 76/24/23 125/28/27 179/25/24
f 30/27/26 124/186/177 125/28/27
f 67/29/28 36/12/11 56/14/13
f 74/31/30 35/15/14 36/12/11
f 73/32/31 34/17/16 35/15/14
f 26/33/32 33/19/18 79/21/20
f 26/33/32 25/187/178 78/35/34
f 80/36/35 24/39/38 31/37/36
f 24/39/38 23/6/6 75/8/8
f 22/40/39 29/44/43 57/41/40
f 21/43/42 28/46/45 29/44/43
f 20/45/44 27/188/179 28/46/45
f 19/47/46 26/33/32 72/34/33
f 18/49/48 25/187/178 26/33/32
f 71/50/49 24/39/38 80/36/35
f 16/4/4 23/6/6 24/39/38
f 53/52/51 61/54/53 22/40/39
f 62/53/52 21/43/42 22/40/39
f 83/55/54 20/45/44 21/43/42
f 64/56/55 19/60/46 81/57/47
f 64/56/55 84/189/180 18/59/48
f 85/61/57 71/50/49 82/51/50
f 54/3/3 70/2/2 17/63/59
f 2/65/61 15/82/78 51/66/62
f 11/68/64 47/95/91 48/69/65
f 88/71/67 133/190/181 39/72/68
f 13/74/70 12/70/66 48/69/65
f 3/73/69 39/72/68 40/76/72
f 14/78/74 13/74/70 49/75/71
f 4/77/73 40/76/72 41/80/76
f 15/82/78 14/78/74 50/79/75
f 6/83/79 2/65/61 38/67/63
f 1/85/81 37/94/90 45/86/82
f 7/88/84 6/83/79 42/84/80
f 9/87/83 45/86/82 46/90/86
f 8/92/88 7/88/84 43/89/85
f 1/85/81 5/81/77 41/80/76
f 10/91/87 46/90/86 47/95/91
f 8/92/88 44/93/89 140/96/92
f 168/98/94 167/191/182 151/99/95
f 103/101/97 110/104/100 156/102/98
f 110/104/100 173/128/102 157/105/101
f 173/106/102 180/11/10 158/10/9
f 152/13/12 130/16/15 123/108/103
f 130/16/15 129/18/17 122/110/105
f 129/18/17 128/185/176 121/111/106
f 178/20/19 127/23/22 120/112/107
f 120/112/107 127/23/22 126/22/21
f 179/25/24 125/28/27 174/115/110
f 125/28/27 124/186/177 117/117/112
f 153/109/104 123/108/103 165/118/113
f 123/108/103 122/110/105 172/120/115
f 122/110/105 121/111/106 171/121/116
f 177/113/108 120/112/107 113/122/117
f 113/122/117 120/112/107 176/114/109
f 181/125/120 119/192/183 118/126/121
f 111/127/122 118/126/121 173/128/102
f 154/129/123 116/132/126 109/130/124
f 116/132/126 115/134/128 108/133/127
f 115/134/128 114/193/184 107/135/129
f 170/123/118 113/122/117 106/136/130
f 113/122/117 112/124/119 105/138/132
f 181/125/120 111/127/122 169/139/133
f 111/127/122 110/104/100 103/101/97
f 149/141/135 148/131/125 109/130/124
f 109/130/124 108/133/127 160/143/137
f 108/133/127 107/135/129 184/144/138
f 182/145/131 106/194/130 162/146/139
f 162/146/139 106/194/130 105/148/132
f 183/140/134 169/139/133 186/150/142
f 104/152/144 168/98/94 150/100/96
f 87/154/146 132/171/163 147/155/147
f 144/157/149 143/181/173 98/158/150
f 134/160/152 133/190/181 88/71/67
f 100/162/154 145/166/158 144/157/149
f 135/163/155 134/160/152 89/161/153
f 101/165/157 146/169/161 145/166/158
f 136/167/159 135/163/155 90/164/156
f 102/156/148 147/155/147 146/169/161
f 92/170/162 137/176/168 132/171/163
f 141/172/164 131/195/185 86/173/165
f 93/175/167 138/180/172 137/176/168
f 142/177/169 141/172/164 96/174/166
f 94/179/171 139/196/186 138/180/172
f 86/173/165 131/195/185 136/167/159
f 143/181/173 142/177/169 97/178/170
f 140/96/92 139/196/186 94/179/171
