# Blender v2.82 (sub 7) OBJ File: 'level.blend'
# www.blender.org
mtllib level3.mtl
g level3
v -547.750366 -813.336670 318.688721
v -239.148071 -943.888184 1122.329102
v -536.555542 -636.314575 958.600830
v -454.308350 -1542.708496 46.598892
v -541.185913 -496.741943 1837.622192
v -549.140991 -385.443359 1642.707764
v -384.584351 -624.953125 1938.040649
v -311.866333 -1245.256836 559.262817
v -356.874878 -987.095093 838.815796
v -366.849243 -865.674988 1313.605835
v -535.016968 -760.553040 -337.888153
v -498.423706 -604.330383 -749.414368
v -547.750366 663.956543 -1002.224670
v -239.148071 27.081543 -1537.399780
v -536.555542 111.099365 -1094.840942
v -538.016968 805.785034 -847.973450
v -501.423706 856.394592 -378.477448
v -535.016968 983.831360 -1376.547607
v -305.423950 1419.573730 -2367.702637
v -311.866333 607.594482 -1577.039185
v -445.068726 559.355713 1161.764404
v -455.043091 653.396057 810.141174
v -451.811401 929.648865 2118.799072
v -629.379761 672.589355 181.272797
v -311.866333 -714.409485 1560.499146
v -550.174194 -468.208252 1396.710693
v -281.884644 -1335.336182 2031.833252
v -498.423706 -869.492737 744.691650
v -535.016968 -666.882263 1184.944214
v -623.210815 472.438110 355.075104
v -607.005737 929.592468 98.212448
v -623.210815 570.925964 1815.420410
v -424.121094 1333.559570 1967.470459
v -586.617554 322.525024 1159.909302
v -623.210815 312.817505 775.713806
v -535.016968 -1218.125000 50.393875
v -356.072876 -1988.066040 199.515503
v -356.874878 283.946960 -1432.028809
v -366.849243 -153.651184 -1546.712036
v -393.044067 1580.267334 -1732.996460
v -541.185913 -687.194031 -1486.613403
v -549.140991 -514.228943 -1295.488770
v -454.501831 -1486.461426 -2112.229492
v -553.174194 666.223999 -1120.887329
v -314.866333 938.268005 -1228.248047
v -539.555542 702.974915 -637.709656
v -242.148071 1038.149414 -743.508301
v -550.750366 671.239075 3.029587
v -314.866333 1169.865967 -115.767891
v -338.927368 1736.254028 212.478592
v -538.016968 985.384705 396.001862
v -338.325073 1522.008057 -2116.348145
v -552.140991 654.717773 -1387.742920
v -544.185913 800.343323 -1556.128784
v -457.308350 1303.772339 489.816193
v -369.849243 1026.499878 -934.737671
v -359.874878 1033.978027 -487.770782
v -311.866333 -430.453613 -1527.957275
v -550.174194 -284.670471 -1216.987427
v -498.423706 339.139282 -1237.625854
v -535.016968 -48.622009 -1260.023682
v -550.174194 -769.521423 -66.649811
v -311.866333 -1114.996826 -94.715057
v -405.230347 -1958.921387 533.538269
v -549.140991 -917.029663 132.041260
v -541.185913 -1144.173828 202.153717
v -491.257202 -1016.330139 -2075.826660
v -366.849243 -1052.684326 -387.193634
v -356.874878 -813.639954 -778.344727
v -311.866333 -897.256042 -1118.956787
v -380.739624 -1613.806641 -2078.899902
v -535.016968 -577.547485 -1433.858765
v -536.555542 -563.069153 -437.936371
v -239.148071 -1006.345093 -545.952454
v -547.750366 -282.462524 -980.369812
v -400.059937 767.576050 1467.893311
v -635.944214 131.995926 1434.808228
v -327.341675 687.563171 942.748657
v -624.749390 156.539383 882.810669
v -400.059937 697.243286 517.020203
v -638.367920 294.597290 497.228455
v -351.877319 1738.226807 236.200302
v -510.794067 -626.945740 1121.496460
v -202.191528 38.601181 1576.794067
v -499.599243 -73.093094 1170.627441
v -417.351929 -1071.468262 1805.709229
v -504.229614 800.837463 1450.207397
v -512.184448 615.829956 1286.873169
v -347.628052 905.216736 1580.100952
v -274.909790 -545.819885 1659.752441
v -319.918579 -215.408035 1497.408203
v -329.892944 224.477005 1573.893921
v -274.909790 510.091064 1527.115967
v -513.217896 359.980164 1230.715820
v -281.472626 989.971130 2228.864014
v -461.467407 -283.104126 1321.724487
v -498.060669 116.300491 1314.857178
v -498.060669 -922.680237 1498.161255
v -298.970947 -970.094910 2210.682861
vt 0.500000 0.833333
vt 0.000000 1.000000
vt 0.000000 0.833333
vt 0.000000 0.166667
vt 0.500000 0.333333
vt 0.000000 0.333333
vt 0.000000 0.500000
vt 0.500000 0.666667
vt 0.000000 0.666667
vt 0.000000 0.666667
vt 0.500000 0.833333
vt 0.000000 0.833333
vt 0.000000 0.666667
vt 0.500000 0.833333
vt 0.000000 0.833333
vt 0.500000 0.500000
vt 0.000000 0.000000
vt 0.500000 0.166667
vt 0.500000 0.333333
vt 0.500000 0.166667
vt 1.000000 0.000000
vt 0.000000 0.000000
vt 0.500000 0.166667
vt 0.000000 0.166667
vt 0.000000 0.333333
vt 0.500000 0.500000
vt 0.000000 0.500000
vt 0.500000 0.833333
vt 0.000000 1.000000
vt 0.000000 0.833333
vt 0.000000 0.166667
vt 0.500000 0.333333
vt 0.000000 0.333333
vt 0.000000 0.500000
vt 0.500000 0.666667
vt 0.000000 0.666667
vt 0.500000 0.500000
vt 1.000000 0.166667
vt 1.000000 0.166667
vt 0.500000 0.500000
vt 1.000000 0.000000
vt 0.000000 0.666667
vt 0.500000 0.833333
vt 0.000000 0.833333
vt 0.500000 0.666667
vt 0.500000 0.333333
vt 0.000000 1.000000
vt 0.000000 0.000000
vt 0.000000 0.166667
vt 0.000000 0.333333
vt 0.500000 0.500000
vt 0.000000 0.500000
vt 0.500000 0.666667
vt 0.000000 1.000000
vt 1.000000 0.000000
vt 0.500000 0.166667
vt 0.500000 0.000000
vt 0.000000 0.000000
vt 0.000000 0.000000
vt 0.500000 0.166667
vt 0.000000 0.166667
vt 1.000000 0.000000
vt 0.500000 0.000000
vt 0.000000 0.333333
vt 0.000000 0.500000
vt 0.500000 0.666667
vt 0.000000 1.000000
vt 0.000000 0.666667
vt 0.500000 0.833333
vt 0.000000 0.833333
vt 0.500000 0.500000
vt 1.000000 1.000000
vt 0.000000 0.000000
vt 0.500000 0.166667
vt 0.000000 0.166667
vt 1.000000 0.000000
vt 0.500000 0.000000
vt 0.000000 0.333333
vt 0.000000 0.500000
vt 0.500000 0.666667
vt 0.500000 0.333333
vt 0.000000 1.000000
vt 1.000000 0.000000
vt 0.500000 1.000000
vt 0.500000 0.000000
vt 1.000000 1.000000
vt 0.500000 1.000000
vt 0.500000 0.000000
vt 0.500000 0.000000
vt 0.500000 1.000000
vt 0.500000 0.333333
vt 1.000000 1.000000
vt 0.500000 1.000000
vt 1.000000 1.000000
vt 1.000000 1.000000
vt 0.500000 1.000000
vt 1.000000 0.166667
vt 0.500000 1.000000
vt 1.000000 1.000000
vn 0.9384 0.1368 0.3171
vn 0.8415 0.2416 0.4832
vn 0.9235 0.1064 0.3685
vn 0.8189 -0.0133 0.5738
vn 0.9744 -0.1407 0.1755
vn 0.7616 -0.3419 0.5505
vn 0.8093 -0.1188 0.5752
vn 0.8206 0.1521 0.5508
vn 0.8665 0.0629 0.4951
vn 0.7958 0.5219 -0.3070
vn 0.9634 0.1830 -0.1958
vn 0.9023 0.3666 -0.2266
vn 0.8796 0.4655 0.0977
vn 0.9555 0.2745 -0.1077
vn 0.9337 0.3580 0.0009
vn 0.9472 -0.3205 0.0052
vn 0.7147 -0.3598 0.5998
vn 0.9828 -0.0712 0.1700
vn 0.9734 0.0899 0.2105
vn 0.9774 0.1784 0.1133
vn 0.9855 0.0528 0.1609
vn 0.8031 -0.5639 -0.1923
vn 0.9573 -0.2877 0.0277
vn 0.7839 -0.6002 0.1589
vn 0.7583 -0.6433 -0.1053
vn 0.9704 -0.0636 -0.2329
vn 0.7688 -0.6394 0.0081
vn 0.9646 -0.2130 0.1556
vn 0.8429 -0.4583 0.2819
vn 0.9077 -0.3956 0.1400
vn 0.8674 -0.4722 -0.1568
vn 0.7062 -0.6560 -0.2664
vn 0.8505 -0.4094 -0.3303
vn 0.8668 -0.4702 -0.1659
vn 0.8813 -0.4545 0.1287
vn 0.8584 -0.5130 -0.0078
vn 0.9366 0.3478 -0.0418
vn 0.9977 0.0571 0.0353
vn 0.9843 -0.0551 -0.1679
vn 0.9561 -0.2898 -0.0440
vn 0.9784 -0.1616 0.1289
vn 0.8507 -0.5205 0.0735
vn 0.9856 -0.1661 0.0299
vn 0.9084 -0.4050 0.1040
vn 0.8444 -0.4714 0.2542
vn 0.9652 -0.2523 -0.0686
vn 0.9022 -0.3341 0.2729
vn 0.7848 0.3775 0.4916
vn 0.8321 0.5270 0.1727
vn 0.8142 0.4091 0.4118
vn 0.9457 -0.1001 0.3091
vn 0.8236 0.4818 0.2991
vn 0.8401 0.5423 -0.0015
vn 0.8887 0.4003 -0.2233
vn 0.8300 -0.1996 -0.5209
vn 0.8994 -0.3468 -0.2659
vn 0.7965 -0.3056 -0.5216
vn 0.7712 -0.4224 -0.4762
vn 0.8159 0.5760 0.0501
vn 0.9380 0.3216 -0.1294
vn 0.7777 0.5484 -0.3071
vn 0.8730 0.4848 0.0533
vn 0.7527 0.6485 0.1135
vn 0.7711 0.6239 -0.1271
vn 0.7477 0.6387 -0.1816
vn 0.7381 0.5431 -0.4002
vn 0.8919 0.2483 -0.3779
vn 0.8502 -0.1086 -0.5151
vn 0.9424 -0.1920 -0.2738
vn 0.9150 -0.1328 -0.3809
vn 0.9300 0.1188 -0.3478
vn 0.9800 -0.1862 -0.0694
vn 0.7417 0.2870 -0.6062
vn 0.9427 0.0101 -0.3334
vn 0.8111 -0.0543 -0.5823
vn 0.8753 0.2189 -0.4312
vn 0.6376 0.3172 -0.7020
vn 0.7685 0.2389 -0.5936
vn 0.7926 0.0602 -0.6067
vn 0.7998 -0.1943 -0.5679
vn 0.8283 0.1993 -0.5236
vn 0.8625 -0.3570 -0.3585
vn 0.9765 -0.1826 -0.1145
vn 0.9656 0.1177 0.2319
vn 0.6417 -0.4763 0.6011
vn 0.9917 0.0556 -0.1159
vn 0.9496 0.2353 -0.2073
vn 0.7398 0.3021 0.6012
vn 0.7994 -0.4844 -0.3554
vn 0.9664 -0.2205 0.1317
vn 0.8697 0.4935 -0.0069
vn 0.9837 0.0274 -0.1776
vn 0.9267 0.1501 -0.3446
vn 0.9977 -0.0154 0.0655
vn 0.9980 0.0460 0.0429
vn 0.9408 -0.2083 0.2673
vn 0.9964 0.0801 -0.0265
vn 0.9069 -0.3214 -0.2723
vn 0.9915 -0.0439 0.1223
usemtl Material
s 1
f 20/1/1 18/2/2 13/3/3
f 59/4/4 39/5/5 61/6/6
f 15/7/7 38/8/8 60/9/9
f 28/10/10 8/11/11 1/12/12
f 12/13/13 70/14/14 75/15/15
f 61/6/6 14/16/16 15/7/7
f 42/17/17 58/18/18 59/4/4
f 68/19/19 63/20/20 64/21/21
f 53/22/22 45/23/23 44/24/24
f 16/25/25 47/26/26 46/27/27
f 76/28/28 32/29/29 77/30/30
f 81/31/31 22/32/32 35/33/33
f 79/34/34 21/35/35 34/36/36
f 8/11/11 2/37/37 27/38/38
f 82/39/39 76/28/28 78/40/40
f 39/5/5 58/18/18 43/41/41
f 60/9/9 20/1/1 13/3/3
f 17/42/42 49/43/43 48/44/44
f 46/27/27 57/45/45 17/42/42
f 44/24/24 56/46/46 16/25/25
f 49/43/43 51/47/47 48/44/44
f 65/48/48 63/20/20 62/49/49
f 11/50/50 74/51/51 73/52/52
f 73/52/52 69/53/53 12/13/13
f 62/49/49 68/19/19 11/50/50
f 70/14/14 72/54/54 75/15/15
f 21/35/35 77/30/30 34/36/36
f 35/33/33 78/40/40 79/34/34
f 31/55/55 80/56/56 24/57/57
f 30/58/58 80/56/56 81/31/31
f 6/59/59 25/60/60 26/61/61
f 7/62/62 25/60/60 5/63/63
f 29/64/64 2/37/37 3/65/65
f 3/65/65 9/66/66 28/10/10
f 25/60/60 29/64/64 26/61/61
f 8/11/11 36/67/67 1/12/12
f 96/68/68 90/69/69 83/70/70
f 90/69/69 84/71/71 99/72/72
f 88/73/73 93/74/74 94/75/75
f 89/76/76 93/74/74 87/77/77
f 97/78/78 84/71/71 85/79/79
f 85/79/79 91/80/80 96/68/68
f 94/75/75 92/81/81 97/78/78
f 90/69/69 98/82/82 83/70/70
f 56/46/46 45/23/23 52/83/83
f 20/1/1 40/84/84 18/2/2
f 59/4/4 58/18/18 39/5/5
f 15/7/7 14/16/16 38/8/8
f 28/10/10 9/66/66 8/11/11
f 12/13/13 69/53/53 70/14/14
f 61/6/6 39/5/5 14/16/16
f 42/17/17 41/85/85 58/18/18
f 64/21/21 71/86/86 68/19/19
f 71/86/86 67/87/87 70/14/14
f 70/14/14 69/53/53 74/51/51
f 71/86/86 70/14/14 74/51/51
f 68/19/19 71/86/86 74/51/51
f 63/20/20 66/88/88 64/21/21
f 53/22/22 54/89/89 45/23/23
f 16/25/25 56/46/46 47/26/26
f 76/28/28 23/90/90 32/29/29
f 81/31/31 80/56/56 22/32/32
f 79/34/34 78/40/40 21/35/35
f 25/60/60 27/38/38 10/91/91
f 27/38/38 37/92/92 8/11/11
f 10/91/91 27/38/38 2/37/37
f 37/92/92 4/93/93 8/11/11
f 8/11/11 9/66/66 2/37/37
f 82/39/39 33/94/94 76/28/28
f 33/94/94 23/90/90 76/28/28
f 76/28/28 21/35/35 78/40/40
f 22/32/32 80/56/56 78/40/40
f 80/56/56 82/39/39 78/40/40
f 43/41/41 19/95/95 39/5/5
f 19/95/95 40/84/84 20/1/1
f 20/1/1 38/8/8 14/16/16
f 19/95/95 20/1/1 14/16/16
f 39/5/5 19/95/95 14/16/16
f 58/18/18 41/85/85 43/41/41
f 60/9/9 38/8/8 20/1/1
f 17/42/42 57/45/45 49/43/43
f 46/27/27 47/26/26 57/45/45
f 44/24/24 45/23/23 56/46/46
f 49/43/43 55/96/96 51/47/47
f 65/48/48 66/88/88 63/20/20
f 11/50/50 68/19/19 74/51/51
f 73/52/52 74/51/51 69/53/53
f 62/49/49 63/20/20 68/19/19
f 70/14/14 67/87/87 72/54/54
f 21/35/35 76/28/28 77/30/30
f 35/33/33 22/32/32 78/40/40
f 31/55/55 82/39/39 80/56/56
f 30/58/58 24/57/57 80/56/56
f 6/59/59 5/63/63 25/60/60
f 7/62/62 27/38/38 25/60/60
f 29/64/64 10/91/91 2/37/37
f 3/65/65 2/37/37 9/66/66
f 25/60/60 10/91/91 29/64/64
f 8/11/11 4/93/93 36/67/67
f 96/68/68 91/80/80 90/69/69
f 93/74/74 95/97/97 92/81/81
f 95/97/97 99/72/72 84/71/71
f 92/81/81 95/97/97 84/71/71
f 99/72/72 86/98/98 90/69/69
f 90/69/69 91/80/80 84/71/71
f 88/73/73 87/77/77 93/74/74
f 89/76/76 95/97/97 93/74/74
f 97/78/78 92/81/81 84/71/71
f 85/79/79 84/71/71 91/80/80
f 94/75/75 93/74/74 92/81/81
f 90/69/69 86/98/98 98/82/82
f 52/83/83 50/99/99 56/46/46
f 50/99/99 55/96/96 49/43/43
f 49/43/43 57/45/45 50/99/99
f 57/45/45 47/26/26 50/99/99
f 56/46/46 50/99/99 47/26/26
f 45/23/23 54/89/89 52/83/83
