# Blender v2.82 (sub 7) OBJ File: 'level.blend'
# www.blender.org
mtllib level3.mtl
g level3
v -308.680420 -1877.998901 715.015991
v -547.750366 -813.336670 318.688721
v -239.148071 -943.888184 1122.329102
v -536.555542 -636.314575 958.600830
v -454.308350 -1542.708496 46.598892
v -541.185913 -496.741943 1837.622192
v -549.140991 -385.443359 1642.707764
v -384.584351 -624.953125 1938.040649
v -311.866333 -1245.256836 559.262817
v -356.874878 -987.095093 838.815796
v -366.849243 -865.674988 1313.605835
v -316.481323 -1633.792114 -1037.089722
v -294.710938 -1829.462280 -466.020081
v -535.016968 -760.553040 -337.888153
v -498.423706 -604.330383 -749.414368
v -281.855835 -1959.423706 34.452469
v -308.680420 783.988037 -2238.377441
v -547.750366 663.956543 -1002.224670
v -239.148071 27.081543 -1537.399780
v -536.555542 111.099365 -1094.840942
v -319.481323 1755.960571 -448.120392
v -297.710938 1738.715332 -1054.125366
v -538.016968 805.785034 -847.973450
v -501.423706 856.394592 -378.477448
v -535.016968 983.831360 -1376.547607
v -305.423950 1419.573730 -2367.702637
v -311.866333 607.594482 -1577.039185
v -284.884644 1660.375977 -1522.236694
v -445.068726 559.355713 1161.764404
v -455.043091 653.396057 810.141174
v -451.811401 929.648865 2118.799072
v -629.379761 672.589355 181.272797
v -300.328491 -1649.248413 1320.599976
v -311.866333 -714.409485 1560.499146
v -550.174194 -468.208252 1396.710693
v -281.884644 -1335.336182 2031.833252
v -498.423706 -869.492737 744.691650
v -535.016968 -666.882263 1184.944214
v -294.710938 -1536.651855 1602.021973
v -316.481323 -1718.585449 1019.543213
v -623.210815 472.438110 355.075104
v -607.005737 929.592468 98.212448
v -623.210815 570.925964 1815.420410
v -424.121094 1333.559570 1967.470459
v -586.617554 322.525024 1159.909302
v -623.210815 312.817505 775.713806
v -357.855103 1737.080078 729.764587
v -383.017700 1593.072998 1373.188232
v -535.016968 -1218.125000 50.393875
v -356.072876 -1988.066040 199.515503
v -356.874878 283.946960 -1432.028809
v -366.849243 -153.651184 -1546.712036
v -393.044067 1580.267334 -1732.996460
v -541.185913 -687.194031 -1486.613403
v -549.140991 -514.228943 -1295.488770
v -454.501831 -1486.461426 -2112.229492
v -553.174194 666.223999 -1120.887329
v -314.866333 938.268005 -1228.248047
v -303.328491 1770.864258 -754.118042
v -539.555542 702.974915 -637.709656
v -242.148071 1038.149414 -743.508301
v -550.750366 671.239075 3.029587
v -311.680420 1828.757446 -110.009125
v -314.866333 1169.865967 -115.767891
v -338.927368 1736.254028 212.478592
v -538.016968 985.384705 396.001862
v -338.325073 1522.008057 -2116.348145
v -552.140991 654.717773 -1387.742920
v -544.185913 800.343323 -1556.128784
v -457.308350 1303.772339 489.816193
v -369.849243 1026.499878 -934.737671
v -359.874878 1033.978027 -487.770782
v -300.328491 139.171463 -2286.233398
v -311.866333 -430.453613 -1527.957275
v -550.174194 -284.670471 -1216.987427
v -281.884644 -636.684204 -2302.422852
v -498.423706 339.139282 -1237.625854
v -535.016968 -48.622009 -1260.023682
v -294.710938 -162.063843 -2303.414551
v -316.481323 436.681946 -2221.517578
v -550.174194 -769.521423 -66.649811
v -311.866333 -1114.996826 -94.715057
v -300.328491 -1754.903687 -757.164673
v -405.230347 -1958.921387 533.538269
v -549.140991 -917.029663 132.041260
v -541.185913 -1144.173828 202.153717
v -491.257202 -1016.330139 -2075.826660
v -366.849243 -1052.684326 -387.193634
v -356.874878 -813.639954 -778.344727
v -311.866333 -897.256042 -1118.956787
v -380.739624 -1613.806641 -2078.899902
v -535.016968 -577.547485 -1433.858765
v -536.555542 -563.069153 -437.936371
v -239.148071 -1006.345093 -545.952454
v -547.750366 -282.462524 -980.369812
v -308.680420 -1591.149902 -1372.923828
v -400.059937 767.576050 1467.893311
v -396.874146 1471.424316 1653.298584
v -635.944214 131.995926 1434.808228
v -327.341675 687.563171 942.748657
v -624.749390 156.539383 882.810669
v -366.054321 1658.193604 1104.924438
v -400.059937 697.243286 517.020203
v -638.367920 294.597290 497.228455
v -351.877319 1738.226807 236.200302
v -271.723999 -666.851562 2328.659668
v -510.794067 -626.945740 1121.496460
v -202.191528 38.601181 1576.794067
v -499.599243 -73.093094 1170.627441
v -417.351929 -1071.468262 1805.709229
v -504.229614 800.837463 1450.207397
v -512.184448 615.829956 1286.873169
v -347.628052 905.216736 1580.100952
v -274.909790 -545.819885 1659.752441
v -319.918579 -215.408035 1497.408203
v -329.892944 224.477005 1573.893921
v -263.371948 -20.264648 2326.586182
v -274.909790 510.091064 1527.115967
v -513.217896 359.980164 1230.715820
v -244.928101 754.525024 2282.823486
v -461.467407 -283.104126 1321.724487
v -498.060669 116.300491 1314.857178
v -257.754517 281.398071 2320.457520
v -279.524902 -321.883728 2285.034180
v -498.060669 -922.680237 1498.161255
v -298.970947 -970.094910 2210.682861
vt 0.500000 0.833333
vt 0.000000 1.000000
vt 0.000000 0.833333
vt 0.000000 0.166667
vt 0.500000 0.333333
vt 0.000000 0.333333
vt 0.000000 0.500000
vt 0.500000 0.666667
vt 0.000000 0.666667
vt 1.000000 0.666667
vt 0.500000 0.833333
vt 0.500000 0.666667
vt 0.000000 0.666667
vt 0.000000 0.833333
vt 1.000000 0.333333
vt 0.500000 0.500000
vt 0.500000 0.333333
vt 0.500000 0.500000
vt 1.000000 0.666667
vt 0.500000 0.666667
vt 0.500000 0.166667
vt 1.000000 0.333333
vt 0.500000 0.333333
vt 1.000000 0.833333
vt 0.500000 1.000000
vt 0.500000 0.833333
vt 1.000000 0.500000
vt 0.000000 0.666667
vt 0.000000 0.833333
vt 0.500000 0.500000
vt 0.500000 0.000000
vt 1.000000 0.166667
vt 0.500000 0.166667
vt 0.000000 0.000000
vt 0.500000 0.500000
vt 1.000000 0.666667
vt 0.500000 0.666667
vt 0.500000 0.166667
vt 1.000000 0.333333
vt 0.500000 0.333333
vt 0.500000 0.833333
vt 1.000000 1.000000
vt 0.500000 1.000000
vt 0.000000 0.000000
vt 0.000000 0.166667
vt 0.500000 0.000000
vt 1.000000 0.166667
vt 0.000000 0.333333
vt 0.000000 0.500000
vt 0.500000 0.833333
vt 0.000000 1.000000
vt 0.000000 0.833333
vt 0.000000 0.166667
vt 0.500000 0.333333
vt 0.000000 0.333333
vt 0.000000 0.500000
vt 0.500000 0.666667
vt 0.000000 0.666667
vt 1.000000 0.833333
vt 0.500000 1.000000
vt 0.500000 0.166667
vt 1.000000 1.000000
vt 0.500000 1.000000
vt 0.500000 0.166667
vt 1.000000 0.333333
vt 0.500000 0.500000
vt 1.000000 0.666667
vt 1.000000 0.666667
vt 1.000000 0.333333
vt 1.000000 0.500000
vt 0.000000 0.666667
vt 0.000000 0.833333
vt 0.000000 1.000000
vt 1.000000 0.833333
vt 0.500000 1.000000
vt 0.000000 0.000000
vt 0.000000 0.166667
vt 0.500000 0.000000
vt 1.000000 0.166667
vt 0.000000 0.333333
vt 0.000000 0.500000
vt 0.000000 1.000000
vt 1.000000 0.000000
vt 0.500000 0.000000
vt 0.000000 0.000000
vt 0.000000 0.000000
vt 0.000000 0.166667
vt 1.000000 0.000000
vt 0.500000 0.000000
vt 0.000000 0.333333
vt 0.000000 0.500000
vt 0.000000 1.000000
vt 1.000000 0.666667
vt 0.500000 0.833333
vt 0.500000 0.666667
vt 0.000000 0.666667
vt 0.000000 0.833333
vt 1.000000 0.333333
vt 0.500000 0.500000
vt 0.500000 0.333333
vt 1.000000 1.000000
vt 0.500000 1.000000
vt 0.500000 0.166667
vt 0.000000 0.000000
vt 0.000000 0.166667
vt 1.000000 0.000000
vt 0.500000 0.000000
vt 0.000000 0.333333
vt 0.000000 0.500000
vt 0.000000 1.000000
vt 1.000000 0.500000
vt 1.000000 1.000000
vt 1.000000 0.000000
vt 1.000000 0.833333
vt 1.000000 0.000000
vt 1.000000 1.000000
vt 1.000000 0.166667
vt 1.000000 0.833333
vt 1.000000 0.166667
vt 1.000000 0.500000
vt 1.000000 0.500000
vt 1.000000 1.000000
vt 1.000000 0.000000
vt 1.000000 0.833333
vt 1.000000 0.500000
vt 1.000000 0.166667
vn 0.8790 0.3473 0.3267
vn 0.8675 0.0348 0.4962
vn 0.8182 0.2006 0.5388
vn 0.9931 0.0768 0.0889
vn 0.8865 0.4608 -0.0419
vn 0.8470 0.2842 0.4493
vn 0.9270 0.1536 -0.3422
vn 0.9810 0.1075 -0.1615
vn 0.9784 0.0750 -0.1928
vn 0.7902 -0.2254 0.5699
vn 0.9254 0.3041 0.2261
vn 0.9916 0.0081 0.1290
vn 0.6425 -0.5479 0.5358
vn 0.7467 -0.6350 0.1980
vn 0.7212 -0.2212 0.6564
vn 0.9064 -0.0736 0.4160
vn 0.9771 -0.0650 0.2026
vn 0.9628 -0.1036 0.2494
vn 0.7579 -0.6517 0.0310
vn 0.8402 -0.2340 -0.4892
vn 0.6524 -0.6827 -0.3291
vn 0.8669 -0.3407 0.3639
vn 0.8973 -0.4410 -0.0200
vn 0.8426 -0.5051 0.1866
vn 0.9697 -0.0538 -0.2382
vn 0.9749 0.0091 -0.2227
vn 0.9250 -0.0422 -0.3777
vn 0.9955 -0.0353 0.0879
vn 0.9821 -0.0752 0.1730
vn 0.9037 -0.1372 0.4055
vn 0.9917 -0.1261 0.0263
vn 0.9107 -0.1427 0.3877
vn 0.8118 -0.5779 0.0838
vn 0.8283 0.0611 -0.5569
vn 0.8898 -0.4450 -0.1009
vn 0.9935 -0.0500 -0.1019
vn 0.8220 -0.5348 0.1956
vn 0.8156 -0.5323 0.2269
vn 0.8953 -0.3616 0.2601
vn 0.9958 0.0876 0.0282
vn 0.9756 0.1999 0.0908
vn 0.9202 0.3728 0.1192
vn 0.7780 0.5064 0.3719
vn 0.7797 0.1217 0.6142
vn 0.7091 0.3230 0.6267
vn 0.8298 0.5573 0.0278
vn 0.8695 0.4896 0.0648
vn 0.8898 0.3935 -0.2311
vn 0.9919 -0.0345 -0.1224
vn 0.8423 -0.5019 -0.1967
vn 0.7302 -0.1154 -0.6734
vn 0.7652 -0.3690 -0.5275
vn 0.8092 -0.2433 -0.5348
vn 0.7731 -0.4349 -0.4616
vn 0.7682 0.6058 -0.2071
vn 0.6528 0.7556 -0.0533
vn 0.6909 0.7171 0.0921
vn 0.7286 0.5239 -0.4412
vn 0.7770 0.4859 -0.4002
vn 0.8857 0.2755 -0.3737
vn 0.9924 0.1180 -0.0349
vn 0.9040 0.1107 -0.4129
vn 0.8190 0.5607 -0.1219
vn 0.9315 -0.3067 -0.1955
vn 0.9764 -0.2009 -0.0790
vn 0.9143 -0.3925 -0.1000
vn 0.7349 0.1426 -0.6630
vn 0.5383 0.2086 -0.8166
vn 0.6543 0.4548 -0.6042
vn 0.7988 -0.2490 -0.5477
vn 0.8549 -0.1210 -0.5045
vn 0.8684 -0.3753 -0.3240
vn 0.7953 0.1601 0.5847
vn 0.8207 0.1993 0.5355
vn 0.8328 0.1650 0.5284
vn 0.9997 0.0100 0.0204
vn 0.7282 0.5579 -0.3980
vn 0.9965 -0.0827 0.0132
vn 0.9949 -0.0580 -0.0825
vn 0.9993 0.0329 -0.0171
vn 0.9777 0.1814 -0.1056
vn 0.9957 0.0920 0.0044
vn 0.8262 0.5627 -0.0290
vn 0.9997 -0.0037 0.0227
vn 0.6584 -0.4945 0.5674
vn 0.9476 -0.1268 0.2933
vn 0.6822 -0.5278 0.5060
vn 0.9949 0.0839 0.0566
vn 0.9991 -0.0284 0.0321
vn 0.9966 -0.0055 0.0826
vn 0.8047 -0.4674 -0.3662
vn 0.9575 -0.2879 -0.0191
vn 0.6497 -0.6500 -0.3943
vn 0.8058 -0.5564 0.2026
vn 0.8557 -0.5106 0.0841
vn 0.8520 -0.4961 0.1676
vn 0.9769 0.1720 -0.1265
vn 0.9991 0.0189 -0.0387
vn 0.9950 -0.0951 -0.0315
vn 0.9968 -0.0245 0.0757
vn 0.9990 -0.0430 0.0120
vn 0.9972 0.0281 0.0699
vn 0.9997 -0.0225 -0.0012
vn 0.8189 0.1360 0.5576
vn 0.9967 0.0230 -0.0780
vn 0.9950 -0.0959 0.0289
vn 0.8096 -0.5761 0.1125
vn 0.9997 -0.0046 -0.0221
vn 0.7544 -0.5627 0.3381
vn 0.7723 -0.5538 0.3112
vn 0.9067 -0.3131 0.2825
vn 0.9911 0.0216 0.1313
vn 0.9991 0.0271 0.0315
vn 0.9951 0.0694 -0.0709
vn 0.7625 0.2150 0.6102
vn 0.9397 0.2512 0.2320
vn 0.7011 0.2939 0.6497
vn 0.8338 0.5510 0.0345
vn 0.8214 0.5693 -0.0331
vn 0.8878 0.4060 -0.2170
vn 0.9990 -0.0157 0.0426
vn 0.9309 -0.3508 0.1017
vn 0.9990 0.0350 0.0292
vn 0.7251 -0.2951 -0.6222
vn 0.8397 -0.1773 -0.5133
vn 0.7682 -0.4061 -0.4949
vn 0.8124 0.5200 0.2638
vn 0.9756 0.1608 0.1498
vn 0.6924 0.6997 0.1761
vn 0.7566 0.5220 -0.3937
vn 0.8074 0.4057 -0.4284
vn 0.8962 0.2273 -0.3809
vn 0.9997 0.0225 -0.0007
vn 0.7985 -0.1743 -0.5762
vn 0.9967 -0.0169 0.0800
vn 0.9964 -0.0819 -0.0196
vn 0.9991 -0.0295 -0.0301
vn 0.9951 -0.0638 0.0762
vn 0.7290 0.4352 -0.5284
vn 0.9759 0.1932 -0.1012
vn 0.6569 0.4418 -0.6110
vn 0.8155 -0.2093 -0.5396
vn 0.8124 -0.2432 -0.5300
vn 0.8561 -0.3401 -0.3892
usemtl Material
s off
f 27/1/1 25/2/1 18/3/1
f 75/4/2 52/5/2 78/6/2
f 20/7/3 51/8/3 77/9/3
f 40/10/4 9/11/4 10/12/4
f 37/13/5 9/11/5 2/14/5
f 39/15/6 3/16/6 11/17/6
f 94/18/7 12/19/7 89/20/7
f 82/21/8 13/22/8 88/23/8
f 96/24/9 87/25/9 90/26/9
f 88/23/10 83/27/10 94/18/10
f 15/28/11 90/26/11 95/29/11
f 12/19/12 90/26/12 89/20/12
f 78/6/13 19/30/13 20/7/13
f 54/31/14 76/32/14 74/33/14
f 55/34/15 74/33/15 75/4/15
f 61/35/16 21/36/16 72/37/16
f 58/38/17 22/39/17 71/40/17
f 64/41/18 65/42/18 70/43/18
f 68/44/19 58/38/19 57/45/19
f 69/46/20 28/47/20 58/38/20
f 23/48/21 61/35/21 60/49/21
f 97/50/22 43/51/22 99/52/22
f 104/53/23 30/54/23 46/55/23
f 101/56/24 29/57/24 45/58/24
f 1/59/25 5/60/25 9/11/25
f 34/61/26 39/15/26 11/17/26
f 3/16/27 40/10/27 10/12/27
f 97/50/28 44/62/28 31/63/28
f 103/64/29 47/65/29 30/54/29
f 100/66/30 48/67/30 29/57/30
f 80/68/31 27/1/31 51/8/31
f 77/9/32 27/1/32 18/3/32
f 79/69/33 19/30/33 52/5/33
f 71/40/34 59/70/34 61/35/34
f 24/71/35 64/41/35 62/72/35
f 21/36/36 64/41/36 72/37/36
f 60/49/37 72/37/37 24/71/37
f 57/45/38 71/40/38 23/48/38
f 64/41/39 66/73/39 62/72/39
f 17/74/40 53/75/40 27/1/40
f 74/33/41 79/69/41 52/5/41
f 19/30/42 80/68/42 51/8/42
f 85/76/43 82/21/43 81/77/43
f 86/78/44 16/79/44 82/21/44
f 14/80/45 94/18/45 93/81/45
f 93/81/46 89/20/46 15/28/46
f 81/77/47 88/23/47 14/80/47
f 90/26/48 92/82/48 95/29/48
f 48/67/49 97/50/49 29/57/49
f 29/57/50 99/52/50 45/58/50
f 47/65/51 100/66/51 30/54/51
f 46/55/52 100/66/52 101/56/52
f 42/83/53 103/64/53 32/84/53
f 41/85/54 103/64/54 104/53/54
f 7/86/55 34/61/55 35/87/55
f 8/88/56 34/61/56 6/89/56
f 38/90/57 3/16/57 4/91/57
f 4/91/58 10/12/58 37/13/58
f 34/61/59 38/90/59 35/87/59
f 9/11/60 49/92/60 2/14/60
f 124/93/61 114/94/61 115/95/61
f 121/96/62 114/94/62 107/97/62
f 123/98/63 108/99/63 116/100/63
f 114/94/64 126/101/64 110/102/64
f 118/103/65 123/98/65 116/100/65
f 108/99/66 124/93/66 115/95/66
f 112/104/67 118/103/67 119/105/67
f 113/106/68 118/103/68 111/107/68
f 122/108/69 108/99/69 109/109/69
f 109/109/70 115/95/70 121/96/70
f 119/105/71 116/100/71 122/108/71
f 114/94/72 125/110/72 107/97/72
f 27/1/73 53/75/73 25/2/73
f 75/4/74 74/33/74 52/5/74
f 20/7/75 19/30/75 51/8/75
f 40/10/76 1/59/76 9/11/76
f 37/13/77 10/12/77 9/11/77
f 39/15/78 33/111/78 3/16/78
f 94/18/79 83/27/79 12/19/79
f 82/21/80 16/79/80 13/22/80
f 96/24/81 91/112/81 87/25/81
f 88/23/82 13/22/82 83/27/82
f 15/28/83 89/20/83 90/26/83
f 12/19/84 96/24/84 90/26/84
f 78/6/85 52/5/85 19/30/85
f 54/31/86 56/113/86 76/32/86
f 55/34/87 54/31/87 74/33/87
f 61/35/88 59/70/88 21/36/88
f 58/38/89 28/47/89 22/39/89
f 64/41/90 63/114/90 65/42/90
f 68/44/91 69/46/91 58/38/91
f 69/46/92 67/115/92 28/47/92
f 23/48/93 71/40/93 61/35/93
f 97/50/94 31/63/94 43/51/94
f 104/53/95 103/64/95 30/54/95
f 101/56/96 100/66/96 29/57/96
f 1/59/97 50/116/97 5/60/97
f 34/61/98 36/117/98 39/15/98
f 3/16/99 33/111/99 40/10/99
f 97/50/100 98/118/100 44/62/100
f 103/64/101 105/119/101 47/65/101
f 100/66/102 102/120/102 48/67/102
f 80/68/103 17/74/103 27/1/103
f 77/9/104 51/8/104 27/1/104
f 79/69/105 73/121/105 19/30/105
f 71/40/106 22/39/106 59/70/106
f 24/71/107 72/37/107 64/41/107
f 21/36/108 63/114/108 64/41/108
f 60/49/109 61/35/109 72/37/109
f 57/45/110 58/38/110 71/40/110
f 64/41/111 70/43/111 66/73/111
f 17/74/112 26/122/112 53/75/112
f 74/33/113 76/32/113 79/69/113
f 19/30/114 73/121/114 80/68/114
f 85/76/115 86/78/115 82/21/115
f 86/78/116 84/123/116 16/79/116
f 14/80/117 88/23/117 94/18/117
f 93/81/118 94/18/118 89/20/118
f 81/77/119 82/21/119 88/23/119
f 90/26/120 87/25/120 92/82/120
f 48/67/121 98/118/121 97/50/121
f 29/57/122 97/50/122 99/52/122
f 47/65/123 102/120/123 100/66/123
f 46/55/124 30/54/124 100/66/124
f 42/83/125 105/119/125 103/64/125
f 41/85/126 32/84/126 103/64/126
f 7/86/127 6/89/127 34/61/127
f 8/88/128 36/117/128 34/61/128
f 38/90/129 11/17/129 3/16/129
f 4/91/130 3/16/130 10/12/130
f 34/61/131 11/17/131 38/90/131
f 9/11/132 5/60/132 49/92/132
f 124/93/133 106/124/133 114/94/133
f 121/96/134 115/95/134 114/94/134
f 123/98/135 117/125/135 108/99/135
f 114/94/136 106/124/136 126/101/136
f 118/103/137 120/126/137 123/98/137
f 108/99/138 117/125/138 124/93/138
f 112/104/139 111/107/139 118/103/139
f 113/106/140 120/126/140 118/103/140
f 122/108/141 116/100/141 108/99/141
f 109/109/142 108/99/142 115/95/142
f 119/105/143 118/103/143 116/100/143
f 114/94/144 110/102/144 125/110/144
