# Blender v2.82 (sub 7) OBJ File: 'level.blend'
# www.blender.org
mtllib level1.mtl
g level1
v -1665.241089 -1287.190918 30.606411
v -1815.312866 -480.469269 120.199600
v -1547.915527 -773.620361 362.509186
v -1804.740723 -463.247223 339.792145
v -1853.747070 -936.021179 -149.672760
v -1836.562256 -871.556946 913.940002
v -1831.651733 -699.273621 781.772949
v -1749.664307 -981.272156 953.316772
v -1575.394775 -907.942139 73.927544
v -1742.889526 -699.630310 266.238342
v -1747.459717 -761.774902 459.743195
v -1597.449829 -772.882080 -740.040283
v -1634.227173 -974.061157 -459.342865
v -1814.268188 -377.134003 -153.038239
v -1791.245239 -263.915619 -317.315430
v -1635.717285 -1146.714844 -327.617920
v -1600.663330 772.694946 -791.449585
v -1780.847412 268.955200 -148.830841
v -1642.438110 241.430344 -518.839844
v -1786.897461 90.468857 -297.364319
v -1617.356445 804.915283 331.883820
v -1601.153076 919.390747 2.572063
v -1775.947266 324.328278 -82.644821
v -1760.903442 280.180298 88.353218
v -1759.635254 614.752319 -257.964111
v -1604.819458 911.897095 -723.647766
v -1512.464844 544.130981 -459.737366
v -1592.915771 961.774048 -239.239563
v -1747.269409 -108.720085 700.764465
v -1747.705566 51.370045 578.181641
v -1676.005737 -249.292084 1378.825684
v -1840.372070 139.649048 251.192719
v -1677.709595 -1240.403076 403.939697
v -1716.522583 -858.353210 659.128235
v -1821.796021 -589.351196 594.389709
v -1694.744141 -1210.116821 916.427979
v -1800.117554 -567.665649 257.093018
v -1808.478271 -544.521179 414.726837
v -1679.900269 -1262.965454 608.531677
v -1670.315796 -1276.633911 224.199753
v -1830.797852 66.522690 344.642822
v -1807.872803 328.226624 343.061707
v -1841.100220 -308.227386 1132.129761
v -1657.516846 -78.771736 1399.213989
v -1817.749634 -192.164978 601.883789
v -1828.286987 -69.976089 436.020569
v -1654.380371 493.256104 821.369324
v -1632.742920 255.312714 1130.436768
v -1826.174683 -651.494629 -78.690895
v -1744.922241 -1135.591187 -258.038116
v -1689.391846 338.534149 -442.175537
v -1714.801636 147.300964 -542.405701
v -1647.571045 974.121216 -356.810028
v -1805.990845 -112.645912 -737.424805
v -1809.011475 -110.182152 -534.428223
v -1710.885986 -449.957397 -1198.791016
v -1781.310547 297.608582 -185.855133
v -1520.501587 529.882751 -197.839767
v -1605.112427 885.212524 172.185745
v -1779.942749 220.227600 -33.239304
v -1480.711060 498.984436 18.312395
v -1784.954834 193.892197 219.498627
v -1618.220581 729.321899 478.895050
v -1638.274658 469.141479 343.341217
v -1638.564331 611.241028 593.418213
v -1769.525879 339.425232 520.496582
v -1619.284668 962.276245 -572.885742
v -1779.317017 425.968689 -309.086426
v -1767.145142 611.795837 -393.383759
v -1711.247925 450.383972 639.675293
v -1685.165405 529.811584 -59.623032
v -1545.330933 421.218048 106.583328
v -1643.994751 607.495544 -954.773926
v -1550.679077 39.340603 -655.426697
v -1805.338989 -57.858971 -397.045776
v -1638.413940 59.355209 -1230.126831
v -1762.238525 249.842682 -324.726929
v -1790.300537 68.235069 -396.888611
v -1644.520142 434.665222 -1126.690796
v -1599.326538 674.798462 -873.098816
v -1816.964478 -386.607239 -20.988403
v -1720.693359 -582.747681 -158.859207
v -1626.772949 -867.990479 -610.380188
v -1797.842773 -1208.000000 -159.142731
v -1820.333252 -481.874878 30.952242
v -1870.118042 -656.593994 15.087606
v -1684.358398 -160.147797 -1047.314453
v -1741.483521 -529.067078 -292.275116
v -1725.785767 -341.246460 -412.562317
v -1559.299072 -292.971497 -589.708862
v -1688.275269 -611.984497 -1247.863525
v -1802.676147 -84.013062 -663.396118
v -1809.250488 -299.250244 -180.973343
v -1521.825684 -502.541168 -414.403748
v -1801.096313 -104.912895 -301.824158
v -1586.800903 -655.266296 -857.888672
v -1712.941406 -143.781433 1018.150146
v -1623.945557 172.403870 1255.457642
v -1849.240112 -319.042419 724.570129
v -1684.296997 3.682409 665.481262
v -1828.427856 -146.819199 441.524200
v -1665.107056 319.610718 980.174622
v -1711.616821 126.530312 492.362183
v -1837.384521 -42.923798 352.732819
v -1645.268311 609.060974 602.359680
v -1689.932739 -964.879944 1148.535400
v -1790.241943 -461.416870 435.276917
v -1509.355469 -506.473419 798.321411
v -1786.822144 -317.583435 508.006744
v -1778.044678 -1127.691162 763.347412
v -1766.735474 -102.156425 999.665161
v -1777.578735 -113.807228 811.003784
v -1678.610352 -128.863464 1107.848145
v -1549.467285 -854.712769 776.333130
v -1575.161987 -557.016418 678.583862
v -1708.666748 -408.518219 849.100403
v -1639.604370 -689.606995 1261.468506
v -1523.766724 -300.519806 941.444824
v -1785.455078 -195.256393 689.018738
v -1598.673340 -279.880371 1355.424438
v -1773.644409 -427.544464 515.680725
v -1786.679443 -301.413330 623.541016
v -1625.370239 -528.556519 1295.560547
v -1647.281616 -870.086731 1221.526611
v -1816.086060 -901.186035 567.960754
v -1650.967407 -1168.090942 950.902588
vt 0.500000 0.833333
vt 0.000000 1.000000
vt 0.000000 0.833333
vt 0.000000 0.166667
vt 0.500000 0.333333
vt 0.000000 0.333333
vt 0.500000 0.500000
vt 0.000000 0.666667
vt 0.000000 0.500000
vt 1.000000 0.666667
vt 0.500000 0.833333
vt 0.500000 0.666667
vt 0.000000 0.833333
vt 0.000000 0.666667
vt 0.500000 0.333333
vt 1.000000 0.500000
vt 0.500000 0.500000
vt 0.500000 0.500000
vt 1.000000 0.666667
vt 0.500000 0.666667
vt 0.500000 0.166667
vt 1.000000 0.333333
vt 0.500000 0.333333
vt 1.000000 0.833333
vt 0.500000 1.000000
vt 0.500000 0.833333
vt 1.000000 0.500000
vt 0.000000 0.833333
vt 0.000000 0.666667
vt 0.500000 0.000000
vt 1.000000 0.166667
vt 0.500000 0.166667
vt 0.000000 0.000000
vt 0.500000 0.500000
vt 1.000000 0.666667
vt 0.500000 0.666667
vt 0.500000 0.166667
vt 1.000000 0.333333
vt 0.500000 0.333333
vt 0.500000 0.833333
vt 1.000000 1.000000
vt 0.500000 1.000000
vt 0.000000 0.000000
vt 0.000000 0.166667
vt 0.500000 0.000000
vt 1.000000 0.166667
vt 0.000000 0.333333
vt 0.000000 0.500000
vt 0.500000 0.833333
vt 0.000000 1.000000
vt 0.000000 0.833333
vt 0.500000 0.166667
vt 0.000000 0.333333
vt 0.000000 0.166667
vt 0.500000 0.500000
vt 0.000000 0.666667
vt 0.000000 0.500000
vt 1.000000 1.000000
vt 0.500000 1.000000
vt 0.500000 0.166667
vt 1.000000 0.333333
vt 1.000000 1.000000
vt 0.500000 1.000000
vt 1.000000 0.333333
vt 0.500000 0.333333
vt 1.000000 0.666667
vt 0.500000 0.666667
vt 1.000000 0.666667
vt 0.500000 0.666667
vt 1.000000 0.333333
vt 0.000000 0.666667
vt 0.000000 0.833333
vt 0.000000 1.000000
vt 1.000000 1.000000
vt 0.500000 1.000000
vt 0.000000 0.000000
vt 0.000000 0.166667
vt 1.000000 0.000000
vt 0.500000 0.000000
vt 0.000000 0.500000
vt 0.000000 0.333333
vt 0.000000 1.000000
vt 1.000000 0.000000
vt 0.500000 0.000000
vt 0.000000 0.000000
vt 0.000000 0.000000
vt 0.000000 0.166667
vt 1.000000 0.000000
vt 0.500000 0.000000
vt 0.000000 0.333333
vt 0.000000 0.500000
vt 0.000000 1.000000
vt 1.000000 0.666667
vt 0.500000 0.833333
vt 0.500000 0.666667
vt 0.000000 0.833333
vt 0.000000 0.666667
vt 1.000000 0.333333
vt 0.500000 0.500000
vt 0.500000 0.333333
vt 1.000000 1.000000
vt 0.500000 1.000000
vt 0.500000 0.166667
vt 0.000000 0.000000
vt 0.000000 0.166667
vt 1.000000 0.000000
vt 0.500000 0.000000
vt 0.000000 0.333333
vt 0.000000 0.500000
vt 0.000000 1.000000
vt 1.000000 0.833333
vt 1.000000 0.166667
vt 1.000000 1.000000
vt 1.000000 0.000000
vt 1.000000 0.500000
vt 1.000000 0.833333
vt 1.000000 0.000000
vt 1.000000 0.166667
vt 1.000000 0.833333
vt 1.000000 0.166667
vt 1.000000 0.500000
vt 1.000000 0.833333
vt 1.000000 0.500000
vt 1.000000 0.833333
vt 1.000000 0.500000
vt 1.000000 0.166667
vn 0.6529 0.1912 0.7329
vn 0.9053 -0.1085 0.4107
vn 0.8495 -0.0411 0.5260
vn 0.7807 0.0528 0.6227
vn 0.9022 0.4021 0.1560
vn 0.4357 -0.0413 0.8991
vn 0.4816 0.6161 -0.6233
vn 0.9666 0.2515 -0.0494
vn 0.9668 0.1006 -0.2350
vn 0.4625 -0.5185 0.7192
vn 0.8224 -0.0045 0.5689
vn 0.7384 -0.2544 0.6246
vn 0.7922 -0.6008 0.1071
vn 0.5344 -0.8379 -0.1108
vn 0.5753 -0.7694 0.2776
vn 0.8527 -0.1361 0.5044
vn 0.6222 -0.2525 0.7411
vn 0.9130 -0.3543 0.2024
vn 0.5069 -0.6011 -0.6179
vn 0.6272 0.0306 -0.7783
vn 0.4953 -0.3879 -0.7773
vn 0.7889 -0.6145 0.0005
vn 0.8635 -0.4443 -0.2386
vn 0.8387 -0.5068 -0.1992
vn 0.4611 0.6043 -0.6498
vn 0.9893 0.1025 -0.1038
vn 0.4766 0.1234 -0.8704
vn 0.9875 -0.0918 -0.1280
vn 0.9473 -0.2829 0.1506
vn 0.8819 -0.4486 0.1450
vn 0.6966 -0.6290 -0.3452
vn 0.8501 -0.5063 0.1449
vn 0.8010 -0.5697 -0.1839
vn 0.3645 0.0697 -0.9286
vn 0.8973 -0.4261 -0.1158
vn 0.9268 -0.0450 0.3729
vn 0.4999 -0.8053 0.3188
vn 0.9107 -0.4089 0.0585
vn 0.8181 -0.5331 0.2158
vn 0.9563 0.2854 0.0630
vn 0.6780 0.6240 0.3885
vn 0.9243 0.1822 0.3353
vn 0.9070 0.1764 0.3824
vn 0.7748 -0.0959 0.6249
vn 0.9169 0.0811 0.3908
vn 0.8640 0.4479 0.2302
vn 0.9096 0.4126 0.0482
vn 0.6436 0.7642 0.0414
vn 0.9790 -0.1619 -0.1238
vn 0.8628 -0.4454 -0.2391
vn 0.8334 0.1208 -0.5393
vn 0.8820 -0.0353 -0.4699
vn 0.8813 0.0753 -0.4664
vn 0.7929 -0.0922 -0.6023
vn 0.8674 0.4080 0.2850
vn 0.6694 0.6556 0.3493
vn 0.5899 0.5325 0.6070
vn 0.8555 0.3442 -0.3868
vn 0.9446 0.2951 0.1436
vn 0.7577 0.4738 -0.4488
vn 0.9638 0.1545 0.2171
vn 0.7066 0.5880 -0.3936
vn 0.4663 0.8723 0.1475
vn 0.6515 -0.5192 -0.5532
vn 0.5903 -0.7451 -0.3105
vn 0.8071 -0.5515 -0.2108
vn 0.6677 0.5984 -0.4427
vn 0.5687 0.7764 -0.2716
vn 0.6342 0.7656 -0.1079
vn 0.6434 0.0237 -0.7651
vn 0.9542 0.1489 -0.2593
vn 0.6224 -0.2594 -0.7385
vn 0.6348 0.0145 0.7725
vn 0.6494 0.2275 0.7256
vn 0.8509 -0.0033 0.5253
vn 0.9714 -0.2345 0.0382
vn 0.8548 0.4522 0.2547
vn 0.9896 0.1412 0.0262
vn 0.9596 -0.2813 0.0107
vn 0.9836 0.1041 0.1475
vn 0.9657 0.0983 -0.2404
vn 0.9709 0.1709 0.1680
vn 0.7371 -0.0796 0.6711
vn 0.9966 -0.0818 0.0084
vn 0.7824 -0.6189 0.0696
vn 0.9520 -0.1181 0.2826
vn 0.5072 -0.8617 0.0180
vn 0.9541 0.2317 0.1897
vn 0.9832 0.1709 0.0635
vn 0.9920 -0.1095 0.0633
vn 0.4908 -0.3864 -0.7809
vn 0.9052 -0.4188 -0.0722
vn 0.3492 -0.0495 -0.9357
vn 0.6580 -0.7019 -0.2727
vn 0.8664 -0.4946 -0.0689
vn 0.8391 -0.5201 -0.1592
vn 0.9205 -0.1783 -0.3478
vn 0.9957 0.0860 0.0332
vn 0.9615 -0.2592 0.0918
vn 0.9752 -0.1927 -0.1090
vn 0.9911 -0.1300 -0.0275
vn 0.9805 0.1057 -0.1659
vn 0.9764 0.1460 -0.1590
vn 0.7588 -0.6459 0.0834
vn 1.0000 0.0003 -0.0033
vn 0.9576 0.2773 0.0782
vn 0.4909 -0.7961 0.3539
vn 0.9977 -0.0631 -0.0266
vn 0.6877 -0.7149 -0.1263
vn 0.5311 -0.5638 0.6325
vn 0.7939 -0.5871 0.1583
vn 0.9768 0.1166 -0.1794
vn 0.9872 0.0571 -0.1487
vn 0.9191 -0.3001 -0.2553
vn 0.7839 -0.2740 0.5571
vn 0.7339 -0.0909 0.6732
vn 0.4931 -0.2571 0.8311
vn 0.6187 0.7814 0.0813
vn 0.9102 0.4135 0.0246
vn 0.6426 0.7648 0.0464
vn 0.9746 -0.1488 -0.1673
vn 0.8838 -0.4449 -0.1447
vn 0.9981 -0.0612 0.0005
vn 0.8221 0.0559 -0.5666
vn 0.8442 0.0061 -0.5360
vn 0.7735 -0.4583 -0.4379
vn 0.8577 0.2973 0.4195
vn 0.9609 0.1997 0.1917
vn 0.4324 0.2978 0.8511
vn 0.5209 0.3749 -0.7669
vn 0.9276 0.3717 0.0361
vn 0.6122 0.1350 -0.7791
vn 0.8442 -0.5091 0.1679
vn 0.7058 -0.1653 -0.6889
vn 0.9666 -0.1319 0.2197
vn 0.9398 -0.1279 0.3168
vn 0.9718 -0.1484 0.1832
vn 0.9675 -0.0932 0.2352
vn 0.6181 0.7816 -0.0838
vn 0.7897 0.6030 0.1128
vn 0.4765 0.8466 0.2372
vn 0.7793 0.2951 -0.5528
vn 0.5739 -0.3493 -0.7407
vn 0.5938 -0.4660 -0.6559
usemtl MatDarker
s off
f 27/1/1 25/2/1 18/3/1
f 75/4/2 52/5/2 78/6/2
f 19/7/3 77/8/3 20/9/3
f 40/10/4 9/11/4 10/12/4
f 10/12/5 2/13/5 37/14/5
f 11/15/6 33/16/6 3/17/6
f 94/18/7 12/19/7 89/20/7
f 82/21/8 13/22/8 88/23/8
f 96/24/9 87/25/9 90/26/9
f 88/23/10 83/27/10 94/18/10
f 89/20/11 95/28/11 15/29/11
f 12/19/12 90/26/12 89/20/12
f 78/6/13 19/7/13 20/9/13
f 54/30/14 76/31/14 74/32/14
f 55/33/15 74/32/15 75/4/15
f 61/34/16 21/35/16 72/36/16
f 58/37/17 22/38/17 71/39/17
f 64/40/18 65/41/18 70/42/18
f 68/43/19 58/37/19 57/44/19
f 69/45/20 28/46/20 58/37/20
f 23/47/21 61/34/21 60/48/21
f 97/49/22 43/50/22 99/51/22
f 103/52/23 46/53/23 104/54/23
f 100/55/24 45/56/24 101/57/24
f 9/11/25 50/58/25 5/59/25
f 34/60/26 39/61/26 11/15/26
f 3/17/27 40/10/27 10/12/27
f 97/49/28 44/62/28 31/63/28
f 103/52/29 47/64/29 30/65/29
f 100/55/30 48/66/30 29/67/30
f 80/68/31 27/1/31 51/69/31
f 51/69/32 18/3/32 77/8/32
f 79/70/33 19/7/33 52/5/33
f 22/38/34 61/34/34 71/39/34
f 24/71/35 64/40/35 62/72/35
f 21/35/36 64/40/36 72/36/36
f 60/48/37 72/36/37 24/71/37
f 57/44/38 71/39/38 23/47/38
f 64/40/39 66/73/39 62/72/39
f 27/1/40 26/74/40 53/75/40
f 74/32/41 79/70/41 52/5/41
f 19/7/42 80/68/42 51/69/42
f 85/76/43 82/21/43 81/77/43
f 84/78/44 82/21/44 86/79/44
f 88/23/45 93/80/45 14/81/45
f 93/80/46 89/20/46 15/29/46
f 82/21/47 14/81/47 81/77/47
f 90/26/48 92/82/48 95/28/48
f 48/66/49 97/49/49 29/67/49
f 29/67/50 99/51/50 45/56/50
f 47/64/51 100/55/51 30/65/51
f 30/65/52 101/57/52 46/53/52
f 42/83/53 103/52/53 32/84/53
f 41/85/54 103/52/54 104/54/54
f 7/86/55 34/60/55 35/87/55
f 8/88/56 34/60/56 6/89/56
f 38/90/57 3/17/57 4/91/57
f 4/91/58 10/12/58 37/14/58
f 35/87/59 11/15/59 38/90/59
f 9/11/60 49/92/60 2/13/60
f 124/93/61 114/94/61 115/95/61
f 115/95/62 107/96/62 121/97/62
f 123/98/63 108/99/63 116/100/63
f 114/94/64 126/101/64 110/102/64
f 118/103/65 123/98/65 116/100/65
f 108/99/66 124/93/66 115/95/66
f 112/104/67 118/103/67 119/105/67
f 113/106/68 118/103/68 111/107/68
f 122/108/69 108/99/69 109/109/69
f 109/109/70 115/95/70 121/97/70
f 119/105/71 116/100/71 122/108/71
f 114/94/72 125/110/72 107/96/72
f 27/1/73 53/75/73 25/2/73
f 75/4/74 74/32/74 52/5/74
f 19/7/75 51/69/75 77/8/75
f 40/10/76 1/111/76 9/11/76
f 10/12/77 9/11/77 2/13/77
f 11/15/78 39/61/78 33/16/78
f 94/18/79 83/27/79 12/19/79
f 82/21/80 16/112/80 13/22/80
f 96/24/81 91/113/81 87/25/81
f 88/23/82 13/22/82 83/27/82
f 89/20/83 90/26/83 95/28/83
f 12/19/84 96/24/84 90/26/84
f 78/6/85 52/5/85 19/7/85
f 54/30/86 56/114/86 76/31/86
f 55/33/87 54/30/87 74/32/87
f 61/34/88 59/115/88 21/35/88
f 58/37/89 28/46/89 22/38/89
f 64/40/90 63/116/90 65/41/90
f 68/43/91 69/45/91 58/37/91
f 69/45/92 67/117/92 28/46/92
f 23/47/93 71/39/93 61/34/93
f 97/49/94 31/63/94 43/50/94
f 103/52/95 30/65/95 46/53/95
f 100/55/96 29/67/96 45/56/96
f 9/11/97 1/111/97 50/58/97
f 34/60/98 36/118/98 39/61/98
f 3/17/99 33/16/99 40/10/99
f 97/49/100 98/119/100 44/62/100
f 103/52/101 105/120/101 47/64/101
f 100/55/102 102/121/102 48/66/102
f 80/68/103 17/122/103 27/1/103
f 51/69/104 27/1/104 18/3/104
f 79/70/105 73/123/105 19/7/105
f 22/38/106 59/115/106 61/34/106
f 24/71/107 72/36/107 64/40/107
f 21/35/108 63/116/108 64/40/108
f 60/48/109 61/34/109 72/36/109
f 57/44/110 58/37/110 71/39/110
f 64/40/111 70/42/111 66/73/111
f 27/1/112 17/122/112 26/74/112
f 74/32/113 76/31/113 79/70/113
f 19/7/114 73/123/114 80/68/114
f 85/76/115 86/79/115 82/21/115
f 84/78/116 16/112/116 82/21/116
f 88/23/117 94/18/117 93/80/117
f 93/80/118 94/18/118 89/20/118
f 82/21/119 88/23/119 14/81/119
f 90/26/120 87/25/120 92/82/120
f 48/66/121 98/119/121 97/49/121
f 29/67/122 97/49/122 99/51/122
f 47/64/123 102/121/123 100/55/123
f 30/65/124 100/55/124 101/57/124
f 42/83/125 105/120/125 103/52/125
f 41/85/126 32/84/126 103/52/126
f 7/86/127 6/89/127 34/60/127
f 8/88/128 36/118/128 34/60/128
f 38/90/129 11/15/129 3/17/129
f 4/91/130 3/17/130 10/12/130
f 35/87/131 34/60/131 11/15/131
f 9/11/132 5/59/132 49/92/132
f 124/93/133 106/124/133 114/94/133
f 115/95/134 114/94/134 107/96/134
f 123/98/135 117/125/135 108/99/135
f 114/94/136 106/124/136 126/101/136
f 118/103/137 120/126/137 123/98/137
f 108/99/138 117/125/138 124/93/138
f 112/104/139 111/107/139 118/103/139
f 113/106/140 120/126/140 118/103/140
f 122/108/141 116/100/141 108/99/141
f 109/109/142 108/99/142 115/95/142
f 119/105/143 118/103/143 116/100/143
f 114/94/144 110/102/144 125/110/144
