# Blender v2.82 (sub 7) OBJ File: 'level.blend'
# www.blender.org
mtllib level2.mtl
g level2
v -952.962524 1299.077881 -344.255615
v -1088.050293 495.885681 -69.836624
v -774.054565 685.548279 -684.406372
v -1233.359497 469.485199 -617.371704
v -1046.443115 979.689514 187.986115
v -1166.833984 456.510315 -1242.702515
v -1166.647827 412.870850 -1079.609741
v -1050.820068 463.875793 -1356.320679
v -812.734497 815.442932 -233.925079
v -995.217468 687.244629 -400.592834
v -1017.598816 670.428528 -786.733398
v -902.608398 805.334167 1131.324097
v -904.480469 1105.350952 679.190735
v -1084.428345 351.046326 406.073822
v -1053.092163 141.290054 711.936951
v -910.539673 1300.956177 223.403656
v -858.496704 -721.110107 1772.700195
v -1062.964111 -836.912048 739.025879
v -687.541321 -394.059875 1157.789917
v -1184.358765 -449.981232 817.743530
v -924.841431 -1549.845215 215.796249
v -888.763062 -1541.375977 780.466370
v -1063.108643 -916.044067 605.984192
v -1054.754028 -891.251709 238.599518
v -1057.339600 -1039.251587 1019.393005
v -852.080322 -1178.988403 1897.300537
v -741.407227 -750.786743 1166.172974
v -863.857056 -1431.493530 1216.950195
v -1068.954834 -419.942200 -899.193726
v -1062.496216 -591.514893 -624.210571
v -1108.163208 -654.066040 -1643.136597
v -1154.303223 -698.417969 -178.298157
v -966.228394 1163.461792 -836.291077
v -983.490601 556.700256 -1027.184448
v -1159.759521 434.343109 -873.553040
v -975.254639 869.057800 -1475.682495
v -1078.871948 610.255005 -352.026520
v -1132.722656 538.334900 -700.450134
v -971.051941 1067.585327 -1091.732910
v -968.895874 1206.758911 -575.893555
v -1147.977173 -530.855225 -278.431152
v -1138.600464 -900.990784 -150.453171
v -1227.654541 -287.583191 -1388.662476
v -1082.364136 -1019.492249 -1548.972656
v -1172.091797 -262.861237 -857.881775
v -1174.926758 -368.575317 -561.971313
v -992.114868 -1372.726685 -755.009399
v -1032.000854 -1230.287964 -1158.929321
v -1101.521484 736.084717 186.372360
v -972.372864 1341.062256 73.705994
v -920.397156 -592.111511 1084.300781
v -924.775330 -279.885803 1229.399536
v -939.288818 -1356.014160 1392.429321
v -1061.197266 97.409058 1270.459106
v -1073.874634 -1.881104 1104.429077
v -972.638062 905.859802 1697.712402
v -1068.191406 -848.317566 823.759521
v -894.945435 -990.468201 904.257874
v -902.738525 -1570.147949 506.953613
v -1192.833496 -831.505615 402.387878
v -714.635742 -1059.018433 442.646729
v -1215.297729 -732.007019 -92.048164
v -929.914795 -1571.430298 -57.185150
v -928.759094 -1079.612915 -31.284668
v -960.693115 -1454.078979 -350.861542
v -1110.957764 -887.320801 -358.523926
v -885.263428 -1266.009644 1709.499390
v -1069.627563 -844.981079 1022.785706
v -1058.804810 -904.772522 1176.628174
v -1054.285156 -1111.248901 -468.188019
v -945.430176 -1053.681641 653.006409
v -951.412476 -1028.249512 277.992615
v -850.356812 -301.473724 1790.015137
v -743.574341 -52.580853 1208.976074
v -1076.133423 -145.836197 1014.000305
v -835.514465 270.748840 1813.149170
v -1156.555664 -649.088684 872.608398
v -1060.952393 -325.670532 1013.459473
v -845.416199 -88.752701 1806.232422
v -864.844971 -515.116394 1741.241699
v -1205.645508 389.234131 161.625122
v -792.957947 630.185669 218.795563
v -899.326355 981.356384 912.993469
v -1020.622437 1346.472656 -191.680359
v -1086.189453 548.140991 84.478195
v -1103.206543 710.962891 62.890358
v -1001.947083 456.459351 1695.553467
v -966.119812 564.994019 456.533661
v -804.974243 266.899384 729.656555
v -898.814270 280.020142 1033.550537
v -917.561157 1031.481445 1653.592896
v -1058.193726 27.323547 1214.697632
v -1202.149292 175.370102 410.000549
v -722.178467 472.647736 566.590698
v -1202.151367 -123.919670 787.375732
v -885.570862 804.303223 1303.605591
v -1046.398560 -511.959839 -1168.224976
v -1051.542725 -1118.660767 -1348.130737
v -1223.265991 -31.401337 -1024.895386
v -831.755310 -558.858459 -800.634216
v -1167.446045 -211.786179 -653.381104
v -1010.457092 -1276.159546 -1002.999146
v -871.445557 -661.832458 -455.698456
v -1164.879517 -386.811584 -356.341400
v -971.241760 -1451.503174 -371.716492
v -977.364197 382.077332 -1705.329346
v -1109.656250 498.333893 -663.861755
v -760.034973 65.834946 -1170.410156
v -1229.566895 80.206367 -856.450806
v -1071.439697 781.898132 -1221.667603
v -1124.360107 -558.668701 -1150.451294
v -1124.096924 -440.259827 -1000.131226
v -1010.957153 -605.158325 -1273.380493
v -958.537292 435.354248 -1128.997559
v -987.417297 261.300659 -1013.898010
v -997.112366 -38.331787 -1154.754883
v -971.186340 -34.366562 -1714.846191
v -953.702820 -283.841248 -1176.901978
v -1123.448120 -265.240356 -914.508423
v -956.033936 -605.661682 -1730.103638
v -1089.590454 288.776733 -856.119507
v -1239.723633 -38.959450 -991.483582
v -966.828491 -228.617859 -1729.092529
v -982.017822 165.741425 -1671.337036
v -1123.274536 730.862732 -921.649780
v -994.164795 613.738098 -1606.665527
vt 0.500000 0.833333
vt 0.000000 1.000000
vt 0.000000 0.833333
vt 0.000000 0.166667
vt 0.500000 0.333333
vt 0.000000 0.333333
vt 0.000000 0.500000
vt 0.500000 0.666667
vt 0.000000 0.666667
vt 1.000000 0.666667
vt 0.500000 0.833333
vt 0.500000 0.666667
vt 0.000000 0.666667
vt 0.000000 0.833333
vt 0.500000 0.333333
vt 1.000000 0.500000
vt 0.500000 0.500000
vt 0.500000 0.500000
vt 1.000000 0.666667
vt 0.500000 0.666667
vt 0.500000 0.166667
vt 1.000000 0.333333
vt 0.500000 0.333333
vt 1.000000 0.833333
vt 0.500000 1.000000
vt 0.500000 0.833333
vt 1.000000 0.500000
vt 0.000000 0.666667
vt 0.000000 0.833333
vt 0.500000 0.500000
vt 0.500000 0.000000
vt 1.000000 0.166667
vt 0.500000 0.166667
vt 0.000000 0.000000
vt 0.500000 0.500000
vt 1.000000 0.666667
vt 0.500000 0.666667
vt 0.500000 0.166667
vt 1.000000 0.333333
vt 0.500000 0.333333
vt 0.500000 0.833333
vt 1.000000 1.000000
vt 0.500000 1.000000
vt 0.000000 0.000000
vt 0.000000 0.166667
vt 0.500000 0.000000
vt 1.000000 0.166667
vt 0.000000 0.333333
vt 0.000000 0.500000
vt 0.500000 0.833333
vt 0.000000 1.000000
vt 0.000000 0.833333
vt 0.000000 0.166667
vt 0.500000 0.333333
vt 0.000000 0.333333
vt 0.000000 0.500000
vt 0.500000 0.666667
vt 0.000000 0.666667
vt 1.000000 1.000000
vt 0.500000 1.000000
vt 0.500000 0.166667
vt 1.000000 0.333333
vt 1.000000 1.000000
vt 0.500000 1.000000
vt 0.500000 0.166667
vt 1.000000 0.333333
vt 0.500000 0.500000
vt 1.000000 0.666667
vt 1.000000 0.666667
vt 1.000000 0.500000
vt 1.000000 0.500000
vt 0.000000 0.666667
vt 0.000000 0.833333
vt 0.000000 1.000000
vt 1.000000 0.833333
vt 0.500000 1.000000
vt 1.000000 0.333333
vt 0.000000 0.000000
vt 0.000000 0.166667
vt 0.500000 0.000000
vt 1.000000 0.166667
vt 0.000000 0.333333
vt 0.000000 0.500000
vt 0.000000 1.000000
vt 1.000000 0.500000
vt 1.000000 0.000000
vt 0.500000 0.000000
vt 0.000000 0.000000
vt 0.000000 0.000000
vt 0.000000 0.166667
vt 1.000000 0.000000
vt 0.500000 0.000000
vt 0.000000 0.333333
vt 0.000000 0.500000
vt 0.000000 1.000000
vt 1.000000 0.666667
vt 0.500000 0.833333
vt 0.500000 0.666667
vt 0.000000 0.666667
vt 0.000000 0.833333
vt 0.500000 0.333333
vt 1.000000 0.500000
vt 0.500000 0.500000
vt 1.000000 1.000000
vt 0.500000 1.000000
vt 0.500000 0.166667
vt 1.000000 0.333333
vt 0.000000 0.000000
vt 0.000000 0.166667
vt 1.000000 0.000000
vt 0.500000 0.000000
vt 0.000000 0.500000
vt 0.000000 0.333333
vt 0.000000 1.000000
vt 1.000000 0.833333
vt 1.000000 1.000000
vt 1.000000 0.000000
vt 1.000000 0.833333
vt 1.000000 0.000000
vt 1.000000 0.166667
vt 1.000000 0.833333
vt 1.000000 0.166667
vt 1.000000 1.000000
vt 1.000000 0.000000
vt 1.000000 0.833333
vt 1.000000 0.166667
vn 0.7105 -0.5638 -0.4212
vn 0.8367 0.0723 -0.5429
vn 0.6778 -0.1059 -0.7276
vn 0.7425 -0.2476 -0.6224
vn 0.6596 -0.7038 -0.2638
vn 0.3909 -0.1323 -0.9109
vn 0.9308 -0.0947 0.3531
vn 0.8082 -0.3008 0.5062
vn 0.9757 -0.1193 0.1838
vn 0.5066 0.5988 -0.6203
vn 0.8357 -0.5200 -0.1766
vn 0.9538 -0.0483 0.2966
vn 0.3732 0.6585 -0.6536
vn 0.3243 0.8537 -0.4075
vn 0.3302 0.4984 -0.8016
vn 0.5774 0.1256 -0.8068
vn 0.9758 0.0583 -0.2107
vn 0.9454 0.1611 -0.2833
vn 0.6366 0.7711 -0.0083
vn 0.8483 0.3447 0.4019
vn 0.4198 0.9013 0.1067
vn 0.8641 0.4065 -0.2967
vn 0.8925 0.4511 -0.0036
vn 0.8051 0.5709 -0.1609
vn 0.8707 -0.0231 0.4913
vn 0.9897 -0.0060 0.1432
vn 0.7785 0.1649 0.6056
vn 0.9897 0.0341 -0.1389
vn 0.6871 0.1798 -0.7040
vn 0.5051 0.2842 -0.8149
vn 0.6921 0.7078 -0.1415
vn 0.4103 0.6554 -0.6341
vn 0.4281 0.9034 -0.0220
vn 0.6639 -0.1522 0.7322
vn 0.7759 0.6264 -0.0750
vn 0.9969 0.0429 0.0659
vn 0.6937 0.6258 0.3565
vn 0.7769 0.6061 -0.1704
vn 0.7755 0.6283 -0.0626
vn 0.9514 -0.2381 0.1953
vn 0.7825 -0.6152 0.0962
vn 0.6409 -0.7668 0.0357
vn 0.4603 -0.6431 -0.6120
vn 0.4654 0.0876 -0.8807
vn 0.4735 -0.3355 -0.8144
vn 0.4465 -0.8375 -0.3150
vn 0.8186 -0.3443 -0.4597
vn 0.8186 -0.5695 -0.0742
vn 0.9969 0.0210 0.0764
vn 0.9422 0.3063 0.1358
vn 0.5994 -0.3521 0.7188
vn 0.6584 0.3554 0.6634
vn 0.6821 0.1512 0.7155
vn 0.6226 0.4275 0.6554
vn 0.6053 -0.7936 0.0625
vn 0.2662 -0.9406 0.2108
vn 0.3753 -0.8842 -0.2781
vn 0.6763 -0.7367 -0.0029
vn 0.8010 -0.5601 0.2114
vn 0.7774 -0.4380 0.4515
vn 0.9890 -0.1448 0.0292
vn 0.9205 -0.2126 0.3279
vn 0.4029 -0.9152 0.0122
vn 0.9457 0.3213 0.0495
vn 0.9846 0.1746 -0.0059
vn 0.6034 0.7899 -0.1099
vn 0.8008 -0.2656 0.5369
vn 0.6311 -0.3241 0.7048
vn 0.3987 -0.7023 0.5898
vn 0.7007 -0.4711 0.5358
vn 0.4844 0.4944 0.7217
vn 0.9096 0.3312 0.2507
vn 0.6768 -0.4415 -0.5891
vn 0.5389 -0.4911 -0.6844
vn 0.5523 -0.3727 -0.7457
vn 0.9571 0.2406 -0.1617
vn 0.6373 -0.7626 -0.1112
vn 0.9946 -0.1017 0.0194
vn 0.9604 0.2096 0.1834
vn 0.9832 0.1719 0.0607
vn 0.9761 -0.1305 0.1740
vn 0.9940 -0.0856 -0.0673
vn 0.4351 -0.8837 0.1725
vn 0.9948 0.0255 -0.0982
vn 0.3062 0.8736 -0.3783
vn 0.9026 0.1197 -0.4136
vn 0.2855 0.8128 -0.5079
vn 0.9302 -0.3543 -0.0953
vn 0.9977 0.0254 -0.0633
vn 0.9947 0.0031 -0.1030
vn 0.7065 0.6750 0.2126
vn 0.9371 0.3412 -0.0739
vn 0.5253 0.6405 0.5601
vn 0.8579 0.4509 -0.2465
vn 0.5769 0.7403 -0.3452
vn 0.5798 0.7214 -0.3786
vn 0.9593 0.2819 0.0162
vn 0.9997 -0.0241 0.0015
vn 0.9320 0.3589 -0.0501
vn 0.9902 0.0320 -0.1362
vn 0.9877 -0.1335 -0.0812
vn 0.9641 -0.1871 -0.1882
vn 0.9807 0.0587 0.1865
vn 0.6686 0.4479 -0.5936
vn 0.9912 -0.0130 -0.1321
vn 0.9932 0.0994 -0.0612
vn 0.8032 0.5944 -0.0399
vn 0.9998 -0.0014 -0.0185
vn 0.4146 0.7920 -0.4481
vn 0.6847 0.6623 -0.3042
vn 0.8884 0.3627 -0.2815
vn 0.9867 -0.0297 -0.1600
vn 0.9856 -0.0303 0.1662
vn 0.9562 -0.1252 0.2646
vn 0.4323 -0.0740 -0.8987
vn 0.9339 -0.2307 -0.2730
vn 0.4080 -0.0103 -0.9129
vn 0.5659 -0.6398 -0.5200
vn 0.4883 -0.8646 0.1186
vn 0.8895 -0.3876 0.2419
vn 0.9956 0.0188 -0.0918
vn 0.8138 0.5674 -0.1258
vn 0.9947 0.0957 -0.0363
vn 0.5984 0.0792 0.7973
vn 0.7629 -0.0277 0.6460
vn 0.6204 0.3849 0.6833
vn 0.6399 -0.7422 -0.1993
vn 0.9660 -0.2201 -0.1355
vn 0.3145 -0.6958 -0.6457
vn 0.4402 -0.8278 0.3480
vn 0.7266 -0.5755 0.3753
vn 0.8255 -0.1902 0.5313
vn 0.9992 -0.0262 -0.0302
vn 0.8382 0.1972 0.5085
vn 0.9987 0.0190 0.0464
vn 0.9951 0.0895 -0.0408
vn 0.9994 0.0287 -0.0209
vn 0.9157 0.1321 -0.3795
vn 0.8062 -0.4655 0.3652
vn 0.9711 -0.2082 0.1170
vn 0.3610 -0.7354 0.5735
vn 0.5553 -0.0197 0.8314
vn 0.8386 0.1000 0.5354
vn 0.9095 0.3544 0.2174
usemtl MarkDark
s off
f 27/1/1 25/2/1 18/3/1
f 75/4/2 52/5/2 78/6/2
f 20/7/3 51/8/3 77/9/3
f 40/10/4 9/11/4 10/12/4
f 37/13/5 9/11/5 2/14/5
f 11/15/6 33/16/6 3/17/6
f 94/18/7 12/19/7 89/20/7
f 82/21/8 13/22/8 88/23/8
f 96/24/9 87/25/9 90/26/9
f 88/23/10 83/27/10 94/18/10
f 15/28/11 90/26/11 95/29/11
f 12/19/12 90/26/12 89/20/12
f 78/6/13 19/30/13 20/7/13
f 54/31/14 76/32/14 74/33/14
f 55/34/15 74/33/15 75/4/15
f 61/35/16 21/36/16 72/37/16
f 58/38/17 22/39/17 71/40/17
f 64/41/18 65/42/18 70/43/18
f 68/44/19 58/38/19 57/45/19
f 69/46/20 28/47/20 58/38/20
f 23/48/21 61/35/21 60/49/21
f 97/50/22 43/51/22 99/52/22
f 104/53/23 30/54/23 46/55/23
f 101/56/24 29/57/24 45/58/24
f 9/11/25 50/59/25 5/60/25
f 34/61/26 39/62/26 11/15/26
f 3/17/27 40/10/27 10/12/27
f 97/50/28 44/63/28 31/64/28
f 103/65/29 47/66/29 30/54/29
f 100/67/30 48/68/30 29/57/30
f 80/69/31 27/1/31 51/8/31
f 51/8/32 18/3/32 77/9/32
f 52/5/33 73/70/33 19/30/33
f 71/40/34 59/71/34 61/35/34
f 24/72/35 64/41/35 62/73/35
f 21/36/36 64/41/36 72/37/36
f 60/49/37 72/37/37 24/72/37
f 57/45/38 71/40/38 23/48/38
f 64/41/39 66/74/39 62/73/39
f 17/75/40 53/76/40 27/1/40
f 74/33/41 79/77/41 52/5/41
f 19/30/42 80/69/42 51/8/42
f 85/78/43 82/21/43 81/79/43
f 86/80/44 16/81/44 82/21/44
f 14/82/45 94/18/45 93/83/45
f 93/83/46 89/20/46 15/28/46
f 81/79/47 88/23/47 14/82/47
f 90/26/48 92/84/48 95/29/48
f 48/68/49 97/50/49 29/57/49
f 45/58/50 97/50/50 99/52/50
f 30/54/51 102/85/51 100/67/51
f 46/55/52 100/67/52 101/56/52
f 42/86/53 103/65/53 32/87/53
f 41/88/54 103/65/54 104/53/54
f 7/89/55 34/61/55 35/90/55
f 8/91/56 34/61/56 6/92/56
f 38/93/57 3/17/57 4/94/57
f 4/94/58 10/12/58 37/13/58
f 35/90/59 11/15/59 38/93/59
f 9/11/60 49/95/60 2/14/60
f 124/96/61 114/97/61 115/98/61
f 121/99/62 114/97/62 107/100/62
f 116/101/63 117/102/63 108/103/63
f 114/97/64 126/104/64 110/105/64
f 118/106/65 123/107/65 116/101/65
f 108/103/66 124/96/66 115/98/66
f 112/108/67 118/106/67 119/109/67
f 113/110/68 118/106/68 111/111/68
f 116/101/69 109/112/69 122/113/69
f 109/112/70 115/98/70 121/99/70
f 119/109/71 116/101/71 122/113/71
f 114/97/72 125/114/72 107/100/72
f 27/1/73 53/76/73 25/2/73
f 75/4/74 74/33/74 52/5/74
f 20/7/75 19/30/75 51/8/75
f 40/10/76 1/115/76 9/11/76
f 37/13/77 10/12/77 9/11/77
f 11/15/78 39/62/78 33/16/78
f 94/18/79 83/27/79 12/19/79
f 82/21/80 16/81/80 13/22/80
f 96/24/81 91/116/81 87/25/81
f 88/23/82 13/22/82 83/27/82
f 15/28/83 89/20/83 90/26/83
f 12/19/84 96/24/84 90/26/84
f 78/6/85 52/5/85 19/30/85
f 54/31/86 56/117/86 76/32/86
f 55/34/87 54/31/87 74/33/87
f 61/35/88 59/71/88 21/36/88
f 58/38/89 28/47/89 22/39/89
f 64/41/90 63/118/90 65/42/90
f 68/44/91 69/46/91 58/38/91
f 69/46/92 67/119/92 28/47/92
f 23/48/93 71/40/93 61/35/93
f 97/50/94 31/64/94 43/51/94
f 104/53/95 103/65/95 30/54/95
f 101/56/96 100/67/96 29/57/96
f 9/11/97 1/115/97 50/59/97
f 34/61/98 36/120/98 39/62/98
f 3/17/99 33/16/99 40/10/99
f 97/50/100 98/121/100 44/63/100
f 103/65/101 105/122/101 47/66/101
f 100/67/102 102/85/102 48/68/102
f 80/69/103 17/75/103 27/1/103
f 51/8/104 27/1/104 18/3/104
f 52/5/105 79/77/105 73/70/105
f 71/40/106 22/39/106 59/71/106
f 24/72/107 72/37/107 64/41/107
f 21/36/108 63/118/108 64/41/108
f 60/49/109 61/35/109 72/37/109
f 57/45/110 58/38/110 71/40/110
f 64/41/111 70/43/111 66/74/111
f 17/75/112 26/123/112 53/76/112
f 74/33/113 76/32/113 79/77/113
f 19/30/114 73/70/114 80/69/114
f 85/78/115 86/80/115 82/21/115
f 86/80/116 84/124/116 16/81/116
f 14/82/117 88/23/117 94/18/117
f 93/83/118 94/18/118 89/20/118
f 81/79/119 82/21/119 88/23/119
f 90/26/120 87/25/120 92/84/120
f 48/68/121 98/121/121 97/50/121
f 45/58/122 29/57/122 97/50/122
f 30/54/123 47/66/123 102/85/123
f 46/55/124 30/54/124 100/67/124
f 42/86/125 105/122/125 103/65/125
f 41/88/126 32/87/126 103/65/126
f 7/89/127 6/92/127 34/61/127
f 8/91/128 36/120/128 34/61/128
f 38/93/129 11/15/129 3/17/129
f 4/94/130 3/17/130 10/12/130
f 35/90/131 34/61/131 11/15/131
f 9/11/132 5/60/132 49/95/132
f 124/96/133 106/125/133 114/97/133
f 121/99/134 115/98/134 114/97/134
f 116/101/135 123/107/135 117/102/135
f 114/97/136 106/125/136 126/104/136
f 118/106/137 120/126/137 123/107/137
f 108/103/138 117/102/138 124/96/138
f 112/108/139 111/111/139 118/106/139
f 113/110/140 120/126/140 118/106/140
f 116/101/141 108/103/141 109/112/141
f 109/112/142 108/103/142 115/98/142
f 119/109/143 118/106/143 116/101/143
f 114/97/144 110/105/144 125/114/144
