# Blender v2.82 (sub 7) OBJ File: 'level.blend'
# www.blender.org
mtllib level1.mtl
g level1
v -1815.312866 -480.469269 120.199600
v -1547.915527 -773.620361 362.509186
v -1804.740723 -463.247223 339.792145
v -1853.747070 -936.021179 -149.672760
v -1836.562256 -871.556946 913.940002
v -1831.651733 -699.273621 781.772949
v -1749.664307 -981.272156 953.316772
v -1575.394775 -907.942139 73.927544
v -1742.889526 -699.630310 266.238342
v -1747.459717 -761.774902 459.743195
v -1814.268188 -377.134003 -153.038239
v -1791.245239 -263.915619 -317.315430
v -1780.847412 268.955200 -148.830841
v -1642.438110 241.430344 -518.839844
v -1786.897461 90.468857 -297.364319
v -1775.947266 324.328278 -82.644821
v -1760.903442 280.180298 88.353218
v -1759.635254 614.752319 -257.964111
v -1604.819458 911.897095 -723.647766
v -1512.464844 544.130981 -459.737366
v -1747.269409 -108.720085 700.764465
v -1747.705566 51.370045 578.181641
v -1675.848389 -284.160187 1382.931641
v -1840.372070 139.649048 251.192719
v -1716.522583 -858.353210 659.128235
v -1821.796021 -589.351196 594.389709
v -1694.744141 -1210.116821 916.427979
v -1800.117554 -567.665649 257.093018
v -1808.478271 -544.521179 414.726837
v -1830.797852 66.522690 344.642822
v -1807.872803 328.226624 343.061707
v -1841.100220 -308.227386 1132.129761
v -1657.516846 -78.771736 1399.213989
v -1817.749634 -192.164978 601.883789
v -1828.286987 -69.976089 436.020569
v -1826.174683 -651.494629 -78.690895
v -1746.558960 -1195.237915 -160.071121
v -1689.391846 338.534149 -442.175537
v -1714.801636 147.300964 -542.405701
v -1646.797729 980.273010 -395.759399
v -1805.990845 -112.645912 -737.424805
v -1809.011475 -110.182152 -534.428223
v -1708.817871 -606.571533 -1245.312988
v -1781.310547 297.608582 -185.855133
v -1520.501587 529.882751 -197.839767
v -1779.942749 220.227600 -33.239304
v -1480.711060 498.984436 18.312395
v -1784.954834 193.892197 219.498627
v -1638.274658 469.141479 343.341217
v -1639.273438 645.776917 615.752258
v -1769.525879 339.425232 520.496582
v -1622.777832 974.477295 -410.264862
v -1779.317017 425.968689 -309.086426
v -1767.145142 611.795837 -393.383759
v -1711.247925 450.383972 639.675293
v -1685.165405 529.811584 -59.623032
v -1545.330933 421.218048 106.583328
v -1550.679077 39.340603 -655.426697
v -1805.338989 -57.858971 -397.045776
v -1638.413940 59.355209 -1230.126831
v -1762.238525 249.842682 -324.726929
v -1790.300537 68.235069 -396.888611
v -1816.964478 -386.607239 -20.988403
v -1720.693359 -582.747681 -158.859207
v -1797.842773 -1208.000000 -159.142731
v -1820.333252 -481.874878 30.952242
v -1870.118042 -656.593994 15.087606
v -1684.358398 -160.147797 -1047.314453
v -1741.483521 -529.067078 -292.275116
v -1725.785767 -341.246460 -412.562317
v -1559.299072 -292.971497 -589.708862
v -1688.275269 -611.984497 -1247.863525
v -1802.676147 -84.013062 -663.396118
v -1809.250488 -299.250244 -180.973343
v -1521.825684 -502.541168 -414.403748
v -1801.096313 -104.912895 -301.824158
v -1712.941406 -143.781433 1018.150146
v -1849.240112 -319.042419 724.570129
v -1684.296997 3.682409 665.481262
v -1828.427856 -146.819199 441.524200
v -1711.616821 126.530312 492.362183
v -1837.384521 -42.923798 352.732819
v -1645.780029 645.713501 614.567627
v -1790.241943 -461.416870 435.276917
v -1509.355469 -506.473419 798.321411
v -1786.822144 -317.583435 508.006744
v -1778.044678 -1127.691162 763.347412
v -1766.735474 -102.156425 999.665161
v -1777.578735 -113.807228 811.003784
v -1678.610352 -128.863464 1107.848145
v -1549.467285 -854.712769 776.333130
v -1575.161987 -557.016418 678.583862
v -1708.666748 -408.518219 849.100403
v -1523.766724 -300.519806 941.444824
v -1785.455078 -195.256393 689.018738
v -1598.673340 -279.880371 1355.424438
v -1773.644409 -427.544464 515.680725
v -1786.679443 -301.413330 623.541016
v -1816.086060 -901.186035 567.960754
v -1649.782837 -1202.840210 905.953491
vt 0.500000 0.833333
vt 0.000000 1.000000
vt 0.000000 0.833333
vt 0.000000 0.166667
vt 0.500000 0.333333
vt 0.000000 0.333333
vt 0.500000 0.500000
vt 0.000000 0.666667
vt 0.000000 0.500000
vt 0.500000 0.666667
vt 0.000000 0.833333
vt 0.000000 0.666667
vt 0.500000 0.666667
vt 0.000000 0.833333
vt 0.000000 0.666667
vt 0.500000 0.000000
vt 1.000000 0.166667
vt 0.500000 0.166667
vt 0.000000 0.000000
vt 0.500000 0.500000
vt 0.500000 0.333333
vt 1.000000 0.000000
vt 0.000000 0.000000
vt 0.500000 0.166667
vt 0.000000 0.166667
vt 0.000000 0.333333
vt 0.500000 0.500000
vt 0.000000 0.500000
vt 0.500000 0.833333
vt 0.000000 1.000000
vt 0.000000 0.833333
vt 0.500000 0.166667
vt 0.000000 0.333333
vt 0.000000 0.166667
vt 0.500000 0.500000
vt 0.000000 0.666667
vt 0.000000 0.500000
vt 0.500000 0.833333
vt 0.500000 0.500000
vt 0.500000 0.166667
vt 1.000000 0.166667
vt 0.500000 0.666667
vt 0.000000 0.666667
vt 0.500000 0.833333
vt 0.000000 0.833333
vt 0.500000 0.666667
vt 0.500000 0.333333
vt 0.000000 1.000000
vt 0.000000 0.000000
vt 0.500000 0.166667
vt 0.000000 0.166667
vt 0.000000 0.500000
vt 0.000000 0.333333
vt 0.500000 0.833333
vt 0.000000 1.000000
vt 0.500000 0.666667
vt 0.500000 0.333333
vt 1.000000 0.000000
vt 0.500000 0.000000
vt 0.000000 0.000000
vt 0.000000 0.000000
vt 0.000000 0.166667
vt 1.000000 0.000000
vt 0.500000 0.000000
vt 0.000000 0.333333
vt 0.000000 0.500000
vt 0.500000 0.333333
vt 0.000000 1.000000
vt 0.500000 0.666667
vt 0.000000 0.833333
vt 0.000000 0.666667
vt 0.500000 0.833333
vt 0.500000 0.500000
vt 0.500000 0.333333
vt 0.000000 0.000000
vt 0.500000 0.166667
vt 0.000000 0.166667
vt 1.000000 0.000000
vt 0.500000 0.000000
vt 0.000000 0.333333
vt 0.000000 0.500000
vt 0.000000 1.000000
vt 1.000000 0.000000
vt 0.500000 1.000000
vt 1.000000 0.000000
vt 1.000000 1.000000
vt 0.500000 1.000000
vt 0.500000 0.000000
vt 0.500000 0.000000
vt 0.500000 1.000000
vt 1.000000 0.166667
vt 1.000000 1.000000
vt 0.500000 1.000000
vt 1.000000 1.000000
vt 0.500000 1.000000
vt 1.000000 1.000000
vt 1.000000 0.166667
vt 1.000000 1.000000
vt 0.500000 1.000000
vt 1.000000 1.000000
vn 0.9838 -0.1284 0.1252
vn 0.6501 0.1439 0.7461
vn 0.8495 -0.2804 0.4467
vn 0.7891 -0.3504 0.5044
vn 0.7290 -0.3293 0.6000
vn 0.8849 -0.3873 0.2587
vn 0.9165 -0.2167 0.3361
vn 0.8924 -0.2809 0.3532
vn 0.8742 -0.3623 0.3232
vn 0.7785 0.5495 -0.3032
vn 0.8735 0.4792 -0.0854
vn 0.9130 0.3870 -0.1290
vn 0.7583 0.4388 0.4821
vn 0.8268 0.3792 0.4154
vn 0.8788 0.2265 0.4200
vn 0.7106 -0.7016 0.0523
vn 0.9774 -0.1841 0.1043
vn 0.9497 -0.2473 0.1918
vn 0.5531 -0.8146 0.1744
vn 0.9277 0.0756 0.3654
vn 0.8028 0.0351 0.5951
vn 0.9359 -0.2276 0.2689
vn 0.5040 -0.5063 -0.6997
vn 0.9742 -0.2142 0.0712
vn 0.7735 -0.6288 -0.0795
vn 0.7575 -0.4050 -0.5119
vn 0.9014 0.2118 -0.3776
vn 0.6283 -0.7110 -0.3157
vn 0.9177 -0.3808 -0.1133
vn 0.6986 -0.6858 -0.2039
vn 0.8592 -0.4934 -0.1349
vn 0.9062 -0.2206 -0.3606
vn 0.9036 -0.2535 -0.3453
vn 0.8619 -0.3073 -0.4034
vn 0.9427 -0.2627 -0.2056
vn 0.8499 -0.4826 -0.2113
vn 0.8914 -0.2430 -0.3825
vn 0.9485 0.0614 -0.3107
vn 0.9642 0.2084 0.1641
vn 0.9006 0.3378 0.2736
vn 0.9706 -0.0574 -0.2336
vn 0.7846 -0.4006 0.4731
vn 0.6592 -0.7246 0.2008
vn 0.8018 -0.5371 0.2620
vn 0.8815 -0.4722 0.0053
vn 0.7534 -0.6167 0.2283
vn 0.9974 0.0343 -0.0634
vn 0.8050 -0.5641 0.1834
vn 0.8806 -0.0208 0.4733
vn 0.9818 0.0424 0.1848
vn 0.9279 0.2956 0.2273
vn 0.8490 0.2746 0.4513
vn 0.9409 0.2627 0.2138
vn 0.9033 0.4109 0.1227
vn 0.6431 0.7645 0.0440
vn 0.8545 -0.4929 -0.1639
vn 0.7114 -0.4812 -0.5122
vn 0.8641 0.0411 -0.5016
vn 0.8712 -0.1332 -0.4724
vn 0.7990 -0.2894 -0.5271
vn 0.8660 0.3556 0.3516
vn 0.9218 0.3545 0.1567
vn 0.8846 0.3863 0.2611
vn 0.7537 0.5342 0.3828
vn 0.7146 0.4444 0.5401
vn 0.8153 0.5790 -0.0071
vn 0.6597 0.5806 0.4772
vn 0.7224 0.3523 -0.5950
vn 0.8005 0.0436 -0.5977
vn 0.7538 0.1435 -0.6411
vn 0.7166 0.3171 -0.6211
vn 0.9300 -0.2280 -0.2881
vn 0.8869 0.2794 0.3677
vn 0.9726 0.1917 -0.1316
vn 0.6603 0.6891 -0.2985
vn 0.9669 -0.1328 -0.2175
vn 0.8461 0.2295 -0.4811
vn 0.7003 0.7093 -0.0800
vn 0.5990 0.7830 -0.1676
vn 0.7896 0.6017 -0.1204
vn 0.7438 0.4761 -0.4691
vn 0.6140 -0.3496 -0.7076
vn 0.9623 -0.0840 -0.2587
vn 0.9047 0.2256 0.3614
vn 0.9521 -0.1072 0.2864
vn 0.9738 -0.1220 -0.1915
vn 0.9340 0.3177 -0.1630
vn 0.7822 -0.1723 0.5987
vn 0.5249 -0.3110 -0.7923
vn 0.9260 -0.3110 -0.2138
vn 0.9857 0.0653 0.1555
vn 0.8595 -0.1045 -0.5004
vn 0.5999 0.2070 -0.7728
vn 0.9865 -0.1053 -0.1255
vn 0.8794 -0.4371 0.1888
vn 0.9938 0.0897 -0.0649
vn 0.9907 0.1307 0.0362
vn 0.8471 -0.3817 -0.3697
vn 0.5691 -0.4436 -0.6923
vn 0.9734 -0.1721 0.1509
usemtl MatDarker
s 1
f 20/1/1 18/2/2 13/3/3
f 59/4/4 39/5/5 62/6/6
f 14/7/7 61/8/8 15/9/9
f 9/10/10 1/11/11 28/12/12
f 70/13/13 76/14/14 12/15/15
f 62/6/6 14/7/7 15/9/9
f 41/16/16 60/17/17 58/18/18
f 42/19/19 58/18/18 59/4/4
f 75/20/20 69/21/21 65/22/22
f 53/23/23 45/24/24 44/25/25
f 16/26/26 47/27/27 46/28/28
f 77/29/29 32/30/30 78/31/31
f 81/32/32 35/33/33 82/34/34
f 79/35/35 34/36/36 80/37/37
f 8/38/38 2/39/39 25/40/40
f 83/41/41 77/29/29 79/35/35
f 38/42/42 13/3/3 61/8/8
f 17/43/43 49/44/44 48/45/45
f 46/28/28 57/46/46 17/43/43
f 44/25/25 56/47/47 16/26/26
f 49/44/44 51/48/48 48/45/45
f 58/18/18 60/17/17 14/7/7
f 66/49/49 64/50/50 63/51/51
f 69/21/21 74/52/52 11/53/53
f 74/52/52 70/13/13 12/15/15
f 64/50/50 11/53/53 63/51/51
f 71/54/54 73/55/55 76/14/14
f 21/56/56 78/31/31 34/36/36
f 22/57/57 80/37/37 35/33/33
f 31/58/58 81/32/32 24/59/59
f 30/60/60 81/32/32 82/34/34
f 6/61/61 25/40/40 26/62/62
f 7/63/63 25/40/40 5/64/64
f 29/65/65 2/39/39 3/66/66
f 3/66/66 9/10/10 28/12/12
f 26/62/62 10/67/67 29/65/65
f 8/38/38 36/68/68 1/11/11
f 92/69/69 84/70/70 97/71/71
f 91/72/72 85/73/73 93/74/74
f 89/75/75 94/76/76 95/77/77
f 90/78/78 94/76/76 88/79/79
f 98/80/80 85/73/73 86/81/81
f 86/81/81 92/69/69 97/71/71
f 95/77/77 93/74/74 98/80/80
f 91/72/72 99/82/82 84/70/70
f 56/47/47 45/24/24 52/83/83
f 20/1/1 40/84/84 18/2/2
f 59/4/4 58/18/18 39/5/5
f 14/7/7 38/42/42 61/8/8
f 9/10/10 8/38/38 1/11/11
f 70/13/13 71/54/54 76/14/14
f 62/6/6 39/5/5 14/7/7
f 41/16/16 43/85/85 60/17/17
f 42/19/19 41/16/16 58/18/18
f 65/22/22 72/86/86 75/20/20
f 72/86/86 68/87/87 71/54/54
f 75/20/20 72/86/86 71/54/54
f 71/54/54 70/13/13 75/20/20
f 64/50/50 67/88/88 65/22/22
f 69/21/21 64/50/50 65/22/22
f 53/23/23 54/89/89 45/24/24
f 16/26/26 56/47/47 47/27/27
f 77/29/29 23/90/90 32/30/30
f 81/32/32 22/57/57 35/33/33
f 79/35/35 21/56/56 34/36/36
f 25/40/40 27/91/91 8/38/38
f 27/91/91 37/92/92 8/38/38
f 37/92/92 4/93/93 8/38/38
f 8/38/38 9/10/10 2/39/39
f 2/39/39 10/67/67 25/40/40
f 83/41/41 33/94/94 77/29/29
f 33/94/94 23/90/90 77/29/29
f 77/29/29 21/56/56 79/35/35
f 22/57/57 81/32/32 79/35/35
f 81/32/32 83/41/41 79/35/35
f 38/42/42 20/1/1 13/3/3
f 17/43/43 57/46/46 49/44/44
f 46/28/28 47/27/27 57/46/46
f 44/25/25 45/24/24 56/47/47
f 49/44/44 55/95/95 51/48/48
f 60/17/17 19/96/96 14/7/7
f 19/96/96 40/84/84 20/1/1
f 20/1/1 38/42/42 14/7/7
f 19/96/96 20/1/1 14/7/7
f 39/5/5 58/18/18 14/7/7
f 66/49/49 67/88/88 64/50/50
f 69/21/21 75/20/20 74/52/52
f 74/52/52 75/20/20 70/13/13
f 64/50/50 69/21/21 11/53/53
f 71/54/54 68/87/87 73/55/55
f 21/56/56 77/29/29 78/31/31
f 22/57/57 79/35/35 80/37/37
f 31/58/58 83/41/41 81/32/32
f 30/60/60 24/59/59 81/32/32
f 6/61/61 5/64/64 25/40/40
f 7/63/63 27/91/91 25/40/40
f 29/65/65 10/67/67 2/39/39
f 3/66/66 2/39/39 9/10/10
f 26/62/62 25/40/40 10/67/67
f 8/38/38 4/93/93 36/68/68
f 92/69/69 91/72/72 84/70/70
f 94/76/76 96/97/97 93/74/74
f 96/97/97 100/98/98 91/72/72
f 93/74/74 96/97/97 91/72/72
f 100/98/98 87/99/99 91/72/72
f 91/72/72 92/69/69 85/73/73
f 89/75/75 88/79/79 94/76/76
f 90/78/78 96/97/97 94/76/76
f 98/80/80 93/74/74 85/73/73
f 86/81/81 85/73/73 92/69/69
f 95/77/77 94/76/76 93/74/74
f 91/72/72 87/99/99 99/82/82
f 52/83/83 50/100/100 56/47/47
f 50/100/100 55/95/95 49/44/44
f 49/44/44 57/46/46 47/27/27
f 50/100/100 49/44/44 47/27/27
f 56/47/47 50/100/100 47/27/27
f 45/24/24 54/89/89 52/83/83
