# Blender v2.82 (sub 7) OBJ File: 'enemy.blend'
# www.blender.org
mtllib boom1.mtl
g boom1
v -0.000002 10.470626 43.702877
v 0.000002 -29.271111 22.360432
v -0.000002 35.858654 -15.974281
v 0.000002 -8.707348 -27.118166
v 1.427241 15.160127 1.918155
v -0.000002 22.106777 14.884783
v -0.000002 10.772401 15.864618
v 1.173874 -14.923561 1.637335
v 0.000002 -42.979702 -17.648705
v 0.000002 -8.866852 -11.290638
v 1.444775 1.202459 14.239492
v 0.135974 -6.400321 23.702299
v 1.337985 -8.275482 14.762593
v 1.615906 1.370793 -14.043097
v 0.000000 7.767055 -19.994974
v 0.001462 12.005729 -10.358028
v 5.582625 -8.435308 4.050965
v 5.136713 -3.199567 8.359684
v 5.821805 3.619123 6.420433
v 5.205047 -10.074615 -3.178974
v 5.229440 7.827176 2.425112
v 5.625552 -5.450665 -8.047417
v 5.282385 3.195758 -7.854335
v 5.685779 7.491478 -4.771030
v -0.106814 12.191275 53.264446
v -0.106809 -36.239365 27.166121
v -0.106814 44.485363 -20.347628
v -0.106809 -10.751722 -34.159855
v 1.662174 18.830688 1.829053
v -0.106814 27.440676 17.900469
v -0.106814 13.392346 19.114920
v 1.348140 -18.456373 1.480993
v -0.106809 -53.230404 -22.422983
v -0.106809 -10.949418 -14.542511
v 1.683906 -0.595736 20.645115
v 0.061720 -7.892290 28.829290
v 1.551546 -10.216449 17.749022
v 1.896014 1.739573 -17.954031
v -0.106812 9.667385 -25.331055
v -0.105000 14.920988 -13.386595
v 5.536944 -5.844407 2.590230
v 5.239069 -2.355028 5.476054
v 5.693226 2.159905 4.112113
v 5.282752 -7.028594 -2.260171
v 5.301367 5.003006 1.505226
v 5.565848 -3.860488 -5.492013
v 5.337422 1.896541 -5.316407
v 5.606592 4.808542 -3.310272
v -0.000002 10.772401 15.864618
v -0.000002 10.470626 43.702877
v 1.337985 -8.275482 14.762593
v 0.000002 -29.271111 22.360432
v 0.000002 -8.866852 -11.290638
v 0.000002 -8.707348 -27.118166
v 0.001462 12.005729 -10.358028
v -0.000002 35.858654 -15.974281
v 1.427241 15.160127 1.918155
v -0.000002 22.106777 14.884783
v 1.173874 -14.923561 1.637335
v 0.000002 -42.979702 -17.648705
v 1.444775 1.202459 14.239492
v 0.135974 -6.400321 23.702299
v 1.615906 1.370793 -14.043097
v 0.000000 7.767055 -19.994974
v 5.582625 -8.435308 4.050965
v 5.136713 -3.199567 8.359684
v 5.821805 3.619123 6.420433
v 5.625552 -5.450665 -8.047417
v 5.282385 3.195758 -7.854335
v 5.685779 7.491478 -4.771030
v 5.229440 7.827176 2.425112
v 5.205047 -10.074615 -3.178974
vt 0.371617 0.238694
vt 0.624574 0.209878
vt 0.624795 0.213821
vt 0.629153 0.214798
vt 0.372129 0.237425
vt 0.505929 0.163797
vt 0.396695 0.119607
vt 0.490651 -0.003046
vt 0.595472 0.114303
vt 0.276438 0.372731
vt 0.373920 0.241386
vt 0.649533 0.151455
vt 0.527784 0.348882
vt 0.591385 0.117395
vt 0.597310 0.113842
vt 0.721623 0.200249
vt 0.646108 0.153753
vt 0.533811 0.348182
vt 0.723204 0.200687
vt 0.647821 0.153099
vt 0.719209 0.198796
vt 0.480344 0.978318
vt 0.483853 0.965008
vt 0.483853 0.965008
vt 0.465696 0.979715
vt 0.465696 0.979715
vt 0.480001 0.978358
vt 0.486929 0.967122
vt 0.486929 0.967122
vt 0.471244 0.972240
vt 0.471244 0.972240
vt 0.491032 0.969899
vt 0.491032 0.969899
vt 0.480244 0.978267
vt 0.471142 0.972015
vt 0.471142 0.972015
vt 0.480001 0.978358
vt 0.485770 0.970727
vt 0.485770 0.970727
vt 0.465352 0.979386
vt 0.465352 0.979386
vt 0.480244 0.978267
vt 0.479999 0.978092
vt 0.485509 0.970447
vt 0.485509 0.970447
vt 0.471113 0.972087
vt 0.471113 0.972087
vt 0.479999 0.978092
vt 0.490895 0.969816
vt 0.490895 0.969816
vt 0.486735 0.967253
vt 0.480344 0.978318
vt 0.486735 0.967253
vt 0.491122 0.969924
vt 0.486832 0.967216
vt 0.491122 0.969924
vt 0.483957 0.964981
vt 0.483620 0.965184
vt 0.483957 0.964981
vt 0.477887 0.958329
vt 0.477887 0.958329
vt 0.486832 0.967216
vt 0.485522 0.970671
vt 0.485522 0.970671
vt 0.478757 0.967824
vt 0.483620 0.965184
vt 0.472540 0.965310
vt 0.478757 0.967824
vt 0.472540 0.965310
vt 0.527752 0.344214
vt 0.532069 0.347294
vt 0.270379 0.366958
vn 0.8649 -0.1862 -0.4660
vn 0.8928 -0.1619 -0.4202
vn 0.7045 -0.3540 -0.6151
vn 0.9311 -0.3135 0.1863
vn 0.8925 -0.3816 0.2403
vn 0.8159 -0.5167 0.2593
vn 0.9215 -0.3639 -0.1351
vn 0.9174 0.3806 0.1157
vn 0.9165 0.3787 -0.1289
vn 0.9631 0.1725 0.2065
vn 0.9630 0.1109 0.2454
vn 0.9228 0.1546 0.3529
vn 0.9888 0.1490 0.0016
vn 0.9155 -0.0605 0.3976
vn 0.8939 0.2067 0.3976
vn 0.9525 -0.0425 0.3016
vn 0.9153 0.3300 -0.2306
vn 0.9937 -0.0255 -0.1088
vn 0.8690 0.1789 -0.4612
vn 0.8197 0.4771 -0.3170
vn 0.9208 0.2324 -0.3131
vn 0.9941 -0.0388 -0.1007
vn 0.9977 -0.0644 -0.0216
vn 0.9976 -0.0632 0.0268
vn 0.9958 -0.0288 0.0863
vn 0.9960 -0.0278 0.0844
vn 0.9919 0.1263 -0.0113
vn 0.9937 -0.0938 -0.0607
vn 0.9973 -0.0521 -0.0519
vn 0.9996 0.0227 0.0147
vn 0.9997 0.0182 0.0182
vn 0.9993 -0.0380 -0.0003
vn 0.9998 -0.0198 0.0087
vn 0.9988 -0.0368 -0.0311
vn 0.9980 0.0509 -0.0374
vn 0.9988 0.0490 0.0063
vn 0.9921 0.1247 -0.0114
vn 0.9979 0.0544 -0.0360
vn 0.9968 0.0776 -0.0208
vn 0.9955 0.0313 -0.0896
vn 0.9966 0.0262 -0.0786
vn 0.9997 -0.0220 -0.0097
vn 0.9906 -0.1343 0.0240
vn 0.9954 0.0567 0.0766
vn 0.9955 0.0564 0.0766
vn 0.9995 -0.0231 -0.0180
vn 0.9996 -0.0169 -0.0220
vn 0.9887 -0.1469 0.0276
vn 0.9812 0.1870 0.0469
vn 0.9884 0.1483 0.0330
vn 0.9995 0.0048 -0.0305
vn 0.9940 -0.0393 -0.1018
vn 0.9996 0.0133 -0.0223
vn 0.9995 -0.0145 -0.0291
vn 0.9996 -0.0262 0.0060
vn 0.9997 -0.0046 -0.0240
vn 0.9988 -0.0192 -0.0435
vn 0.9992 -0.0296 0.0268
vn 0.9989 -0.0238 -0.0406
vn 0.9994 0.0308 -0.0165
vn 0.9995 0.0284 -0.0089
vn 0.9998 0.0033 0.0213
vn 0.9996 -0.0057 0.0269
vn 0.9998 0.0164 -0.0021
vn 0.9993 -0.0214 0.0292
vn 0.9997 -0.0251 -0.0014
vn 0.9998 0.0179 0.0006
vn 0.9997 -0.0256 0.0003
vn 0.9877 -0.1563 -0.0016
vn 0.9982 -0.0576 0.0167
vn 0.9864 -0.0984 -0.1311
usemtl boom
s 1
f 53/1/1 63/2/2 68/3/3
f 51/4/4 59/5/5 65/6/6
f 59/5/5 72/7/7 65/6/6
f 72/7/7 53/1/1 68/3/3
f 71/8/8 57/9/9 58/10/10
f 49/11/11 71/8/8 58/10/10
f 61/12/12 49/11/11 50/13/13
f 61/12/12 66/14/14 67/15/15
f 51/4/4 66/14/14 62/16/16
f 57/9/9 55/17/17 56/18/18
f 69/19/19 55/17/17 70/20/20
f 69/19/19 63/2/2 64/21/21
f 3/22/22 29/23/23 5/24/24
f 6/25/25 29/23/23 30/26/26
f 1/27/27 35/28/28 11/29/29
f 6/25/25 31/30/30 7/31/31
f 12/32/32 35/28/28 36/33/33
f 2/34/34 32/35/35 8/36/36
f 1/27/27 31/30/30 25/37/37
f 12/32/32 37/38/38 13/39/39
f 9/40/40 32/35/35 33/41/41
f 2/34/34 37/38/38 26/42/42
f 4/43/43 38/44/44 14/45/45
f 9/40/40 34/46/46 10/47/47
f 4/43/43 34/46/46 28/48/48
f 15/49/49 38/44/44 39/50/50
f 3/22/22 40/51/51 27/52/52
f 15/49/49 40/51/51 16/53/53
f 23/54/54 48/55/55 47/56/56
f 19/57/57 42/58/58 43/59/59
f 19/57/57 45/60/60 21/61/61
f 21/61/61 48/55/55 24/62/55
f 23/54/54 46/63/62 22/64/63
f 17/65/64 42/58/58 18/66/65
f 17/65/64 44/67/66 41/68/67
f 22/64/63 44/67/66 20/69/68
f 53/1/1 54/70/69 63/2/2
f 51/4/4 52/71/70 59/5/5
f 59/5/5 60/72/71 72/7/7
f 72/7/7 60/72/71 53/1/1
f 71/8/8 70/20/20 57/9/9
f 49/11/11 67/15/15 71/8/8
f 61/12/12 67/15/15 49/11/11
f 61/12/12 62/16/16 66/14/14
f 51/4/4 65/6/6 66/14/14
f 57/9/9 70/20/20 55/17/17
f 69/19/19 64/21/21 55/17/17
f 69/19/19 68/3/3 63/2/2
f 3/22/22 27/52/52 29/23/23
f 6/25/25 5/24/24 29/23/23
f 1/27/27 25/37/37 35/28/28
f 6/25/25 30/26/26 31/30/30
f 12/32/32 11/29/29 35/28/28
f 2/34/34 26/42/42 32/35/35
f 1/27/27 7/31/31 31/30/30
f 12/32/32 36/33/33 37/38/38
f 9/40/40 8/36/36 32/35/35
f 2/34/34 13/39/39 37/38/38
f 4/43/43 28/48/48 38/44/44
f 9/40/40 33/41/41 34/46/46
f 4/43/43 10/47/47 34/46/46
f 15/49/49 14/45/45 38/44/44
f 3/22/22 16/53/53 40/51/51
f 15/49/49 39/50/50 40/51/51
f 23/54/54 24/62/55 48/55/55
f 19/57/57 18/66/65 42/58/58
f 19/57/57 43/59/59 45/60/60
f 21/61/61 45/60/60 48/55/55
f 23/54/54 47/56/56 46/63/62
f 17/65/64 41/68/67 42/58/58
f 17/65/64 20/69/68 44/67/66
f 22/64/63 46/63/62 44/67/66
