# Blender v2.82 (sub 7) OBJ File: 'enemy.blend'
# www.blender.org
mtllib boom3.mtl
g boom3
v -0.000002 10.128761 40.762840
v 0.000002 -37.612595 28.719103
v -0.000002 42.012211 -23.016685
v 0.000002 -19.647003 -36.895485
v 1.427241 25.074190 3.559103
v -0.000002 39.883717 17.961561
v -0.000002 19.182261 20.924208
v 0.000002 -45.498013 -16.137392
v 0.135974 -6.537066 45.376488
v 1.337985 -11.625751 22.488726
v 1.615906 1.165674 -19.718042
v 0.000000 7.698682 -37.019814
v 0.001462 13.509932 -16.306467
v 5.555078 -32.925148 -6.620352
v 5.198194 -5.034522 14.051913
v 5.742319 -1.316944 19.146639
v 5.250529 -23.009491 -6.643911
v 5.272831 23.695957 13.319246
v 5.589706 -28.086798 -13.158528
v 5.316029 4.683290 -9.501419
v 5.638522 9.240653 -11.146814
v 1.444775 6.467167 30.854092
v 5.742319 7.776645 26.599277
v 5.638522 17.171902 5.194294
v 0.001462 25.270061 -17.605551
v 5.638521 22.573359 -10.941696
v 1.427241 28.834696 -9.910346
v 1.173874 -27.025557 11.004415
v 5.555077 -8.513854 11.579951
v 0.000002 -13.721324 -19.153515
v 5.589706 0.631988 -14.581231
v 5.742319 13.314845 14.839150
v -0.000002 9.610062 28.171728
v 1.337985 -20.856087 21.599876
v 5.555078 -20.820967 11.990189
v 5.589706 -9.487194 -16.427298
v 1.615906 -8.543269 -23.752041
v 0.135974 -6.467508 52.628914
v 5.742319 1.389482 18.719309
v 5.198194 -4.702154 10.490826
v 5.555078 -9.700883 8.588637
v 1.337985 -14.332178 22.678650
v 1.337985 -19.194246 23.499125
v 5.555078 -18.731796 9.426206
v 1.173874 -28.734877 8.915243
v 0.000002 -41.696354 32.552540
v 1.444775 4.093109 32.183563
v -0.000002 11.794196 26.652332
v 5.742319 7.254352 23.940332
v -0.000002 11.363272 45.938290
v -0.000002 9.610062 28.171728
v -0.000002 10.128761 40.762840
v 1.337985 -20.856087 21.599876
v 0.000002 -37.612595 28.719103
v 1.173874 -27.025557 11.004415
v 1.444775 6.467167 30.854092
v 0.135974 -6.537066 45.376488
v 1.337985 -11.625751 22.488726
v 5.555078 -20.820967 11.990189
v 5.555077 -8.513854 11.579951
v 5.198194 -5.034522 14.051913
v 5.742319 -1.316944 19.146639
v 5.742319 7.776645 26.599277
v 5.272831 19.802500 11.704886
v 5.638522 13.278445 3.579934
v 5.742319 9.421388 13.224791
v 1.427241 25.311594 1.374969
v -0.000002 17.947750 23.155823
v -0.000002 45.249088 19.480959
v 1.427241 25.074190 3.559103
v -0.000002 39.883717 17.961561
v -0.000002 19.182261 20.924208
v 5.742319 13.314845 14.839150
v 5.638522 17.171902 5.194294
v 5.272831 23.695957 13.319246
v 1.427241 30.021725 -7.272502
v 0.001462 22.994921 -20.507177
v 5.638521 19.506866 -9.457910
v -0.000002 45.771137 -25.687502
v 0.001462 16.378586 -16.537277
v 5.589706 -2.203693 -14.877988
v 1.615906 -1.867845 -20.179665
v 5.316029 4.155721 -5.544654
v 5.638521 10.757413 -8.739783
v 0.000000 7.797601 -41.174416
v 1.615906 -6.268130 -25.136909
v 0.000002 -16.425114 -17.405945
v 5.589706 -7.640704 -11.811073
v 0.000002 -21.493494 -40.852249
v 0.000002 -13.721324 -19.153515
v 0.000002 -19.647003 -36.895485
v 0.001462 25.270061 -17.605551
v -0.000002 42.012211 -23.016685
v 1.427241 28.834696 -9.910346
v 1.615906 -8.543269 -23.752041
v 1.615906 1.165674 -19.718042
v 0.000000 7.698682 -37.019814
v 0.001462 13.509932 -16.306467
v 5.589706 -9.487194 -16.427298
v 5.589706 0.631988 -14.581231
v 5.316029 4.683290 -9.501419
v 5.638522 9.240653 -11.146814
v 5.638521 22.573359 -10.941696
v 5.250529 -18.661631 -4.515319
v 5.589706 -26.965715 -16.126102
v 5.555078 -34.079201 -3.883590
v 0.000002 -48.894238 -17.588205
v 5.250529 -23.009491 -6.643911
v 5.589706 -28.086798 -13.158528
v 5.555078 -32.925148 -6.620352
v 0.000002 -45.498013 -16.137392
vt 0.360364 0.457333
vt 0.620274 0.373799
vt 0.620501 0.385230
vt 0.624979 0.388064
vt 0.360890 0.453656
vt 0.498367 0.240218
vt 0.498367 0.240218
vt 0.256343 0.829155
vt 0.386131 0.112117
vt 0.620501 0.385230
vt 0.481693 0.051139
vt 0.590372 0.096742
vt 0.262568 0.845890
vt 0.362730 0.465139
vt 0.645919 0.204441
vt 0.362730 0.465139
vt 0.520824 0.776753
vt 0.799092 0.606629
vt 0.586173 0.105706
vt 0.592260 0.095405
vt 0.624979 0.388064
vt 0.590372 0.096742
vt 0.642400 0.211102
vt 0.527016 0.774724
vt 0.800716 0.607898
vt 0.642400 0.211102
vt 0.644160 0.209205
vt 0.620274 0.373799
vt 0.796612 0.602417
vt 0.565563 0.959543
vt 0.417082 0.957337
vt 0.625891 0.959534
vt 0.392336 0.959745
vt 0.453638 0.961521
vt 0.362795 0.959892
vt 0.445560 0.960278
vt 0.431101 0.958456
vt 0.388737 0.967908
vt 0.339093 0.970797
vt 0.300380 0.970692
vt 0.314129 0.972418
vt 0.282009 0.973009
vt 0.440346 0.975140
vt 0.438361 0.973942
vt 0.670139 0.971393
vt 0.720134 0.971395
vt 0.393663 0.969111
vt 0.616655 0.967423
vt 0.499353 0.969066
vt 0.514681 0.968120
vt 0.649002 0.968074
vt 0.608173 0.964284
vt 0.626541 0.963346
vt 0.397113 0.961610
vt 0.358870 0.960529
vt 0.746059 0.973146
vt 0.635492 0.973674
vt 0.635492 0.973674
vt 0.797959 0.971788
vt 0.797959 0.971788
vt 0.416367 0.964194
vt 0.153799 0.974284
vt 0.153799 0.974284
vt 0.744171 0.973130
vt 0.153799 0.974284
vt 0.516529 0.968736
vt 0.470681 0.970770
vt 0.548238 0.963850
vt 0.470681 0.970770
vt 0.581908 0.977795
vt 0.470681 0.970770
vt 0.470681 0.970770
vt 0.470681 0.970770
vt 0.593798 0.969436
vt 0.470681 0.970770
vt 0.470681 0.970770
vt 0.559004 0.967729
vt 0.470681 0.970770
vt 0.594620 0.969479
vt 0.559930 0.967965
vt 0.470681 0.970770
vt 0.548238 0.963850
vt 0.548221 0.963920
vt 0.559930 0.967965
vt 0.470681 0.970770
vt 0.470681 0.970770
vt 0.580408 0.977663
vt 0.470681 0.970770
vt 0.470681 0.970770
vt 0.541004 0.974052
vt 0.420702 0.970831
vt 0.489049 0.975520
vt 0.420702 0.970831
vt 0.523653 0.971465
vt 0.586142 0.973009
vt 0.420702 0.970831
vt 0.420702 0.970831
vt 0.520790 0.763222
vt 0.525226 0.772151
vt 0.644160 0.209205
vt 0.592260 0.095405
vt 0.592260 0.095405
vt 0.498367 0.240218
vt 0.644160 0.209205
vt 0.620501 0.385230
vt 0.746059 0.973146
vt 0.548221 0.963920
vt 0.534243 0.962431
vt 0.470681 0.970770
vt 0.559004 0.967729
vt 0.553578 0.972189
vn 0.8718 -0.4480 -0.1981
vn 0.9071 -0.3998 -0.1314
vn 0.6686 -0.5994 -0.4400
vn 0.9621 -0.2417 0.1258
vn 0.9243 -0.3357 0.1812
vn 0.7472 -0.5793 0.3258
vn 0.8488 0.0248 -0.5282
vn 0.9750 -0.1646 -0.1493
vn 0.9776 -0.1955 -0.0776
vn 0.8885 -0.3383 0.3099
vn 0.9428 0.2695 0.1959
vn 0.8747 0.3884 -0.2898
vn 0.9509 0.2629 0.1634
vn 0.7865 0.1064 0.6084
vn 0.7780 0.5745 0.2541
vn 0.6863 0.6283 0.3665
vn 0.9138 0.4058 -0.0167
vn 0.9256 -0.3545 0.1326
vn 0.9425 -0.2343 0.2381
vn 0.9365 -0.3232 0.1358
vn 0.9270 -0.3399 0.1586
vn 0.9179 0.2667 -0.2936
vn 0.9456 0.1905 -0.2634
vn 0.9859 -0.0513 -0.1589
vn 0.8783 0.1559 -0.4520
vn 0.9022 0.3593 -0.2385
vn 0.4918 -0.3262 -0.8072
vn 0.9419 -0.1935 -0.2745
vn 0.9739 0.1484 -0.1718
vn 0.9863 0.1619 -0.0327
vn 0.8020 0.4449 0.3984
vn 0.9834 0.1763 -0.0420
vn 0.9813 0.0752 0.1772
vn 0.9430 0.1240 0.3088
vn 0.9352 0.3473 -0.0682
vn 0.8085 0.2875 0.5134
vn 0.8730 0.2785 0.4003
vn 0.9971 -0.0168 0.0740
vn 0.9997 -0.0205 -0.0104
vn 0.9990 0.0432 -0.0062
vn 0.9891 -0.1269 0.0743
vn 0.9890 -0.1376 0.0546
vn 0.9823 -0.0073 0.1868
vn 0.9754 0.0154 0.2198
vn 0.9778 -0.2091 0.0067
vn 0.9695 -0.2452 0.0023
vn 0.9984 0.0088 0.0557
vn 0.9972 -0.0687 -0.0278
vn 0.9746 -0.1472 0.1688
vn 0.9363 -0.2642 0.2312
vn 0.9853 -0.1664 -0.0382
vn 0.9560 -0.2546 0.1454
vn 0.9658 -0.1970 0.1683
vn 1.0000 -0.0045 -0.0005
vn 0.9998 -0.0121 -0.0129
vn 0.9533 -0.0894 0.2883
vn 1.0000 0.0025 -0.0060
vn 0.9999 0.0038 -0.0092
vn 0.9767 0.1008 -0.1895
vn 0.9585 0.1092 -0.2634
vn 0.9984 -0.0141 0.0546
vn 0.9568 0.2898 -0.0237
vn 0.9980 -0.0171 0.0605
vn 0.9625 0.2696 0.0293
vn 0.9472 0.2380 0.2148
vn 0.9618 0.2394 0.1325
vn 0.9540 0.1909 -0.2312
vn 0.9954 0.0882 -0.0380
vn 0.9972 -0.0324 -0.0671
vn 0.9933 -0.0652 -0.0950
vn 0.9957 -0.0535 -0.0754
vn 0.9557 0.2871 -0.0646
vn 0.9616 -0.0220 -0.2735
vn 0.9966 0.0819 -0.0005
vn 0.9956 0.0932 0.0022
vn 0.9264 0.0621 -0.3713
vn 0.9381 0.0485 -0.3428
vn 0.9156 0.0519 -0.3986
vn 0.9999 -0.0080 0.0068
vn 0.9749 0.0232 -0.2214
vn 0.9615 0.1949 -0.1938
vn 0.9456 0.2753 -0.1735
vn 0.9400 0.0177 -0.3406
vn 0.9939 -0.0760 -0.0795
vn 0.9703 -0.0766 -0.2293
vn 0.9775 -0.1957 0.0783
vn 0.9947 -0.0939 0.0412
vn 0.9910 -0.1213 0.0566
vn 0.9312 -0.2858 -0.2260
vn 0.9024 -0.2338 -0.3618
vn 0.9878 -0.1526 -0.0298
vn 0.9997 -0.0179 -0.0186
vn 0.9995 0.0118 -0.0277
vn 1.0000 0.0020 0.0047
vn 0.9934 -0.1071 -0.0405
vn 0.9870 -0.1351 -0.0868
vn 1.0000 -0.0018 0.0038
vn 0.9693 -0.2333 0.0779
vn 0.9973 -0.0691 0.0248
vn 0.8690 0.4041 -0.2853
vn 0.7790 0.1252 0.6144
vn 0.3877 0.6950 0.6055
vn 0.9366 -0.1340 0.3238
vn 0.7315 0.5568 -0.3934
vn 0.6590 0.6049 -0.4469
vn 0.9318 -0.1390 0.3353
vn 0.9314 0.2864 -0.2246
vn 0.9262 0.3437 -0.1547
vn 0.9999 -0.0147 -0.0020
vn 0.9294 -0.1918 -0.3151
vn 0.9889 -0.1369 -0.0577
usemtl boom
s 1
f 90/1/1 95/2/2 99/3/3
f 53/4/4 55/5/5 59/6/6
f 110/7/7 111/8/8 108/9/9
f 108/9/9 111/8/8 109/10/10
f 75/11/11 70/12/12 71/13/13
f 72/14/14 75/11/11 71/13/13
f 56/15/15 51/16/16 52/17/17
f 57/18/18 61/19/19 62/20/20
f 58/21/21 61/19/19 57/18/18
f 94/22/22 92/23/23 93/24/24
f 101/25/25 98/26/26 102/27/27
f 101/25/25 96/28/28 97/29/29
f 1/30/30 48/31/31 50/32/32
f 23/33/33 47/34/34 49/35/35
f 1/30/30 47/34/34 22/36/36
f 23/33/33 48/31/31 33/37/37
f 39/38/38 15/39/39 40/40/40
f 40/40/40 29/41/41 41/42/42
f 42/43/43 29/41/41 10/44/44
f 42/43/43 9/45/45 38/46/46
f 39/38/38 9/45/45 16/47/47
f 35/48/48 43/49/49 34/50/50
f 44/51/51 28/52/52 45/53/53
f 45/53/53 2/54/54 46/55/55
f 2/54/54 43/49/49 46/55/55
f 32/56/56 64/57/57 18/58/58
f 24/59/59 64/57/57 65/60/60
f 6/61/61 67/62/62 69/63/63
f 24/59/59 67/62/62 5/64/64
f 68/65/65 32/56/56 7/66/66
f 6/61/61 68/65/65 7/66/66
f 77/67/67 26/68/68 78/69/69
f 3/70/70 77/67/67 79/71/71
f 76/72/72 3/70/70 79/71/71
f 26/68/68 76/72/72 78/69/69
f 80/73/73 12/74/74 85/75/75
f 12/74/74 82/76/76 85/75/75
f 11/77/77 81/78/78 82/76/76
f 20/79/79 81/78/78 31/80/80
f 84/81/81 20/79/79 21/82/82
f 13/83/83 84/81/81 21/82/82
f 36/84/84 86/85/85 88/86/86
f 86/85/85 4/87/87 89/88/88
f 4/87/87 87/89/89 89/88/88
f 36/84/84 87/89/89 30/90/90
f 105/91/91 8/92/92 107/93/93
f 105/91/91 17/94/94 19/95/95
f 106/96/96 17/94/94 104/97/97
f 8/92/92 106/96/96 107/93/93
f 90/1/1 91/98/98 95/2/2
f 53/4/4 54/99/99 55/5/5
f 75/11/11 74/100/100 70/12/12
f 72/14/14 73/101/101 75/11/11
f 56/15/15 63/102/102 51/16/16
f 58/21/21 60/103/103 61/19/19
f 94/22/22 103/104/104 92/23/23
f 101/25/25 97/29/29 98/26/26
f 101/25/25 100/105/105 96/28/28
f 1/30/30 33/37/37 48/31/31
f 23/33/33 22/36/36 47/34/34
f 1/30/30 50/32/32 47/34/34
f 23/33/33 49/35/35 48/31/31
f 39/38/38 16/47/47 15/39/39
f 40/40/40 15/39/39 29/41/41
f 42/43/43 41/42/42 29/41/41
f 42/43/43 10/44/44 9/45/45
f 39/38/38 38/46/46 9/45/45
f 35/48/48 44/51/51 43/49/49
f 44/51/51 35/48/48 28/52/52
f 45/53/53 28/52/52 2/54/54
f 2/54/54 34/50/50 43/49/49
f 32/56/56 66/106/106 64/57/57
f 24/59/59 18/58/58 64/57/57
f 6/61/61 5/64/64 67/62/62
f 24/59/59 65/60/60 67/62/62
f 68/65/65 66/106/106 32/56/56
f 6/61/61 69/63/63 68/65/65
f 77/67/67 25/107/107 26/68/68
f 3/70/70 25/107/107 77/67/67
f 76/72/72 27/108/108 3/70/70
f 26/68/68 27/108/108 76/72/72
f 80/73/73 13/83/83 12/74/74
f 12/74/74 11/77/77 82/76/76
f 11/77/77 31/80/80 81/78/78
f 20/79/79 83/109/109 81/78/78
f 84/81/81 83/109/109 20/79/79
f 13/83/83 80/73/73 84/81/81
f 36/84/84 37/110/110 86/85/85
f 86/85/85 37/110/110 4/87/87
f 4/87/87 30/90/90 87/89/89
f 36/84/84 88/86/86 87/89/89
f 105/91/91 19/95/95 8/92/92
f 105/91/91 104/97/97 17/94/94
f 106/96/96 14/111/111 17/94/94
f 8/92/92 14/111/111 106/96/96
