# Blender v2.82 (sub 7) OBJ File: 'gui.blend'
# www.blender.org
mtllib heart_p1.mtl
g heart_p1
v 0.000000 -0.638327 10.355092
v 1.653241 0.000000 8.999999
v 1.653241 5.590077 9.559007
v 1.653241 8.387960 6.141346
v 0.000000 6.817565 11.100681
v 0.000000 10.549306 6.542298
v 0.000000 -0.638327 -10.355092
v 1.653241 0.000000 -8.999999
v 1.653241 5.584260 0.000000
v 4.083778 -10.000000 0.000000
v 1.653241 5.590077 -9.559007
v 1.653241 8.387960 -6.141346
v 0.000000 6.809806 0.000000
v 0.000000 -13.976053 0.000000
v 0.000000 6.817565 -11.100681
v 0.000000 10.549306 -6.542298
vt 0.196637 0.575253
vt 0.231128 0.706223
vt 0.202079 0.704610
vt 0.168639 0.576007
vt 0.054993 0.430127
vt 0.164048 0.547000
vt 0.038644 0.913672
vt 0.334611 0.827263
vt 0.130833 0.912527
vt 0.058262 0.698322
vt 0.217954 0.545544
vt 0.223169 0.427292
vt 0.719514 0.895695
vt 0.196637 0.575253
vt 0.215628 0.572592
vt 0.054993 0.430127
vt 0.168639 0.576007
vt 0.164048 0.547000
vt 0.038644 0.913672
vt 0.334611 0.827263
vt 0.039219 0.899324
vt 0.058262 0.698322
vt 0.039219 0.899324
vt 0.202079 0.704610
vn 0.9071 0.4205 0.0177
vn 0.6301 0.7765 0.0000
vn 0.7983 0.5990 0.0623
vn 0.8939 0.1310 0.4287
vn 0.6533 -0.2637 0.7096
vn 0.8717 -0.1210 0.4747
vn 0.9211 0.3893 0.0000
vn 0.7574 0.2786 0.5904
vn 0.8870 -0.4617 0.0000
vn 0.6976 -0.7165 0.0000
vn 0.9071 0.4205 -0.0177
vn 0.6533 -0.2637 -0.7096
vn 0.8939 0.1310 -0.4287
vn 0.8717 -0.1210 -0.4747
vn 0.7574 0.2786 -0.5904
vn 0.7983 0.5990 -0.0623
usemtl Material
s 1
f 4/1/1 13/2/2 6/3/3
f 3/4/4 1/5/5 2/6/6
f 4/7/1 2/8/6 9/9/7
f 4/1/1 5/10/8 3/4/4
f 10/11/9 1/5/5 14/12/10
f 9/9/7 2/8/6 10/13/9
f 12/14/11 13/2/2 9/15/7
f 7/16/12 11/17/13 8/18/14
f 12/19/11 8/20/14 11/21/13
f 15/22/15 12/14/11 11/17/13
f 10/11/9 7/16/12 8/18/14
f 9/9/7 10/13/9 8/20/14
f 4/1/1 9/15/7 13/2/2
f 3/4/4 5/10/8 1/5/5
f 4/7/1 3/23/4 2/8/6
f 4/1/1 6/3/3 5/10/8
f 10/11/9 2/6/6 1/5/5
f 12/14/11 16/24/16 13/2/2
f 7/16/12 15/22/15 11/17/13
f 12/19/11 9/9/7 8/20/14
f 15/22/15 16/24/16 12/14/11
f 10/11/9 14/12/10 7/16/12
